<svg xmlns="http://www.w3.org/2000/svg"><defs><font horiz-adv-x="1579"><font-face units-per-em="2048" ascent="1536" descent="-512"/><glyph horiz-adv-x="0"/><glyph horiz-adv-x="0"/><glyph horiz-adv-x="682"/><glyph horiz-adv-x="493"/><glyph horiz-adv-x="493"/><glyph horiz-adv-x="493"/><glyph unicode="!" horiz-adv-x="444" d="M143 106l11 91 137 8 59-8 8-107-8-90-139-10-57 10z"/><glyph unicode="," horiz-adv-x="411" d="M135 106l10 89 138 10 59-10 8-105-8-90-127-289-68 29q26 60 49 137.5t23 114.5l-74 8z"/><glyph unicode="-" horiz-adv-x="788" d="M82 496v125h625v-125h-625z"/><glyph unicode="." horiz-adv-x="444" d="M143 106l11 91 137 8 59-8 8-107-8-90-139-10-57 10z"/><glyph unicode="0" horiz-adv-x="1200" d="M82 455q0 395 520 532 140 0 258.5-63.5t188-175.5 69.5-246q0-399-520-533-141 0-259.5 64t-187.5 175.5-69 246.5zm199 53q0-86 20-162t61-138.5 110.5-99 160.5-36.5q90 0 157.5 57.5t99.5 142 32 177.5q0 86-20.5 162t-62 138.5-111.5 99-161 36.5q-68 0-123.5-33.5t-90.5-88-53.5-120.5-18.5-135z"/><glyph unicode="1" horiz-adv-x="929" d="M53 776l461 191h59v-871l326-35-10-63-404 6-401-6-10 63 325 35v670l11 37-86-41-236-53z"/><glyph unicode="2" horiz-adv-x="1048" d="M41 86l367 276q149 113 214.5 187.5t65.5 144.5q0 80-47.5 133.5t-148.5 53.5q-69 0-132-39l-75-209h-135v211l372 143q159 0 255.5-72.5t96.5-189.5q0-58-16-107t-42-87.5-73.5-80-95.5-73.5-123-78l-303-178 182 47h584v-53l-49-115h-858z"/><glyph unicode="3" horiz-adv-x="948" d="M51-303h428q76 35 124 91t63.5 106 15.5 100q0 111-104 183.5t-293 72.5l-21 51 101 43q131 55 193.5 131.5t62.5 190.5q0 98-55.5 157.5t-133.5 59.5q-73 0-149-39l-76-211h-133v211l375 143q90 0 159-22.5t109.5-61.5 61-87 20.5-103q0-119-70.5-215t-200.5-156q152-10 245-93t93-198q0-66-15-121.5t-47-99-66-76-89.5-63.5-98-51-110.5-48l-155-63h-234v168z"/><glyph unicode="4" horiz-adv-x="1150" d="M20 86l670 870h195v-61l-690-786 75 26h383v221l121 105h51v-326h295v-112h-295v-494h-172v494h-565z"/><glyph unicode="5" horiz-adv-x="976" d="M92-303h414q112 54 167.5 143t55.5 172q0 118-82 202.5t-229 84.5q-105 0-193-35l-67-26-58 28 82 690h699v-55l-43-110h-572l-53-429 227 115q85 0 156.5-16.5t119-43 85-62.5 58.5-71.5 34-74 17.5-67 4.5-52.5q0-73-16-134.5t-49.5-109-71-84-94.5-69.5-104-54.5-115-48.5l-154-61h-219v168z"/><glyph unicode="6" horiz-adv-x="1099" d="M102 553q0 627 727 924l31-78q-128-64-221.5-128.5t-155.5-128.5-101-137-57-146-24-163l297 219q103 0 183.5-37t129-101 73-143.5 24.5-170.5q0-198-124-320.5t-356-173.5q-197 0-311.5 162.5t-114.5 421.5zm195 39q0-104 12-191t40-167 82.5-125.5 131.5-45.5q121 0 196 105.5t75 263.5q0 160-71 246t-171 86q-47 0-91.5-22.5t-111.5-73.5z"/><glyph unicode="7" horiz-adv-x="1009" d="M41 793v163h897l29-34-572-1393h-170v49l525 1143 75 72h-784z"/><glyph unicode="8" horiz-adv-x="1132" d="M104 338q0 121 76.5 230t227.5 180q-127 75-191.5 160t-64.5 192q0 264 436 364 185 0 296-81t111-212q0-228-295-399 76-46 125.5-81.5t100-84 75.5-103.5 25-118q0-165-120.5-266.5t-362.5-149.5q-189 0-314 107t-125 262zm183 59q0-133 78.5-232t201.5-99q113 0 197 69.5t84 181.5q0 36-12 72t-28 63.5-47 58.5-53.5 50.5-63.5 46.5-61 39-63 36-53 30q-104-68-142-133.5t-38-182.5zm45 752q0-40 20-80.5t47-71.5 74.5-69 81-60 88.5-57q92 61 131 128t39 161q0 114-65 191t-189 77q-101 0-164-60.5t-63-158.5z"/><glyph unicode="9" horiz-adv-x="1087" d="M80 489q0 202 119 323.5t360 174.5q198 0 312-160.5t114-425.5q0-610-715-901l-30 78q155 79 258.5 156.5t164 162 88 170 35.5 195.5l-297-217q-103 0-183.5 37.5t-128.5 101-72.5 141.5-24.5 164zm174 23q0-138 70.5-225.5t160.5-87.5q55 0 97.5 20t115.5 76l93 72q0 526-265 526-124 0-198-102t-74-279z"/><glyph unicode=":" horiz-adv-x="444" d="M143 106l11 91 137 8 59-8 8-107-8-90-139-10-57 10z"/><glyph unicode=";" horiz-adv-x="411" d="M135 106l10 89 138 10 59-10 8-105-8-90-127-289-68 29q26 60 49 137.5t23 114.5l-74 8z"/><glyph unicode="?" horiz-adv-x="444" d="M143 106l11 91 137 8 59-8 8-107-8-90-139-10-57 10z"/><glyph unicode="A" horiz-adv-x="1529" d="M23 61l170 23 520 1339 75 29 553-1368 166-23-10-63-256 6-278-6-11 63 183 27-148 397h-512l-139-397 184-27-10-63-254 6-223-6zm483 514h446l-202 541-17 109z"/><glyph unicode="B" horiz-adv-x="1312" d="M61 61l193 27v1258l-193 26 11 64 290-6 367 6h4q189 0 294-90 106-90 106-216 0-119-88.5-219t-223.5-139q187-7 293.5-107.5t106.5-242.5q0-83-27-148t-73.5-109.5-119.5-77.5-152.5-53-184.5-36l-302 6-290-6zm375 29l201-8q72 0 131.5 14t101.5 38.5 73 56 48.5 70 26 76 8.5 77.5q0 130-90.5 211.5t-247.5 81.5h-252v-617zm0 707h182q142 0 233 91.5t91 223.5q0 108-70 172.5t-196 67.5l-240-9v-546z"/><glyph unicode="C" horiz-adv-x="1439" d="M86 702q0 174 56 312t158.5 230.5 238.5 148.5 305 77q146 0 280-52.5t213-114.5v-252h-104l-66 188q-52 52-143.5 93.5t-204.5 41.5q-245 0-388.5-162.5t-143.5-463.5q0-99 24.5-196t74.5-184.5 120-154 167-106 208-39.5q127 0 260 106l114 223h105l-57-270q-94-47-237.5-97.5t-250.5-66.5q-142 0-272 49t-232.5 140-163.5 233.5-61 316.5z"/><glyph unicode="D" horiz-adv-x="1499" d="M61 61l193 27v1258l-193 26 11 64 282-6 391 6h7q307 0 483-176 178-178 178-502 0-676-692-760l-365 6-284-6zm375 45l271-20q224 3 362.5 177.5t138.5 469.5q0 130-35 240.5t-102.5 195.5-176.5 134.5-247 50.5l-211-11v-1237z"/><glyph unicode="E" horiz-adv-x="1280" d="M61 61l193 27v1258l-193 26 11 64 282-6 797 6 18-361h-57l-113 266-563 7v-560l303 9 82 215h62l-21-248 21-272h-62l-82 213-303 8v-627l584 6 137 277h68l-74-371-797 6-282-6z"/><glyph unicode="F" horiz-adv-x="1200" d="M61 61l193 27v1258l-193 26 11 64 282-6 797 6 18-357h-57l-113 262-563 7v-586l303 8 82 213h62l-21-248 21-272h-62l-82 215-303 8v-598l246-27-10-63-318 6-282-6z"/><glyph unicode="G" horiz-adv-x="1519" d="M86 705q0 173 52.5 308t151.5 226.5 231.5 148 301.5 82.5q149 0 291-53t215-112v-254h-90l-65 180q-58 56-154.5 99.5t-222.5 43.5q-232 0-371-166.5t-139-459.5q0-102 25.5-201t76-185 118.5-152 158.5-104 190.5-38q89 0 165.5 37.5t121.5 82.5v394l-185 26 11 62 266-6 221 6 8-62-139-26v-459q-369-132-530-160-142 0-269 48.5t-225.5 139.5-156.5 234.5-58 319.5z"/><glyph unicode="H" horiz-adv-x="1548" d="M61 61l193 27v1258l-193 26 11 64 274-6 264 6 11-64-185-26v-555h688v555l-196 26 10 64 279-6 260 6 10-64-180-26v-1258l180-27-10-63-260 6-279-6-10 63 196 27v608h-688v-608l185-27-11-63-264 6-274-6z"/><glyph unicode="I" horiz-adv-x="690" d="M61 63l193 27v1256l-193 26 11 64 274-6 272 6 11-64-193-26v-1256l193-27-11-65-272 6-274-6z"/><glyph unicode="J" horiz-adv-x="675" d="M-2-195h209l18 43q24 53 29.5 116.5t5.5 230.5v1151l-225 26 10 64 307-6 262 6 11-64-183-26v-1168q0-32 2-83 1-38 1-59 0-6-1-11 0-19-4.5-49t-15.5-50.5-31-42.5l-217-241h-178v163z"/><glyph unicode="K" horiz-adv-x="1417" d="M61 61l193 27v1258l-193 26 11 64 274-6 238 6 10-64-158-26v-584l56 31 575 553-149 26 10 64 213-6 192 6 10-64-159-33-576-567 39-27 639-665 109-19-11-63-174 6-135-6-610 674-29 53v-637l158-27-10-63-238 6-274-6z"/><glyph unicode="L" horiz-adv-x="1196" d="M61 61l193 27v1258l-193 26 11 64 282-6 264 6 11-64-193-26v-1260l531 6 129 273h71l-69-367-744 6-282-6z"/><glyph unicode="M" horiz-adv-x="1906" d="M61 1372l11 64 217-6 188 6 447-1104 22-99 502 1203 209-6 178 6 10-64-180-26v-1258l168-27-10-63-232 6-295-6-10 63 193 27v934l26 238-534-1260h-105l-417 1030-82 234v-1176l188-27-18-63-218 6-235-6-10 63 168 27v1251z"/><glyph unicode="N" horiz-adv-x="1523" d="M61 61l193 27v1239l-182 45 10 64 197-6 133 6 735-1071 39-103v1084l-180 26 10 64 219-6 258 6 10-64-192-26v-1350h-121l-780 1153-31 125v-1186l182-27-12-63-217 6-260-6z"/><glyph unicode="O" d="M86 688q0 338 178.5 530.5t544.5 251.5q149 0 276.5-55t217-151 140-230.5 50.5-288.5q0-338-178.5-530.5t-544.5-251.5q-149 0-276.5 55t-217 151-140 230.5-50.5 288.5zm201 66q0-95 17-188t57.5-184 100.5-160 152.5-111.5 206.5-42.5q120 0 212 48.5t147.5 134 83.5 194 28 235.5q0 94-16.5 186t-57 183.5-99.5 161-152 112.5-207 43q-120 0-212.5-48.5t-148.5-133.5-84-193.5-28-236.5z"/><glyph unicode="P" horiz-adv-x="1193" d="M61 61l193 27v1258l-193 26 11 64 268-6 377 6h8q196 0 320-93 126-95 126-268 0-99-42-180t-114.5-135-157.5-89-183-53h-238v-530l246-27-10-63-326 6-274-6zm375 652h187q156 0 251 93.5t95 240.5q0 141-76.5 224t-241.5 83l-215-11v-630z"/><glyph unicode="Q" d="M86 688q0 338 178.5 530.5t544.5 251.5q149 0 276.5-55t217-151 140-230.5 50.5-288.5q0-313-153.5-501t-465.5-260l205-84 219-158 109-33-8-59h-291l-338 313q-149 0-276.5 55t-217 151-140 230.5-50.5 288.5zm201 66q0-95 17-188t57.5-184 100.5-160 152.5-111.5 206.5-42.5q120 0 212 48.5t147.5 134 83.5 194 28 235.5q0 94-16.5 186t-57 183.5-99.5 161-152 112.5-207 43q-120 0-212.5-48.5t-148.5-133.5-84-193.5-28-236.5z"/><glyph unicode="R" horiz-adv-x="1372" d="M61 61l193 27v1258l-193 26 11 64 276-6 344 6h9q211 0 341-88 134-90 134-269 0-293-414-407l119-78 366-508 115-29-8-59-150 6-135-6-446 639-23 22h-164v-571l180-27-10-63-260 6-274-6zm375 682h148q175 0 280 91t105 231-87 213.5-225 75.5l-221-11v-600z"/><glyph unicode="S" horiz-adv-x="1153" d="M88 360h133l72-170q46-57 127.5-92t167.5-35q137 0 215 78t78 199q0 192-224 285l-245 104q-58 24-102 52t-82.5 67-59.5 93-21 120q0 69 25.5 128t69 103 105.5 79.5 129.5 59 146.5 39.5q94 0 190-31t168-87v-262h-88l-59 186q-44 46-99 71t-143 25q-125 0-195.5-63.5t-70.5-175.5q0-159 202-244l226-92q47-19 85-40t79.5-54.5 69.5-72 46.5-93.5 18.5-119q0-56-14.5-108.5t-50.5-106.5-91.5-98.5-143.5-82-200-59.5q-140 0-238 35t-182 104z"/><glyph unicode="T" horiz-adv-x="1222" d="M31 1090v346l575-6 586 6v-346h-72l-92 251-326 2v-1255l242-27-10-63-322 6-336-6-10 63 254 27v1255l-325-2-93-251h-71z"/><glyph unicode="U" horiz-adv-x="1468" d="M31 1372l10 64 285-6 264 6 10-64-182-26v-881q0-404 348-404 162 0 249 105.5t87 304.5v875l-189 26 11 64 262-6 241 6 11-64-178-26v-848q0-83-14.5-149t-50-126.5-94-107.5-148-85.5-210.5-66.5q-141 0-242.5 38.5t-161.5 111.5-88 170-28 223v840z"/><glyph unicode="V" horiz-adv-x="1519" d="M10 1372l10 64 267-6 280 6 11-64-183-26 381-1020 15-97 413 1117-184 26 10 64 246-6 223 6 10-64-170-22-532-1344-68-35-561 1379z"/><glyph unicode="W" horiz-adv-x="1984" d="M23 1372l10 64 219-6 252 6 10-64-182-26 317-1049 6-104 273 911-82 246-137 22 10 64 237-6 254 6 11-64-183-26 318-1049 4-102 352 1155-180 22 10 64 244-6 166 6 10-64-115-22-428-1330-125-49-284 865-6 114-291-930-125-49-449 1379z"/><glyph unicode="X" horiz-adv-x="1427" d="M20 63l160 23 449 619-426 647-168 22 10 64 305-8 266 8 11-64-183-26 254-433 27-75 344 506-186 26 10 64 231-6 252 6 10-64-163-22-428-588 454-676 158-23-10-65-289 6-270-6-11 65 183 27-277 455-37 82-366-539 176-25-10-65-232 6-233-6z"/><glyph unicode="Y" horiz-adv-x="1447" d="M10 1374l10 62 277-6 260 6 10-62-182-26 360-609 21-71 352 680-186 26 10 62 250-6 235 6 11-60-168-20-451-803 4-465 240-27-10-63-320 6-334-6-10 63 252 27v475l-463 789z"/><glyph unicode="Z" horiz-adv-x="1167" d="M43 100l799 1178 76 72-631-11-92-254h-82v349h958l21-91-803-1183-76-76 702 10 132 271h90l-70-365h-1006z"/><glyph unicode="_" horiz-adv-x="788" d="M82 496v125h625v-125h-625z"/><glyph unicode="a" horiz-adv-x="909" d="M61 227q0 49 15.5 89t50.5 94l463 155v99q0 44-1.5 68.5t-8 55-19.5 45.5-37.5 26-60.5 11q-76 0-182-39l-37-147h-150v143l352 160q97 0 154-13t92.5-52 47.5-100 12-165v-401q0-98 36-154h105l6-63-235-45-62 156-248-181q-131 0-212 69t-81 189zm164 17q0-74 36-108t89-34q10 0 20 1t20 4 18 5.5 18 7.5 15.5 8 15.5 9 13 8 12 8.5 10 6.5l98 67v260l-326-135q-39-42-39-108z"/><glyph unicode="b" horiz-adv-x="1112" d="M20 1389l232 65 94 8v-669l252 194q182 0 304-127.5t122-341.5q0-477-502-549-60 0-106.5 5t-82.5 17-54.5 19.5-52 27-44.5 25.5v1268l-151-4zm326-1237q36-40 93.5-63t127.5-23q132 0 208.5 107.5t76.5 289.5q0 168-63.5 273.5t-163.5 105.5-211-90l-68-56v-544z"/><glyph unicode="c" horiz-adv-x="903" d="M88 457q0 117 39.5 210.5t109 155.5 150 101.5 176.5 62.5q61 0 144-31t127-71v-187h-123l-49 152q-51 37-134 37-114 0-190-111.5t-76-281.5q0-172 87-281t237-109q96 0 241 91l25-72q-140-96-320-154-198 0-321 127t-123 361z"/><glyph unicode="d" horiz-adv-x="1126" d="M74 444q0 240 135 377t371 166q55 0 172-55v401l-152-4-10 62 237 63 88 8v-1198q0-96 37-153h123l8-68-254-49-63 153-268-178q-193 0-308.5 131t-115.5 344zm172 52q0-172 62.5-275.5t160.5-103.5q101 0 215 92l68 55v545q-76 88-220 88-131 0-208.5-108t-77.5-293z"/><glyph unicode="e" horiz-adv-x="960" d="M76 469q0 117 35 209t98.5 153 142.5 99 176 57q97 0 167-29t110-82.5 58-120.5 18-151v-78h-635v-8q0-184 94-298 96-116 262-116 107 0 256 89l29-74q-153-96-348-150-91 0-173 32.5t-147.5 93-104 157.5-38.5 217zm172 135l444 21q0 51-4.5 89t-17.5 73.5-35.5 57.5-59.5 35-88 13q-98 0-161-79t-78-210z"/><glyph unicode="f" horiz-adv-x="700" d="M53 852v33l58 67h127v19q0 91 26.5 158t83.5 135l158 190h250v-151h-267l-40-58q-48-61-48-237v-66h254v-90h-254v-772l244-10-10-72-295 6-244-6-10 63 152 19v772h-185z"/><glyph unicode="g" horiz-adv-x="1030" d="M43-180l217 180q-42 17-69.5 36t-42 34.5-21 42.5-7.5 42.5-1 51.5v4l200 143q-98 33-155.5 101.5t-57.5 160.5q0 271 386 371 88 0 168-29t126-81l117 110h117v-149h-109l-77-37q22-49 22-103 0-268-385-366-48 0-68 2l-124-141q0-32 19-52t52-20h375q136 0 200-54t64-149q0-120-140.5-237.5t-367.5-182.5q-226 0-332 72t-106 219v31zm160-39q0-75 81-123.5t203-48.5q129 0 228.5 77t99.5 189q0 58-47.5 81.5t-161.5 23.5h-278q-56-62-85-104.5t-34.5-59.5-5.5-35zm73 899q0-28 5.5-58.5t21.5-67 40-64.5 65.5-47 93.5-19q86 0 135 50.5t49 139.5q0 32-5 66t-20.5 74.5-39 71.5-65 52-93.5 21q-87 0-137-58.5t-50-160.5z"/><glyph unicode="h" horiz-adv-x="1183" d="M63 1389l230 65 94 8v-669l297 194q80 0 134-14t87.5-39.5 51-73.5 23-102 5.5-140v-538l164-19-10-63-230 6-182-6-10 63 106 19v594q0 166-139 166-67 0-229-99l-68-41v-620l121-19-10-63-187 6-229-6-10 63 151 19v1253l-149-4z"/><glyph unicode="i" horiz-adv-x="591" d="M61 889l232 65 94 9v-883l164-19-10-63-230 6-229-6-10 63 151 19v758l-151-13zm136 428l18 92 133 10 53-10 11-106-21-93-131-12-51 12z"/><glyph unicode="j" horiz-adv-x="534" d="M-35-319h191l22 45q13 26 20.5 45t15 64.5 7.5 105.5v897l-151-13-11 64 232 65 94 9v-994q0-77-18-132.5t-68-117.5l-172-200h-162v162zm230 1636l18 92 133 10 53-10 11-106-21-93-131-12-51 12z"/><glyph unicode="k" horiz-adv-x="1087" d="M61 1389l230 65 94 8v-907l55 23 334 299-43 18v63l156-6 143 6 10-63-106-18-395-326 36-23 408-448 94-19-8-63-154 6-116-6-393 479-21 41v-438l123-19-10-63-181 6-237-6-10 63 151 19v1249l-149-4z"/><glyph unicode="l" horiz-adv-x="581" d="M63 1389l230 65 94 8v-1382l164-19-10-63-230 6-229-6-10 63 151 19v1249l-149-4z"/><glyph unicode="m" horiz-adv-x="1736" d="M61 889l234 65 78 7 8-173 285 199q144 0 206-47t80-156l287 203q67 0 115-8.5t81.5-29.5 53.5-47.5 31-72 14.5-92.5 3.5-119v-538l164-19-10-63-234 6-182-6-10 63 110 19v594q0 164-127 164-84 0-221-99l-65-45v-614l96-19-10-63-160 6-176-6-11 63 99 19v594q0 164-127 164-84 0-221-99l-68-45v-614l111-19-11-63-170 6-235-6-10 63 151 19v760l-149-15z"/><glyph unicode="n" horiz-adv-x="1183" d="M61 889l230 65 78 7 12-175 301 201q81 0 134.5-12.5t87-35.5 51-67 23-94 5.5-131v-567l166-19-10-63-230 6-186-6-10 63 108 19v594q0 166-145 166-35 0-78-17t-68-32.5-77-49.5l-68-43v-618l121-19-10-63-187 6-229-6-10 63 151 19v760l-149-15z"/><glyph unicode="o" horiz-adv-x="1097" d="M76 457q0 223 124 357.5t367 172.5q134 0 238.5-65.5t160.5-176.5 56-247q0-222-125-358t-365-171q-203 0-329.5 140t-126.5 348zm172 26q0-106 39.5-201t117-157 175.5-62q88 0 151 57t92 147 29 202q0 184-92 304t-240 120q-89 0-151.5-57.5t-91.5-148-29-204.5z"/><glyph unicode="p" horiz-adv-x="1112" d="M31 889l233 65 78 7 10-170 258 196q210 0 317-126.5t107-356.5q0-102-25-185.5t-69.5-142.5-108.5-102-138-68-163-37q-97 0-174 49v-407l224-21-11-63-286 6-232-6-10 63 152 21v1231l-152-15zm325-701q36-57 102-89.5t142-32.5q119 0 190.5 104.5t71.5 278.5q0 179-61.5 291t-161.5 112q-79 0-215-102l-68-52v-510z"/><glyph unicode="q" horiz-adv-x="1079" d="M74 457q0 232 136 367t384 163q87 0 229-88l70 78h25v-1366l151-21-10-63-232 6-286-6-11 63 224 21v524l-244-166q-199 0-317.5 131.5t-118.5 356.5zm172 49q0-182 74-292t180-110q61 0 123 39l131 93v509q-48 150-209 150-140 0-219.5-104.5t-79.5-284.5z"/><glyph unicode="r" horiz-adv-x="796" d="M61 889l238 65 74 7-2-256 237 272h156v-180h-133q-36-5-100.5-50.5t-106.5-97.5l-45-55v-506l213-18-10-72-279 6-221-6-10 63 151 19v760l-151-15z"/><glyph unicode="s" horiz-adv-x="858" d="M59 276h129l76-174q70-39 162-39 84 0 128 48t44 120q0 61-34.5 98t-121.5 83l-166 86q-67 34-114 92.5t-47 136.5q0 101 92.5 163.5t263.5 96.5q65 0 149-30.5t134-67.5v-187h-107l-47 154q-1 0-14.5 6t-26.5 10.5-32 10-40.5 9-42.5 3.5q-64 0-111.5-34t-47.5-95q0-48 35-83.5t106-72.5l160-82q104-53 147-113.5t43-148.5q0-66-26-115t-78.5-83-115-56.5-153.5-42.5q-88 0-174 33t-131 64z"/><glyph unicode="t" horiz-adv-x="698" d="M10 850v35l70 67h141v131l115 127h39v-274h319v-86h-317v-617q0-120 110-120 63 0 162 47l31-62-227-129q-160 0-206 58-32 38-34 137v686h-203z"/><glyph unicode="u" horiz-adv-x="1142" d="M18 903l238 51 88 9v-687q0-84 36.5-121.5t115.5-37.5q34 0 79.5 18.5t79 39 88.5 56.5l43 27v582l-129-11-10 74 215 51 88 9v-699q0-95 23-158h108l9-63-240-49-57 162-301-187q-82 0-138 13.5t-90 37.5-52 68.5-24 93.5-6 127v531l-153-11z"/><glyph unicode="v" horiz-adv-x="1112" d="M10 895l10 63 224-6 209 6 10-63-144-21 234-622 16-133 256 755-94 21 10 63 177-6 174 6 10-63-135-21-342-841-127-64-353 905z"/><glyph unicode="w" horiz-adv-x="1693" d="M10 895l10 63 213-6 187 6 10-63-121-21 211-634 17-109 243 670-26 73-86 21 10 63 164-6 184 6 10-63-118-21 210-634 17-109 266 743-94 21 10 63 137-6 209 6 10-63-135-21-336-839-145-64-207 596-10 133-246-665-145-64-314 903z"/><glyph unicode="x" horiz-adv-x="1083" d="M20 61l154 21 301 383-297 407-131 21 10 65 234-6 166 6 10-65-78-21 160-241 16-47 191 288-109 21 10 65 152-6 221 6 10-65-155-21-267-331 320-459 135-21-10-63-242 6-164-6-10 63 84 21-190 285-13 39-217-324 97-21-11-63-143 6-223-6z"/><glyph unicode="y" horiz-adv-x="1093" d="M10 895l10 63 224-6 209 6 10-63-144-21 224-622 14-131 254 753-94 21 10 63 176-6 170 6 10-63-135-21-327-845-228-510h-221v182h156l200 319-47-14-336 868z"/><glyph unicode="z" horiz-adv-x="946" d="M78 59l549 760 75 62-428-9-65-178h-74v262h715l29-59-557-772-66-49 446 6 113 190h80l-57-272h-738z"/><glyph unicode="­" horiz-adv-x="788" d="M82 496v125h625v-125h-625z"/><glyph unicode="À" horiz-adv-x="1529" d="M23 61l170 23 520 1339 75 29 553-1368 166-23-10-63-256 6-278-6-11 63 183 27-148 397h-512l-139-397 184-27-10-63-254 6-223-6zm483 514h446l-202 541-17 109z"/><glyph unicode="Á" horiz-adv-x="1529" d="M23 61l170 23 520 1339 75 29 553-1368 166-23-10-63-256 6-278-6-11 63 183 27-148 397h-512l-139-397 184-27-10-63-254 6-223-6zm483 514h446l-202 541-17 109z"/><glyph unicode="Â" horiz-adv-x="1529" d="M23 61l170 23 520 1339 75 29 553-1368 166-23-10-63-256 6-278-6-11 63 183 27-148 397h-512l-139-397 184-27-10-63-254 6-223-6zm483 514h446l-202 541-17 109z"/><glyph unicode="Ã" horiz-adv-x="1529" d="M23 61l170 23 520 1339 75 29 553-1368 166-23-10-63-256 6-278-6-11 63 183 27-148 397h-512l-139-397 184-27-10-63-254 6-223-6zm483 514h446l-202 541-17 109z"/><glyph unicode="Ä" horiz-adv-x="1529" d="M23 61l170 23 520 1339 75 29 553-1368 166-23-10-63-256 6-278-6-11 63 183 27-148 397h-512l-139-397 184-27-10-63-254 6-223-6zm483 514h446l-202 541-17 109z"/><glyph unicode="Å" horiz-adv-x="1529" d="M23 61l170 23 520 1339 75 29 553-1368 166-23-10-63-256 6-278-6-11 63 183 27-148 397h-512l-139-397 184-27-10-63-254 6-223-6zm483 514h446l-202 541-17 109z"/><glyph unicode="Æ" horiz-adv-x="2809" d="M23 61l170 23 520 1339 75 29 553-1368 166-23-10-63-256 6-278-6-11 63 183 27-148 397h-512l-139-397 184-27-10-63-254 6-223-6zm483 514h446l-202 541-17 109zm1085-514l193 27v1258l-193 26 11 64 282-6 797 6 18-361h-57l-113 266-563 7v-560l303 9 82 215h62l-21-248 21-272h-62l-82 213-303 8v-627l584 6 137 277h68l-74-371-797 6-282-6z"/><glyph unicode="Ç" horiz-adv-x="1439" d="M86 702q0 174 56 312t158.5 230.5 238.5 148.5 305 77q146 0 280-52.5t213-114.5v-252h-104l-66 188q-52 52-143.5 93.5t-204.5 41.5q-245 0-388.5-162.5t-143.5-463.5q0-99 24.5-196t74.5-184.5 120-154 167-106 208-39.5q127 0 260 106l114 223h105l-57-270q-94-47-237.5-97.5t-250.5-66.5q-142 0-272 49t-232.5 140-163.5 233.5-61 316.5z"/><glyph unicode="È" horiz-adv-x="1280" d="M61 61l193 27v1258l-193 26 11 64 282-6 797 6 18-361h-57l-113 266-563 7v-560l303 9 82 215h62l-21-248 21-272h-62l-82 213-303 8v-627l584 6 137 277h68l-74-371-797 6-282-6z"/><glyph unicode="É" horiz-adv-x="1280" d="M61 61l193 27v1258l-193 26 11 64 282-6 797 6 18-361h-57l-113 266-563 7v-560l303 9 82 215h62l-21-248 21-272h-62l-82 213-303 8v-627l584 6 137 277h68l-74-371-797 6-282-6z"/><glyph unicode="Ê" horiz-adv-x="1280" d="M61 61l193 27v1258l-193 26 11 64 282-6 797 6 18-361h-57l-113 266-563 7v-560l303 9 82 215h62l-21-248 21-272h-62l-82 213-303 8v-627l584 6 137 277h68l-74-371-797 6-282-6z"/><glyph unicode="Ë" horiz-adv-x="1280" d="M61 61l193 27v1258l-193 26 11 64 282-6 797 6 18-361h-57l-113 266-563 7v-560l303 9 82 215h62l-21-248 21-272h-62l-82 213-303 8v-627l584 6 137 277h68l-74-371-797 6-282-6z"/><glyph unicode="Ì" horiz-adv-x="690" d="M61 63l193 27v1256l-193 26 11 64 274-6 272 6 11-64-193-26v-1256l193-27-11-65-272 6-274-6z"/><glyph unicode="Í" horiz-adv-x="690" d="M61 63l193 27v1256l-193 26 11 64 274-6 272 6 11-64-193-26v-1256l193-27-11-65-272 6-274-6z"/><glyph unicode="Î" horiz-adv-x="690" d="M61 63l193 27v1256l-193 26 11 64 274-6 272 6 11-64-193-26v-1256l193-27-11-65-272 6-274-6z"/><glyph unicode="Ï" horiz-adv-x="690" d="M61 63l193 27v1256l-193 26 11 64 274-6 272 6 11-64-193-26v-1256l193-27-11-65-272 6-274-6z"/><glyph unicode="Ð" horiz-adv-x="1499" d="M61 61l193 27v1258l-193 26 11 64 282-6 391 6q312 2 490-175.5t178-502.5q0-676-692-760l-365 6-284-6zm375 45l271-20q224 3 362.5 177.5t138.5 469.5q0 130-35 240.5t-102.5 195.5-176.5 134.5-247 50.5l-211-11v-1237z"/><glyph unicode="Ñ" horiz-adv-x="1523" d="M61 61l193 27v1239l-182 45 10 64 197-6 133 6 735-1071 39-103v1084l-180 26 10 64 219-6 258 6 10-64-192-26v-1350h-121l-780 1153-31 125v-1186l182-27-12-63-217 6-260-6z"/><glyph unicode="Ò" d="M86 688q0 338 178.5 530.5t544.5 251.5q149 0 276.5-55t217-151 140-230.5 50.5-288.5q0-338-178.5-530.5t-544.5-251.5q-149 0-276.5 55t-217 151-140 230.5-50.5 288.5zm201 66q0-95 17-188t57.5-184 100.5-160 152.5-111.5 206.5-42.5q120 0 212 48.5t147.5 134 83.5 194 28 235.5q0 94-16.5 186t-57 183.5-99.5 161-152 112.5-207 43q-120 0-212.5-48.5t-148.5-133.5-84-193.5-28-236.5z"/><glyph unicode="Ó" d="M86 688q0 338 178.5 530.5t544.5 251.5q149 0 276.5-55t217-151 140-230.5 50.5-288.5q0-338-178.5-530.5t-544.5-251.5q-149 0-276.5 55t-217 151-140 230.5-50.5 288.5zm201 66q0-95 17-188t57.5-184 100.5-160 152.5-111.5 206.5-42.5q120 0 212 48.5t147.5 134 83.5 194 28 235.5q0 94-16.5 186t-57 183.5-99.5 161-152 112.5-207 43q-120 0-212.5-48.5t-148.5-133.5-84-193.5-28-236.5z"/><glyph unicode="Ô" d="M86 688q0 338 178.5 530.5t544.5 251.5q149 0 276.5-55t217-151 140-230.5 50.5-288.5q0-338-178.5-530.5t-544.5-251.5q-149 0-276.5 55t-217 151-140 230.5-50.5 288.5zm201 66q0-95 17-188t57.5-184 100.5-160 152.5-111.5 206.5-42.5q120 0 212 48.5t147.5 134 83.5 194 28 235.5q0 94-16.5 186t-57 183.5-99.5 161-152 112.5-207 43q-120 0-212.5-48.5t-148.5-133.5-84-193.5-28-236.5z"/><glyph unicode="Õ" d="M86 688q0 338 178.5 530.5t544.5 251.5q149 0 276.5-55t217-151 140-230.5 50.5-288.5q0-338-178.5-530.5t-544.5-251.5q-149 0-276.5 55t-217 151-140 230.5-50.5 288.5zm201 66q0-95 17-188t57.5-184 100.5-160 152.5-111.5 206.5-42.5q120 0 212 48.5t147.5 134 83.5 194 28 235.5q0 94-16.5 186t-57 183.5-99.5 161-152 112.5-207 43q-120 0-212.5-48.5t-148.5-133.5-84-193.5-28-236.5z"/><glyph unicode="Ö" d="M86 688q0 338 178.5 530.5t544.5 251.5q149 0 276.5-55t217-151 140-230.5 50.5-288.5q0-338-178.5-530.5t-544.5-251.5q-149 0-276.5 55t-217 151-140 230.5-50.5 288.5zm201 66q0-95 17-188t57.5-184 100.5-160 152.5-111.5 206.5-42.5q120 0 212 48.5t147.5 134 83.5 194 28 235.5q0 94-16.5 186t-57 183.5-99.5 161-152 112.5-207 43q-120 0-212.5-48.5t-148.5-133.5-84-193.5-28-236.5z"/><glyph unicode="Ø" d="M86 688q0 338 178.5 530.5t544.5 251.5q149 0 276.5-55t217-151 140-230.5 50.5-288.5q0-338-178.5-530.5t-544.5-251.5q-149 0-276.5 55t-217 151-140 230.5-50.5 288.5zm201 66q0-95 17-188t57.5-184 100.5-160 152.5-111.5 206.5-42.5q120 0 212 48.5t147.5 134 83.5 194 28 235.5q0 94-16.5 186t-57 183.5-99.5 161-152 112.5-207 43q-120 0-212.5-48.5t-148.5-133.5-84-193.5-28-236.5z"/><glyph unicode="Ù" horiz-adv-x="1468" d="M31 1372l10 64 285-6 264 6 10-64-182-26v-881q0-404 348-404 162 0 249 105.5t87 304.5v875l-189 26 11 64 262-6 241 6 11-64-178-26v-848q0-83-14.5-149t-50-126.5-94-107.5-148-85.5-210.5-66.5q-141 0-242.5 38.5t-161.5 111.5-88 170-28 223v840z"/><glyph unicode="Ú" horiz-adv-x="1468" d="M31 1372l10 64 285-6 264 6 10-64-182-26v-881q0-404 348-404 162 0 249 105.5t87 304.5v875l-189 26 11 64 262-6 241 6 11-64-178-26v-848q0-83-14.5-149t-50-126.5-94-107.5-148-85.5-210.5-66.5q-141 0-242.5 38.5t-161.5 111.5-88 170-28 223v840z"/><glyph unicode="Û" horiz-adv-x="1468" d="M31 1372l10 64 285-6 264 6 10-64-182-26v-881q0-404 348-404 162 0 249 105.5t87 304.5v875l-189 26 11 64 262-6 241 6 11-64-178-26v-848q0-83-14.5-149t-50-126.5-94-107.5-148-85.5-210.5-66.5q-141 0-242.5 38.5t-161.5 111.5-88 170-28 223v840z"/><glyph unicode="Ü" horiz-adv-x="1468" d="M31 1372l10 64 285-6 264 6 10-64-182-26v-881q0-404 348-404 162 0 249 105.5t87 304.5v875l-189 26 11 64 262-6 241 6 11-64-178-26v-848q0-83-14.5-149t-50-126.5-94-107.5-148-85.5-210.5-66.5q-141 0-242.5 38.5t-161.5 111.5-88 170-28 223v840z"/><glyph unicode="Ý" horiz-adv-x="1447" d="M10 1374l10 62 277-6 260 6 10-62-182-26 360-609 21-71 352 680-186 26 10 62 250-6 235 6 11-60-168-20-451-803 4-465 240-27-10-63-320 6-334-6-10 63 252 27v475l-463 789z"/><glyph unicode="Þ" horiz-adv-x="1193" d="M61 61l193 27v1258l-193 26 11 64 268-6 377 6q202 2 328-93t126-268q0-99-42-180t-114.5-135-157.5-89-183-53h-238v-530l246-27-10-63-326 6-274-6zm375 652h187q156 0 251 93.5t95 240.5q0 141-76.5 224t-241.5 83l-215-11v-630z"/><glyph unicode="ß" horiz-adv-x="1716" d="M59 276h129l76-174q70-39 162-39 84 0 128 48t44 120q0 61-34.5 98t-121.5 83l-166 86q-67 34-114 92.5t-47 136.5q0 101 92.5 163.5t263.5 96.5q65 0 149-30.5t134-67.5v-187h-107l-47 154q-1 0-14.5 6t-26.5 10.5-32 10-40.5 9-42.5 3.5q-64 0-111.5-34t-47.5-95q0-48 35-83.5t106-72.5l160-82q104-53 147-113.5t43-148.5q0-66-26-115t-78.5-83-115-56.5-153.5-42.5q-88 0-174 33t-131 64zm859 0h129l75-174q70-39 162-39 84 0 128 48t44 120q0 61-34.5 98t-121.5 83l-165 86q-68 34-115 92.5t-47 136.5q0 101 92.5 163.5t263.5 96.5q65 0 149-30.5t134-67.5v-187h-107l-47 154q-1 0-14.5 6t-26.5 10.5-31.5 10-40 9-42.5 3.5q-64 0-112-34t-48-95q0-48 35-83.5t106-72.5l160-82q104-53 147-113.5t43-148.5q0-66-25.5-115t-78-83-115-56.5-153.5-42.5q-88 0-174.5 33t-131.5 64z"/><glyph unicode="à" horiz-adv-x="909" d="M61 227q0 49 15.5 89t50.5 94l463 155v99q0 44-1.5 68.5t-8 55-19.5 45.5-37.5 26-60.5 11q-76 0-182-39l-37-147h-150v143l352 160q97 0 154-13t92.5-52 47.5-100 12-165v-401q0-98 36-154h105l6-63-235-45-62 156-248-181q-131 0-212 69t-81 189zm164 17q0-74 36-108t89-34q10 0 20 1t20 4 18 5.5 18 7.5 15.5 8 15.5 9 13 8 12 8.5 10 6.5l98 67v260l-326-135q-39-42-39-108z"/><glyph unicode="á" horiz-adv-x="909" d="M61 227q0 49 15.5 89t50.5 94l463 155v99q0 44-1.5 68.5t-8 55-19.5 45.5-37.5 26-60.5 11q-76 0-182-39l-37-147h-150v143l352 160q97 0 154-13t92.5-52 47.5-100 12-165v-401q0-98 36-154h105l6-63-235-45-62 156-248-181q-131 0-212 69t-81 189zm164 17q0-74 36-108t89-34q10 0 20 1t20 4 18 5.5 18 7.5 15.5 8 15.5 9 13 8 12 8.5 10 6.5l98 67v260l-326-135q-39-42-39-108z"/><glyph unicode="â" horiz-adv-x="909" d="M61 227q0 49 15.5 89t50.5 94l463 155v99q0 44-1.5 68.5t-8 55-19.5 45.5-37.5 26-60.5 11q-76 0-182-39l-37-147h-150v143l352 160q97 0 154-13t92.5-52 47.5-100 12-165v-401q0-98 36-154h105l6-63-235-45-62 156-248-181q-131 0-212 69t-81 189zm164 17q0-74 36-108t89-34q10 0 20 1t20 4 18 5.5 18 7.5 15.5 8 15.5 9 13 8 12 8.5 10 6.5l98 67v260l-326-135q-39-42-39-108z"/><glyph unicode="ã" horiz-adv-x="909" d="M61 227q0 49 15.5 89t50.5 94l463 155v99q0 44-1.5 68.5t-8 55-19.5 45.5-37.5 26-60.5 11q-76 0-182-39l-37-147h-150v143l352 160q97 0 154-13t92.5-52 47.5-100 12-165v-401q0-98 36-154h105l6-63-235-45-62 156-248-181q-131 0-212 69t-81 189zm164 17q0-74 36-108t89-34q10 0 20 1t20 4 18 5.5 18 7.5 15.5 8 15.5 9 13 8 12 8.5 10 6.5l98 67v260l-326-135q-39-42-39-108z"/><glyph unicode="ä" horiz-adv-x="909" d="M61 227q0 49 15.5 89t50.5 94l463 155v99q0 44-1.5 68.5t-8 55-19.5 45.5-37.5 26-60.5 11q-76 0-182-39l-37-147h-150v143l352 160q97 0 154-13t92.5-52 47.5-100 12-165v-401q0-98 36-154h105l6-63-235-45-62 156-248-181q-131 0-212 69t-81 189zm164 17q0-74 36-108t89-34q10 0 20 1t20 4 18 5.5 18 7.5 15.5 8 15.5 9 13 8 12 8.5 10 6.5l98 67v260l-326-135q-39-42-39-108z"/><glyph unicode="å" horiz-adv-x="909" d="M61 227q0 49 15.5 89t50.5 94l463 155v99q0 44-1.5 68.5t-8 55-19.5 45.5-37.5 26-60.5 11q-76 0-182-39l-37-147h-150v143l352 160q97 0 154-13t92.5-52 47.5-100 12-165v-401q0-98 36-154h105l6-63-235-45-62 156-248-181q-131 0-212 69t-81 189zm164 17q0-74 36-108t89-34q10 0 20 1t20 4 18 5.5 18 7.5 15.5 8 15.5 9 13 8 12 8.5 10 6.5l98 67v260l-326-135q-39-42-39-108z"/><glyph unicode="æ" horiz-adv-x="1869" d="M61 227q0 49 15.5 89t50.5 94l463 155v99q0 44-1.5 68.5t-8 55-19.5 45.5-37.5 26-60.5 11q-76 0-182-39l-37-147h-150v143l352 160q97 0 154-13t92.5-52 47.5-100 12-165v-401q0-98 36-154h105l6-63-235-45-62 156-248-181q-131 0-212 69t-81 189zm164 17q0-74 36-108t89-34q10 0 20 1t20 4 18 5.5 18 7.5 15.5 8 15.5 9 13 8 12 8.5 10 6.5l98 67v260l-326-135q-39-42-39-108zm760 225q0 117 35 209t99 153 143 99 176 57q352 0 352-383v-78h-635q-2-189 93.5-305.5t262.5-116.5q107 0 256 89l29-74q-153-96-348-150-91 0-173 32.5t-147.5 93-104 157.5-38.5 217zm172 135l445 21q0 51-4.5 89t-17.5 73.5-35.5 57.5-59.5 35-88 13q-98 0-161.5-79t-78.5-210z"/><glyph unicode="ç" horiz-adv-x="903" d="M88 457q0 117 39.5 210.5t109 155.5 150 101.5 176.5 62.5q61 0 144-31t127-71v-187h-123l-49 152q-51 37-134 37-114 0-190-111.5t-76-281.5q0-172 87-281t237-109q96 0 241 91l25-72q-140-96-320-154-198 0-321 127t-123 361z"/><glyph unicode="è" horiz-adv-x="960" d="M76 469q0 117 35 209t98.5 153 142.5 99 176 57q97 0 167-29t110-82.5 58-120.5 18-151v-78h-635q-2-189 93.5-305.5t262.5-116.5q107 0 256 89l29-74q-153-96-348-150-91 0-173 32.5t-147.5 93-104 157.5-38.5 217zm172 135l444 21q0 51-4.5 89t-17.5 73.5-35.5 57.5-59.5 35-88 13q-98 0-161-79t-78-210z"/><glyph unicode="é" horiz-adv-x="960" d="M76 469q0 117 35 209t98.5 153 142.5 99 176 57q97 0 167-29t110-82.5 58-120.5 18-151v-78h-635q-2-189 93.5-305.5t262.5-116.5q107 0 256 89l29-74q-153-96-348-150-91 0-173 32.5t-147.5 93-104 157.5-38.5 217zm172 135l444 21q0 51-4.5 89t-17.5 73.5-35.5 57.5-59.5 35-88 13q-98 0-161-79t-78-210z"/><glyph unicode="ê" horiz-adv-x="960" d="M76 469q0 117 35 209t98.5 153 142.5 99 176 57q97 0 167-29t110-82.5 58-120.5 18-151v-78h-635q-2-189 93.5-305.5t262.5-116.5q107 0 256 89l29-74q-153-96-348-150-91 0-173 32.5t-147.5 93-104 157.5-38.5 217zm172 135l444 21q0 51-4.5 89t-17.5 73.5-35.5 57.5-59.5 35-88 13q-98 0-161-79t-78-210z"/><glyph unicode="ë" horiz-adv-x="960" d="M76 469q0 117 35 209t98.5 153 142.5 99 176 57q97 0 167-29t110-82.5 58-120.5 18-151v-78h-635q-2-189 93.5-305.5t262.5-116.5q107 0 256 89l29-74q-153-96-348-150-91 0-173 32.5t-147.5 93-104 157.5-38.5 217zm172 135l444 21q0 51-4.5 89t-17.5 73.5-35.5 57.5-59.5 35-88 13q-98 0-161-79t-78-210z"/><glyph unicode="ì" horiz-adv-x="591" d="M61 889l232 65 94 9v-883l164-19-10-63-230 6-229-6-10 63 151 19v758l-151-13zm136 428l18 92 133 10 53-10 11-106-21-93-131-12-51 12z"/><glyph unicode="í" horiz-adv-x="591" d="M61 889l232 65 94 9v-883l164-19-10-63-230 6-229-6-10 63 151 19v758l-151-13zm136 428l18 92 133 10 53-10 11-106-21-93-131-12-51 12z"/><glyph unicode="î" horiz-adv-x="591" d="M61 889l232 65 94 9v-883l164-19-10-63-230 6-229-6-10 63 151 19v758l-151-13zm136 428l18 92 133 10 53-10 11-106-21-93-131-12-51 12z"/><glyph unicode="ï" horiz-adv-x="591" d="M61 889l232 65 94 9v-883l164-19-10-63-230 6-229-6-10 63 151 19v758l-151-13zm136 428l18 92 133 10 53-10 11-106-21-93-131-12-51 12z"/><glyph unicode="ñ" horiz-adv-x="1183" d="M61 889l230 65 78 7 12-175 301 201q81 0 134.5-12.5t87-35.5 51-67 23-94 5.5-131v-567l166-19-10-63-230 6-186-6-10 63 108 19v594q0 166-145 166-35 0-78-17t-68-32.5-77-49.5l-68-43v-618l121-19-10-63-187 6-229-6-10 63 151 19v760l-149-15z"/><glyph unicode="ò" horiz-adv-x="1097" d="M76 457q0 223 124 357.5t367 172.5q134 0 238.5-65.5t160.5-176.5 56-247q0-222-125-358t-365-171q-203 0-329.5 140t-126.5 348zm172 26q0-106 39.5-201t117-157 175.5-62q88 0 151 57t92 147 29 202q0 184-92 304t-240 120q-89 0-151.5-57.5t-91.5-148-29-204.5z"/><glyph unicode="ó" horiz-adv-x="1097" d="M76 457q0 223 124 357.5t367 172.5q134 0 238.5-65.5t160.5-176.5 56-247q0-222-125-358t-365-171q-203 0-329.5 140t-126.5 348zm172 26q0-106 39.5-201t117-157 175.5-62q88 0 151 57t92 147 29 202q0 184-92 304t-240 120q-89 0-151.5-57.5t-91.5-148-29-204.5z"/><glyph unicode="ô" horiz-adv-x="1097" d="M76 457q0 223 124 357.5t367 172.5q134 0 238.5-65.5t160.5-176.5 56-247q0-222-125-358t-365-171q-203 0-329.5 140t-126.5 348zm172 26q0-106 39.5-201t117-157 175.5-62q88 0 151 57t92 147 29 202q0 184-92 304t-240 120q-89 0-151.5-57.5t-91.5-148-29-204.5z"/><glyph unicode="õ" horiz-adv-x="1097" d="M76 457q0 223 124 357.5t367 172.5q134 0 238.5-65.5t160.5-176.5 56-247q0-222-125-358t-365-171q-203 0-329.5 140t-126.5 348zm172 26q0-106 39.5-201t117-157 175.5-62q88 0 151 57t92 147 29 202q0 184-92 304t-240 120q-89 0-151.5-57.5t-91.5-148-29-204.5z"/><glyph unicode="ö" horiz-adv-x="1097" d="M76 457q0 223 124 357.5t367 172.5q134 0 238.5-65.5t160.5-176.5 56-247q0-222-125-358t-365-171q-203 0-329.5 140t-126.5 348zm172 26q0-106 39.5-201t117-157 175.5-62q88 0 151 57t92 147 29 202q0 184-92 304t-240 120q-89 0-151.5-57.5t-91.5-148-29-204.5z"/><glyph unicode="ø" horiz-adv-x="1097" d="M76 457q0 223 124 357.5t367 172.5q134 0 238.5-65.5t160.5-176.5 56-247q0-222-125-358t-365-171q-203 0-329.5 140t-126.5 348zm172 26q0-106 39.5-201t117-157 175.5-62q88 0 151 57t92 147 29 202q0 184-92 304t-240 120q-89 0-151.5-57.5t-91.5-148-29-204.5z"/><glyph unicode="ù" horiz-adv-x="1142" d="M18 903l238 51 88 9v-687q0-84 36.5-121.5t115.5-37.5q34 0 79.5 18.5t79 39 88.5 56.5l43 27v582l-129-11-10 74 215 51 88 9v-699q0-95 23-158h108l9-63-240-49-57 162-301-187q-82 0-138 13.5t-90 37.5-52 68.5-24 93.5-6 127v531l-153-11z"/><glyph unicode="ú" horiz-adv-x="1142" d="M18 903l238 51 88 9v-687q0-84 36.5-121.5t115.5-37.5q34 0 79.5 18.5t79 39 88.5 56.5l43 27v582l-129-11-10 74 215 51 88 9v-699q0-95 23-158h108l9-63-240-49-57 162-301-187q-82 0-138 13.5t-90 37.5-52 68.5-24 93.5-6 127v531l-153-11z"/><glyph unicode="û" horiz-adv-x="1142" d="M18 903l238 51 88 9v-687q0-84 36.5-121.5t115.5-37.5q34 0 79.5 18.5t79 39 88.5 56.5l43 27v582l-129-11-10 74 215 51 88 9v-699q0-95 23-158h108l9-63-240-49-57 162-301-187q-82 0-138 13.5t-90 37.5-52 68.5-24 93.5-6 127v531l-153-11z"/><glyph unicode="ü" horiz-adv-x="1142" d="M18 903l238 51 88 9v-687q0-84 36.5-121.5t115.5-37.5q34 0 79.5 18.5t79 39 88.5 56.5l43 27v582l-129-11-10 74 215 51 88 9v-699q0-95 23-158h108l9-63-240-49-57 162-301-187q-82 0-138 13.5t-90 37.5-52 68.5-24 93.5-6 127v531l-153-11z"/><glyph unicode="ý" horiz-adv-x="1093" d="M10 895l10 63 224-6 209 6 10-63-144-21 224-622 14-131 254 753-94 21 10 63 176-6 170 6 10-63-135-21-327-845-228-510h-221v182h156l200 319-47-14-336 868z"/><glyph unicode="þ" horiz-adv-x="1112" d="M31 889l233 65 78 7 10-170 258 196q210 0 317-126.5t107-356.5q0-102-25-185.5t-69.5-142.5-108.5-102-138-68-163-37q-97 0-174 49v-407l224-21-11-63-286 6-232-6-10 63 152 21v1231l-152-15zm325-701q36-57 102-89.5t142-32.5q119 0 190.5 104.5t71.5 278.5q0 179-61.5 291t-161.5 112q-79 0-215-102l-68-52v-510z"/><glyph unicode="ÿ" horiz-adv-x="1093" d="M10 895l10 63 224-6 209 6 10-63-144-21 224-622 14-131 254 753-94 21 10 63 176-6 170 6 10-63-135-21-327-845-228-510h-221v182h156l200 319-47-14-336 868z"/><glyph unicode="Œ" horiz-adv-x="2859" d="M86 688q0 338 178.5 530.5t544.5 251.5q149 0 276.5-55t217-151 140-230.5 50.5-288.5q0-338-178.5-530.5t-544.5-251.5q-149 0-276.5 55t-217 151-140 230.5-50.5 288.5zm201 66q0-95 17-188t57.5-184 100.5-160 152.5-111.5 206.5-42.5q120 0 212 48.5t147.5 134 83.5 194 28 235.5q0 94-16.5 186t-57 183.5-99.5 161-152 112.5-207 43q-120 0-212.5-48.5t-148.5-133.5-84-193.5-28-236.5zm1353-693l193 27v1258l-193 26 11 64 282-6 797 6 18-361h-57l-113 266-563 7v-560l303 9 82 215h62l-21-248 21-272h-62l-82 213-303 8v-627l584 6 137 277h68l-74-371-797 6-282-6z"/><glyph unicode="œ" horiz-adv-x="2058" d="M76 457q0 223 124 357.5t367 172.5q134 0 238.5-65.5t160.5-176.5 56-247q0-222-125-358t-365-171q-203 0-329.5 140t-126.5 348zm172 26q0-106 39.5-201t117-157 175.5-62q88 0 151 57t92 147 29 202q0 184-92 304t-240 120q-89 0-151.5-57.5t-91.5-148-29-204.5zm926-14q0 117 35 209t98.5 153 142.5 99 176 57q352 0 352-383v-78h-635q-2-189 93.5-305.5t263.5-116.5q107 0 256 89l29-74q-152-95-349-150-91 0-173 32.5t-147 93-103.5 157.5-38.5 217zm172 135l444 21q0 51-4.5 89t-17.5 73.5-35.5 57.5-59.5 35-88 13q-98 0-161-79t-78-210z"/><glyph unicode="Ÿ" horiz-adv-x="1447" d="M10 1374l10 62 277-6 260 6 10-62-182-26 360-609 21-71 352 680-186 26 10 62 250-6 235 6 11-60-168-20-451-803 4-465 240-27-10-63-320 6-334-6-10 63 252 27v475l-463 789z"/><glyph horiz-adv-x="738"/><glyph horiz-adv-x="1477"/><glyph horiz-adv-x="738"/><glyph horiz-adv-x="1477"/><glyph horiz-adv-x="492"/><glyph horiz-adv-x="369"/><glyph horiz-adv-x="246"/><glyph horiz-adv-x="246"/><glyph horiz-adv-x="184"/><glyph horiz-adv-x="295"/><glyph horiz-adv-x="82"/><glyph unicode="‐" horiz-adv-x="788" d="M82 496v125h625v-125h-625z"/><glyph unicode="‑" horiz-adv-x="788" d="M82 496v125h625v-125h-625z"/><glyph unicode="‒" horiz-adv-x="788" d="M82 496v125h625v-125h-625z"/><glyph unicode="–" horiz-adv-x="788" d="M82 496v125h625v-125h-625z"/><glyph unicode="—" horiz-adv-x="788" d="M82 496v125h625v-125h-625z"/><glyph horiz-adv-x="295"/><glyph horiz-adv-x="369"/><glyph unicode="◼" horiz-adv-x="962" d="M0 0v963h963v-963h-963z"/><glyph unicode="ﬁ" horiz-adv-x="1292" d="M53 852v33l58 67h127v19q0 91 26.5 158t83.5 135l158 190h250v-151h-267l-40-58q-48-61-48-237v-66h254v-90h-254v-772l244-10-10-72-295 6-244-6-10 63 152 19v772h-185zm709 37l231 65 94 9v-883l164-19-10-63-229 6-230-6-10 63 152 19v758l-152-13zm135 428l18 92 134 10 53-10 10-106-20-93-131-12-52 12z"/></font>
</defs>
</svg>
