<?xml version="1.0" standalone="no"?>
<!DOCTYPE svg PUBLIC "-//W3C//DTD SVG 1.1//EN" "http://www.w3.org/Graphics/SVG/1.1/DTD/svg11.dtd" >
<svg xmlns="http://www.w3.org/2000/svg" xmlns:xlink="http://www.w3.org/1999/xlink" version="1.1">
<metadata></metadata>
<defs>
<font id="gt_sectramedium_italic" horiz-adv-x="1269" >
<font-face units-per-em="2048" ascent="1536" descent="-512" />
<missing-glyph horiz-adv-x="491" />
<glyph unicode="&#xfb01;" horiz-adv-x="1165" d="M-262 -481l39 194h229q33 37 53.5 86t26.5 90l166 945h-199l10 38l87 76h122l15 94q16 82 51 155t100 114l256 153h465l-35 -176h-530q-33 -29 -53.5 -76t-24.5 -84l-33 -188h346l140 61l86 -81l-140 -791l168 107l37 -54l-297 -213l-137 72l143 811l-106 -18h-260 l-152 -881q-16 -86 -63 -156.5t-123 -120.5l-240 -157h-147z" />
<glyph unicode="&#xfb02;" horiz-adv-x="1159" d="M-262 -481l39 194h229q33 37 53.5 86t26.5 90l166 945h-199l10 38l87 76h122l15 94q16 82 51 155t100 114l256 153h375l68 -57l-226 -1278l170 107l37 -54l-299 -213l-139 72l139 793h-356l-152 -881q-16 -86 -63 -156.5t-123 -120.5l-240 -157h-147zM483 940h357l69 391 l-151 -43h-164q-33 -29 -53.5 -76t-24.5 -84z" />
<glyph unicode="&#xfb03;" horiz-adv-x="1755" d="M-262 -481l39 194h229q33 37 53.5 86t26.5 90l166 945h-199l10 38l87 76h122l15 94q16 82 51 155t100 114l256 153h334l-262 -176h-172q-33 -29 -53.5 -76t-24.5 -84l-33 -188h377l17 102q14 82 50 155t101 114l256 153h465l-35 -176h-530q-33 -29 -53.5 -76t-26.5 -84 l-33 -188h348l140 61l86 -81l-140 -791l168 107l37 -54l-299 -213l-137 72l143 811l-106 -18h-258l-154 -881q-14 -86 -62.5 -156.5t-121.5 -120.5l-242 -157h-135l39 194h219q33 37 53.5 86t26.5 90l166 945h-379l-152 -881q-16 -86 -63 -156.5t-123 -120.5l-240 -157h-147 z" />
<glyph unicode="&#xfb04;" horiz-adv-x="1748" d="M-262 -481l39 194h229q33 37 53.5 86t26.5 90l166 945h-199l10 38l87 76h122l15 94q16 82 51 155t100 114l256 153h334l-262 -176h-172q-33 -29 -53.5 -76t-24.5 -84l-33 -188h377l17 102q14 82 50 155t101 114l256 153h375l65 -57l-223 -1278l168 107l39 -54l-299 -213 l-139 72l139 793h-356l-154 -881q-14 -86 -62.5 -156.5t-121.5 -120.5l-242 -157h-135l39 194h219q33 37 53.5 86t26.5 90l166 945h-379l-152 -881q-16 -86 -63 -156.5t-123 -120.5l-240 -157h-147zM1071 940h359l67 391l-149 -43h-164q-33 -29 -53.5 -76t-26.5 -84z" />
<glyph horiz-adv-x="0" />
<glyph horiz-adv-x="0" />
<glyph unicode="&#xd;" horiz-adv-x="737" />
<glyph unicode=" "  horiz-adv-x="491" />
<glyph unicode="&#x09;" horiz-adv-x="491" />
<glyph unicode="&#xa0;" horiz-adv-x="491" />
<glyph unicode="!" horiz-adv-x="649" d="M121 2l10 127l31 107l172 12l63 -12l-10 -125l-33 -109l-170 -12zM268 481l23 404l86 569h229l-119 -567l-122 -406h-97z" />
<glyph unicode="&#x22;" horiz-adv-x="851" d="M203 932q16 27 36.5 64.5t39 75.5t33 72t18.5 54l-88 10l10 127l39 107l151 12l74 -12l-8 -125l-33 -109l-194 -311zM557 932q16 27 36.5 64.5t39 75.5t33 72t18.5 54l-86 10l10 127l37 107l154 12l73 -12l-10 -125l-31 -109l-194 -311z" />
<glyph unicode="#" horiz-adv-x="1271" d="M68 399l32 113h256l95 317h-252l34 113h250l119 399h129l-119 -399h287l119 399h129l-119 -399h260l-35 -113h-258l-96 -317h256l-33 -113h-258l-116 -399h-130l117 399h-286l-117 -399h-129l116 399h-251zM485 512h285l96 317h-286z" />
<glyph unicode="$" horiz-adv-x="1169" d="M80 88l51 303h139v-172q35 -39 93.5 -73.5t123.5 -53.5l93 526l-150 121q-80 61 -130 133t-50 177q0 119 81 204.5t240 147.5l156 57l25 141h84l-23 -131q121 -6 203 -36.5t135 -69.5l-53 -297h-119l-14 186q-35 29 -78 54.5t-96 42.5l-84 -476l137 -108 q37 -31 71.5 -63.5t61.5 -74.5t43 -94.5t16 -119.5q0 -125 -81 -222.5t-222 -150.5l-184 -68l-23 -135h-84l23 129q-123 8 -222.5 42t-162.5 81zM496 1155q0 -76 38.5 -126t98.5 -99l76 430q-4 0 -10.5 1t-10.5 1q-104 -33 -148 -85t-44 -122zM567 76h27q98 29 145 93 t47 150q0 88 -36.5 141.5t-96.5 100.5z" />
<glyph unicode="%" horiz-adv-x="1685" d="M88 -10l1346 1454h168l-1348 -1454h-166zM201 999q8 172 100 277.5t287 159.5q63 0 112.5 -21.5t83 -60.5t50 -90.5t12.5 -110.5q-10 -172 -99 -281.5t-286 -154.5q-57 0 -106.5 19.5t-84 56t-54 89t-15.5 117.5zM381 1030q-10 -115 22.5 -170t96.5 -55q39 0 68.5 27.5 t50 72.5t30.5 101.5t15 115.5q10 117 -23 171.5t-86 54.5q-45 0 -77 -28t-52 -73t-31.5 -102.5t-13.5 -114.5zM842 283q8 172 100 277.5t287 158.5q63 0 113.5 -21.5t83 -60.5t49 -90t12.5 -111q-10 -172 -99 -281.5t-286 -154.5q-57 0 -106.5 19.5t-84 56.5t-54 89 t-15.5 118zM1022 313q-10 -115 22.5 -170t96.5 -55q39 0 68.5 27.5t50 72.5t30.5 101.5t15 116.5q10 117 -23 171t-86 54q-45 0 -77 -28t-52 -73t-31.5 -102t-13.5 -115z" />
<glyph unicode="&#x26;" horiz-adv-x="1251" d="M70 340q0 147 91 252.5t265 175.5l92 37q-37 6 -76 27.5t-70.5 57.5t-53 84t-21.5 103q0 68 34 121t92 96t138 76t172 60l156 40q29 -2 64.5 -15t70.5 -31.5t65.5 -38t47.5 -31.5l-127 -168q-20 18 -56 43.5t-76 50.5t-80 45.5t-71 30.5q-82 -45 -135 -106.5t-53 -151.5 q0 -55 16 -99.5t39.5 -75t50.5 -48t49 -17.5l-16 -88q-66 0 -129.5 -31.5t-112.5 -85t-78.5 -124t-29.5 -150.5q0 -63 16 -119.5t51 -99.5t86 -67.5t123 -24.5q117 41 175.5 122.5t82.5 219.5l25 137h-105l-30 -45h-50l37 200h461l33 46h43l-37 -201h-131l-29 -158 q-12 -66 -32.5 -118t-60.5 -97t-105.5 -83t-169.5 -71q-14 -6 -39 -14t-52.5 -15t-55 -14.5t-48.5 -13.5q-111 0 -194.5 28.5t-140 79t-84 119t-27.5 150.5z" />
<glyph unicode="'" horiz-adv-x="495" d="M203 932q16 27 36.5 64.5t39 75.5t33 72t18.5 54l-88 10l10 127l39 107l151 12l74 -12l-8 -125l-33 -109l-194 -311z" />
<glyph unicode="(" horiz-adv-x="692" d="M123 203q0 139 13.5 252.5t41 214t73.5 193.5t111.5 189.5t152.5 202t198 232.5l55 -43q-236 -281 -353.5 -592t-117.5 -668q0 -342 129 -612l-59 -59q-61 104 -106.5 190t-76 166t-46 161t-15.5 173z" />
<glyph unicode=")" horiz-adv-x="692" d="M-76 -444q471 557 471 1259q0 340 -127 612l58 60q61 -104 106 -191.5t76 -167t46 -159.5t15 -172q0 -139 -13 -253t-41 -215.5t-74 -193.5t-111.5 -188.5t-152.5 -202.5t-197 -231z" />
<glyph unicode="*" horiz-adv-x="800" d="M133 1147l70 176l221 -109l-23 250h187l-45 -250l233 109l45 -176l-252 -43l168 -182l-157 -111l-109 221l-129 -221l-143 111l184 182z" />
<glyph unicode="+" d="M106 446v144h455v465h146v-465h454v-144h-454v-446h-146v446h-455z" />
<glyph unicode="," horiz-adv-x="499" d="M61 -274q16 27 37 64.5t39.5 75.5t32.5 71.5t18 54.5l-88 10l13 127l37 107l151 12l76 -12l-10 -125l-31 -109l-197 -311z" />
<glyph unicode="-" horiz-adv-x="808" d="M102 496l27 143h625l-27 -143h-625z" />
<glyph unicode="." horiz-adv-x="532" d="M102 2l11 127l32 107l170 12l64 -12l-10 -125l-33 -109l-170 -12z" />
<glyph unicode="/" horiz-adv-x="1036" d="M-248 -471l1264 1941h131l-1264 -1941h-131z" />
<glyph unicode="0" horiz-adv-x="1175" d="M92 393q0 88 22.5 171t75 156t138.5 133t211 101l141 47q98 0 179 -31.5t137.5 -89t87 -134t30.5 -168.5q0 -88 -22.5 -171t-74.5 -156t-137 -133.5t-210 -101.5l-142 -47q-100 0 -181 32t-137 89t-87 135t-31 168zM340 424q0 -68 19.5 -125t52 -102t78 -74t98.5 -41 q131 47 204.5 170t73.5 295q0 70 -21.5 128t-56 102t-78.5 73t-89 39q-131 -47 -206 -170t-75 -295z" />
<glyph unicode="1" horiz-adv-x="980" d="M10 -2l4 82l330 33l113 635l20 43l-86 -33l-252 -60l-20 76l499 215h113l-153 -876l321 -33l-25 -82l-428 6z" />
<glyph unicode="2" horiz-adv-x="1048" d="M-10 94l299 205q88 61 164.5 114.5t132 106.5t87.5 107.5t32 115.5q0 145 -142 146l-137 -39l-80 -186h-190l24 204l457 133q164 0 245 -63.5t81 -165.5q0 -86 -56.5 -163t-140.5 -141.5t-180.5 -117.5t-175.5 -92l-236 -117l385 66h442v-74l-71 -133h-893z" />
<glyph unicode="3" horiz-adv-x="958" d="M-92 -481l35 198h450q182 117 182 287q0 117 -78.5 177.5t-244.5 60.5l-14 63l98 41q139 57 219 141t80 213q0 78 -42 130.5t-114 58.5l-119 -39l-84 -205h-184l25 223l436 133q88 0 149.5 -21.5t100.5 -58t57.5 -88t18.5 -108.5q0 -68 -29 -124t-79 -102t-116.5 -81 t-140.5 -62q80 -6 140.5 -31.5t100.5 -66.5t59.5 -94t19.5 -113q0 -104 -49.5 -178t-126 -127t-169 -91t-178.5 -71l-168 -65h-235z" />
<glyph unicode="4" horiz-adv-x="1171" d="M10 96l793 875h231l-16 -90l-848 -764l117 39h348l29 170l190 139h49l-53 -309h280l-28 -162h-283l-82 -465h-215l84 465h-536z" />
<glyph unicode="5" horiz-adv-x="1003" d="M-41 -481l35 198h452q90 66 140.5 154t50.5 180q0 109 -57.5 182.5t-182.5 73.5q-55 0 -99 -12t-103 -41l-74 -47l-43 51l211 713h727l-12 -74l-78 -131h-588l-131 -420l270 137q115 0 194 -31.5t127 -80.5t69.5 -109.5t21.5 -120.5q0 -115 -45 -201.5t-117 -153.5 t-162 -114t-182 -84l-172 -69h-252z" />
<glyph unicode="6" horiz-adv-x="1132" d="M102 440q0 180 75 348t207 306.5t313.5 235.5t392.5 136l28 -82q-152 -33 -274.5 -106.5t-212.5 -165.5t-147.5 -191.5t-75.5 -183.5l321 205q70 0 130.5 -30.5t105.5 -83t71.5 -122t26.5 -145.5q0 -188 -107.5 -332.5t-304.5 -212.5l-141 -49q-92 0 -167 32t-128 91.5 t-83 147.5t-30 202zM358 418q2 -141 56.5 -234.5t160.5 -109.5q61 23 105.5 66.5t73 99t42 119t13.5 124.5q0 145 -47 211t-103 66q-43 0 -90 -20.5t-108 -61.5l-70 -47q-12 -41 -22.5 -92.5t-10.5 -120.5z" />
<glyph unicode="7" horiz-adv-x="1013" d="M16 -471l7 88l806 1176l-69 -39h-690l36 217h887l43 -53l-827 -1389h-193z" />
<glyph unicode="8" horiz-adv-x="1128" d="M82 289q0 90 34 159.5t89 124t128 93.5t150 67q-104 72 -161.5 144.5t-57.5 173.5q0 133 96.5 228t251.5 146l133 41q82 0 152 -18t121 -52t78.5 -82t27.5 -108q0 -84 -30.5 -147.5t-81.5 -112.5t-117 -86t-135 -67q53 -37 103 -74t88 -80t60.5 -94t22.5 -117 q0 -80 -31.5 -145.5t-90 -118.5t-140.5 -94t-182 -74l-105 -33q-80 0 -153.5 23.5t-129 65.5t-88 102.5t-32.5 134.5zM330 338q0 -63 20.5 -111.5t52 -82t72.5 -53t84 -23.5q217 94 217 297q0 57 -20.5 104t-53 85t-70.5 70.5t-75 61.5q-98 -66 -162.5 -148.5t-64.5 -199.5z M514 1116q0 -70 44 -138.5t130 -131.5q96 66 142.5 139.5t46.5 171.5q0 84 -48.5 140.5t-154.5 66.5q-94 -41 -127 -104.5t-33 -143.5z" />
<glyph unicode="9" horiz-adv-x="1114" d="M27 -416q152 33 274.5 105.5t213.5 165t147.5 192.5t74.5 184l-321 -204q-70 0 -130.5 30.5t-105.5 83t-71.5 121t-26.5 146.5q0 188 107.5 332.5t304.5 211.5l143 49q90 0 165 -31.5t128 -91t82.5 -148.5t29.5 -202q0 -180 -74.5 -348t-206.5 -306t-313.5 -235.5 t-392.5 -136.5zM336 481q0 -143 47 -208.5t104 -65.5q43 0 89.5 21.5t109.5 62.5l68 47q12 41 22 92t10 121q0 141 -54 234.5t-163 109.5q-59 -23 -103 -67t-72.5 -100t-43 -119.5t-14.5 -127.5z" />
<glyph unicode=":" horiz-adv-x="557" d="M102 2l11 127l32 107l170 12l64 -12l-10 -125l-33 -109l-170 -12zM219 743l12 127l31 109l170 12l64 -12l-11 -125l-30 -111l-170 -10z" />
<glyph unicode=";" horiz-adv-x="557" d="M61 -274q16 27 37 64.5t39.5 75.5t32.5 71.5t18 54.5l-88 10l13 127l37 107l151 12l76 -12l-10 -125l-31 -109l-197 -311zM219 743l10 127l31 109l170 12l66 -12l-11 -125l-32 -111l-170 -10z" />
<glyph unicode="&#x3c;" d="M102 524v123l1065 475v-170l-866 -364l866 -365v-172z" />
<glyph unicode="=" d="M106 229v146h1055v-146h-1055zM106 629v145h1055v-145h-1055z" />
<glyph unicode="&#x3e;" d="M102 51v172l867 365l-867 364v170l1065 -475v-123z" />
<glyph unicode="?" horiz-adv-x="851" d="M131 2l10 127l31 107l170 12l66 -12l-11 -125l-32 -109l-170 -12zM238 1319l368 135q59 0 114.5 -23.5t98.5 -64.5t68.5 -100.5t25.5 -128.5q0 -141 -81.5 -232.5t-229.5 -154.5l-133 -56l-82 -243h-113l41 241l174 99q90 49 132.5 129.5t42.5 164.5q0 39 -8.5 81t-25 78 t-44 62.5t-64.5 34.5l-96 -30l-35 -152h-151z" />
<glyph unicode="@" horiz-adv-x="1904" d="M154 504q0 152 52 288t145 247.5t225.5 196.5t291.5 134l191 60q190 0 336.5 -46.5t246 -126t150.5 -189.5t51 -239q0 -135 -51 -251.5t-136 -204.5t-195.5 -138.5t-229.5 -50.5l-121 127l90 240l-16 -19q-15 -20 -49.5 -63t-94 -113.5t-147.5 -175.5q-59 0 -112.5 20.5 t-95.5 58.5t-66.5 92.5t-24.5 119.5q0 86 26.5 166t73.5 147.5t115 122t152 90.5l223 101l246 -137l-168 -699q63 4 135.5 43t132 109.5t99.5 171t40 223.5q0 109 -40 203t-114.5 163.5t-181 109.5t-237.5 40q-133 0 -265.5 -57.5t-239 -160.5t-172 -248.5t-65.5 -321.5 q0 -170 59.5 -291t157 -200t222.5 -115.5t258 -36.5q125 0 223 33.5t162 62.5l34 -64q-57 -29 -121.5 -55.5t-130 -48t-126 -35.5t-109.5 -20q-186 0 -338.5 55t-262.5 153.5t-169 233.5t-59 295zM791 532q0 -84 39.5 -128t107.5 -44l233 261l66 245l-156 107 q-86 -37 -142 -91.5t-89 -114.5t-46 -121.5t-13 -113.5z" />
<glyph unicode="A" horiz-adv-x="1388" d="M-43 -2v82l147 22l756 1319l195 49l137 -1368l143 -22l-20 -82l-301 6l-254 -6l2 82l166 26l-33 367h-453l-202 -367l166 -26l-23 -82l-215 6zM498 578h387l-45 499l6 144z" />
<glyph unicode="B" horiz-adv-x="1224" d="M-20 -2l2 82l178 26l194 1229l-168 21l21 80l270 -6l365 6h14q84 0 148 -22q68 -24 113.5 -64.5t67 -93t21.5 -103.5q0 -106 -74.5 -198.5t-220.5 -141.5l-112 -37q186 -16 289.5 -108.5t103.5 -218.5q0 -84 -31 -145.5t-83 -107.5t-118.5 -79t-138.5 -60l-170 -59 l-399 6zM410 119h329q186 121 187 313q0 57 -15.5 106.5t-48.5 86.5t-86 58.5t-127 21.5h-147zM518 801h105q76 0 136 29.5t102 77.5t64.5 106.5t22.5 115.5q0 39 -12 77t-37 67t-62.5 47t-88.5 18h-144z" />
<glyph unicode="C" horiz-adv-x="1290" d="M100 588q0 119 30 240.5t97.5 231t177 201t271.5 146.5l192 68q76 0 142.5 -14.5t122 -37t97.5 -49t70 -51.5l-8 -317h-118l-48 198q-45 47 -132 86t-226 62q-199 -92 -298 -276.5t-99 -436.5q0 -135 32.5 -235.5t88 -169t129 -106.5t155.5 -44q78 31 127 60.5t101 76.5 l122 240h123l-86 -361l-481 -137q-135 0 -242.5 43t-182.5 125t-116 196.5t-41 260.5z" />
<glyph unicode="D" horiz-adv-x="1394" d="M-18 -2v82l174 26l196 1229l-172 21l23 80l289 -6l339 6h11q122 0 222 -41q104 -43 176.5 -123t111.5 -191.5t39 -246.5q0 -115 -33 -230t-105.5 -218t-186.5 -189t-273 -142l-164 -57l-365 6zM408 125h331q76 43 144.5 107.5t121 150.5t83 191.5t30.5 228.5 q0 129 -29.5 227t-81 165t-120 102.5t-144.5 39.5h-143z" />
<glyph unicode="E" horiz-adv-x="1228" d="M-20 -2l2 82l176 26l194 1223l-170 27l23 80l280 -6l775 6v-365h-86l-95 252l-479 6l-82 -528l262 8l127 217h74l-74 -274l-16 -275h-76l-51 217l-262 8l-96 -598l530 7l160 276h92l-94 -389l-836 6z" />
<glyph unicode="F" horiz-adv-x="1163" d="M-20 -2l2 82l176 26l194 1223l-170 27l23 80l280 -6l775 6v-371h-86l-95 258l-479 6l-86 -557l262 8l127 215h74l-74 -274l-16 -275h-76l-51 218l-262 8l-92 -568l249 -24l-22 -82l-363 6z" />
<glyph unicode="G" horiz-adv-x="1374" d="M70 573q0 119 33.5 245t109.5 239.5t194.5 207t290.5 150.5l170 55q72 0 136.5 -13t118 -34.5t95.5 -48t70 -53.5l-2 -305h-119l-51 190q-25 27 -60.5 52.5t-80.5 46t-97.5 34t-105.5 13.5q-98 -45 -177 -110.5t-135.5 -154t-87 -201t-30.5 -253.5q0 -137 32 -237.5 t85 -167t125.5 -102.5t152.5 -42q53 16 102.5 41t84.5 47l61 391l-168 27l23 80l278 -2l246 6v-84l-131 -27l-70 -450l-510 -150q-133 0 -241.5 41t-184 120t-116.5 191.5t-41 257.5z" />
<glyph unicode="H" horiz-adv-x="1452" d="M-20 -2l2 82l174 26l194 1221l-168 27l23 82l289 -6l274 6l-2 -82l-164 -27l-86 -530h535l84 530l-160 27l22 82l283 -6l279 6l-3 -82l-170 -27l-194 -1221l162 -26l-23 -82l-276 6l-287 -6l2 82l170 26l94 582h-534l-92 -582l155 -26l-22 -82l-275 6z" />
<glyph unicode="I" horiz-adv-x="671" d="M-18 -2l4 82l174 26l194 1221l-168 27l23 82l289 -6l278 6l-2 -82l-170 -27l-196 -1221l161 -26l-22 -82l-283 6z" />
<glyph unicode="J" horiz-adv-x="684" d="M-166 -358l39 188h215q23 33 40 67.5t29.5 74.5t21.5 88.5t18 109.5l184 1157l-180 27l22 82l295 -6l285 6l-4 -82l-170 -27l-180 -1132q-10 -68 -26.5 -120t-41.5 -95t-59.5 -79t-79.5 -71l-240 -188h-168z" />
<glyph unicode="K" horiz-adv-x="1435" d="M-20 -2l4 82l176 26l192 1221l-168 27l23 82l289 -6l258 6l-2 -82l-150 -27l-86 -539l57 33l555 506l-133 27l17 82l237 -6l217 6v-82l-176 -27l-598 -530l62 -35l499 -653l103 -29l-23 -82l-157 6l-172 -6l-467 680l-27 67l-102 -639l141 -26l-23 -82l-262 6z" />
<glyph unicode="L" horiz-adv-x="1157" d="M-20 -2l2 82l176 26l194 1221l-170 27l25 82l270 -6l303 6l-2 -82l-178 -27l-194 -1223l456 7l191 284h92l-125 -397l-762 6z" />
<glyph unicode="M" horiz-adv-x="1800" d="M-20 -2l2 82l161 26l193 1211l-174 37l22 82l230 -6l254 6l206 -1065l-8 -142l582 1207l223 -6l236 6l-4 -82l-170 -27l-195 -1221l154 -26l-23 -82l-258 6l-291 -6v82l178 26l162 1006l64 229l-658 -1341h-157l-220 1114l-20 223l-184 -1231l159 -26l-20 -82l-219 6z " />
<glyph unicode="N" horiz-adv-x="1441" d="M-20 -2l2 82l174 26l192 1211l-162 37l23 82l186 -6l174 6l496 -949l31 -182l147 1022l-160 27l23 82l213 -6l237 6l-2 -82l-178 -27l-209 -1327h-143l-537 1057l-22 188l-174 -1139l170 -26l-23 -82l-227 6z" />
<glyph unicode="O" horiz-adv-x="1447" d="M100 590q0 121 32 246t103.5 237.5t184 202.5t276.5 141l170 53q131 0 236.5 -44t179.5 -125.5t114 -197.5t40 -259q0 -121 -32 -246t-103.5 -237.5t-185.5 -202.5t-275 -142l-170 -53q-133 0 -238.5 44t-179.5 126t-113 197.5t-39 259.5zM371 618q0 -127 29.5 -222 t80.5 -160.5t121 -104.5t150 -51q98 41 175 112.5t129 167t79.5 211t27.5 244.5q0 125 -29.5 221.5t-81 162t-121 104t-149.5 51.5q-98 -41 -175 -113t-129 -167t-79.5 -211t-27.5 -245z" />
<glyph unicode="P" horiz-adv-x="1183" d="M-20 -2l2 82l176 26l196 1227l-172 21l25 82l280 -6l363 6h9q184 0 292 -82q111 -84 111 -232q0 -84 -31 -151.5t-89.5 -121.5t-146.5 -100.5t-200 -86.5l-131 -50h-177l-81 -506l245 -26l-22 -82l-369 6zM508 745h287q86 51 141 139.5t55 200.5q0 117 -56 184.5 t-173 71.5h-158z" />
<glyph unicode="Q" horiz-adv-x="1447" d="M100 590q0 121 32 246t103.5 237.5t184 202.5t276.5 141l170 53q131 0 236.5 -44t179.5 -125.5t114 -197.5t40 -259q0 -121 -32 -246t-103.5 -237.5t-185.5 -202.5t-275 -142l-82 -24l188 -68l178 -153l127 -43l-2 -68h-311l-315 305q-123 8 -219.5 55.5t-164 128 t-103.5 192.5t-36 249zM371 618q0 -127 29.5 -222t80.5 -160.5t121 -104.5t150 -51q98 41 175 112.5t129 167t79.5 211t27.5 244.5q0 125 -29.5 221.5t-81 162t-121 104t-149.5 51.5q-98 -41 -175 -113t-129 -167t-79.5 -211t-27.5 -245z" />
<glyph unicode="R" horiz-adv-x="1345" d="M-20 -2l2 82l176 26l196 1227l-172 21l25 82l280 -6l363 6h15q85 0 155 -20q76 -22 130 -62.5t83 -98t29 -125.5q0 -152 -98.5 -244.5t-278.5 -162.5l-115 -43l158 -84l239 -490l107 -28l-17 -80l-188 6l-141 -6l-279 631l-24 22h-131l-88 -545l184 -26l-23 -82l-307 6z M512 782h270q92 45 150.5 125t58.5 197q0 106 -56 169.5t-173 67.5h-158z" />
<glyph unicode="S" horiz-adv-x="1052" d="M31 88l51 303h139v-172q25 -27 60.5 -52.5t78.5 -46t90.5 -32.5t94.5 -12q98 29 145 93t47 150q0 47 -11 84t-31.5 67t-48.5 55.5t-60 49.5l-205 164q-80 61 -130 133t-50 177q0 119 80.5 204.5t240.5 147.5l187 69q145 0 240 -32.5t153 -75.5l-53 -297h-119l-15 186 q-49 45 -119.5 77t-156.5 34q-104 -33 -148.5 -85t-44.5 -122q0 -80 44.5 -131t109.5 -104l195 -156q37 -31 71.5 -63.5t61 -74.5t43 -94.5t16.5 -119.5q0 -125 -81 -222.5t-222 -150.5l-205 -76q-141 0 -259 36t-189 89z" />
<glyph unicode="T" horiz-adv-x="1230" d="M135 1053l58 383l579 -6l569 6l-55 -383h-92l-49 272l-268 6l-197 -1225l178 -26l-22 -82l-299 6l-297 -6l2 82l190 26l195 1225l-265 -6l-135 -272h-92z" />
<glyph unicode="U" horiz-adv-x="1386" d="M160 1354l22 82l275 -6l297 6l-2 -82l-168 -27l-144 -862q-5 -34 -6 -66q0 -39 8 -77q14 -68 53.5 -119t104 -82t152.5 -31q59 25 105 53.5t81 71.5t58.5 106.5t37.5 155.5l137 850l-180 27l23 82l243 -6l252 6l-2 -82l-180 -27l-133 -840q-14 -86 -40 -160.5t-74 -135 t-124.5 -107.5t-193.5 -78l-158 -43q-133 0 -221 38t-136 107q-47 70 -59 168q-4 37 -5 78q0 67 12 142l133 831z" />
<glyph unicode="V" horiz-adv-x="1325" d="M160 1354l22 82l299 -6l246 6l-2 -82l-168 -27l168 -975l-23 -141l494 1116l-166 27l23 82l229 -6l168 6l-2 -82l-102 -23l-619 -1319l-162 -49l-262 1368z" />
<glyph unicode="W" horiz-adv-x="1921" d="M156 1354l22 82l301 -6l215 6l-2 -82l-137 -27l133 -983l-24 -129l352 893l-33 223l-113 23l23 82l270 -6l250 6l-2 -82l-172 -27l133 -983l-24 -129l450 1112l-178 27l22 82l240 -6l166 6l-2 -82l-102 -23l-572 -1319l-172 -49l-141 901l10 117l-381 -969l-172 -49 l-217 1368z" />
<glyph unicode="X" horiz-adv-x="1388" d="M-41 -2l2 82l129 26l524 599l-342 626l-114 23l22 82l236 -6l313 6l-2 -82l-168 -27l211 -412l2 -81l426 493l-160 27l21 82l258 -6l164 6l-2 -82l-115 -23l-512 -575l352 -650l105 -26l-21 -82l-225 6l-320 -6l2 82l168 26l-219 437v86l-430 -523l152 -26l-23 -82 l-250 6z" />
<glyph unicode="Y" horiz-adv-x="1310" d="M160 1354l20 82l252 -6l283 6v-82l-168 -27l225 -555v-96l414 651l-162 27l20 82l230 -6l166 6l-2 -82l-109 -25l-493 -749l-74 -474l225 -26l-22 -82l-349 6l-346 -6l2 82l242 26l74 476l-314 747z" />
<glyph unicode="Z" horiz-adv-x="1107" d="M-25 90l873 1170l119 77l-572 -16l-139 -264h-84l61 377h934l33 -86l-876 -1174l-113 -72l596 11l207 311h92l-139 -424h-990z" />
<glyph unicode="[" horiz-adv-x="688" d="M20 -471q37 217 74 418q14 86 29.5 175t31 173t28 157.5t22.5 127.5q6 29 15 82t21.5 120.5t26 144.5t25.5 152q31 178 67 385l168 -6l269 6l-15 -82l-280 -20q-25 -119 -49 -248q-23 -111 -47.5 -248t-49.5 -276q-31 -168 -59.5 -337t-50.5 -308q-27 -162 -49 -314 l272 -20l-14 -82l-265 6z" />
<glyph unicode="\" horiz-adv-x="882" d="M197 1470h120l586 -1941h-121z" />
<glyph unicode="]" horiz-adv-x="688" d="M-109 -471l15 82l278 20q29 152 60 314q27 139 58.5 308t62.5 337q25 139 47 276.5t39 247.5q20 129 38 248l-272 20l14 82l265 -6l172 6q-37 -207 -70 -385q-14 -76 -27.5 -152.5t-26 -144t-21.5 -122t-15 -82.5q-10 -53 -22.5 -126t-28 -157t-30.5 -173t-30 -175 q-35 -201 -71 -418l-168 6z" />
<glyph unicode="^" horiz-adv-x="780" d="M143 942l275 502h92l229 -502h-186l-100 289l-123 -289h-187z" />
<glyph unicode="_" horiz-adv-x="1146" d="M-82 -242l21 123h1136l-20 -123h-1137z" />
<glyph unicode="`" horiz-adv-x="1024" d="M385 1481h231l23 -357h-94z" />
<glyph unicode="a" horiz-adv-x="1036" d="M74 356q0 195 97 337.5t280 232.5l155 75q70 -2 167 -27.5t183 -58.5l-139 -788l168 106l39 -53l-299 -211l-137 70l20 117l39 94l-311 -281q-53 14 -100.5 42t-83 74t-57 112.5t-21.5 158.5zM307 424q0 -104 35 -171t82 -101l213 167l86 486q-23 14 -52.5 25.5 t-62.5 19.5t-65.5 12t-59.5 4q-72 -68 -124 -179t-52 -263z" />
<glyph unicode="b" horiz-adv-x="1005" d="M76 66l223 1265l-193 -51l-26 68l377 116l67 -57l-98 -571l-43 -97l324 262q113 -23 186.5 -114.5t73.5 -259.5q0 -96 -24.5 -186.5t-72 -167t-117 -138t-161.5 -98.5l-158 -68q-88 6 -180 28.5t-178 68.5zM311 186q49 -31 118 -55.5t126 -24.5q47 27 81 76t55.5 108.5 t31.5 123t10 121.5q0 123 -33.5 192.5t-76.5 89.5l-228 -149z" />
<glyph unicode="c" horiz-adv-x="872" d="M76 362q0 193 106.5 341.5t311.5 236.5l135 61q49 -4 118.5 -25.5t122.5 -51.5l-116 -191q-59 41 -124 74t-120 55q-98 -59 -148.5 -167.5t-50.5 -248.5q0 -137 59.5 -208.5t149.5 -98.5q25 10 56.5 26.5t65.5 34t63.5 35t50.5 29.5l41 -53q-49 -41 -120 -87t-149 -93 l-100 -62q-72 2 -136.5 29t-112.5 77t-75.5 122.5t-27.5 164.5z" />
<glyph unicode="d" horiz-adv-x="1079" d="M76 362q0 182 87 328t269 232l170 79q33 -2 75 -10t89 -22l63 364l-190 -53l-25 68l377 116l66 -57l-228 -1280l170 109l39 -54l-299 -213l-137 74l21 117l41 92l-314 -283q-55 12 -105 40t-88 75t-59.5 114.5t-21.5 163.5zM311 424q0 -111 35 -175.5t86 -94.5l219 174 l86 485q-23 12 -55.5 22.5t-67 17.5t-68.5 11t-61 4q-43 -35 -74.5 -85t-54 -108.5t-34 -123t-11.5 -127.5z" />
<glyph unicode="e" horiz-adv-x="905" d="M76 350q0 96 26.5 187.5t78.5 169t128 138t174 97.5l164 59q94 -18 156.5 -70t62.5 -155q0 -41 -8 -83t-24 -95l-521 -160v-39q2 -59 20.5 -104t46.5 -77t63.5 -52.5t72.5 -26.5q27 10 60.5 25.5t68.5 33t67.5 36t59.5 34.5l39 -55q-25 -18 -60.5 -42t-75.5 -49.5 t-82 -51t-83 -45.5l-102 -56q-70 4 -130.5 34t-105.5 79t-70.5 116.5t-25.5 151.5zM317 512l299 119q10 35 15.5 61.5t5.5 55.5q0 66 -31 100.5t-74 42.5q-49 -25 -85.5 -65t-63.5 -90t-42 -107.5t-24 -116.5z" />
<glyph unicode="f" horiz-adv-x="675" d="M-262 -481l39 194h229q33 37 53.5 86t26.5 90l166 945h-199l10 38l87 76h122l15 94q16 82 51 155t100 114l256 153h191l-35 -176h-256q-33 -29 -53.5 -76t-24.5 -84l-33 -188h228l-23 -106h-225l-152 -881q-16 -86 -63 -156.5t-123 -120.5l-240 -157h-147z" />
<glyph unicode="g" horiz-adv-x="1019" d="M39 -481l33 194h393q43 35 81 101.5t50 144.5l33 199l39 94l-308 -283q-57 12 -107 40t-88 74t-59.5 114.5t-21.5 164.5q0 180 91 328t278 236l157 75q35 0 81 -6t96.5 -18t99.5 -29.5t92 -38.5l-174 -970q-14 -78 -84 -142.5t-178 -142.5l-189 -135h-315zM319 424 q0 -111 34 -176.5t85 -95.5l221 170l86 481q-45 31 -114.5 49t-134.5 18q-43 -35 -77 -85t-55.5 -109.5t-33 -124t-11.5 -127.5z" />
<glyph unicode="h" horiz-adv-x="1089" d="M86 0l236 1333l-191 -53l-25 68l377 116l66 -57l-100 -573l-33 -70l358 237q129 -1 177 -69q34 -48 34 -115q0 -28 -6 -59l-113 -629l168 107l39 -54l-299 -213l-137 72l113 645q5 24 5 44q-1 24 -7 43q-12 36 -60 36q-41 0 -89 -22.5t-83 -47.5l-94 -61l-121 -678h-215z " />
<glyph unicode="i" horiz-adv-x="608" d="M66 848l348 153l84 -81l-140 -791l168 107l39 -54l-299 -213l-137 72l143 811l-182 -64zM330 1202l8 111l41 100l70 12l131 -12v-115l-39 -96l-66 -14z" />
<glyph unicode="j" horiz-adv-x="577" d="M-240 -481l35 194h238q35 45 53 97.5t27 95.5l168 946l-181 -64l-26 60l348 153l84 -81l-170 -957q-31 -182 -182 -280l-248 -164h-146zM338 1202l6 111l43 100l70 12l129 -12v-115l-39 -96l-66 -14z" />
<glyph unicode="k" horiz-adv-x="1034" d="M86 0l233 1335l-192 -53l-25 66l379 118l66 -57l-146 -829l41 8l361 393h221l-49 -221h-150q-53 -12 -97 -35t-93 -61l-119 -99l92 -30l213 -406l156 98l37 -53l-293 -205l-109 54l-219 505l-92 -528h-215z" />
<glyph unicode="l" horiz-adv-x="581" d="M104 41l228 1290l-191 -51l-24 68l377 116l65 -57l-225 -1278l170 107l39 -54l-299 -213z" />
<glyph unicode="m" horiz-adv-x="1622" d="M66 848l348 153l84 -79l-19 -91l-30 -65l339 235q119 0 166 -62q37 -49 37 -124q0 -19 -2 -39l318 225q127 -1 174 -69q33 -49 34 -116q0 -27 -6 -58l-112 -633l170 108l37 -53l-297 -211l-140 70l113 645q5 24 5 45q0 23 -6 42q-11 36 -52 36q-35 0 -79 -23.5t-79 -46.5 l-92 -61l-123 -676h-213l121 686q5 23 5 43q0 24 -7 44q-12 36 -51 36q-35 0 -79 -22.5t-79 -45.5l-96 -63l-121 -678h-215l151 850l-180 -62z" />
<glyph unicode="n" horiz-adv-x="1122" d="M66 848l348 153l84 -79l-19 -91l-30 -65l356 235q127 -1 175 -69q35 -50 35 -119q0 -26 -5 -55l-113 -631l170 106l37 -53l-299 -211l-139 70l114 647q5 26 5 47.5t-5 39.5q-10 36 -59 36q-41 0 -89 -22.5t-83 -47.5l-94 -61l-121 -678h-213l149 850l-180 -62z" />
<glyph unicode="o" horiz-adv-x="1013" d="M76 375q0 193 105.5 343t301.5 230l129 53q74 0 139.5 -26.5t117 -78.5t81 -129t29.5 -175q0 -193 -104.5 -343.5t-301.5 -228.5l-131 -51q-74 0 -139 27t-116.5 78t-81 126.5t-29.5 174.5zM311 420q0 -164 61.5 -242t151.5 -96q61 25 103.5 77t68 116.5t37.5 136 t12 135.5q0 82 -17 142.5t-47 100t-69 63.5t-84 32q-61 -25 -102 -76t-66.5 -115.5t-37 -137.5t-11.5 -136z" />
<glyph unicode="p" horiz-adv-x="1069" d="M41 -471l231 1321l-180 -62l-24 60l346 153l84 -75l-15 -95l-39 -94l322 264q115 -29 187.5 -118.5t72.5 -259.5q0 -94 -24.5 -183.5t-72.5 -166t-118 -138t-160 -98.5l-153 -68q-41 6 -83 14.5t-85 28.5l-8 -116l-68 -367h-213zM369 184q53 -31 120.5 -54.5t122.5 -23.5 q49 27 83 76t55.5 108.5t31 123t9.5 121.5q0 123 -32 191.5t-79 88.5l-227 -149z" />
<glyph unicode="q" horiz-adv-x="1001" d="M76 348q0 94 24.5 182t73.5 165t121 137.5t164 101.5l149 67q41 0 89 -7t96.5 -17t94.5 -25.5t83 -33.5l-246 -1389h-213l106 608l44 105l-306 -273q-121 25 -200.5 117t-79.5 262zM311 436q0 -123 38 -189.5t89 -86.5l213 155l88 504q-29 14 -62.5 24.5t-67.5 16.5 t-65.5 8t-54.5 2q-47 -29 -80.5 -78t-55 -109t-32 -124.5t-10.5 -122.5z" />
<glyph unicode="r" horiz-adv-x="825" d="M66 848l348 153l69 -69l-26 -166l-68 -231l285 446h176l-51 -225h-103q-43 -27 -96 -73t-100 -103l-80 -97l-86 -483h-215l151 850l-180 -62z" />
<glyph unicode="s" horiz-adv-x="790" d="M10 78l103 172q27 -16 63.5 -36.5t77.5 -42t81 -42t75 -37.5q43 14 61 41t18 68q0 29 -15 65.5t-60 73.5l-183 158q-41 35 -66.5 85t-25.5 103q0 82 58.5 142.5t193.5 113.5l139 59q23 -4 54.5 -14t65.5 -23.5t68 -27.5t60 -27l-102 -176q-27 18 -61.5 38t-71.5 39 t-73 37.5t-67 31.5q-35 -12 -54 -36t-19 -61q0 -33 16 -62.5t64 -70.5l174 -147q53 -47 76.5 -95.5t23.5 -103.5q0 -94 -50 -155.5t-161 -102.5l-209 -76q-25 8 -61.5 21.5t-73.5 30t-69.5 32t-49.5 25.5z" />
<glyph unicode="t" horiz-adv-x="731" d="M74 831l10 39l84 78h117l24 131l183 156h59l-53 -295h250l-23 -109h-246l-121 -702l267 107l30 -58l-389 -209l-139 64l139 798h-192z" />
<glyph unicode="u" horiz-adv-x="1112" d="M59 848l349 153l81 -79l-110 -643q-4 -23 -4 -41q0 -29 10 -47q16 -29 53 -29q18 0 42 9t46.5 21.5t43 25.5t36.5 24l92 61l115 668h215l-149 -844l168 106l38 -53l-299 -211l-127 62l17 119l35 71l-355 -252q-63 0 -106 19.5t-67.5 53.5t-32.5 78q-3 20 -3 41q0 25 5 52 l112 639l-180 -64z" />
<glyph unicode="v" horiz-adv-x="952" d="M-2 848l352 153l72 -75l4 -721l-20 -111l401 600l-154 187l197 120l92 -108l-45 -258l-467 -666l-207 45l-24 834l-176 -62z" />
<glyph unicode="w" horiz-adv-x="1427" d="M-2 848l346 153l78 -75v-723l-16 -101l292 455l-10 342l223 76v-774l-16 -103l383 594l-150 189l199 120l90 -108l-45 -258l-459 -666l-200 45l-8 299l20 131l-303 -475l-199 45l-24 834l-176 -62z" />
<glyph unicode="x" horiz-adv-x="1038" d="M-2 -10l51 213h123q41 10 79 37.5t91 95.5l96 121l-123 403l-176 -63l-24 59l327 145l84 -73l72 -250v-98l258 401h207l-51 -213h-103q-20 -6 -37.5 -15.5t-36 -23.5t-40 -36.5t-47.5 -55.5l-103 -117l119 -391l180 100l37 -53l-299 -207l-113 60l-82 268v90l-282 -397 h-207z" />
<glyph unicode="y" horiz-adv-x="987" d="M-18 -481l36 219h179l266 285l-158 -23l-117 844l-168 -60l-30 56l307 161l115 -67l92 -836l336 594l-152 189l199 120l90 -108l-45 -258l-672 -1116h-278z" />
<glyph unicode="z" horiz-adv-x="874" d="M-18 33l700 782l-166 -78l-297 39l-57 -57l-56 12l127 258l547 -59l64 41l55 -41l-666 -746l148 62l326 -58l73 70l56 -16l-134 -277l-565 84l-90 -61z" />
<glyph unicode="{" horiz-adv-x="634" d="M51 522l4 29q53 16 85 39.5t50.5 53.5t27.5 67t15 77l66 390q12 66 45 119t81 89.5t107.5 57t124.5 20.5h99l-15 -82h-86q-29 0 -57.5 -10t-55 -35.5t-46 -66.5t-27.5 -103l-55 -379q-6 -35 -15.5 -69.5t-30 -66t-57.5 -61.5t-94 -54l133 -107l-119 -604q-12 -61 -7 -102 t22.5 -67t42 -36t53.5 -10h86l-14 -82h-103q-131 0 -202.5 78t-49.5 209l105 583z" />
<glyph unicode="|" horiz-adv-x="843" d="M184 -502l346 1972h129l-346 -1972h-129z" />
<glyph unicode="}" horiz-adv-x="634" d="M-131 -471l14 82h86q27 0 55.5 10t55 36t46 66.5t30.5 102.5l63 438q6 35 15.5 70t31 66.5t57 61.5t95.5 54l-135 107l108 544q12 61 8 102.5t-21.5 67t-43 35.5t-51.5 10h-88l14 82h104q131 0 202 -77.5t48 -208.5l-92 -525l113 -123l-4 -28q-53 -16 -85 -40 t-50.5 -53.5t-27.5 -66.5t-16 -78l-77 -448q-12 -66 -45 -119t-81 -90t-107.5 -57.5t-125.5 -20.5h-96z" />
<glyph unicode="~" horiz-adv-x="1501" d="M150 406l108 186l213 65l698 -114l109 110h82l-115 -196l-201 -58l-704 115l-109 -108h-81z" />
<glyph unicode="&#xa1;" horiz-adv-x="544" d="M2 -502l119 568l123 405h96l-23 -403l-86 -570h-229zM211 717l10 125l33 108l170 13l63 -13l-10 -127l-31 -106l-172 -12z" />
<glyph unicode="&#xa2;" horiz-adv-x="913" d="M90 362q0 193 106.5 341.5t311.5 236.5l12 6l33 180h129l-25 -127q49 -4 113 -25.5t115 -49.5l-117 -191q-59 41 -123.5 74t-120.5 55q-98 -59 -148 -167.5t-50 -248.5q0 -137 59.5 -208.5t149.5 -98.5q25 10 56.5 26.5t65 34t63.5 35t50 29.5l41 -53q-49 -41 -119.5 -87 t-148.5 -93l-74 -45l-25 -150h-127l21 150q-109 33 -178.5 128t-69.5 248z" />
<glyph unicode="&#xa3;" horiz-adv-x="1175" d="M27 0l4 72l207 92l86 481h-181l9 43l79 76h113l53 313q25 135 108 218t249 130l147 45q20 -6 52 -18t66 -27.5t67.5 -34t58.5 -36.5l-129 -160q-18 20 -49 45t-65 46.5t-67.5 37.5t-58.5 23q-31 -18 -55.5 -47t-43 -64t-29.5 -74t-17 -76l-58 -321h349l-21 -119h-348 l-64 -369l-106 -170l479 7l111 204h123l-109 -317l-678 6z" />
<glyph unicode="&#xa4;" d="M213 346l135 115q-60 111 -35 256q29 158 146 278l-101 123l111 94l102 -127q61 39 131 60.5t142 21.5t132 -21.5t109 -58.5l144 121l78 -96l-140 -119q35 -57 48.5 -127.5t-1.5 -148.5q-12 -72 -45.5 -137.5t-81.5 -120.5l91 -107l-111 -94l-86 104 q-68 -47 -143.5 -71.5t-153.5 -24.5t-144.5 24.5t-115.5 69.5l-131 -110zM422 717q-12 -72 4 -133.5t54 -108.5t95.5 -73.5t129.5 -26.5q70 0 137 26.5t121.5 73.5t92.5 108.5t50 133.5q12 70 -3.5 132t-54 109.5t-96 74t-127.5 26.5q-72 0 -138 -26.5t-121.5 -74 t-93.5 -109.5t-50 -132z" />
<glyph unicode="&#xa5;" horiz-adv-x="1327" d="M137 1354l23 82l250 -6l284 6l-2 -82l-168 -27l226 -555v-96l415 651l-164 27l23 82l227 -6l166 6l-2 -82l-106 -25l-496 -749l-4 -23h319l-16 -98h-319l-15 -101h316l-19 -98h-313l-23 -154l228 -26l-23 -82l-350 6l-346 -6l2 82l242 26l22 154h-289l17 98h288l15 101 h-285l16 98h285l4 25l-313 747z" />
<glyph unicode="&#xa6;" horiz-adv-x="841" d="M184 -502l154 881h127l-154 -881h-127zM377 590l153 880h127l-153 -880h-127z" />
<glyph unicode="&#xa7;" horiz-adv-x="1081" d="M31 -281l133 144q18 -23 56 -58.5t82 -73.5t87 -71t72 -47l26 20q41 31 69 77t28 106q0 51 -14.5 93t-43 82t-71.5 83t-101 94q-57 51 -103 94t-79 86t-50.5 91t-17.5 108q0 115 71 201t173 133q-23 35 -38 83t-15 91q0 141 81 233t255 142l141 38q31 -10 68 -32.5 t72.5 -49t67.5 -54t50 -48.5l-149 -121q-18 23 -48 51.5t-64 56t-69.5 50t-64.5 35.5l-33 -23q-43 -31 -69.5 -82t-26.5 -110q0 -74 39 -145.5t149 -164.5l293 -243v-74q0 -90 -23.5 -153.5t-60.5 -108.5t-83 -77t-91 -58q31 -39 48.5 -99.5t17.5 -109.5q0 -57 -13.5 -110.5 t-44 -99.5t-82 -82t-127.5 -58l-206 -60q-37 14 -79 42t-82 60.5t-75 64.5t-55 54zM297 637q0 -78 58.5 -148.5t170.5 -171.5q14 -14 36 -31.5t43.5 -36t40 -35.5t30.5 -32q45 39 80 91.5t35 138.5v49l-226 186q-53 45 -99 90t-79 88q-90 -80 -90 -188z" />
<glyph unicode="&#xa8;" horiz-adv-x="1024" d="M221 1196l8 107l39 86l82 12l94 -12l-2 -103l-39 -90l-75 -12zM578 1196l8 107l39 86l80 12l96 -12l-2 -103l-39 -90l-78 -12z" />
<glyph unicode="&#xa9;" horiz-adv-x="1705" d="M143 729q0 162 53.5 288t151.5 217t236.5 148.5t306.5 81.5q150 -2 287 -53t239.5 -148.5t163.5 -237.5t61 -320q0 -162 -53 -288t-151.5 -217t-236.5 -148.5t-306 -82.5q-152 2 -288 53.5t-238.5 148.5t-164 237.5t-61.5 320.5zM279 729q0 -172 60 -298t152.5 -208 t200 -122t199.5 -40q123 0 234.5 43t196.5 126t135 203t50 272q0 172 -60.5 297.5t-152.5 207.5t-199.5 122t-199.5 40q-123 0 -234.5 -43t-196.5 -126t-135 -202.5t-50 -271.5zM483 700q0 102 33 179t92.5 130.5t144.5 86t187 49.5q92 0 167 -29t116 -55v-180h-78l-37 108 q-23 29 -68 55.5t-116 26.5q-117 0 -192 -85t-75 -251q0 -72 19.5 -139.5t56.5 -118.5t90.5 -81.5t120.5 -30.5q55 0 93 21.5t65 45.5l61 135h76l-27 -190q-53 -23 -133 -49.5t-166 -38.5q-84 0 -161.5 26.5t-137 78.5t-95.5 129t-36 177z" />
<glyph unicode="&#xaa;" horiz-adv-x="890" d="M84 942q0 154 86 268.5t242 184.5l125 61q57 -2 142 -22.5t161 -47.5l-129 -620l131 78l32 -49l-239 -168l-127 55l16 92l35 80l-260 -227q-43 10 -83 32.5t-68.5 60.5t-46 92t-17.5 130zM276 995q0 -74 29 -128t57 -81l189 136l76 376q-35 23 -90.5 36.5t-100.5 13.5 q-59 -53 -109.5 -142.5t-50.5 -210.5z" />
<glyph unicode="&#xab;" horiz-adv-x="1067" d="M72 481l450 451h131l-340 -453l183 -448h-134zM475 481l451 451h131l-340 -453l182 -448h-133z" />
<glyph unicode="&#xac;" d="M106 625v143h1055v-399h-143v256h-912z" />
<glyph unicode="&#xad;" horiz-adv-x="710" d="M41 504l25 135h593l-24 -135h-594z" />
<glyph unicode="&#xae;" horiz-adv-x="1218" d="M154 899q0 111 36.5 197t104 148.5t163 102t210.5 56.5q104 0 198.5 -36t166 -101.5t113.5 -162.5t42 -220q0 -111 -37 -197t-104.5 -148.5t-162.5 -102.5t-212 -56q-104 0 -197.5 36t-165 102.5t-113.5 162.5t-42 219zM246 899q0 -119 42 -206t105.5 -144t137.5 -85 t137 -28q86 0 162.5 31t136 88t94.5 140t35 188q0 119 -42 206t-105.5 144t-138.5 85t-138 28q-84 0 -162 -31t-136.5 -88.5t-93 -140t-34.5 -187.5zM397 659l66 9v454l-66 8l4 41l127 -2l193 2q78 0 130 -35.5t52 -101.5q0 -61 -54 -96t-132 -49l94 -41l123 -178l39 -11 l-2 -43l-97 2l-69 -2l-162 244l-10 8h-35v-200l61 -9l-4 -43l-125 2l-129 -2zM598 920h53q45 0 77 27.5t32 80.5q0 51 -30 76.5t-73 25.5l-59 -6v-204z" />
<glyph unicode="&#xaf;" horiz-adv-x="1024" d="M209 1229l20 127h584l-20 -127h-584z" />
<glyph unicode="&#xb0;" horiz-adv-x="841" d="M236 1225q0 66 21.5 115t62 85.5t100 64.5t135.5 52q66 0 123 -25.5t100 -68.5t68.5 -100.5t25.5 -122.5q0 -131 -74.5 -206t-242.5 -114q-66 0 -124 25.5t-101 68.5t-68.5 101.5t-25.5 124.5zM360 1225q0 -39 15.5 -75t42 -62.5t61.5 -42t76 -15.5q39 0 74 15.5t61.5 42 t42 62.5t15.5 75t-15.5 74.5t-42 61t-61.5 41t-74 15.5q-41 0 -76 -15.5t-61.5 -41t-42 -61t-15.5 -74.5z" />
<glyph unicode="&#xb1;" d="M98 0v143h1065v-143h-1065zM98 729v143h457v465h143v-465h455v-143h-455v-446h-143v446h-457z" />
<glyph unicode="&#xb2;" horiz-adv-x="737" d="M106 872l261 228q98 80 169.5 163t71.5 175q0 51 -23.5 81.5t-66.5 32.5l-69 -22l-58 -133h-121l19 141l289 88q115 0 171 -46t56 -130q0 -61 -30 -116.5t-77 -102.5t-104 -88t-115 -74l-239 -149l215 45h290v-54l-57 -94h-559z" />
<glyph unicode="&#xb3;" horiz-adv-x="638" d="M104 815l27 148h281q80 55 80 133q0 41 -37 68.5t-121 27.5l-12 41l55 22q74 31 118 84.5t44 120.5q0 41 -19.5 63.5t-50.5 24.5l-72 -18l-57 -125h-137l18 137l301 84q117 0 163 -41t46 -102q0 -43 -21.5 -77t-55 -59.5t-75.5 -43t-85 -27.5q109 -8 155.5 -53t46.5 -99 q0 -63 -32.5 -105t-82 -70.5t-107.5 -48t-109 -38.5l-125 -47h-136z" />
<glyph unicode="&#xb4;" horiz-adv-x="1024" d="M313 1124l156 357h240l-295 -357h-101z" />
<glyph unicode="&#xb5;" d="M106 -471l250 1442h215l-118 -692q-10 -59 6 -88t53 -29q39 0 87 28.5t79 49.5l94 63l117 668h213l-148 -838l168 100l39 -53l-299 -213l-127 64l15 119l34 71l-354 -254q-35 0 -67.5 7.5t-55.5 21.5l6 -64l45 -403h-252z" />
<glyph unicode="&#xb6;" horiz-adv-x="1069" d="M88 1090q0 51 24.5 96t65.5 87t97.5 81t121.5 80h584v-109l-107 -20v-1631h-133v1631h-211v-1631h-135v1139q-66 0 -121 19.5t-97 54.5t-65.5 86t-23.5 117z" />
<glyph unicode="&#xb7;" horiz-adv-x="911" d="M362 707l13 127l31 108l169 12l64 -12l-8 -125l-33 -110l-170 -11z" />
<glyph unicode="&#xb8;" horiz-adv-x="1024" d="M289 -498l59 88h160q35 20 51 54t16 69t-15 58.5t-37.5 38t-52.5 20.5t-56 6l176 205l63 -33l-86 -104q66 0 116 -35t50 -102q0 -49 -21.5 -86t-53 -65t-70.5 -46.5t-74 -30.5l-104 -37h-121z" />
<glyph unicode="&#xb9;" horiz-adv-x="632" d="M137 815l6 66l176 18l111 551l21 33l-68 -35l-117 -21l-16 66l299 119h98l-139 -713l172 -18l-18 -66l-256 4z" />
<glyph unicode="&#xba;" horiz-adv-x="878" d="M100 952q0 152 90.5 273t253.5 186l105 43q61 0 117.5 -21.5t98.5 -63.5t67.5 -103.5t25.5 -141.5q0 -154 -88 -274.5t-254 -183.5l-104 -41q-61 0 -117.5 20.5t-99.5 62.5t-69 103t-26 141zM309 987q0 -129 49.5 -189.5t118.5 -76.5q47 18 80 59t52.5 93.5t28.5 109.5 t9 107q0 129 -49 190.5t-119 75.5q-47 -18 -78.5 -59.5t-52 -93.5t-30 -108.5t-9.5 -107.5z" />
<glyph unicode="&#xbb;" horiz-adv-x="1112" d="M63 31l338 448l-180 453h131l295 -451l-450 -450h-134zM467 31l338 448l-180 453h131l295 -451l-451 -450h-133z" />
<glyph unicode="&#xbc;" horiz-adv-x="1685" d="M104 643l7 66l176 20l110 549l21 35l-68 -37l-119 -21l-14 66l299 119h98l-139 -711l170 -20l-16 -66l-256 4zM254 -102l1067 1556h133l-1063 -1556h-137zM920 330l460 479h179l-13 -72l-522 -401l92 37h166l16 78l148 104h37l-39 -182h153l-22 -127h-152l-49 -246h-162 l48 246h-304z" />
<glyph unicode="&#xbd;" horiz-adv-x="1703" d="M104 643l7 66l176 20l110 549l21 35l-68 -37l-119 -21l-14 66l299 119h98l-139 -711l170 -20l-16 -66l-256 4zM254 -102l1067 1556h133l-1063 -1556h-137zM907 55l260 228q49 39 92.5 79.5t76 82.5t52 86t19.5 90q0 51 -23.5 81.5t-66.5 32.5l-70 -22l-57 -133h-121 l18 141l289 90q117 0 172.5 -47t55.5 -131q0 -61 -30 -116.5t-76 -102.5t-104.5 -88t-115.5 -74l-240 -150l215 45h291v-53l-57 -94h-559z" />
<glyph unicode="&#xbe;" horiz-adv-x="1638" d="M111 643l26 148h281q80 57 80 133q0 41 -37 68.5t-121 27.5l-14 41l57 22q74 31 118 84.5t44 120.5q0 41 -19.5 63.5t-52.5 24.5l-72 -18l-55 -125h-137l18 137l301 86q115 0 161 -42t46 -103q0 -43 -21.5 -77t-55 -59.5t-75.5 -43t-85 -27.5q109 -8 156.5 -53t47.5 -99 q0 -63 -32.5 -105t-81.5 -70.5t-107.5 -48t-109.5 -38.5l-125 -47h-135zM215 -102l1067 1556h133l-1063 -1556h-137zM879 330l462 479h177l-13 -72l-522 -401l92 37h166l16 78l148 104h37l-37 -182h151l-22 -127h-152l-47 -246h-161l45 246h-304z" />
<glyph unicode="&#xbf;" horiz-adv-x="786" d="M-23 -184q0 141 82 232t230 155l133 55l82 244h112l-41 -242l-174 -98q-90 -49 -132 -130t-42 -165q0 -39 8.5 -81t24.5 -78t44 -62.5t65 -34.5l96 31l35 151h151l2 -160l-368 -135q-59 0 -114.5 23.5t-98.5 64.5t-69 99.5t-26 130.5zM483 717l11 125l32 108l170 13 l64 -13l-10 -127l-31 -106l-170 -12z" />
<glyph unicode="&#xc0;" horiz-adv-x="1388" d="M-43 -2v82l147 22l756 1319l195 49l137 -1368l143 -22l-20 -82l-301 6l-254 -6l2 82l166 26l-33 367h-453l-202 -367l166 -26l-23 -82l-215 6zM498 578h387l-45 499l6 144zM727 1847h248l43 -274h-107z" />
<glyph unicode="&#xc1;" horiz-adv-x="1388" d="M-43 -2v82l147 22l756 1319l195 49l137 -1368l143 -22l-20 -82l-301 6l-254 -6l2 82l166 26l-33 367h-453l-202 -367l166 -26l-23 -82l-215 6zM498 578h387l-45 499l6 144zM909 1573l129 274h269l-285 -274h-113z" />
<glyph unicode="&#xc2;" horiz-adv-x="1388" d="M-43 -2v82l147 22l756 1319l195 49l137 -1368l143 -22l-20 -82l-301 6l-254 -6l2 82l166 26l-33 367h-453l-202 -367l166 -26l-23 -82l-215 6zM498 578h387l-45 499l6 144zM692 1573l240 274h192l142 -274h-125l-137 147l-185 -147h-127z" />
<glyph unicode="&#xc3;" horiz-adv-x="1388" d="M-43 -2v82l147 22l756 1319l195 49l137 -1368l143 -22l-20 -82l-301 6l-254 -6l2 82l166 26l-33 367h-453l-202 -367l166 -26l-23 -82l-215 6zM498 578h387l-45 499l6 144zM676 1585l90 207l147 45l304 -119l94 115h51l-94 -217l-142 -35l-305 117l-92 -113h-53z" />
<glyph unicode="&#xc4;" horiz-adv-x="1388" d="M-43 -2v82l147 22l756 1319l195 49l137 -1368l143 -22l-20 -82l-301 6l-254 -6l2 82l166 26l-33 367h-453l-202 -367l166 -26l-23 -82l-215 6zM498 578h387l-45 499l6 144zM676 1589l8 113l41 88l80 10l102 -10l-2 -102l-39 -99l-84 -12zM1114 1589l8 113l39 88l82 10 l100 -10l-2 -102l-36 -99l-86 -12z" />
<glyph unicode="&#xc5;" horiz-adv-x="1388" d="M-43 -2v82l147 22l756 1319l195 49l137 -1368l143 -22l-20 -82l-301 6l-254 -6l2 82l166 26l-33 367h-453l-202 -367l166 -26l-23 -82l-215 6zM498 578h387l-45 499l6 144zM756 1718q0 49 18.5 83t49 57.5t70.5 38t83 26.5q47 0 87 -10t69.5 -34t47 -63t17.5 -98 q0 -55 -17.5 -85.5t-46 -50t-67.5 -32t-84 -28.5q-41 0 -82 9t-73.5 31.5t-52 60.5t-19.5 95zM862 1718q0 -49 34 -78.5t83 -29.5t83 29.5t34 78.5t-34 83t-83 34t-83 -34t-34 -83z" />
<glyph unicode="&#xc6;" horiz-adv-x="1830" d="M-43 -2l4 82l148 22l849 1334l183 -6l721 6v-357h-80l-92 242l-439 6l-92 -582l221 9l129 237h64l-78 -297l-18 -303h-62l-53 240l-219 8l-82 -535l469 7l160 284h86l-95 -397l-768 4l-270 -4l2 82l176 26l84 535h-323l-330 -535l166 -26l-25 -82l-223 6zM639 741h283 l98 600z" />
<glyph unicode="&#xc7;" horiz-adv-x="1290" d="M100 588q0 119 30 240.5t97.5 231t178 201t272.5 146.5l192 68q76 0 142.5 -14.5t122 -37t97.5 -49t71 -51.5l-9 -317h-118l-48 198q-45 47 -132 86t-228 62q-199 -92 -297 -276.5t-98 -436.5q0 -135 32.5 -235.5t88 -169t129 -106.5t155.5 -44q78 31 127 60.5t101 76.5 l120 240h125l-88 -361l-479 -137l-47 -59q66 0 116 -35t50 -102q0 -49 -21.5 -86t-54.5 -65t-72 -46.5t-73 -30.5l-105 -37h-121l60 88h162q33 20 49 54t16 69t-15.5 58.5t-38 38t-51 20.5t-55.5 6l113 133q-231 27 -363.5 190t-132.5 429z" />
<glyph unicode="&#xc8;" horiz-adv-x="1228" d="M-20 -2l2 82l176 26l194 1223l-170 27l23 80l280 -6l775 6v-365h-86l-95 252l-479 6l-82 -528l262 8l127 217h74l-74 -274l-16 -275h-76l-51 217l-262 8l-96 -598l530 7l160 276h92l-94 -389l-836 6zM569 1847h248l43 -274h-106z" />
<glyph unicode="&#xc9;" horiz-adv-x="1228" d="M-20 -2l2 82l176 26l194 1223l-170 27l23 80l280 -6l775 6v-365h-86l-95 252l-479 6l-82 -528l262 8l127 217h74l-74 -274l-16 -275h-76l-51 217l-262 8l-96 -598l530 7l160 276h92l-94 -389l-836 6zM711 1573l129 274h268l-285 -274h-112z" />
<glyph unicode="&#xca;" horiz-adv-x="1228" d="M-20 -2l2 82l176 26l194 1223l-170 27l23 80l280 -6l775 6v-365h-86l-95 252l-479 6l-82 -528l262 8l127 217h74l-74 -274l-16 -275h-76l-51 217l-262 8l-96 -598l530 7l160 276h92l-94 -389l-836 6zM485 1573l240 274h193l141 -274h-125l-137 147l-185 -147h-127z" />
<glyph unicode="&#xcb;" horiz-adv-x="1228" d="M-20 -2l2 82l176 26l194 1223l-170 27l23 80l280 -6l775 6v-365h-86l-95 252l-479 6l-82 -528l262 8l127 217h74l-74 -274l-16 -275h-76l-51 217l-262 8l-96 -598l530 7l160 276h92l-94 -389l-836 6zM477 1589l8 113l39 88l82 10l101 -10v-102l-39 -99l-84 -12zM915 1589 l9 113l39 88l79 10l103 -10l-2 -102l-37 -99l-86 -12z" />
<glyph unicode="&#xcc;" horiz-adv-x="671" d="M-18 -2l4 82l174 26l194 1221l-168 27l23 82l289 -6l278 6l-2 -82l-170 -27l-196 -1221l161 -26l-22 -82l-283 6zM276 1847h248l43 -274h-106z" />
<glyph unicode="&#xcd;" horiz-adv-x="671" d="M-18 -2l4 82l174 26l194 1221l-168 27l23 82l289 -6l278 6l-2 -82l-170 -27l-196 -1221l161 -26l-22 -82l-283 6zM446 1573l129 274h269l-285 -274h-113z" />
<glyph unicode="&#xce;" horiz-adv-x="671" d="M-18 -2l4 82l174 26l194 1221l-168 27l23 82l289 -6l278 6l-2 -82l-170 -27l-196 -1221l161 -26l-22 -82l-283 6zM225 1573l238 274h192l144 -274h-125l-139 147l-185 -147h-125z" />
<glyph unicode="&#xcf;" horiz-adv-x="671" d="M-18 -2l4 82l174 26l194 1221l-168 27l23 82l289 -6l278 6l-2 -82l-170 -27l-196 -1221l161 -26l-22 -82l-283 6zM225 1597l8 105l39 88l82 10l92 -10v-102l-38 -91l-78 -12zM623 1597l8 105l39 88l80 10l94 -10l-2 -102l-37 -91l-78 -12z" />
<glyph unicode="&#xd0;" horiz-adv-x="1394" d="M-18 -2v82l174 26l94 586h-170l18 105h168l86 538l-172 21l23 80l289 -6l339 6q129 2 233.5 -41t176.5 -123t111 -191.5t39 -246.5q0 -115 -33 -230t-105.5 -218t-186.5 -189t-273 -142l-164 -57l-365 6zM408 125h331q76 43 144.5 107.5t121 150.5t83 191.5t30.5 228.5 q0 129 -29.5 227t-81 165t-120 102.5t-144.5 39.5h-143l-86 -540h240l-19 -105h-237z" />
<glyph unicode="&#xd1;" horiz-adv-x="1441" d="M-20 -2l2 82l174 26l192 1211l-162 37l23 82l186 -6l174 6l496 -949l31 -182l147 1022l-160 27l23 82l213 -6l237 6l-2 -82l-178 -27l-209 -1327h-143l-537 1057l-22 188l-174 -1139l170 -26l-23 -82l-227 6zM569 1585l90 207l148 45l303 -119l94 115h51l-94 -217 l-141 -35l-305 117l-92 -113h-54z" />
<glyph unicode="&#xd2;" horiz-adv-x="1447" d="M100 590q0 121 32 246t103.5 237.5t184 202.5t276.5 141l170 53q131 0 236.5 -44t179.5 -125.5t114 -197.5t40 -259q0 -121 -32 -246t-103.5 -237.5t-185.5 -202.5t-275 -142l-170 -53q-133 0 -238.5 44t-179.5 126t-113 197.5t-39 259.5zM371 618q0 -127 29.5 -222 t80.5 -160.5t121 -104.5t150 -51q98 41 175 112.5t129 167t79.5 211t27.5 244.5q0 125 -29.5 221.5t-81 162t-121 104t-149.5 51.5q-98 -41 -175 -113t-129 -167t-79.5 -211t-27.5 -245zM639 1847h248l43 -274h-107z" />
<glyph unicode="&#xd3;" horiz-adv-x="1447" d="M100 590q0 121 32 246t103.5 237.5t184 202.5t276.5 141l170 53q131 0 236.5 -44t179.5 -125.5t114 -197.5t40 -259q0 -121 -32 -246t-103.5 -237.5t-185.5 -202.5t-275 -142l-170 -53q-133 0 -238.5 44t-179.5 126t-113 197.5t-39 259.5zM371 618q0 -127 29.5 -222 t80.5 -160.5t121 -104.5t150 -51q98 41 175 112.5t129 167t79.5 211t27.5 244.5q0 125 -29.5 221.5t-81 162t-121 104t-149.5 51.5q-98 -41 -175 -113t-129 -167t-79.5 -211t-27.5 -245zM829 1573l127 274h269l-283 -274h-113z" />
<glyph unicode="&#xd4;" horiz-adv-x="1447" d="M100 590q0 121 32 246t103.5 237.5t184 202.5t276.5 141l170 53q131 0 236.5 -44t179.5 -125.5t114 -197.5t40 -259q0 -121 -32 -246t-103.5 -237.5t-185.5 -202.5t-275 -142l-170 -53q-133 0 -238.5 44t-179.5 126t-113 197.5t-39 259.5zM371 618q0 -127 29.5 -222 t80.5 -160.5t121 -104.5t150 -51q98 41 175 112.5t129 167t79.5 211t27.5 244.5q0 125 -29.5 221.5t-81 162t-121 104t-149.5 51.5q-98 -41 -175 -113t-129 -167t-79.5 -211t-27.5 -245zM612 1573l238 274h192l144 -274h-125l-139 147l-185 -147h-125z" />
<glyph unicode="&#xd5;" horiz-adv-x="1447" d="M100 590q0 121 32 246t103.5 237.5t184 202.5t276.5 141l170 53q131 0 236.5 -44t179.5 -125.5t114 -197.5t40 -259q0 -121 -32 -246t-103.5 -237.5t-185.5 -202.5t-275 -142l-170 -53q-133 0 -238.5 44t-179.5 126t-113 197.5t-39 259.5zM371 618q0 -127 29.5 -222 t80.5 -160.5t121 -104.5t150 -51q98 41 175 112.5t129 167t79.5 211t27.5 244.5q0 125 -29.5 221.5t-81 162t-121 104t-149.5 51.5q-98 -41 -175 -113t-129 -167t-79.5 -211t-27.5 -245zM606 1585l90 207l148 45l303 -119l94 115h51l-94 -217l-143 -35l-305 117l-93 -113 h-51z" />
<glyph unicode="&#xd6;" horiz-adv-x="1447" d="M100 590q0 121 32 246t103.5 237.5t184 202.5t276.5 141l170 53q131 0 236.5 -44t179.5 -125.5t114 -197.5t40 -259q0 -121 -32 -246t-103.5 -237.5t-185.5 -202.5t-275 -142l-170 -53q-133 0 -238.5 44t-179.5 126t-113 197.5t-39 259.5zM371 618q0 -127 29.5 -222 t80.5 -160.5t121 -104.5t150 -51q98 41 175 112.5t129 167t79.5 211t27.5 244.5q0 125 -29.5 221.5t-81 162t-121 104t-149.5 51.5q-98 -41 -175 -113t-129 -167t-79.5 -211t-27.5 -245zM598 1589l8 113l39 88l82 10l100 -10l-2 -102l-39 -99l-84 -12zM1036 1589l8 113 l39 88l80 10l103 -10l-2 -102l-39 -99l-84 -12z" />
<glyph unicode="&#xd7;" d="M199 125l336 332l-336 336l100 102l336 -336l334 334l100 -102l-334 -334l334 -332l-102 -100l-332 331l-334 -333z" />
<glyph unicode="&#xd8;" horiz-adv-x="1447" d="M45 -31l182 211q-113 160 -112 410q0 121 31.5 246t103.5 237.5t184.5 202.5t276.5 141l170 53q111 0 200.5 -30.5t161.5 -87.5l98 112h121l-153 -178q141 -166 141 -442q0 -121 -32 -246t-103.5 -237.5t-185 -202.5t-275.5 -142l-170 -53q-123 0 -223.5 37t-171.5 109 l-119 -140h-125zM385 618q0 -66 7 -120t22 -103l673 776q-53 78 -127.5 123t-162.5 60q-98 -41 -175 -113t-129.5 -167t-80 -211t-27.5 -245zM453 297q53 -96 134 -149.5t179 -67.5q98 41 175 112.5t129 167t80 211t28 244.5q0 78 -11.5 144.5t-33.5 121.5z" />
<glyph unicode="&#xd9;" horiz-adv-x="1386" d="M160 1354l22 82l275 -6l297 6l-2 -82l-168 -27l-144 -862q-12 -74 2.5 -142.5t53.5 -119.5t103.5 -82t152.5 -31q59 25 105 53.5t81 71.5t58.5 106.5t37.5 155.5l137 850l-180 27l23 82l243 -6l252 6l-2 -82l-180 -27l-133 -840q-14 -86 -40 -160.5t-74 -135 t-124.5 -107.5t-193.5 -78l-158 -43q-133 0 -221 38t-136 107.5t-59.5 168t7.5 219.5l133 831zM651 1847h248l43 -274h-106z" />
<glyph unicode="&#xda;" horiz-adv-x="1386" d="M160 1354l22 82l275 -6l297 6l-2 -82l-168 -27l-144 -862q-12 -74 2.5 -142.5t53.5 -119.5t103.5 -82t152.5 -31q59 25 105 53.5t81 71.5t58.5 106.5t37.5 155.5l137 850l-180 27l23 82l243 -6l252 6l-2 -82l-180 -27l-133 -840q-14 -86 -40 -160.5t-74 -135 t-124.5 -107.5t-193.5 -78l-158 -43q-133 0 -221 38t-136 107.5t-59.5 168t7.5 219.5l133 831zM811 1573l127 274h268l-282 -274h-113z" />
<glyph unicode="&#xdb;" horiz-adv-x="1386" d="M160 1354l22 82l275 -6l297 6l-2 -82l-168 -27l-144 -862q-12 -74 2.5 -142.5t53.5 -119.5t103.5 -82t152.5 -31q59 25 105 53.5t81 71.5t58.5 106.5t37.5 155.5l137 850l-180 27l23 82l243 -6l252 6l-2 -82l-180 -27l-133 -840q-14 -86 -40 -160.5t-74 -135 t-124.5 -107.5t-193.5 -78l-158 -43q-133 0 -221 38t-136 107.5t-59.5 168t7.5 219.5l133 831zM610 1573l238 274h192l144 -274h-125l-139 147l-185 -147h-125z" />
<glyph unicode="&#xdc;" horiz-adv-x="1386" d="M160 1354l22 82l275 -6l297 6l-2 -82l-168 -27l-144 -862q-12 -74 2.5 -142.5t53.5 -119.5t103.5 -82t152.5 -31q59 25 105 53.5t81 71.5t58.5 106.5t37.5 155.5l137 850l-180 27l23 82l243 -6l252 6l-2 -82l-180 -27l-133 -840q-14 -86 -40 -160.5t-74 -135 t-124.5 -107.5t-193.5 -78l-158 -43q-133 0 -221 38t-136 107.5t-59.5 168t7.5 219.5l133 831zM596 1589l8 113l39 88l82 10l102 -10l-2 -102l-39 -99l-84 -12zM1034 1589l8 113l39 88l82 10l101 -10l-2 -102l-37 -99l-86 -12z" />
<glyph unicode="&#xdd;" horiz-adv-x="1310" d="M160 1354l20 82l252 -6l283 6v-82l-168 -27l225 -555v-96l414 651l-162 27l20 82l230 -6l166 6l-2 -82l-109 -25l-493 -749l-74 -474l225 -26l-22 -82l-349 6l-346 -6l2 82l242 26l74 476l-314 747zM793 1573l129 274h268l-285 -274h-112z" />
<glyph unicode="&#xde;" horiz-adv-x="1169" d="M-20 -2l2 82l176 26l194 1221l-170 27l25 84l289 -6l278 6l-4 -84l-170 -27l-29 -186l232 4q94 2 170 -19.5t128 -63.5t80.5 -100.5t28.5 -132.5q0 -84 -29.5 -152.5t-88 -123.5t-145.5 -101t-199 -87l-132 -46h-178l-32 -213l206 -26l-22 -82l-328 6zM461 453h287 q86 51 141 139t55 199q0 119 -56.5 186t-172.5 72h-160z" />
<glyph unicode="&#xdf;" horiz-adv-x="1130" d="M-233 -481l36 194h201q33 37 54.5 87t29.5 91l164 943h-199l10 38l87 76h122l15 86q12 80 48 154t101 115l271 163q68 -2 133 -12t116.5 -37.5t82 -74t30.5 -119.5q0 -49 -17.5 -92.5t-46 -79t-63.5 -65.5t-72 -54l-116 -86q-6 -8 -10.5 -25.5t-4.5 -29.5q0 -49 31 -91.5 t96 -99.5q39 -33 75 -65.5t63.5 -68.5t44 -77t16.5 -92q0 -92 -50 -157.5t-175 -108.5l-191 -66q-20 8 -53 23.5t-65.5 34t-61.5 37t-41 28.5l111 158q20 -18 49.5 -40t61.5 -43.5t62.5 -42t57.5 -32.5q96 27 96 125q0 39 -14 70.5t-36.5 61.5t-53.5 57.5t-64 58.5 q-66 59 -103.5 114.5t-37.5 129.5q0 37 8 64.5t23 47.5l102 92q61 55 106.5 122t45.5 159q0 47 -14.5 80t-36 52t-49 27.5t-52.5 8.5l-26 -15q-59 -43 -99.5 -97t-56.5 -144l-199 -1147q-16 -86 -63 -157.5t-121 -121.5l-242 -157h-116z" />
<glyph unicode="&#xe0;" horiz-adv-x="1036" d="M74 356q0 195 97 337.5t280 232.5l155 75q70 -2 167 -27.5t183 -58.5l-139 -788l168 106l39 -53l-299 -211l-137 70l20 117l39 94l-311 -281q-53 14 -100.5 42t-83 74t-57 112.5t-21.5 158.5zM307 424q0 -104 35 -171t82 -101l213 167l86 486q-23 14 -52.5 25.5 t-62.5 19.5t-65.5 12t-59.5 4q-72 -68 -124 -179t-52 -263zM520 1481h234l22 -357h-94z" />
<glyph unicode="&#xe1;" horiz-adv-x="1036" d="M74 356q0 195 97 337.5t280 232.5l155 75q70 -2 167 -27.5t183 -58.5l-139 -788l168 106l39 -53l-299 -211l-137 70l20 117l39 94l-311 -281q-53 14 -100.5 42t-83 74t-57 112.5t-21.5 158.5zM307 424q0 -104 35 -171t82 -101l213 167l86 486q-23 14 -52.5 25.5 t-62.5 19.5t-65.5 12t-59.5 4q-72 -68 -124 -179t-52 -263zM633 1124l155 357h240l-297 -357h-98z" />
<glyph unicode="&#xe2;" horiz-adv-x="1036" d="M74 356q0 195 97 337.5t280 232.5l155 75q70 -2 167 -27.5t183 -58.5l-139 -788l168 106l39 -53l-299 -211l-137 70l20 117l39 94l-311 -281q-53 14 -100.5 42t-83 74t-57 112.5t-21.5 158.5zM307 424q0 -104 35 -171t82 -101l213 167l86 486q-23 14 -52.5 25.5 t-62.5 19.5t-65.5 12t-59.5 4q-72 -68 -124 -179t-52 -263zM436 1124l250 357h158l123 -357h-101l-133 197l-196 -197h-101z" />
<glyph unicode="&#xe3;" horiz-adv-x="1036" d="M74 356q0 195 97 337.5t280 232.5l155 75q70 -2 167 -27.5t183 -58.5l-139 -788l168 106l39 -53l-299 -211l-137 70l20 117l39 94l-311 -281q-53 14 -100.5 42t-83 74t-57 112.5t-21.5 158.5zM307 424q0 -104 35 -171t82 -101l213 167l86 486q-23 14 -52.5 25.5 t-62.5 19.5t-65.5 12t-59.5 4q-72 -68 -124 -179t-52 -263zM383 1198l90 207l148 45l303 -117l94 113h51l-94 -217l-144 -35l-305 119l-92 -115h-51z" />
<glyph unicode="&#xe4;" horiz-adv-x="1036" d="M74 356q0 195 97 337.5t280 232.5l155 75q70 -2 167 -27.5t183 -58.5l-139 -788l168 106l39 -53l-299 -211l-137 70l20 117l39 94l-311 -281q-53 14 -100.5 42t-83 74t-57 112.5t-21.5 158.5zM307 424q0 -104 35 -171t82 -101l213 167l86 486q-23 14 -52.5 25.5 t-62.5 19.5t-65.5 12t-59.5 4q-72 -68 -124 -179t-52 -263zM420 1196l8 107l39 86l82 12l94 -12l-2 -103l-39 -90l-76 -12zM776 1196l8 107l39 86l80 12l96 -12l-2 -103l-39 -90l-77 -12z" />
<glyph unicode="&#xe5;" horiz-adv-x="1036" d="M74 356q0 195 97 337.5t280 232.5l155 75q70 -2 167 -27.5t183 -58.5l-139 -788l168 106l39 -53l-299 -211l-137 70l20 117l39 94l-311 -281q-53 14 -100.5 42t-83 74t-57 112.5t-21.5 158.5zM307 424q0 -104 35 -171t82 -101l213 167l86 486q-23 14 -52.5 25.5 t-62.5 19.5t-65.5 12t-59.5 4q-72 -68 -124 -179t-52 -263zM520 1307q0 49 18.5 82.5t49 57t69.5 38t82 26.5q47 0 87 -10t70 -33.5t47.5 -62.5t17.5 -98q0 -55 -17.5 -86t-46.5 -50.5t-67.5 -32t-84.5 -28.5q-41 0 -81.5 9t-72.5 32t-51.5 60.5t-19.5 95.5zM625 1307 q0 -49 33.5 -79t82.5 -30t83 29.5t34 79.5q0 49 -33.5 82.5t-83.5 33.5q-49 0 -82.5 -33.5t-33.5 -82.5z" />
<glyph unicode="&#xe6;" horiz-adv-x="1398" d="M66 356q0 195 98 337.5t278 232.5l158 75q66 -2 158 -25.5t178 -53.5l205 79q94 -18 156.5 -70t62.5 -155q0 -41 -8.5 -83t-24.5 -95l-520 -160v-39q2 -59 20.5 -104t46 -77t63.5 -52.5t73 -26.5q27 10 60.5 25.5t68.5 33t67.5 36t59.5 34.5l39 -55q-25 -18 -60 -42 t-75 -49.5t-83 -51t-83 -45.5l-103 -56q-106 8 -188 67.5t-117 164.5l-260 -232q-55 14 -104.5 42t-86 74t-58 112.5t-21.5 158.5zM301 424q0 -104 38 -171t85 -101l154 118q-23 139 22 280.5t145 244.5q-63 35 -135.5 53t-132.5 18q-72 -68 -124 -179t-52 -263zM811 512 l299 119q10 35 15 61.5t5 55.5q0 66 -30.5 100.5t-73.5 42.5q-49 -25 -86 -65t-63.5 -90t-42 -107.5t-23.5 -116.5z" />
<glyph unicode="&#xe7;" horiz-adv-x="872" d="M76 362q0 193 106.5 341.5t311.5 236.5l135 61q49 -4 118.5 -25.5t122.5 -51.5l-116 -191q-59 41 -124 74t-120 55q-98 -59 -148.5 -167.5t-50.5 -248.5q0 -137 59.5 -208.5t149.5 -98.5q25 10 56.5 26.5t65.5 34t63.5 35t50.5 29.5l41 -53q-49 -41 -120 -87t-149 -93 l-100 -62l-53 -65q66 0 116 -35t50 -102q0 -49 -21.5 -86t-54.5 -65t-72 -46.5t-71 -30.5l-105 -37h-123l60 88h161q33 20 49.5 54t16.5 69t-15.5 58.5t-38 38t-51 20.5t-55.5 6l125 144q-117 29 -193.5 126t-76.5 256z" />
<glyph unicode="&#xe8;" horiz-adv-x="905" d="M76 350q0 96 26.5 187.5t78.5 169t128 138t174 97.5l164 59q94 -18 156.5 -70t62.5 -155q0 -41 -8 -83t-24 -95l-521 -160v-39q2 -59 20.5 -104t46.5 -77t63.5 -52.5t72.5 -26.5q27 10 60.5 25.5t68.5 33t67.5 36t59.5 34.5l39 -55q-25 -18 -60.5 -42t-75.5 -49.5 t-82 -51t-83 -45.5l-102 -56q-70 4 -130.5 34t-105.5 79t-70.5 116.5t-25.5 151.5zM317 512l299 119q10 35 15.5 61.5t5.5 55.5q0 66 -31 100.5t-74 42.5q-49 -25 -85.5 -65t-63.5 -90t-42 -107.5t-24 -116.5zM414 1481h231l25 -357h-95z" />
<glyph unicode="&#xe9;" horiz-adv-x="905" d="M76 350q0 96 26.5 187.5t78.5 169t128 138t174 97.5l164 59q94 -18 156.5 -70t62.5 -155q0 -41 -8 -83t-24 -95l-521 -160v-39q2 -59 20.5 -104t46.5 -77t63.5 -52.5t72.5 -26.5q27 10 60.5 25.5t68.5 33t67.5 36t59.5 34.5l39 -55q-25 -18 -60.5 -42t-75.5 -49.5 t-82 -51t-83 -45.5l-102 -56q-70 4 -130.5 34t-105.5 79t-70.5 116.5t-25.5 151.5zM317 512l299 119q10 35 15.5 61.5t5.5 55.5q0 66 -31 100.5t-74 42.5q-49 -25 -85.5 -65t-63.5 -90t-42 -107.5t-24 -116.5zM539 1124l157 357h240l-297 -357h-100z" />
<glyph unicode="&#xea;" horiz-adv-x="905" d="M76 350q0 96 26.5 187.5t78.5 169t128 138t174 97.5l164 59q94 -18 156.5 -70t62.5 -155q0 -41 -8 -83t-24 -95l-521 -160v-39q2 -59 20.5 -104t46.5 -77t63.5 -52.5t72.5 -26.5q27 10 60.5 25.5t68.5 33t67.5 36t59.5 34.5l39 -55q-25 -18 -60.5 -42t-75.5 -49.5 t-82 -51t-83 -45.5l-102 -56q-70 4 -130.5 34t-105.5 79t-70.5 116.5t-25.5 151.5zM317 512l299 119q10 35 15.5 61.5t5.5 55.5q0 66 -31 100.5t-74 42.5q-49 -25 -85.5 -65t-63.5 -90t-42 -107.5t-24 -116.5zM352 1124l250 357h158l123 -357h-101l-133 197l-196 -197h-101z " />
<glyph unicode="&#xeb;" horiz-adv-x="905" d="M76 350q0 96 26.5 187.5t78.5 169t128 138t174 97.5l164 59q94 -18 156.5 -70t62.5 -155q0 -41 -8 -83t-24 -95l-521 -160v-39q2 -59 20.5 -104t46.5 -77t63.5 -52.5t72.5 -26.5q27 10 60.5 25.5t68.5 33t67.5 36t59.5 34.5l39 -55q-25 -18 -60.5 -42t-75.5 -49.5 t-82 -51t-83 -45.5l-102 -56q-70 4 -130.5 34t-105.5 79t-70.5 116.5t-25.5 151.5zM317 512l299 119q10 35 15.5 61.5t5.5 55.5q0 66 -31 100.5t-74 42.5q-49 -25 -85.5 -65t-63.5 -90t-42 -107.5t-24 -116.5zM348 1196l8 107l39 86l82 12l94 -12l-2 -103l-39 -90l-77 -12z M705 1196l8 107l39 86l79 12l95 -12l-2 -103l-37 -90l-78 -12z" />
<glyph unicode="&#xec;" horiz-adv-x="608" d="M66 848l348 153l84 -81l-140 -791l168 107l39 -54l-299 -213l-137 72l143 811l-182 -64zM250 1481h233l23 -357h-94z" />
<glyph unicode="&#xed;" horiz-adv-x="608" d="M66 848l348 153l84 -81l-140 -791l168 107l39 -54l-299 -213l-137 72l143 811l-182 -64zM365 1124l157 357h240l-297 -357h-100z" />
<glyph unicode="&#xee;" horiz-adv-x="608" d="M66 848l348 153l84 -81l-140 -791l168 107l39 -54l-299 -213l-137 72l143 811l-182 -64zM158 1124l250 357h157l123 -357h-100l-133 197l-197 -197h-100z" />
<glyph unicode="&#xef;" horiz-adv-x="608" d="M66 848l348 153l84 -81l-140 -791l168 107l39 -54l-299 -213l-137 72l143 811l-182 -64zM156 1196l8 107l39 86l82 12l94 -12l-2 -103l-39 -90l-76 -12zM512 1196l8 107l39 86l80 12l96 -12l-4 -103l-37 -90l-78 -12z" />
<glyph unicode="&#xf0;" horiz-adv-x="1026" d="M76 369q0 96 27.5 185t81 166t131 137.5t178.5 98.5l114 45q12 -4 34 -10t44.5 -13t40.5 -14.5t27 -11.5q-2 25 -14.5 55.5t-32 65.5t-46 70t-57.5 65l-227 -114v102l153 76q-47 35 -94 61.5t-94 36.5l33 96q162 -45 274 -123l244 123v-104l-160 -80q84 -72 134.5 -155 t77 -164.5t34.5 -157.5t8 -137q0 -133 -27.5 -235.5t-81 -181.5t-132 -136.5t-181.5 -100.5l-114 -45q-76 0 -144.5 25.5t-120 77t-81 125t-29.5 172.5zM317 408q0 -86 17.5 -145.5t47.5 -96.5t66.5 -55.5t75.5 -24.5q61 20 104.5 75.5t71 125t41 145.5t13.5 141v209 q-23 14 -60 29.5t-74.5 28t-70.5 20.5t-47 8q-51 -25 -86 -75t-56.5 -114.5t-32 -135t-10.5 -135.5z" />
<glyph unicode="&#xf1;" horiz-adv-x="1122" d="M66 848l348 153l84 -79l-19 -91l-30 -65l356 235q127 0 175 -68.5t30 -174.5l-113 -631l170 106l37 -53l-299 -211l-139 70l114 647q10 51 0 87t-59 36q-41 0 -89 -22.5t-83 -47.5l-94 -61l-121 -678h-213l149 850l-180 -62zM375 1198l90 207l147 45l303 -117l95 113h51 l-94 -217l-142 -35l-305 119l-92 -115h-53z" />
<glyph unicode="&#xf2;" horiz-adv-x="1013" d="M76 375q0 193 105.5 343t301.5 230l129 53q74 0 139.5 -26.5t117 -78.5t81 -129t29.5 -175q0 -193 -104.5 -343.5t-301.5 -228.5l-131 -51q-74 0 -139 27t-116.5 78t-81 126.5t-29.5 174.5zM311 420q0 -164 61.5 -242t151.5 -96q61 25 103.5 77t68 116.5t37.5 136 t12 135.5q0 82 -17 142.5t-47 100t-69 63.5t-84 32q-61 -25 -102 -76t-66.5 -115.5t-37 -137.5t-11.5 -136zM428 1481h231l25 -357h-94z" />
<glyph unicode="&#xf3;" horiz-adv-x="1013" d="M76 375q0 193 105.5 343t301.5 230l129 53q74 0 139.5 -26.5t117 -78.5t81 -129t29.5 -175q0 -193 -104.5 -343.5t-301.5 -228.5l-131 -51q-74 0 -139 27t-116.5 78t-81 126.5t-29.5 174.5zM311 420q0 -164 61.5 -242t151.5 -96q61 25 103.5 77t68 116.5t37.5 136 t12 135.5q0 82 -17 142.5t-47 100t-69 63.5t-84 32q-61 -25 -102 -76t-66.5 -115.5t-37 -137.5t-11.5 -136zM578 1124l155 357h240l-295 -357h-100z" />
<glyph unicode="&#xf4;" horiz-adv-x="1013" d="M76 375q0 193 105.5 343t301.5 230l129 53q74 0 139.5 -26.5t117 -78.5t81 -129t29.5 -175q0 -193 -104.5 -343.5t-301.5 -228.5l-131 -51q-74 0 -139 27t-116.5 78t-81 126.5t-29.5 174.5zM311 420q0 -164 61.5 -242t151.5 -96q61 25 103.5 77t68 116.5t37.5 136 t12 135.5q0 82 -17 142.5t-47 100t-69 63.5t-84 32q-61 -25 -102 -76t-66.5 -115.5t-37 -137.5t-11.5 -136zM389 1124l248 357h160l121 -357h-99l-133 197l-199 -197h-98z" />
<glyph unicode="&#xf5;" horiz-adv-x="1013" d="M76 375q0 193 105.5 343t301.5 230l129 53q74 0 139.5 -26.5t117 -78.5t81 -129t29.5 -175q0 -193 -104.5 -343.5t-301.5 -228.5l-131 -51q-74 0 -139 27t-116.5 78t-81 126.5t-29.5 174.5zM311 420q0 -164 61.5 -242t151.5 -96q61 25 103.5 77t68 116.5t37.5 136 t12 135.5q0 82 -17 142.5t-47 100t-69 63.5t-84 32q-61 -25 -102 -76t-66.5 -115.5t-37 -137.5t-11.5 -136zM344 1198l90 207l146 45l303 -117l94 113h53l-94 -217l-143 -35l-306 119l-92 -115h-51z" />
<glyph unicode="&#xf6;" horiz-adv-x="1013" d="M76 375q0 193 105.5 343t301.5 230l129 53q74 0 139.5 -26.5t117 -78.5t81 -129t29.5 -175q0 -193 -104.5 -343.5t-301.5 -228.5l-131 -51q-74 0 -139 27t-116.5 78t-81 126.5t-29.5 174.5zM311 420q0 -164 61.5 -242t151.5 -96q61 25 103.5 77t68 116.5t37.5 136 t12 135.5q0 82 -17 142.5t-47 100t-69 63.5t-84 32q-61 -25 -102 -76t-66.5 -115.5t-37 -137.5t-11.5 -136zM401 1196l9 107l41 86l79 12l95 -12l-2 -103l-39 -90l-76 -12zM758 1196l8 107l39 86l82 12l94 -12l-2 -103l-39 -90l-78 -12z" />
<glyph unicode="&#xf7;" d="M96 438v144h1075v-144h-1075zM508 127l12 106l168 13l66 -13l12 -122l-12 -111l-168 -12l-66 12zM508 887l12 108l168 13l66 -13l12 -125l-12 -110l-168 -10l-66 10z" />
<glyph unicode="&#xf8;" horiz-adv-x="1013" d="M76 -6l133 143q-29 47 -44 106.5t-15 131.5q0 193 105 343t302 230l129 53q68 0 131.5 -23.5t112.5 -70.5l76 82h114l-137 -147q33 -49 51.5 -110.5t18.5 -139.5q0 -193 -104.5 -343.5t-301.5 -228.5l-131 -51q-72 0 -137.5 24.5t-114.5 74.5l-69 -74h-119zM385 420 q0 -47 6 -90l389 418q-31 61 -77 94t-101 43q-61 -25 -102 -76t-66.5 -115.5t-37 -137.5t-11.5 -136zM416 231q29 -66 76 -101.5t106 -47.5q61 25 103 77t68 116.5t38 136.5t12 135q0 29 -3 56.5t-7 51.5z" />
<glyph unicode="&#xf9;" horiz-adv-x="1112" d="M59 848l349 153l81 -79l-110 -643q-10 -59 6 -88t53 -29q18 0 42 9t46.5 21.5t43 25.5t36.5 24l92 61l115 668h215l-149 -844l168 106l38 -53l-299 -211l-127 62l17 119l35 71l-355 -252q-63 0 -106 19.5t-67.5 53.5t-32 78t1.5 93l112 639l-180 -64zM463 1481h233 l23 -357h-94z" />
<glyph unicode="&#xfa;" horiz-adv-x="1112" d="M59 848l349 153l81 -79l-110 -643q-10 -59 6 -88t53 -29q18 0 42 9t46.5 21.5t43 25.5t36.5 24l92 61l115 668h215l-149 -844l168 106l38 -53l-299 -211l-127 62l17 119l35 71l-355 -252q-63 0 -106 19.5t-67.5 53.5t-32 78t1.5 93l112 639l-180 -64zM598 1124l156 357 h239l-297 -357h-98z" />
<glyph unicode="&#xfb;" horiz-adv-x="1112" d="M59 848l349 153l81 -79l-110 -643q-10 -59 6 -88t53 -29q18 0 42 9t46.5 21.5t43 25.5t36.5 24l92 61l115 668h215l-149 -844l168 106l38 -53l-299 -211l-127 62l17 119l35 71l-355 -252q-63 0 -106 19.5t-67.5 53.5t-32 78t1.5 93l112 639l-180 -64zM426 1124l248 357 h160l120 -357h-100l-131 197l-199 -197h-98z" />
<glyph unicode="&#xfc;" horiz-adv-x="1112" d="M59 848l349 153l81 -79l-110 -643q-10 -59 6 -88t53 -29q18 0 42 9t46.5 21.5t43 25.5t36.5 24l92 61l115 668h215l-149 -844l168 106l38 -53l-299 -211l-127 62l17 119l35 71l-355 -252q-63 0 -106 19.5t-67.5 53.5t-32 78t1.5 93l112 639l-180 -64zM408 1196l8 107 l39 86l80 12l94 -12l-2 -103l-39 -90l-76 -12zM764 1196l6 107l41 86l80 12l94 -12l-2 -103l-39 -90l-76 -12z" />
<glyph unicode="&#xfd;" horiz-adv-x="987" d="M-18 -481l36 219h179l266 285l-158 -23l-117 844l-168 -60l-30 56l307 161l115 -67l92 -836l336 594l-152 189l199 120l90 -108l-45 -258l-672 -1116h-278zM498 1124l155 357h240l-297 -357h-98z" />
<glyph unicode="&#xfe;" horiz-adv-x="1064" d="M41 -471l313 1802l-192 -51l-25 68l377 116l66 -57l-101 -580l-39 -94l303 268q59 -12 110.5 -40.5t88.5 -75.5t58.5 -111.5t21.5 -150.5q0 -94 -24.5 -183.5t-71.5 -166t-117 -137t-160 -99.5l-149 -68q-41 6 -84 15.5t-86 27.5l-13 -121l-65 -362h-211zM367 184 q53 -33 119.5 -56.5t121.5 -23.5q47 27 81 76t55.5 108.5t31.5 123t10 123.5q0 123 -37.5 189.5t-89.5 86.5l-208 -156z" />
<glyph unicode="&#xff;" horiz-adv-x="987" d="M-18 -481l36 219h179l266 285l-158 -23l-117 844l-168 -60l-30 56l307 161l115 -67l92 -836l336 594l-152 189l199 120l90 -108l-45 -258l-672 -1116h-278zM342 1196l8 107l39 86l82 12l94 -12l-2 -103l-39 -90l-78 -12zM698 1196l9 107l38 86l80 12l95 -12l-2 -103 l-37 -90l-78 -12z" />
<glyph unicode="&#x152;" horiz-adv-x="1918" d="M100 590q0 121 32 246t103.5 237.5t184 202.5t276.5 141l170 53l351 -40l733 6v-365h-84l-94 252l-439 6l-84 -528l224 8l124 217h76l-74 -274l-18 -275h-76l-51 217l-221 8l-96 -598l489 7l162 276h90l-94 -389l-795 6l-319 -41q-133 0 -238.5 44t-179.5 126t-113 197.5 t-39 259.5zM371 618q0 -127 29.5 -222t80.5 -160.5t121 -104.5t150 -51l137 26l194 1223l-301 25q-98 -41 -175 -113t-129 -167t-79.5 -210.5t-27.5 -245.5z" />
<glyph unicode="&#x153;" horiz-adv-x="1568" d="M76 369q0 193 107.5 344t305.5 237l123 51q104 0 190.5 -47t135.5 -143q43 43 94 76t115 55l164 59q94 -18 156.5 -70t62.5 -155q0 -76 -35 -178l-518 -160q-2 -10 -2 -19v-20q2 -59 20.5 -104t46 -77t63.5 -52.5t73 -26.5q27 10 60.5 25.5t68 33t67.5 36t60 34.5l39 -55 q-25 -18 -60 -42t-75 -49.5t-83 -51t-81 -45.5l-105 -56q-94 4 -168 53.5t-115 131.5q-45 -41 -98 -76t-115 -60l-122 -49q-76 0 -143.5 25.5t-119 76t-82 125t-30.5 173.5zM311 420q0 -164 61.5 -241t151.5 -95q63 25 107.5 78t71 118.5t39 138.5t12.5 138q0 164 -60.5 237 t-156.5 89q-63 -25 -106.5 -76t-70 -115.5t-38 -136.5t-11.5 -135zM981 512l299 119q10 35 14 61.5t4 55.5q0 66 -30.5 100.5t-71.5 42.5q-49 -25 -87 -65t-63.5 -90t-42 -107.5t-22.5 -116.5z" />
<glyph unicode="&#x178;" horiz-adv-x="1310" d="M160 1354l20 82l252 -6l283 6v-82l-168 -27l225 -555v-96l414 651l-162 27l20 82l230 -6l166 6l-2 -82l-109 -25l-493 -749l-74 -474l225 -26l-22 -82l-349 6l-346 -6l2 82l242 26l74 476l-314 747zM561 1589l8 113l39 88l82 10l101 -10l-3 -102l-36 -99l-86 -12z M999 1589l9 113l39 88l79 10l103 -10l-2 -102l-39 -99l-84 -12z" />
<glyph unicode="&#x2c6;" horiz-adv-x="1024" d="M248 1124l248 357h159l121 -357h-98l-133 197l-199 -197h-98z" />
<glyph unicode="&#x2dc;" horiz-adv-x="1024" d="M168 1198l90 207l148 45l303 -117l94 113h51l-94 -217l-142 -35l-305 119l-92 -115h-53z" />
<glyph unicode="&#x2000;" horiz-adv-x="961" />
<glyph unicode="&#x2001;" horiz-adv-x="1923" />
<glyph unicode="&#x2002;" horiz-adv-x="961" />
<glyph unicode="&#x2003;" horiz-adv-x="1923" />
<glyph unicode="&#x2004;" horiz-adv-x="641" />
<glyph unicode="&#x2005;" horiz-adv-x="480" />
<glyph unicode="&#x2006;" horiz-adv-x="320" />
<glyph unicode="&#x2007;" horiz-adv-x="320" />
<glyph unicode="&#x2008;" horiz-adv-x="240" />
<glyph unicode="&#x2009;" horiz-adv-x="384" />
<glyph unicode="&#x200a;" horiz-adv-x="106" />
<glyph unicode="&#x2010;" horiz-adv-x="808" d="M102 496l27 143h625l-27 -143h-625z" />
<glyph unicode="&#x2011;" horiz-adv-x="808" d="M102 496l27 143h625l-27 -143h-625z" />
<glyph unicode="&#x2012;" horiz-adv-x="808" d="M102 496l27 143h625l-27 -143h-625z" />
<glyph unicode="&#x2013;" horiz-adv-x="1370" d="M133 510l23 127h1136l-22 -127h-1137z" />
<glyph unicode="&#x2014;" horiz-adv-x="1789" d="M143 510l23 127h1538l-25 -127h-1536z" />
<glyph unicode="&#x2018;" horiz-adv-x="468" d="M184 928l11 125l30 110l195 310l80 -35q-16 -27 -38 -65t-40.5 -75.5t-32.5 -71.5t-16 -55l86 -8l-10 -127l-37 -108l-154 -13z" />
<glyph unicode="&#x2019;" horiz-adv-x="495" d="M203 932q16 27 36.5 64.5t39 75.5t33 72t18.5 54l-88 10l10 127l39 107l151 12l74 -12l-8 -125l-33 -109l-194 -311z" />
<glyph unicode="&#x201a;" horiz-adv-x="503" d="M31 -274q16 27 36.5 64.5t39 75.5t33 71.5t18.5 54.5l-88 10l12 127l37 107l151 12l76 -12l-10 -125l-31 -109l-196 -311z" />
<glyph unicode="&#x201c;" horiz-adv-x="823" d="M184 934l11 125l30 108l195 312l80 -35q-16 -27 -38 -65t-40.5 -75.5t-32.5 -71.5t-16 -54l86 -11l-10 -127l-37 -106l-154 -12zM541 934l8 125l31 108l196 312l78 -35q-16 -27 -36.5 -65t-39 -75.5t-33 -71.5t-18.5 -54l88 -11l-10 -127l-39 -106l-152 -12z" />
<glyph unicode="&#x201d;" horiz-adv-x="851" d="M203 932q16 27 36.5 64.5t39 75.5t33 72t18.5 54l-88 10l10 127l39 107l151 12l74 -12l-8 -125l-33 -109l-194 -311zM557 932q16 27 36.5 64.5t39 75.5t33 72t18.5 54l-86 10l10 127l37 107l154 12l73 -12l-10 -125l-31 -109l-194 -311z" />
<glyph unicode="&#x201e;" horiz-adv-x="860" d="M31 -274q16 27 36.5 64.5t39 75.5t33 71.5t18.5 54.5l-88 10l12 127l37 107l151 12l76 -12l-10 -125l-31 -109l-196 -311zM387 -274q16 27 36.5 64.5t39 75.5t33 71.5t18.5 54.5l-88 10l10 127l39 107l152 12l73 -12l-8 -125l-33 -109l-194 -311z" />
<glyph unicode="&#x2022;" horiz-adv-x="585" d="M133 487l14 144l35 125l185 12l86 -12l-15 -142l-35 -127l-184 -12z" />
<glyph unicode="&#x2026;" horiz-adv-x="1546" d="M143 2l11 127l32 107l170 12l64 -12l-10 -125l-33 -109l-170 -12zM639 2l10 127l33 107l170 12l63 -12l-10 -125l-33 -109l-170 -12zM1137 2l12 127l31 107l170 12l63 -12l-8 -125l-33 -109l-170 -12z" />
<glyph unicode="&#x202f;" horiz-adv-x="384" />
<glyph unicode="&#x2039;" horiz-adv-x="663" d="M72 481l450 451h131l-340 -453l183 -448h-134z" />
<glyph unicode="&#x203a;" horiz-adv-x="716" d="M72 31l338 448l-181 453h131l295 -451l-450 -450h-133z" />
<glyph unicode="&#x205f;" horiz-adv-x="480" />
<glyph unicode="&#x20ac;" horiz-adv-x="1327" d="M35 516l20 125h131q4 78 19 152h-121l20 125h138q74 176 227.5 306t398.5 201l150 45q45 -8 93 -26.5t93 -41t82 -45t62 -38.5l-115 -156q-25 23 -64 51.5t-85 56t-92 48.5t-83 29q-72 -18 -135 -57.5t-116.5 -96.5t-96.5 -127t-72 -149h637l-90 -125h-575q-6 -37 -9 -75 t-6 -77h500l-86 -125h-407q12 -90 43.5 -161.5t78 -122t105.5 -77t127 -26.5q49 0 98 12.5t94 29.5t85 37.5t71 37.5l45 -72q-25 -18 -70 -45t-104 -55.5t-129 -57t-145 -51.5q-121 0 -220.5 39t-172 110.5t-116.5 173t-55 228.5h-153z" />
<glyph unicode="&#x2122;" horiz-adv-x="2138" d="M246 1184v252l387 -2l368 2v-252h-65l-64 172l-143 4v-637l129 -14l-6 -66l-227 4l-230 -4l-6 66l131 14v637l-143 -4l-64 -172h-67zM1053 1372l6 64l112 -4l222 4l219 -533v-110l246 643l172 -4l143 4l6 -64l-88 -14v-635l86 -14l-4 -66l-182 2l-183 -2l-6 66l90 14v502 l19 139l-275 -721h-127l-233 571l-33 144v-635l88 -14l-4 -66l-135 2l-131 -2l-6 66l90 14v635z" />
<glyph unicode="&#x25fc;" horiz-adv-x="1003" d="M0 0v1004h1004v-1004h-1004z" />
</font>
</defs>
</svg>
