<?xml version="1.0" standalone="no"?>
<!DOCTYPE svg PUBLIC "-//W3C//DTD SVG 1.1//EN" "http://www.w3.org/Graphics/SVG/1.1/DTD/svg11.dtd" >
<svg xmlns="http://www.w3.org/2000/svg" xmlns:xlink="http://www.w3.org/1999/xlink" version="1.1">
<metadata></metadata>
<defs>
<font id="gt_sectramedium" horiz-adv-x="1269" >
<font-face units-per-em="2048" ascent="1536" descent="-512" />
<missing-glyph horiz-adv-x="489" />
<glyph unicode="&#xfb01;" horiz-adv-x="1271" d="M49 836v41l66 75h106v23q0 88 30 152.5t89 127.5l188 199h566v-219h-56l-159 39h-347l-34 -49q-23 -33 -32 -81t-9 -136v-66h336l184 29l113 6v-877l141 -20l-10 -82l-244 6l-215 -6l-10 86l102 16v668l12 84l-75 -16h-334v-736l149 -16l-10 -84l-270 4l-226 -6l-10 82 l131 20v736h-172z" />
<glyph unicode="&#xfb02;" horiz-adv-x="1294" d="M49 836v41l66 75h106v23q0 88 30 152.5t89 127.5l188 199h328l168 8h86v-1362l139 -20l-10 -82l-244 6l-229 -6l-10 82l118 20v736h-417v-736l170 -16l-11 -86l-292 6l-224 -6l-10 82l131 20v736h-172zM457 942h417v373l-118 -41h-224l-34 -49q-23 -33 -32 -81t-9 -136 v-66z" />
<glyph unicode="&#xfb03;" horiz-adv-x="1923" d="M49 836v41l66 75h106v6q0 94 37 157t94 124l176 184h392l-164 -182h-226l-32 -49q-20 -29 -30.5 -76t-10.5 -133v-41h417v33q0 88 29 152.5t88 127.5l189 199h565v-219h-55l-158 39h-346l-37 -49q-20 -33 -29.5 -81t-9.5 -136v-66h334l186 29l113 6v-877l139 -20l-10 -82 l-244 6l-213 -6l-10 86l102 16v668l11 84l-76 -16h-332v-736l147 -16l-10 -86l-268 6l-227 -6l-11 82l133 20v736h-417v-736l170 -16l-11 -86l-292 6l-224 -6l-10 82l131 20v736h-172z" />
<glyph unicode="&#xfb04;" horiz-adv-x="1945" d="M49 836v41l66 75h106v6q0 94 37 157t94 124l176 184h392l-164 -182h-226l-32 -49q-20 -29 -30.5 -76t-10.5 -133v-41h417v33q0 88 29 152.5t88 127.5l189 199h327l168 6h86v-1360l140 -20l-11 -82l-243 6l-230 -6l-10 82l119 20v736h-416v-736l168 -16l-10 -86l-291 6 l-195 -6l-10 82l102 20v736h-417v-736l170 -16l-11 -86l-292 6l-224 -6l-10 82l131 20v736h-172zM1110 942h416v373l-119 -43h-223l-35 -49q-23 -31 -31 -79t-8 -136v-66z" />
<glyph horiz-adv-x="0" />
<glyph horiz-adv-x="0" />
<glyph unicode="&#xd;" horiz-adv-x="655" />
<glyph unicode=" "  horiz-adv-x="489" />
<glyph unicode="&#x09;" horiz-adv-x="489" />
<glyph unicode="&#xa0;" horiz-adv-x="489" />
<glyph unicode="!" horiz-adv-x="595" d="M166 131l10 111l174 12l66 -12l12 -129l-12 -111l-172 -12l-68 12zM178 1454h238l-17 -614l-45 -359h-114l-47 357z" />
<glyph unicode="&#x22;" horiz-adv-x="815" d="M102 1331l13 111l172 12l67 -12l13 -127l-13 -113l-143 -311l-86 35q12 27 25.5 64.5t25.5 75.5t20.5 71.5t8.5 54.5l-90 10zM459 1331l12 111l172 12l68 -12l12 -127l-12 -113l-144 -311l-86 35q12 27 25.5 64.5t26 75.5t20.5 71.5t8 54.5l-90 10z" />
<glyph unicode="#" horiz-adv-x="1288" d="M82 399l14 113h254l39 317h-252l15 113h251l50 399h129l-50 -399h285l49 399h129l-49 -399h260l-14 -113h-258l-39 -317h256l-14 -113h-258l-48 -399h-129l48 399h-285l-47 -399h-129l47 399h-254zM479 512h287l39 317h-287z" />
<glyph unicode="$" horiz-adv-x="1198" d="M92 403h158l69 -180q43 -51 108 -87t142 -44v535l-157 73q-59 27 -109.5 60t-87.5 75t-57.5 95t-20.5 121q0 145 110.5 245.5t321.5 155.5v147h107v-129q98 -4 194.5 -35.5t169.5 -82.5v-295h-120l-60 186q-35 35 -78 62.5t-106 37.5v-475l125 -55q143 -68 224 -155 t79 -230q0 -143 -100.5 -255t-327.5 -181v-156h-107v127h-2q-135 0 -239.5 38t-190.5 101zM373 1143q0 -78 49 -129t129 -88l18 -8v425q-94 -12 -145 -66t-51 -134zM676 96q86 20 135 82t49 154q0 86 -49 145.5t-135 100.5v-482z" />
<glyph unicode="%" horiz-adv-x="1632" d="M82 1073q0 162 92 251t272 120q72 0 129.5 -25.5t98.5 -70.5t62.5 -108.5t21.5 -139.5q0 -160 -91.5 -249t-275.5 -122q-72 0 -128 25.5t-97 70.5t-62.5 108.5t-21.5 139.5zM248 -10l1014 1454h157l-1013 -1454h-158zM274 1118q0 -145 40 -230t118 -85q66 0 98.5 68.5 t32.5 185.5q0 143 -39.5 229t-117.5 86q-66 0 -99 -68.5t-33 -185.5zM874 336q0 162 92.5 251t272.5 120q72 0 129 -26t98 -71t62.5 -108.5t21.5 -139.5q0 -162 -91 -250.5t-275 -119.5q-72 0 -128.5 25.5t-97 70.5t-62.5 108.5t-22 139.5zM1065 381q0 -145 40 -230t118 -85 q68 0 100.5 67.5t32.5 183.5q0 145 -40 231.5t-118 86.5q-66 0 -99.5 -68.5t-33.5 -185.5z" />
<glyph unicode="&#x26;" horiz-adv-x="1499" d="M92 342q0 92 31 158.5t77 117t100 88t101 72.5q-96 104 -145 179t-49 159q0 63 23.5 114.5t73.5 94.5t130 78t193 67q76 0 139 -21.5t108.5 -58t70 -83.5t24.5 -99q0 -63 -25.5 -114.5t-69 -96.5t-99.5 -87t-118 -85l340 -372l129 206l-90 15l11 78l176 -7l184 7l12 -78 l-139 -21l-203 -284l248 -267l100 -20l-14 -82l-162 2l-141 -2l-168 184q-47 -47 -133 -109.5t-229 -111.5q-102 0 -190.5 27.5t-154 77t-103.5 119t-38 155.5zM338 401q0 -55 21.5 -104t58.5 -87t87 -59.5t109 -21.5q41 0 77 12.5t66.5 33t57.5 44t47 47.5l-387 432 q-63 -53 -100 -120.5t-37 -176.5zM432 1182q0 -35 14.5 -71t38 -71.5t51 -71.5t54.5 -67q82 66 118.5 124t36.5 149q0 78 -39.5 132t-111.5 54q-66 0 -114 -46t-48 -132z" />
<glyph unicode="'" horiz-adv-x="448" d="M102 1331l13 111l172 12l67 -12l13 -127l-13 -113l-143 -311l-86 35q12 27 25.5 64.5t25.5 75.5t20.5 71.5t8.5 54.5l-90 10z" />
<glyph unicode="(" horiz-adv-x="577" d="M86 508q0 166 21.5 293t70.5 237.5t127 216t191 232.5l57 -53q-72 -102 -122 -201.5t-82 -209.5t-46 -234.5t-14 -278.5q0 -272 59.5 -505.5t204.5 -438.5l-57 -53q-113 137 -191 246.5t-127 220t-70.5 235.5t-21.5 293z" />
<glyph unicode=")" horiz-adv-x="577" d="M25 -434q145 205 204.5 438.5t59.5 505.5q0 154 -14.5 278.5t-46 234.5t-82 209t-121.5 202l57 53q113 -125 190.5 -231.5t127 -217t71 -237.5t21.5 -293q0 -168 -21.5 -293t-71 -235.5t-127 -220t-190.5 -246.5z" />
<glyph unicode="*" horiz-adv-x="872" d="M92 1147l58 176l227 -109l-35 250h186l-32 -250l225 109l59 -176l-250 -43l175 -182l-150 -111l-121 221l-117 -221l-151 111l178 182z" />
<glyph unicode="+" d="M106 446v144h455v465h146v-465h454v-144h-454v-446h-146v446h-455z" />
<glyph unicode="," horiz-adv-x="454" d="M131 131l10 111l174 12l66 -12l12 -129l-12 -111l-143 -311l-84 35q12 27 25.5 64.5t25.5 75.5t20 71.5t8 54.5l-92 10z" />
<glyph unicode="-" horiz-adv-x="788" d="M82 496v143h625v-143h-625z" />
<glyph unicode="." horiz-adv-x="483" d="M143 131l13 111l172 12l67 -12l13 -129l-13 -111l-174 -12l-65 12z" />
<glyph unicode="/" horiz-adv-x="1019" d="M-20 -471l927 1941h133l-923 -1941h-137z" />
<glyph unicode="0" horiz-adv-x="1220" d="M82 469q0 113 40 200t111.5 152.5t174 109t225.5 70.5q104 0 196.5 -36.5t161 -103t108.5 -158t40 -199.5q0 -115 -40 -202t-112 -152.5t-174 -109.5t-225 -71q-104 0 -196.5 37t-161 103.5t-108.5 157.5t-40 202zM344 541q0 -98 19.5 -180t56.5 -140.5t91 -91.5t126 -33 q57 0 101 25.5t75 70t46 105.5t15 133q0 98 -19 180t-56 140.5t-91.5 91t-125.5 32.5q-57 0 -101.5 -25.5t-75 -69.5t-46 -105t-15.5 -133z" />
<glyph unicode="1" horiz-adv-x="958" d="M49 780l461 201h111v-866l307 -35l-10 -82l-418 6l-420 -6l-10 82l305 35v633l10 36l-86 -41l-211 -45z" />
<glyph unicode="2" horiz-adv-x="1095" d="M41 92l358 270q68 51 121 95.5t90 86.5t56.5 86t19.5 93q0 66 -37 112t-127 46q-41 0 -73.5 -11.5t-55.5 -23.5l-69 -232h-172v240l405 147q184 0 284.5 -74.5t100.5 -197.5q0 -72 -27.5 -128t-80 -105.5t-125 -94.5t-160.5 -94l-303 -164l258 64h530v-74l-59 -133h-891z " />
<glyph unicode="3" horiz-adv-x="995" d="M51 -264h451q90 51 122.5 121.5t32.5 142.5q0 104 -86 177t-262 73l-20 65l86 39q113 49 170 123t57 189q0 100 -48 156.5t-114 56.5q-39 0 -71.5 -11.5t-53.5 -21.5l-69 -232h-176v240l403 147q100 0 170 -23.5t114 -61t64.5 -88t20.5 -105.5q0 -125 -76 -213t-215 -145 q88 -6 156.5 -35t113.5 -73t68.5 -97.5t23.5 -108.5q0 -102 -36.5 -171.5t-99 -119t-143.5 -85t-169 -72.5l-176 -74h-238v207z" />
<glyph unicode="4" horiz-adv-x="1161" d="M20 72l670 899h223v-90l-700 -785l88 33h334v213l168 141h55v-354h272v-160h-272v-440h-223v440h-537z" />
<glyph unicode="5" horiz-adv-x="1009" d="M92 -264h436q88 49 125 128t37 148q0 55 -16.5 106.5t-50 89.5t-85 61.5t-120.5 23.5q-55 0 -99.5 -10.5t-97.5 -32.5l-67 -27l-58 37l90 711h732v-74l-56 -131h-588l-53 -408l248 127q131 0 222 -37.5t148.5 -96t83 -126t25.5 -125.5q0 -111 -35.5 -187.5t-97 -131.5 t-142.5 -96t-169 -78l-178 -78h-234v207z" />
<glyph unicode="6" horiz-adv-x="1157" d="M102 549q0 147 43 280.5t137.5 251t243 217t357.5 179.5l30 -93q-160 -74 -261 -149.5t-161.5 -159.5t-86 -176t-31.5 -199l282 220q106 0 184.5 -38t128.5 -100.5t73.5 -142.5t23.5 -164q0 -113 -39 -196.5t-107.5 -143t-164 -99.5t-207.5 -67q-104 0 -187.5 42 t-139.5 119t-87 183.5t-31 235.5zM369 582q0 -96 10 -187.5t36.5 -162t70.5 -112.5t110 -42q100 0 159.5 93t59.5 251q0 154 -57.5 231.5t-132.5 77.5q-47 0 -89 -23.5t-90 -62.5z" />
<glyph unicode="7" horiz-adv-x="1034" d="M41 760v211h907l47 -53l-600 -1389h-213v88l576 1116l10 27h-727z" />
<glyph unicode="8" horiz-adv-x="1161" d="M100 338q0 115 68 214t238 173q-131 72 -198 165t-67 200q0 135 116 228t345 146q98 0 178 -22.5t136.5 -62.5t87 -95t30.5 -121q0 -129 -86 -220t-221 -157q72 -37 134.5 -78.5t107.5 -90t70.5 -104t25.5 -118.5q0 -172 -131 -269t-377 -157q-98 0 -182 29t-145.5 79 t-95.5 116.5t-34 144.5zM350 379q0 -61 17.5 -115.5t48 -95.5t72.5 -64.5t94 -23.5q45 0 86 15.5t72.5 46t50 74.5t18.5 101q0 66 -32 120.5t-80 97.5t-104 76.5t-104 62.5q-72 -53 -105.5 -124t-33.5 -171zM393 1153q0 -47 21.5 -90t57.5 -82t82 -73t93 -64 q72 53 104.5 115.5t32.5 154.5q0 45 -12 89t-37.5 77t-64.5 53.5t-90 20.5q-86 0 -136.5 -54.5t-50.5 -146.5z" />
<glyph unicode="9" horiz-adv-x="1148" d="M84 494q0 113 37 195.5t105.5 143t163.5 100.5t212 68q104 0 187 -41.5t139.5 -117.5t87.5 -183.5t31 -238.5q0 -143 -43 -274.5t-136.5 -247t-240 -215t-353.5 -177.5l-30 93q156 72 256 147.5t158.5 157.5t84 173t33.5 195l-282 -219q-106 0 -184.5 38t-128.5 100.5 t-73.5 141.5t-23.5 161zM334 541q0 -70 15.5 -125.5t41 -93t59 -58t68.5 -20.5q51 0 91 22.5t93 63.5l78 61q0 102 -10 193.5t-36.5 160t-69.5 108.5t-109 40q-100 0 -160.5 -89t-60.5 -263z" />
<glyph unicode=":" horiz-adv-x="520" d="M154 131l12 111l172 12l68 -12l12 -129l-12 -111l-175 -12l-65 12zM154 860l12 111l172 12l68 -12l12 -127l-12 -113l-175 -12l-65 12z" />
<glyph unicode=";" horiz-adv-x="561" d="M154 131l12 111l172 12l68 -12l12 -129l-12 -111l-144 -311l-86 35q12 27 26.5 64.5t27 75.5t20.5 71.5t8 54.5l-92 10zM154 860l12 111l172 12l68 -12l12 -127l-12 -113l-175 -12l-65 12z" />
<glyph unicode="&#x3c;" d="M102 524v123l1065 475v-170l-866 -364l866 -365v-172z" />
<glyph unicode="=" d="M106 229v146h1055v-146h-1055zM106 629v145h1055v-145h-1055z" />
<glyph unicode="&#x3e;" d="M102 51v172l867 365l-867 364v170l1065 -475v-123z" />
<glyph unicode="?" horiz-adv-x="880" d="M133 1182v243l211 23q221 -29 327.5 -130t106.5 -247q0 -74 -23.5 -130t-63.5 -99t-92 -74t-107 -55l-80 -37l-15 -213h-121l-12 278l80 45q78 45 125 125t47 172q0 113 -44 183.5t-142 70.5l-39 -155h-158zM213 123l12 110l172 13l68 -13l12 -127l-12 -112l-174 -12 l-66 12z" />
<glyph unicode="@" horiz-adv-x="1884" d="M102 526q0 147 52.5 280.5t146.5 244t226 193.5t292 132l189 56q190 0 336.5 -47.5t246 -130.5t150.5 -195.5t51 -243.5q0 -129 -52 -243.5t-138 -200.5t-196 -136.5t-226 -50.5l-121 127l88 240q-2 -4 -17.5 -23.5t-50.5 -63.5t-93 -113.5t-144 -170.5 q-59 0 -112.5 20.5t-95.5 58.5t-66.5 92.5t-24.5 119.5q0 86 26.5 166t73.5 147.5t114.5 122t151.5 90.5l224 101l245 -137l-168 -699q63 4 136 42t132.5 107.5t99.5 166t40 217.5q0 127 -39 226t-111.5 166.5t-176 103.5t-230.5 36q-137 0 -272.5 -50t-243 -147.5 t-175 -238.5t-67.5 -324q0 -174 60.5 -301t161 -210t230.5 -122.5t267 -39.5q119 0 211 33.5t151 62.5l35 -64q-57 -29 -121.5 -55.5t-130 -48t-126 -35.5t-109.5 -20q-186 0 -339 56t-262.5 157.5t-169 240.5t-59.5 305zM739 532q0 -84 40 -128t108 -44l233 261l66 245 l-156 107q-86 -37 -142.5 -91.5t-89 -114.5t-46 -121.5t-13.5 -113.5z" />
<glyph unicode="A" horiz-adv-x="1521" d="M18 80l146 24l491 1309l185 45l512 -1356l151 -22l-10 -82l-319 6l-259 -6l-10 82l162 26l-129 367h-496l-125 -367l170 -26l-10 -82l-235 6l-213 -6zM477 575h424l-190 541l-11 113z" />
<glyph unicode="B" horiz-adv-x="1333" d="M61 80l175 26v1221l-175 27l11 82l272 -6l453 6q98 0 170.5 -27t120 -71t71 -101t23.5 -115q0 -61 -24.5 -117.5t-70 -102.5t-107.5 -80t-138 -52q209 -10 315.5 -109.5t106.5 -244.5q0 -100 -41 -172t-114 -121t-173 -79t-219 -46l-373 6l-272 -6zM494 104l161 -12 q98 0 164 30t106 76t56 102t16 110q0 129 -79.5 212t-225.5 83h-198v-601zM494 801h153q61 0 111.5 23.5t85.5 64.5t54.5 94t19.5 115q0 109 -59.5 175t-182.5 68l-182 -12v-528z" />
<glyph unicode="C" horiz-adv-x="1445" d="M76 692q0 180 57 314.5t161.5 228.5t252 151.5t327.5 83.5q78 0 150 -14t134.5 -36.5t112.5 -48t87 -50.5v-309h-127l-66 194q-20 25 -50 50.5t-70.5 47t-92 35t-114.5 13.5q-104 0 -192.5 -40t-152 -117t-99.5 -189.5t-36 -257.5q0 -127 35 -247t101.5 -212t163 -147.5 t219.5 -55.5q96 0 163.5 41t114.5 84l107 233h122l-47 -327q-43 -20 -101 -43t-126 -43.5t-140.5 -39t-146.5 -28.5q-145 0 -280 47t-238.5 139.5t-166 228.5t-62.5 314z" />
<glyph unicode="D" horiz-adv-x="1533" d="M61 80l175 26v1221l-175 27l11 82l268 -6l430 6q160 0 287 -44t216 -130t136 -213t47 -293q0 -160 -42 -291t-129 -228.5t-219 -159t-312 -79.5l-416 6l-266 -6zM494 115l237 -19h8q95 0 175 45q83 47 140.5 131t89.5 201t32 256q0 131 -32 243.5t-95.5 194.5t-156.5 128 q-89 44 -206 44h-10l-182 -10v-1214z" />
<glyph unicode="E" horiz-adv-x="1304" d="M61 80l175 26v1221l-175 27l11 82l282 -6l836 6l20 -379h-84l-118 266l-514 6v-528l264 8l82 217h86l-21 -266l21 -283h-86l-82 217l-264 8v-598l536 7l137 276h93l-70 -389l-836 6l-282 -6z" />
<glyph unicode="F" horiz-adv-x="1241" d="M61 80l175 26v1221l-175 27l11 82l282 -6l836 6l20 -385h-84l-118 272l-514 6v-557l264 8l82 215h86l-21 -266l21 -283h-86l-82 218l-264 8v-566l245 -26l-10 -82l-375 6l-282 -6z" />
<glyph unicode="G" horiz-adv-x="1531" d="M76 686q0 182 55 316.5t157.5 229.5t248 152.5t325.5 85.5q80 0 154 -15t138.5 -37.5t116.5 -49.5t87 -49v-307h-119l-65 188q-45 55 -132.5 103.5t-212.5 48.5q-106 0 -193 -40t-148.5 -118t-95.5 -190.5t-34 -258.5q0 -131 36 -249.5t101.5 -209.5t160 -145.5 t210.5 -54.5q86 0 146.5 32t91.5 60v385l-184 27l10 84l305 -6l240 6l12 -84l-123 -27v-440q-43 -18 -104.5 -41t-135 -45.5t-155.5 -42t-164 -31.5q-143 0 -275.5 47t-232.5 139.5t-160.5 226.5t-60.5 310z" />
<glyph unicode="H" horiz-adv-x="1591" d="M61 80l175 26v1221l-175 27l11 82l293 -6l278 6l10 -82l-159 -27v-528h612v528l-168 27l10 82l287 -6l285 6l10 -82l-166 -27v-1221l166 -26l-10 -82l-285 6l-287 -6l-10 82l168 26v580h-612v-580l159 -26l-10 -82l-278 6l-293 -6z" />
<glyph unicode="I" horiz-adv-x="729" d="M61 82l175 27v1218l-175 27l11 82l293 -6l292 6l11 -82l-174 -27v-1218l174 -27l-11 -84l-292 6l-293 -6z" />
<glyph unicode="J" horiz-adv-x="747" d="M2 -147h223l19 43q10 27 16 54t9 62t4 79t1 104v1132l-225 27l10 82l347 -6l280 6l10 -82l-164 -27v-1087q0 -145 -43 -236.5t-106 -159.5l-186 -202h-195v211z" />
<glyph unicode="K" horiz-adv-x="1484" d="M61 80l175 26v1221l-175 27l11 82l293 -6l266 6l10 -82l-147 -27v-559l59 31l553 528l-150 27l11 82l221 -6l223 6l10 -82l-157 -31l-570 -545l68 -33l598 -643l106 -22l-10 -82l-174 6l-192 -6l-564 657l-32 68v-617l147 -26l-10 -82l-266 6l-293 -6z" />
<glyph unicode="L" horiz-adv-x="1222" d="M61 80l175 26v1221l-175 27l11 82l282 -6l303 6l11 -82l-174 -27v-1223l489 7l145 282h86l-71 -395l-789 6l-282 -6z" />
<glyph unicode="M" horiz-adv-x="1949" d="M61 1354l11 82l202 -6l275 6l407 -1055l9 -137l456 1192l250 -6l207 6l10 -82l-166 -27v-1221l158 -26l-10 -82l-264 6l-299 -6l-11 82l172 26v938l29 242l-498 -1286h-155l-404 1038l-69 244v-1176l170 -26l-15 -82l-219 6l-227 -6l-10 82l157 26v1217z" />
<glyph unicode="N" horiz-adv-x="1517" d="M61 80l175 26v1211l-168 37l10 82l180 -6l182 6l690 -938l50 -146v975l-164 27l8 82l221 -6l242 6l10 -82l-174 -27v-1331h-139l-764 1063l-41 162v-1115l164 -26l-8 -82l-222 6l-241 -6z" />
<glyph unicode="O" horiz-adv-x="1622" d="M76 684q0 170 44 301t136 227.5t235.5 159.5t342.5 98q160 0 291.5 -54t225 -150.5t144.5 -228.5t51 -287q0 -170 -44 -301.5t-136 -227.5t-235.5 -159.5t-342.5 -98.5q-160 0 -291.5 54.5t-225 150.5t-144.5 228t-51 288zM358 754q0 -117 27 -236t84 -215t149.5 -156.5 t221.5 -60.5q111 0 191.5 46t131.5 126t76 188.5t25 235.5q0 113 -26 230.5t-83 215t-148.5 159t-222.5 61.5q-111 0 -191.5 -46.5t-132.5 -126t-77 -188t-25 -233.5z" />
<glyph unicode="P" horiz-adv-x="1249" d="M61 80l175 26v1221l-175 27l11 82l286 -6l430 6q94 0 175 -22.5t140.5 -69t94.5 -115t35 -158.5q0 -102 -46 -178t-122 -130t-170 -90t-193 -61h-208v-506l245 -26l-10 -82l-364 6l-293 -6zM494 727h157q63 0 118.5 22.5t96.5 63.5t63.5 99.5t22.5 131.5q0 135 -74.5 217 t-215.5 82l-168 -14v-602z" />
<glyph unicode="Q" horiz-adv-x="1622" d="M76 684q0 170 44 301t136 227.5t235.5 159.5t342.5 98q160 0 291.5 -54t225 -150.5t144.5 -228.5t51 -287q0 -309 -147.5 -491.5t-470.5 -264.5l200 -76l209 -151l127 -33l-8 -80h-338l-330 309q-160 0 -291.5 54.5t-225 150.5t-144.5 228t-51 288zM358 754 q0 -117 27 -236t84 -215t149.5 -156.5t221.5 -60.5q111 0 191.5 46t131.5 126t76 188.5t25 235.5q0 113 -26 230.5t-83 215t-148.5 159t-222.5 61.5q-111 0 -191.5 -46.5t-132.5 -126t-77 -188t-25 -233.5z" />
<glyph unicode="R" horiz-adv-x="1423" d="M61 80l175 26v1221l-175 27l11 82l293 -6l409 6q96 0 180 -21.5t146.5 -66.5t98.5 -112t36 -157q0 -86 -37 -150.5t-97.5 -112.5t-138 -79.5t-161.5 -50.5l176 -92l332 -485l104 -31l-8 -80l-193 6l-153 -6l-418 635l-25 22h-122v-549l165 -26l-10 -82l-284 6l-293 -6z M494 760h139q70 0 129 22.5t101 62.5t65.5 96t23.5 124q0 139 -79.5 207.5t-196.5 70.5l-182 -14v-569z" />
<glyph unicode="S" horiz-adv-x="1171" d="M74 403h157l70 -180q47 -55 122 -94t161 -39q121 0 189.5 66.5t68.5 175.5q0 92 -54.5 152.5t-146.5 101.5l-248 114q-59 27 -109.5 60t-87 75t-57 95t-20.5 121q0 158 130 262t378 157q104 0 209.5 -31.5t185.5 -86.5v-295h-121l-59 186q-41 43 -96.5 74t-145.5 31 q-117 0 -181.5 -56.5t-64.5 -148.5q0 -78 49.5 -129t128.5 -88l250 -113q143 -68 224 -155q79 -85 79 -223v-7q0 -158 -125.5 -279.5t-410.5 -185.5q-135 0 -239.5 38t-190.5 101z" />
<glyph unicode="T" horiz-adv-x="1261" d="M31 1051v385l604 -6l596 6v-385h-92l-97 272l-282 4v-1221l227 -26l-10 -82l-346 6l-355 -6l-10 82l236 26v1221l-283 -4l-98 -272h-90z" />
<glyph unicode="U" horiz-adv-x="1503" d="M31 1354l10 82l281 -6l301 6l10 -82l-162 -27v-838q0 -188 81 -291.5t253 -103.5q160 0 242.5 104.5t82.5 297.5v831l-178 27l11 82l262 -6l237 6l11 -82l-170 -27v-819q0 -100 -24 -184t-82 -153t-157.5 -120t-253.5 -88q-162 0 -272.5 39t-179 110.5t-99 172 t-30.5 223.5v819z" />
<glyph unicode="V" horiz-adv-x="1495" d="M10 1354l10 82l318 -6l260 6l10 -82l-164 -27l351 -977l6 -123l389 1100l-170 27l10 82l232 -6l213 6l10 -82l-146 -25l-499 -1313l-162 -49l-518 1362z" />
<glyph unicode="W" horiz-adv-x="2060" d="M18 1354l11 82l286 -6l248 6l10 -82l-165 -27l292 -938l5 -131l258 852l-74 219l-117 25l10 82l283 -6l246 6l10 -82l-164 -27l293 -940l6 -129l320 1071l-172 25l10 82l223 -6l195 6l10 -82l-123 -25l-418 -1306l-166 -56l-284 867l-4 129l-295 -940l-164 -56l-449 1362 z" />
<glyph unicode="X" horiz-adv-x="1480" d="M20 82l160 24l436 594l-421 631l-150 25l10 82l277 -8l323 8l11 -82l-162 -27l246 -399l26 -82l328 479l-168 27l10 82l252 -6l223 6l11 -82l-156 -25l-410 -561l455 -662l139 -24l-10 -84l-270 6l-324 -6l-10 84l164 27l-271 417l-34 86l-347 -506l158 -24l-10 -84 l-252 6l-223 -6z" />
<glyph unicode="Y" horiz-adv-x="1468" d="M10 1356l10 80l291 -6l285 6l10 -80l-164 -27l342 -577l11 -88l356 665l-168 27l10 80l236 -6l219 6l10 -80l-149 -23l-441 -774l2 -453l230 -26l-10 -82l-349 6l-356 -6l-10 82l237 26v459l-452 766z" />
<glyph unicode="Z" horiz-adv-x="1196" d="M39 104l749 1153l91 72l-572 -10l-98 -258h-100v373h995l22 -95l-755 -1165l-90 -72l630 11l144 280h110l-73 -393h-1031z" />
<glyph unicode="[" horiz-adv-x="681" d="M164 -473v1937l170 -6l276 6v-82l-262 -20q-4 -174 -6 -328q0 -66 -1 -132t-2 -125.5t-1 -109v-77.5v-95.5t1 -134t2 -156.5t1 -165q2 -190 6 -410l262 -20v-82l-276 6z" />
<glyph unicode="\" horiz-adv-x="897" d="M-82 1470h133l928 -1941h-137z" />
<glyph unicode="]" horiz-adv-x="681" d="M72 -391l262 20q2 219 4 410q0 82 1 165t2 156.5t2 134t1 95.5q0 29 -1 78t-2 108.5t-2 126t-1 131.5q-2 154 -4 328l-262 20v82l276 -6l170 6v-1937l-170 6l-276 -6v82z" />
<glyph unicode="^" horiz-adv-x="800" d="M102 942l252 502h92l252 -502h-178l-119 289l-120 -289h-179z" />
<glyph unicode="_" horiz-adv-x="1157" d="M10 -147h1137v-125h-1137v125z" />
<glyph unicode="`" horiz-adv-x="1024" d="M293 1481h248l92 -357h-101z" />
<glyph unicode="a" horiz-adv-x="991" d="M61 238q0 59 21.5 106t58.5 90l459 150v110q0 92 -21.5 136t-91.5 44q-39 0 -78.5 -10t-70.5 -24l-33 -178h-211v172l393 167q102 0 170 -14t108 -51t56.5 -99.5t16.5 -156.5v-399q0 -66 8 -97.5t24 -56.5h101l10 -82l-303 -61l-66 161l-239 -176q-137 0 -224.5 72 t-87.5 197zM297 266q0 -78 35 -108.5t76 -30.5q39 0 69.5 16.5t50.5 30.5l72 49v275l-260 -107q-23 -25 -33 -57.5t-10 -67.5z" />
<glyph unicode="b" horiz-adv-x="1144" d="M20 1395l267 59l112 8v-655l265 194q80 0 153.5 -31.5t130 -92t90 -146.5t33.5 -192q0 -129 -36 -227.5t-104.5 -168t-166.5 -112.5t-223 -62q-72 0 -127.5 8.5t-100.5 20.5t-80.5 28.5t-68.5 32.5v1258l-133 -4zM399 156q66 -78 179 -78q111 0 178 101.5t67 283.5 q0 174 -56 262t-136 88q-84 0 -178 -76l-54 -41v-540z" />
<glyph unicode="c" horiz-adv-x="950" d="M74 459q0 119 41 209t110.5 155.5t160.5 109.5t192 68q84 0 166.5 -29.5t132.5 -72.5v-231h-189l-47 186q-20 16 -41.5 22.5t-56.5 6.5q-92 0 -155.5 -97.5t-63.5 -263.5q0 -80 21.5 -148.5t62.5 -118.5t98 -79t131 -29q59 0 116.5 24t104.5 56l41 -84q-72 -55 -157 -97 t-195 -77q-102 0 -189.5 33t-151 96.5t-98 153.5t-34.5 207z" />
<glyph unicode="d" horiz-adv-x="1161" d="M70 451q0 125 35.5 220t101 162.5t157 108.5t201.5 59q16 0 40 -5t48.5 -13t48 -18.5t39.5 -18.5v367l-133 -4l-10 82l258 63l121 8v-1194q0 -61 9 -92t26 -53h102l8 -84l-303 -55l-63 166l-258 -181q-98 0 -177 35t-135.5 98.5t-86 152.5t-29.5 196zM317 504 q0 -164 56.5 -256t142.5 -92q82 0 172 71l53 41v541q-29 35 -74.5 54.5t-105.5 19.5q-113 0 -178.5 -100.5t-65.5 -278.5z" />
<glyph unicode="e" horiz-adv-x="989" d="M66 463q0 211 116.5 345t360.5 193q104 0 176 -30.5t116 -82.5t64.5 -124t20.5 -152v-96h-611q0 -80 22.5 -147.5t62.5 -116.5t99.5 -77t133.5 -28q66 0 135 26t121 58l39 -84q-78 -59 -170.5 -102t-202.5 -76q-98 0 -186.5 34t-154 96.5t-104 154.5t-38.5 209zM309 604 l365 21q0 119 -33 190.5t-135 71.5q-86 0 -136.5 -77t-60.5 -206z" />
<glyph unicode="f" horiz-adv-x="751" d="M49 836v41l66 75h106v23q0 88 30 152.5t89 127.5l188 199h269v-182h-267l-34 -51q-20 -31 -29.5 -81t-9.5 -141v-57h260v-106h-260v-734l225 -16l-10 -88l-346 6l-226 -6l-10 82l131 22v734h-172z" />
<glyph unicode="g" horiz-adv-x="1091" d="M39 -190l231 161q-53 18 -86.5 41t-52 50.5t-26 59.5t-7.5 68v27l211 137q-98 37 -155.5 110t-57.5 171q0 139 103.5 226t316.5 140q121 0 202 -38.5t130 -104.5l102 143h131v-186h-141l-53 -31q16 -45 16 -90q0 -141 -102.5 -229t-315.5 -143q-25 0 -49 2t-47 6 l-90 -109q0 -71 86 -71h2h377q137 0 205.5 -61.5t68.5 -160.5q0 -68 -41 -129t-112.5 -116.5t-172 -101.5t-218.5 -83q-213 0 -334 64.5t-121 206.5v41zM254 -201q0 -70 68.5 -118t201.5 -48q63 0 116.5 17.5t92.5 47.5t60.5 69.5t21.5 82.5q0 53 -41 80t-133 27h-291 q-63 -68 -79.5 -101.5t-16.5 -56.5zM324 684q0 -45 9 -91t31.5 -83t59.5 -60.5t92 -23.5q78 0 119 54.5t41 142.5q0 47 -9.5 96t-32 89t-59 65.5t-92.5 25.5q-78 0 -118.5 -59.5t-40.5 -155.5z" />
<glyph unicode="h" horiz-adv-x="1228" d="M59 1393l267 61l112 8v-655l305 194q94 0 154.5 -17t94.5 -58t47.5 -106.5t13.5 -162.5v-555l141 -22l-10 -82l-244 6l-207 -6l-10 82l92 22v576q0 72 -31.5 105.5t-89.5 33.5q-45 0 -96 -26.5t-104 -59.5l-56 -35v-594l103 -22l-11 -82l-204 6l-244 -6l-10 82l131 22 v1213l-133 -4z" />
<glyph unicode="i" horiz-adv-x="620" d="M61 909l267 60l112 8v-875l140 -22l-11 -82l-243 6l-244 -6l-10 82l133 22v734l-133 -9zM193 1311l22 106l168 13l61 -13l13 -125l-25 -106l-166 -12l-61 12z" />
<glyph unicode="j" horiz-adv-x="577" d="M-49 -276h205l18 45q12 33 22.5 84t10.5 155v828l-133 -9l-11 82l267 60l112 8v-936q0 -119 -44 -196.5t-103 -141.5l-172 -184h-172v205zM195 1311l22 106l168 13l61 -13l13 -125l-25 -106l-166 -12l-61 12z" />
<glyph unicode="k" horiz-adv-x="1159" d="M61 1393l267 61l114 8v-901l56 25l329 282l-82 23v82l189 -6l168 6l12 -82l-115 -23l-372 -299l53 -32l381 -435l88 -22l-12 -82l-181 6l-129 -6l-358 465l-27 65v-426l99 -22l-11 -82l-211 6l-235 -6l-10 82l133 22v1211l-135 -4z" />
<glyph unicode="l" horiz-adv-x="610" d="M59 1393l267 61l112 8v-1360l142 -22l-11 -82l-243 6l-244 -6l-10 82l131 22v1211l-133 -4z" />
<glyph unicode="m" horiz-adv-x="1804" d="M61 907l263 62l102 6l10 -168l283 194q150 0 218.5 -45t88.5 -153l289 198q94 0 155.5 -17t96.5 -58t48 -106.5t13 -162.5v-555l141 -22l-10 -82l-239 6l-211 -6l-11 82l93 22v576q0 72 -29 105.5t-80 33.5q-43 0 -93 -24.5t-99 -59.5l-54 -39v-592l84 -22l-10 -82 l-192 6l-195 -6l-10 82l84 22v576q0 72 -29 105.5t-80 33.5q-45 0 -93 -24.5t-97 -59.5l-56 -39v-592l93 -22l-11 -82l-202 6l-238 -6l-10 82l133 22v732l-135 -11z" />
<glyph unicode="n" horiz-adv-x="1232" d="M61 907l267 62l104 6l6 -170l307 196q94 0 155 -16t95.5 -54t48 -100.5t13.5 -154.5v-574l141 -22l-10 -82l-244 6l-211 -6l-10 82l94 22v576q0 139 -123 139q-51 0 -100 -26.5t-98 -59.5l-54 -37v-592l101 -22l-11 -82l-204 6l-244 -6l-10 82l133 22v732l-135 -11z" />
<glyph unicode="o" horiz-adv-x="1114" d="M66 461q0 121 37.5 213t106.5 157.5t165 106t213 63.5q100 0 184 -36.5t145.5 -102t95.5 -157t34 -197.5q0 -121 -38 -212t-106.5 -156.5t-165 -107.5t-213.5 -63q-100 0 -184 37t-145.5 102.5t-95 155.5t-33.5 197zM315 526q0 -100 19.5 -182t55.5 -141.5t84 -92 t108 -32.5q104 0 158.5 98t54.5 268q0 215 -76 332t-191 117q-104 0 -158.5 -98.5t-54.5 -268.5z" />
<glyph unicode="p" horiz-adv-x="1144" d="M31 907l262 62l100 6l13 -170l266 196q90 0 164.5 -32.5t129 -93t85 -147.5t30.5 -196q0 -129 -35.5 -227t-104.5 -166.5t-166 -111t-220 -58.5q-39 0 -76 10.5t-69 26.5v-375l202 -22l-10 -82l-309 6l-242 -6l-10 82l133 22v1207l-133 -11zM410 178q70 -100 196 -100 q100 0 164 100.5t64 278.5q0 184 -57.5 274t-141.5 90q-39 0 -82 -22.5t-90 -59.5l-53 -41v-520z" />
<glyph unicode="q" horiz-adv-x="1120" d="M70 457q0 121 35.5 215t101 161.5t159 108.5t209.5 59q72 0 147 -25.5t134 -57.5l74 73h49v-1362l131 -20l-10 -82l-238 6l-313 -6l-10 82l204 20v512l-233 -172q-100 0 -182 35t-139.5 98.5t-88 153.5t-30.5 201zM317 516q0 -174 64 -271.5t156 -97.5q39 0 67.5 14.5 t44.5 24.5l94 64v524q-23 49 -61.5 80t-108.5 31q-121 0 -188.5 -99.5t-67.5 -269.5z" />
<glyph unicode="r" horiz-adv-x="854" d="M61 907l256 62l95 8l12 -293l225 307h176v-239h-176q-37 -10 -87 -51.5t-91 -88.5l-35 -41v-465l217 -20l-10 -88l-319 6l-242 -6l-10 82l133 22v732l-133 -11z" />
<glyph unicode="s" horiz-adv-x="892" d="M63 313h134l63 -163q35 -29 81 -47.5t95 -18.5q74 0 113 38t39 99q0 53 -31 86t-108 72l-158 82q-76 39 -130.5 98t-54.5 150q0 109 92.5 177t295.5 115q104 0 181 -27.5t118 -55.5v-230h-113l-47 148q-18 16 -59.5 35.5t-96.5 19.5q-61 0 -105 -30t-44 -83 q0 -47 34.5 -78.5t112.5 -70.5l156 -78q98 -49 145 -111.5t47 -154.5q0 -72 -27.5 -122t-78.5 -86t-126 -61.5t-169 -46.5q-43 0 -88 8.5t-87 21.5t-80 28.5t-65 27.5z" />
<glyph unicode="t" horiz-adv-x="759" d="M10 840v34l76 78h121v135l158 142h71v-289h295v-100h-293v-578q0 -49 23.5 -87t83.5 -38q45 0 82 13.5t80 35.5l38 -77l-253 -140q-156 0 -222.5 61.5t-66.5 211.5v598h-193z" />
<glyph unicode="u" horiz-adv-x="1181" d="M23 913l256 56l122 8v-678q0 -74 32 -108.5t104 -34.5q41 0 91 25.5t101 60.5l39 26v566l-115 -11l-10 90l238 56l123 8v-707q0 -63 7 -94t19 -55h94l9 -82l-295 -55l-60 172l-293 -187q-98 0 -160.5 17.5t-98.5 55.5t-49 100.5t-13 152.5v539l-131 -11z" />
<glyph unicode="v" horiz-adv-x="1132" d="M10 891l10 82l252 -6l224 6l10 -82l-125 -23l209 -569l16 -149l240 718l-96 23l10 82l186 -6l166 6l10 -82l-127 -23l-327 -839l-181 -60l-360 899z" />
<glyph unicode="w" horiz-adv-x="1744" d="M10 891l10 82l242 -6l207 6l10 -82l-108 -23l192 -575l17 -137l225 620l-37 92l-84 23l10 82l211 -6l205 6l10 -82l-106 -23l192 -575l17 -137l245 712l-94 23l10 82l156 -6l184 6l11 -82l-125 -23l-320 -837l-190 -60l-207 564l-10 137l-236 -641l-190 -60l-332 897z " />
<glyph unicode="x" horiz-adv-x="1140" d="M20 80l132 20l305 361l-297 407l-123 21l10 84l238 -6l233 6l10 -84l-82 -21l142 -209l16 -59l201 268l-90 21l10 84l170 -6l197 6l10 -84l-135 -21l-275 -321l324 -447l114 -20l-10 -82l-229 6l-234 -6l-12 82l86 20l-172 238l-20 57l-217 -295l96 -20l-10 -82l-181 6 l-196 -6z" />
<glyph unicode="y" horiz-adv-x="1132" d="M10 891l10 82l252 -6l224 6l10 -82l-125 -21l209 -571l20 -156l232 725l-97 21l11 84l184 -6l172 6l10 -84l-127 -21l-311 -825l-231 -524h-277v235h205l203 295l-125 -39l-332 860z" />
<glyph unicode="z" horiz-adv-x="985" d="M63 68l527 751l80 62l-385 -13l-68 -192h-92v295h768l33 -66l-527 -758l-75 -57l403 14l107 215h100l-57 -319h-785z" />
<glyph unicode="{" horiz-adv-x="714" d="M96 522v29q49 16 77 39.5t41 53.5t15 67t2 77l-2 390q0 66 23.5 119t65.5 89.5t98.5 57t122.5 20.5h98v-82h-88q-27 0 -52.5 -10t-45 -35.5t-30.5 -66.5t-9 -103l12 -379q0 -35 -5 -69.5t-21.5 -66t-49.5 -61.5t-86 -54l162 -107l-12 -604q-2 -61 9 -102t30.5 -67t45 -36 t52.5 -10h88v-82h-105q-66 0 -121 20.5t-96 57.5t-63.5 90t-22.5 119l2 583z" />
<glyph unicode="|" horiz-adv-x="579" d="M225 -502v1972h129v-1972h-129z" />
<glyph unicode="}" horiz-adv-x="714" d="M76 -389h88q27 0 52.5 10t45 36t30.5 66.5t9 102.5q0 18 -2 84.5t-4 142.5t-4 139.5t-2 75.5q0 35 5 70t21.5 66.5t49 61.5t86.5 54l-162 107l12 540q2 61 -9 102.5t-30.5 67t-45.5 35.5t-52 10h-88v82h98q66 0 122 -20.5t98 -57t65.5 -90t23.5 -118.5l-2 -521l135 -122 v-29q-49 -16 -76.5 -40t-41 -53.5t-15.5 -66.5t-2 -78l2 -452q0 -66 -22.5 -119t-63.5 -90t-96 -57.5t-121 -20.5h-104v82z" />
<glyph unicode="~" horiz-adv-x="1370" d="M102 406l76 186l201 65l719 -114l88 110h82l-80 -196l-191 -58l-725 115l-88 -108h-82z" />
<glyph unicode="&#xa1;" horiz-adv-x="575" d="M158 854l12 113l172 12l68 -12l10 -129l-10 -111l-174 -12l-66 12zM170 -485l16 612l45 360h115l47 -358l15 -614h-238z" />
<glyph unicode="&#xa2;" horiz-adv-x="980" d="M82 459q0 104 34 186t91 144.5t135 107.5t164 74v155h125v-127q80 -4 155.5 -31.5t120.5 -68.5v-231h-188l-47 186q-20 16 -45 22.5t-60 6.5q-49 0 -92 -26t-74.5 -73t-50 -113.5t-18.5 -148.5q0 -80 23.5 -148.5t66.5 -118.5t104.5 -79t139.5 -29q59 0 117.5 24 t105.5 56l41 -84q-129 -98 -312 -161v-146h-124v139q-90 12 -166 50t-130.5 99.5t-85 145.5t-30.5 189z" />
<glyph unicode="&#xa3;" horiz-adv-x="1191" d="M86 72l195 92v481h-181v35l80 84h101v256q0 96 27.5 165.5t85 122t146.5 89.5t212 67q106 0 173.5 -26.5t102.5 -73.5v-197h-139l-33 138q-27 29 -57.5 43t-79.5 14q-57 0 -95 -26.5t-61.5 -67.5t-34 -91.5t-10.5 -95.5v-317h348v-119h-348v-276q0 -74 -10 -123 t-23.5 -79t-24.5 -44t-14 -17l459 7l96 204h109l-51 -317l-680 6l-283 -6z" />
<glyph unicode="&#xa4;" d="M154 346l114 115q-39 53 -59.5 118.5t-20.5 137.5q0 78 25 148.5t72 129.5l-123 123l94 94l125 -127q55 39 120.5 60.5t137.5 21.5t136.5 -21.5t119.5 -58.5l121 121l96 -96l-119 -119q45 -57 71 -127.5t26 -148.5q0 -72 -21.5 -137.5t-60.5 -120.5l108 -107l-94 -94 l-104 104q-59 -47 -130 -71.5t-149 -24.5t-148.5 24.5t-130.5 69.5l-110 -110zM305 717q0 -68 26.5 -129.5t72 -106.5t106.5 -71.5t129 -26.5t129 26.5t106.5 71.5t72 106.5t26.5 129.5t-26.5 129t-72 106t-106.5 72t-129 27t-129 -27t-106.5 -72t-72 -106t-26.5 -129z" />
<glyph unicode="&#xa5;" horiz-adv-x="1396" d="M41 1354l10 84l291 -6l285 6l10 -84l-164 -27l277 -596l14 -98l285 694l-168 27l10 84l237 -6l218 6l10 -82l-150 -23l-360 -776h299v-98h-303v-101h303v-98h-303v-154l231 -26l-10 -82l-346 6l-355 -6l-10 82l238 26v154h-297v98h297v101h-297v98h293l-396 774z" />
<glyph unicode="&#xa6;" horiz-adv-x="577" d="M225 379h127v-881h-127v881zM225 590v880h127v-880h-127z" />
<glyph unicode="&#xa7;" horiz-adv-x="1124" d="M82 522q0 63 21.5 113.5t55.5 87.5t74.5 63.5t79.5 44.5q-23 27 -45 54.5t-40.5 57.5t-30 64.5t-11.5 77.5q0 150 115 245t326 136q104 0 181 -26.5t112 -73.5v-221h-132l-26 147q-23 31 -60.5 52.5t-97.5 21.5q-39 0 -77 -10t-67.5 -33t-48 -57.5t-18.5 -85.5 q0 -96 68.5 -176t216.5 -183l364 -246v-81q0 -88 -20.5 -156t-52 -118t-73.5 -85t-85 -59q53 -51 88 -98.5t35 -129.5q0 -135 -101.5 -222t-324.5 -128q-111 0 -203 39t-133 84v225h131l29 -145q10 -14 27.5 -31.5t43 -33t57.5 -26.5t68 -11q94 0 146.5 45t52.5 127 q0 51 -28.5 96t-71.5 83t-94.5 70.5t-94.5 63.5q-66 45 -130 95t-114.5 103.5t-81 112.5t-30.5 127zM276 614q0 -49 18.5 -89t55.5 -78.5t91.5 -81.5t125.5 -95l178 -129q41 37 76 93.5t35 152.5v31l-332 233q-39 29 -72.5 53.5t-76.5 65.5q-45 -23 -72 -59.5t-27 -96.5z " />
<glyph unicode="&#xa8;" horiz-adv-x="1024" d="M207 1325l18 90l135 10l56 -10l12 -108l-22 -90l-132 -13l-57 13zM586 1325l20 90l133 10l58 -10l10 -108l-23 -90l-131 -13l-55 13z" />
<glyph unicode="&#xa9;" horiz-adv-x="1703" d="M102 729q0 162 53.5 288t152 217t236.5 148.5t306 81.5q150 -2 287 -53t239.5 -148.5t164 -237.5t61.5 -320q0 -162 -53.5 -288t-152 -217t-236.5 -148.5t-306 -82.5q-152 2 -288 53.5t-238.5 148.5t-164 237.5t-61.5 320.5zM238 729q0 -172 60 -298t152.5 -208t200 -122 t199.5 -40q123 0 234.5 43t196.5 126t135 203t50 272q0 172 -60 297.5t-152.5 207.5t-200 122t-199.5 40q-123 0 -234.5 -43t-196.5 -126t-135 -202.5t-50 -271.5zM442 700q0 102 33 179t92.5 130.5t144.5 86t187 49.5q92 0 167 -29t116 -55v-180h-78l-37 108 q-23 29 -68 55.5t-116 26.5q-117 0 -192 -85t-75 -251q0 -72 19.5 -139.5t56.5 -118.5t90.5 -81.5t120.5 -30.5q55 0 93 21.5t65 45.5l61 135h76l-27 -190q-53 -23 -133 -49.5t-166 -38.5q-84 0 -161.5 26.5t-137 78.5t-95.5 129t-36 177z" />
<glyph unicode="&#xaa;" horiz-adv-x="890" d="M82 852q0 47 17.5 85t45.5 75l369 118v89q0 74 -16.5 109.5t-75.5 35.5q-29 0 -61.5 -8t-57.5 -19l-24 -145h-170v139l315 135q82 0 135 -12t86 -42t46.5 -79t13.5 -125v-321q0 -51 7 -77t17 -46h82l8 -68l-244 -47l-51 129l-192 -141q-111 0 -180.5 57.5t-69.5 157.5z M270 877q0 -63 28 -88t60 -25q33 0 57.5 13.5t41.5 23.5l57 41v219l-211 -86q-18 -18 -25.5 -45t-7.5 -53z" />
<glyph unicode="&#xab;" horiz-adv-x="1005" d="M31 481l372 451h132l-261 -453l261 -448h-134zM440 481l373 451h131l-260 -453l260 -448h-133z" />
<glyph unicode="&#xac;" d="M106 625v143h1055v-399h-143v256h-912z" />
<glyph unicode="&#xad;" horiz-adv-x="747" d="M76 504v135h596v-135h-596z" />
<glyph unicode="&#xae;" horiz-adv-x="1218" d="M92 899q0 111 37 197t104.5 148.5t163 102t209.5 56.5q104 0 198.5 -36t166 -101.5t113.5 -162.5t42 -220q0 -111 -36.5 -197t-104 -148.5t-163 -102.5t-212.5 -56q-104 0 -197.5 36t-165 102.5t-113.5 162.5t-42 219zM184 899q0 -119 42 -206t105.5 -144t137.5 -85 t137 -28q86 0 163 31t136.5 88t94 140t34.5 188q0 119 -42 206t-105.5 144t-138 85t-138.5 28q-84 0 -161.5 -31t-136 -88.5t-93.5 -140t-35 -187.5zM336 659l65 9v454l-65 8l4 41l127 -2l192 2q78 0 130.5 -35.5t52.5 -101.5q0 -61 -54.5 -96t-132.5 -49l95 -41l122 -178 l39 -11l-2 -43l-96 2l-70 -2l-161 244l-11 8h-34v-200l61 -9l-4 -43l-125 2l-129 -2zM537 920h53q45 0 76.5 27.5t31.5 80.5q0 51 -29.5 76.5t-72.5 25.5l-59 -6v-204z" />
<glyph unicode="&#xaf;" horiz-adv-x="1024" d="M219 1274v127h586v-127h-586z" />
<glyph unicode="&#xb0;" horiz-adv-x="841" d="M102 1225q0 131 82 201.5t238 115.5q68 0 126 -25.5t101 -68.5t66.5 -100.5t23.5 -122.5q0 -131 -74.5 -206t-242.5 -114q-68 0 -126 25.5t-101 68.5t-68 101.5t-25 124.5zM227 1223q0 -86 57.5 -142.5t137.5 -56.5q39 0 73.5 15.5t61.5 41t42 62.5t15 80t-15 79.5 t-42 63.5t-61.5 42t-73.5 15q-80 0 -137.5 -56t-57.5 -144z" />
<glyph unicode="&#xb1;" d="M98 0v143h1065v-143h-1065zM98 729v143h457v465h143v-465h455v-143h-455v-446h-143v446h-457z" />
<glyph unicode="&#xb2;" horiz-adv-x="751" d="M41 874l227 228q94 96 136 170t42 145q0 59 -24.5 94t-71.5 35q-39 0 -74 -14l-36 -148h-148v156l285 84q123 0 197.5 -57.5t74.5 -151.5q0 -106 -69.5 -186t-196.5 -168l-215 -146l145 48h357v-54l-41 -90h-559z" />
<glyph unicode="&#xb3;" horiz-adv-x="669" d="M61 1384v156l285 84q63 0 107.5 -12.5t71 -34t37.5 -48t11 -56.5q0 -66 -47 -110t-143 -73q123 -8 179 -59t56 -115q0 -51 -27.5 -87t-69.5 -62.5t-94 -49t-101 -45.5l-111 -53h-147v156h301q29 25 38 53.5t9 50.5q0 57 -43 94t-135 37l-13 47l45 19q57 23 86 58.5 t29 97.5q0 53 -22.5 81.5t-59.5 28.5q-33 0 -57 -12l-37 -146h-148z" />
<glyph unicode="&#xb4;" horiz-adv-x="1024" d="M293 1124l92 357h248l-240 -357h-100z" />
<glyph unicode="&#xb5;" d="M137 -471v1442h236v-629q0 -98 42 -143t111 -45q41 0 89.5 27.5t97.5 60.5l39 24v705h235v-723q0 -82 35 -120t108 -56l-12 -72h-268l-92 152l-228 -183q-33 0 -70.5 3t-72.5 14.5t-64.5 31t-43.5 50.5v-136l122 -403h-264z" />
<glyph unicode="&#xb6;" horiz-adv-x="1036" d="M61 1090q0 51 25 96t67 87t98 81t122 80h581v-109l-106 -20v-1631h-133v1631h-211v-1631h-133v1139q-66 0 -122 19.5t-97 54.5t-66 86t-25 117z" />
<glyph unicode="&#xb7;" horiz-adv-x="483" d="M113 834l12 108l166 12l67 -12l13 -125l-13 -110l-168 -11l-65 11z" />
<glyph unicode="&#xb8;" horiz-adv-x="1024" d="M317 -498l60 88h147q29 20 43.5 54t14.5 69t-14.5 58.5t-36 38t-48 20.5t-53.5 6l154 205l61 -33l-70 -104q66 0 116 -35t50 -102q0 -49 -19.5 -87t-48 -66t-63.5 -46.5t-65 -28.5l-105 -37h-123z" />
<glyph unicode="&#xb9;" horiz-adv-x="643" d="M61 1495l277 119h102v-715l172 -20l-6 -62l-260 4l-266 -4l-6 62l172 20v559l12 35l-57 -37l-111 -16z" />
<glyph unicode="&#xba;" horiz-adv-x="917" d="M72 1036q0 96 29.5 169t84 125t130 85t167.5 49q80 0 146.5 -28.5t115 -80.5t75 -123t26.5 -157q0 -96 -30 -167.5t-84 -124t-130 -86t-168 -50.5q-80 0 -146.5 29t-114.5 81t-74.5 123.5t-26.5 155.5zM266 1087q0 -78 15.5 -143t44 -111.5t67.5 -72t86 -25.5 q82 0 126 77t44 212q0 170 -60.5 262t-150.5 92q-86 0 -129 -77.5t-43 -213.5z" />
<glyph unicode="&#xbb;" horiz-adv-x="1005" d="M61 31l261 448l-261 453h132l372 -451l-370 -450h-134zM471 31l260 448l-260 453h131l373 -451l-371 -450h-133z" />
<glyph unicode="&#xbc;" horiz-adv-x="1703" d="M82 1321l276 119h103v-715l172 -20l-6 -62l-260 4l-267 -4l-6 62l172 20v559l13 35l-58 -37l-110 -16zM401 -102l793 1556h125l-789 -1556h-129zM950 274l402 514h153v-71l-428 -426l62 22h168v113l133 109h37v-222h145v-125h-145v-188h-170v188h-303z" />
<glyph unicode="&#xbd;" horiz-adv-x="1742" d="M82 1321l276 119h103v-715l172 -20l-6 -62l-260 4l-267 -4l-6 62l172 20v559l13 35l-58 -37l-110 -16zM401 -102l793 1556h125l-789 -1556h-129zM1032 55l228 228q94 96 136 169.5t42 145.5q0 59 -23.5 94t-71.5 35q-41 0 -73 -14l-39 -148h-148v156l285 84 q123 0 197.5 -57.5t74.5 -151.5q0 -106 -69.5 -186t-196.5 -168l-215 -146l148 47h354v-53l-41 -90h-559z" />
<glyph unicode="&#xbe;" horiz-adv-x="1673" d="M82 1210v156l285 84q63 0 107 -12.5t70.5 -34t38 -48t11.5 -57.5q0 -66 -47 -109.5t-144 -72.5q123 -8 179.5 -59t56.5 -115q0 -51 -27.5 -87t-69.5 -62.5t-94.5 -49t-101.5 -45.5l-110 -53h-148v156h301q29 25 38 53.5t9 50.5q0 57 -43 94t-135 37l-12 47l45 19 q57 23 86 58.5t29 96.5q0 53 -23 82t-59 29q-33 0 -58 -12l-37 -146h-147zM369 -102l792 1556h127l-788 -1556h-131zM920 274l401 514h154v-71l-431 -426l64 22h168v113l131 109h37v-222h147v-125h-147v-188h-168v188h-305z" />
<glyph unicode="&#xbf;" horiz-adv-x="808" d="M41 -113q0 74 23.5 130.5t63.5 99.5t92 73.5t108 55.5l80 35l14 213h121l12 -279l-80 -45q-78 -45 -125 -124t-47 -171q0 -115 44 -184.5t142 -69.5l39 156h158v-244l-209 -22q-223 29 -329.5 130t-106.5 246zM344 852l12 113l172 10l68 -10l10 -131l-10 -109l-174 -12 l-66 12z" />
<glyph unicode="&#xc0;" horiz-adv-x="1521" d="M18 80l146 24l491 1309l185 45l512 -1356l151 -22l-10 -82l-319 6l-259 -6l-10 82l162 26l-129 367h-496l-125 -367l170 -26l-10 -82l-235 6l-213 -6zM426 1847h252l123 -274h-135zM477 575h424l-190 541l-11 113z" />
<glyph unicode="&#xc1;" horiz-adv-x="1521" d="M18 80l146 24l491 1309l185 45l512 -1356l151 -22l-10 -82l-319 6l-259 -6l-10 82l162 26l-129 367h-496l-125 -367l170 -26l-10 -82l-235 6l-213 -6zM477 575h424l-190 541l-11 113zM688 1573l123 274h254l-242 -274h-135z" />
<glyph unicode="&#xc2;" horiz-adv-x="1521" d="M18 80l146 24l491 1309l185 45l512 -1356l151 -22l-10 -82l-319 6l-259 -6l-10 82l162 26l-129 367h-496l-125 -367l170 -26l-10 -82l-235 6l-213 -6zM430 1573l227 274h181l227 -274h-141l-146 121l-33 37l-28 -37l-146 -121h-141zM477 575h424l-190 541l-11 113z" />
<glyph unicode="&#xc3;" horiz-adv-x="1521" d="M18 80l146 24l491 1309l185 45l512 -1356l151 -22l-10 -82l-319 6l-259 -6l-10 82l162 26l-129 367h-496l-125 -367l170 -26l-10 -82l-235 6l-213 -6zM424 1577l53 207l154 45l336 -103l69 107h60l-54 -211l-153 -41l-336 102l-70 -106h-59zM477 575h424l-190 541 l-11 113z" />
<glyph unicode="&#xc4;" horiz-adv-x="1521" d="M18 80l146 24l491 1309l185 45l512 -1356l151 -22l-10 -82l-319 6l-259 -6l-10 82l162 26l-129 367h-496l-125 -367l170 -26l-10 -82l-235 6l-213 -6zM412 1704l18 90l135 10l56 -10l12 -106l-23 -93l-131 -12l-57 12zM477 575h424l-190 541l-11 113zM872 1704l21 90 l133 10l57 -10l11 -106l-21 -93l-133 -12l-55 12z" />
<glyph unicode="&#xc5;" horiz-adv-x="1521" d="M18 80l146 24l491 1309l185 45l512 -1356l151 -22l-10 -82l-319 6l-259 -6l-10 82l162 26l-129 367h-496l-125 -367l170 -26l-10 -82l-235 6l-213 -6zM477 575h424l-190 541l-11 113zM518 1696q0 49 19.5 82.5t50 57.5t70.5 38t83 27q41 0 81 -10.5t71 -34t50.5 -61.5 t19.5 -93q0 -51 -18.5 -85t-49.5 -56.5t-71 -36t-83 -25.5q-41 0 -79.5 10.5t-71.5 34t-52.5 61t-19.5 91.5zM621 1698q0 -53 33.5 -85t86.5 -32t86 32t33 85t-32.5 87t-86.5 34q-53 0 -86.5 -34t-33.5 -87z" />
<glyph unicode="&#xc6;" horiz-adv-x="2095" d="M10 80l150 22l862 1334l164 -4l790 4l21 -371h-80l-119 258l-483 6v-590l237 9l82 217h80l-20 -267l20 -282h-80l-82 217l-237 8v-537l502 7l141 268h86l-72 -381l-792 6l-283 -6l-10 82l174 26v533h-412l-327 -533l151 -26l-10 -82l-230 6l-213 -6zM702 735h359v594z " />
<glyph unicode="&#xc7;" horiz-adv-x="1445" d="M76 692q0 180 57 314.5t161.5 228.5t252 151.5t327.5 83.5q78 0 150 -14t134.5 -36.5t112.5 -48t87 -50.5v-309h-127l-66 194q-20 25 -50 50.5t-70.5 47t-92 35t-114.5 13.5q-104 0 -192.5 -40t-152 -117t-99.5 -189.5t-36 -257.5q0 -127 35 -247t101.5 -212t163 -147.5 t219.5 -55.5q96 0 163.5 41t114.5 84l107 233h122l-47 -327q-43 -20 -101 -43t-126 -43.5t-140.5 -39t-146.5 -28.5h-18l-45 -59q66 0 116 -35t50 -102q0 -49 -19.5 -87t-49.5 -66t-64.5 -46.5t-65.5 -28.5l-104 -37h-121l59 88h146q29 20 44 54t15 69t-14.5 58.5t-37 38 t-49 20.5t-53.5 6l107 133q-129 14 -246 68.5t-205 145.5t-140 218t-52 291z" />
<glyph unicode="&#xc8;" horiz-adv-x="1304" d="M61 80l175 26v1221l-175 27l11 82l282 -6l836 6l20 -379h-84l-118 266l-514 6v-528l264 8l82 217h86l-21 -266l21 -283h-86l-82 217l-264 8v-598l536 7l137 276h93l-70 -389l-836 6l-282 -6zM395 1847h252l123 -274h-135z" />
<glyph unicode="&#xc9;" horiz-adv-x="1304" d="M61 80l175 26v1221l-175 27l11 82l282 -6l836 6l20 -379h-84l-118 266l-514 6v-528l264 8l82 217h86l-21 -266l21 -283h-86l-82 217l-264 8v-598l536 7l137 276h93l-70 -389l-836 6l-282 -6zM600 1573l123 274h252l-240 -274h-135z" />
<glyph unicode="&#xca;" horiz-adv-x="1304" d="M61 80l175 26v1221l-175 27l11 82l282 -6l836 6l20 -379h-84l-118 266l-514 6v-528l264 8l82 217h86l-21 -266l21 -283h-86l-82 217l-264 8v-598l536 7l137 276h93l-70 -389l-836 6l-282 -6zM379 1573l225 274h182l226 -274h-142l-145 121l-31 37l-28 -37l-148 -121h-139 z" />
<glyph unicode="&#xcb;" horiz-adv-x="1304" d="M61 80l175 26v1221l-175 27l11 82l282 -6l836 6l20 -379h-84l-118 266l-514 6v-528l264 8l82 217h86l-21 -266l21 -283h-86l-82 217l-264 8v-598l536 7l137 276h93l-70 -389l-836 6l-282 -6zM360 1704l21 90l135 10l55 -10l11 -106l-23 -93l-131 -12l-55 12zM821 1704 l23 90l133 10l55 -10l12 -106l-22 -93l-133 -12l-55 12z" />
<glyph unicode="&#xcc;" horiz-adv-x="735" d="M70 82l174 27v1218l-174 27l10 82l293 -6l293 6l10 -82l-174 -27v-1218l174 -27l-10 -84l-293 6l-293 -6zM88 1847h252l123 -274h-135z" />
<glyph unicode="&#xcd;" horiz-adv-x="735" d="M70 82l174 27v1218l-174 27l10 82l293 -6l293 6l10 -82l-174 -27v-1218l174 -27l-10 -84l-293 6l-293 -6zM303 1573l123 274h252l-240 -274h-135z" />
<glyph unicode="&#xce;" horiz-adv-x="735" d="M55 1573l226 274h182l225 -274h-139l-148 121l-30 37l-29 -37l-145 -121h-142zM70 82l174 27v1218l-174 27l10 82l293 -6l293 6l10 -82l-174 -27v-1218l174 -27l-10 -84l-293 6l-293 -6z" />
<glyph unicode="&#xcf;" horiz-adv-x="735" d="M53 1704l19 90l135 10l55 -10l12 -106l-22 -93l-133 -12l-56 12zM70 82l174 27v1218l-174 27l10 82l293 -6l293 6l10 -82l-174 -27v-1218l174 -27l-10 -84l-293 6l-293 -6zM463 1704l20 90l133 10l56 -10l12 -106l-22 -93l-134 -12l-55 12z" />
<glyph unicode="&#xd0;" horiz-adv-x="1533" d="M61 80l175 26v590h-156v95h156v536l-175 27l11 82l268 -6l430 6q160 0 287 -44t216 -130t136 -213t47 -293q0 -160 -42 -291t-129 -228.5t-219 -159t-312 -79.5l-416 6l-266 -6zM494 115l237 -19q100 -2 183 45t140.5 131t89.5 201t32 256q0 131 -32 243.5t-95.5 194.5 t-156.5 128t-216 44l-182 -10v-538h241v-95h-241v-581z" />
<glyph unicode="&#xd1;" horiz-adv-x="1517" d="M61 80l175 26v1211l-168 37l10 82l180 -6l182 6l690 -938l50 -146v975l-164 27l8 82l221 -6l242 6l10 -82l-174 -27v-1331h-139l-764 1063l-41 162v-1115l164 -26l-8 -82l-222 6l-241 -6zM457 1577l51 207l154 45l335 -103l70 107h59l-53 -211l-153 -41l-336 102 l-68 -106h-59z" />
<glyph unicode="&#xd2;" horiz-adv-x="1622" d="M76 684q0 170 44 301t136 227.5t235.5 159.5t342.5 98q160 0 291.5 -54t225 -150.5t144.5 -228.5t51 -287q0 -170 -44 -301.5t-136 -227.5t-235.5 -159.5t-342.5 -98.5q-160 0 -291.5 54.5t-225 150.5t-144.5 228t-51 288zM358 754q0 -117 27 -236t84 -215t149.5 -156.5 t221.5 -60.5q111 0 191.5 46t131.5 126t76 188.5t25 235.5q0 113 -26 230.5t-83 215t-148.5 159t-222.5 61.5q-111 0 -191.5 -46.5t-132.5 -126t-77 -188t-25 -233.5zM535 1847h251l123 -274h-135z" />
<glyph unicode="&#xd3;" horiz-adv-x="1622" d="M76 684q0 170 44 301t136 227.5t235.5 159.5t342.5 98q160 0 291.5 -54t225 -150.5t144.5 -228.5t51 -287q0 -170 -44 -301.5t-136 -227.5t-235.5 -159.5t-342.5 -98.5q-160 0 -291.5 54.5t-225 150.5t-144.5 228t-51 288zM358 754q0 -117 27 -236t84 -215t149.5 -156.5 t221.5 -60.5q111 0 191.5 46t131.5 126t76 188.5t25 235.5q0 113 -26 230.5t-83 215t-148.5 159t-222.5 61.5q-111 0 -191.5 -46.5t-132.5 -126t-77 -188t-25 -233.5zM735 1573l123 274h252l-240 -274h-135z" />
<glyph unicode="&#xd4;" horiz-adv-x="1622" d="M76 684q0 170 44 301t136 227.5t235.5 159.5t342.5 98q160 0 291.5 -54t225 -150.5t144.5 -228.5t51 -287q0 -170 -44 -301.5t-136 -227.5t-235.5 -159.5t-342.5 -98.5q-160 0 -291.5 54.5t-225 150.5t-144.5 228t-51 288zM358 754q0 -117 27 -236t84 -215t149.5 -156.5 t221.5 -60.5q111 0 191.5 46t131.5 126t76 188.5t25 235.5q0 113 -26 230.5t-83 215t-148.5 159t-222.5 61.5q-111 0 -191.5 -46.5t-132.5 -126t-77 -188t-25 -233.5zM512 1573l227 274h181l227 -274h-141l-146 121l-31 37l-30 -37l-146 -121h-141z" />
<glyph unicode="&#xd5;" horiz-adv-x="1622" d="M76 684q0 170 44 301t136 227.5t235.5 159.5t342.5 98q160 0 291.5 -54t225 -150.5t144.5 -228.5t51 -287q0 -170 -44 -301.5t-136 -227.5t-235.5 -159.5t-342.5 -98.5q-160 0 -291.5 54.5t-225 150.5t-144.5 228t-51 288zM358 754q0 -117 27 -236t84 -215t149.5 -156.5 t221.5 -60.5q111 0 191.5 46t131.5 126t76 188.5t25 235.5q0 113 -26 230.5t-83 215t-148.5 159t-222.5 61.5q-111 0 -191.5 -46.5t-132.5 -126t-77 -188t-25 -233.5zM512 1577l53 207l154 45l336 -103l69 107h60l-54 -211l-153 -41l-336 102l-70 -106h-59z" />
<glyph unicode="&#xd6;" horiz-adv-x="1622" d="M76 684q0 170 44 301t136 227.5t235.5 159.5t342.5 98q160 0 291.5 -54t225 -150.5t144.5 -228.5t51 -287q0 -170 -44 -301.5t-136 -227.5t-235.5 -159.5t-342.5 -98.5q-160 0 -291.5 54.5t-225 150.5t-144.5 228t-51 288zM358 754q0 -117 27 -236t84 -215t149.5 -156.5 t221.5 -60.5q111 0 191.5 46t131.5 126t76 188.5t25 235.5q0 113 -26 230.5t-83 215t-148.5 159t-222.5 61.5q-111 0 -191.5 -46.5t-132.5 -126t-77 -188t-25 -233.5zM483 1704l21 90l135 10l55 -10l11 -106l-23 -93l-131 -12l-55 12zM944 1704l23 90l133 10l55 -10l12 -106 l-22 -93l-133 -12l-56 12z" />
<glyph unicode="&#xd7;" d="M199 125l336 332l-336 336l100 102l336 -336l334 334l100 -102l-334 -334l334 -332l-102 -100l-332 331l-334 -333z" />
<glyph unicode="&#xd8;" horiz-adv-x="1622" d="M76 684q0 170 44 301t136 227.5t235.5 159.5t342.5 98q121 0 224 -30.5t189 -89.5l92 114h131l-141 -178q104 -98 160.5 -235.5t56.5 -300.5q0 -170 -44 -301.5t-136 -227.5t-235.5 -159.5t-342.5 -98.5q-123 0 -227 31t-190 90l-90 -115h-136l144 181 q-102 98 -157.5 234t-55.5 300zM358 754q0 -104 20.5 -210t67.5 -198l670 838q-57 74 -139 119t-193 45t-191.5 -46.5t-132.5 -126t-77 -188t-25 -233.5zM504 250q59 -74 141 -119t195 -45q111 0 191.5 46t131.5 126t76 188.5t25 235.5q0 104 -21.5 210.5t-68.5 199.5z" />
<glyph unicode="&#xd9;" horiz-adv-x="1503" d="M33 1354l10 82l281 -6l301 6l10 -82l-162 -27v-838q0 -188 81 -291.5t253 -103.5q160 0 243 104.5t83 297.5v831l-179 27l11 82l262 -6l237 6l11 -82l-170 -27v-819q0 -100 -24 -184t-82 -153t-157.5 -120t-253.5 -88q-162 0 -272 39t-179 110.5t-99.5 172t-30.5 223.5 v819zM498 1847h254l120 -274h-135z" />
<glyph unicode="&#xda;" horiz-adv-x="1503" d="M33 1354l10 82l281 -6l301 6l10 -82l-162 -27v-838q0 -188 81 -291.5t253 -103.5q160 0 243 104.5t83 297.5v831l-179 27l11 82l262 -6l237 6l11 -82l-170 -27v-819q0 -100 -24 -184t-82 -153t-157.5 -120t-253.5 -88q-162 0 -272 39t-179 110.5t-99.5 172t-30.5 223.5 v819zM698 1573l123 274h254l-241 -274h-136z" />
<glyph unicode="&#xdb;" horiz-adv-x="1503" d="M33 1354l10 82l281 -6l301 6l10 -82l-162 -27v-838q0 -188 81 -291.5t253 -103.5q160 0 243 104.5t83 297.5v831l-179 27l11 82l262 -6l237 6l11 -82l-170 -27v-819q0 -100 -24 -184t-82 -153t-157.5 -120t-253.5 -88q-162 0 -272 39t-179 110.5t-99.5 172t-30.5 223.5 v819zM481 1573l228 274h180l227 -274h-141l-146 121l-30 37l-31 -37l-145 -121h-142z" />
<glyph unicode="&#xdc;" horiz-adv-x="1503" d="M33 1354l10 82l281 -6l301 6l10 -82l-162 -27v-838q0 -188 81 -291.5t253 -103.5q160 0 243 104.5t83 297.5v831l-179 27l11 82l262 -6l237 6l11 -82l-170 -27v-819q0 -100 -24 -184t-82 -153t-157.5 -120t-253.5 -88q-162 0 -272 39t-179 110.5t-99.5 172t-30.5 223.5 v819zM457 1704l20 90l135 10l56 -10l12 -106l-23 -93l-133 -12l-55 12zM920 1704l20 90l133 10l57 -10l11 -106l-23 -93l-131 -12l-55 12z" />
<glyph unicode="&#xdd;" horiz-adv-x="1468" d="M10 1356l10 80l291 -6l285 6l10 -80l-164 -27l342 -577l11 -88l356 665l-168 27l10 80l236 -6l219 6l10 -80l-149 -23l-441 -774l2 -453l230 -26l-10 -82l-349 6l-356 -6l-10 82l237 26v459l-452 766zM717 1573l123 274h252l-240 -274h-135z" />
<glyph unicode="&#xde;" horiz-adv-x="1210" d="M47 82l174 27v1218l-174 27l10 82l295 -6l312 6l10 -82l-195 -27v-186l295 4q94 0 175 -22.5t141.5 -68.5t94.5 -115t34 -159q0 -102 -46.5 -178t-121 -130t-170 -91t-193.5 -62h-209v-210l240 -27l-10 -84l-357 6l-295 -6zM479 434h160q63 0 118.5 22.5t95.5 64.5 t63.5 100.5t23.5 132.5q0 135 -74.5 217t-218.5 82l-168 -15v-604z" />
<glyph unicode="&#xdf;" horiz-adv-x="1290" d="M51 836v41l66 75h108v82q0 98 67.5 195.5t217.5 167.5l158 73q98 0 181 -18t142.5 -54t92 -88.5t32.5 -119.5q0 -63 -23.5 -112.5t-66.5 -91.5t-103.5 -77.5t-134.5 -72.5q0 -57 29 -103.5t117 -93.5l137 -76q94 -51 136 -114.5t42 -145.5q0 -68 -27.5 -120t-77.5 -93 t-121 -71.5t-155 -55.5q-86 0 -161.5 32t-122.5 60l-15 228h109l49 -146q29 -23 64.5 -41t82.5 -18q63 0 105.5 41t42.5 100q0 53 -27.5 98t-97.5 91l-131 79q-92 53 -129 132t-37 188l135 88q57 39 96 106.5t39 169.5q0 35 -11 70t-34.5 63.5t-59.5 46t-85 17.5 q-115 0 -166 -92t-51 -254v-1022l-135 4l-226 -6l-10 76l133 20v742h-174z" />
<glyph unicode="&#xe0;" horiz-adv-x="991" d="M61 238q0 59 21.5 106t58.5 90l459 150v110q0 92 -21.5 136t-91.5 44q-39 0 -78.5 -10t-70.5 -24l-33 -178h-211v172l393 167q102 0 170 -14t108 -51t56.5 -99.5t16.5 -156.5v-399q0 -66 8 -97.5t24 -56.5h101l10 -82l-303 -61l-66 161l-239 -176q-137 0 -224.5 72 t-87.5 197zM281 1481h245l95 -357h-101zM297 266q0 -78 35 -108.5t76 -30.5q39 0 69.5 16.5t50.5 30.5l72 49v275l-260 -107q-23 -25 -33 -57.5t-10 -67.5z" />
<glyph unicode="&#xe1;" horiz-adv-x="991" d="M61 238q0 59 21.5 106t58.5 90l459 150v110q0 92 -21.5 136t-91.5 44q-39 0 -78.5 -10t-70.5 -24l-33 -178h-211v172l393 167q102 0 170 -14t108 -51t56.5 -99.5t16.5 -156.5v-399q0 -66 8 -97.5t24 -56.5h101l10 -82l-303 -61l-66 161l-239 -176q-137 0 -224.5 72 t-87.5 197zM297 266q0 -78 35 -108.5t76 -30.5q39 0 69.5 16.5t50.5 30.5l72 49v275l-260 -107q-23 -25 -33 -57.5t-10 -67.5zM451 1124l92 357h248l-240 -357h-100z" />
<glyph unicode="&#xe2;" horiz-adv-x="991" d="M61 238q0 59 21.5 106t58.5 90l459 150v110q0 92 -21.5 136t-91.5 44q-39 0 -78.5 -10t-70.5 -24l-33 -178h-211v172l393 167q102 0 170 -14t108 -51t56.5 -99.5t16.5 -156.5v-399q0 -66 8 -97.5t24 -56.5h101l10 -82l-303 -61l-66 161l-239 -176q-137 0 -224.5 72 t-87.5 197zM201 1124l223 357h143l224 -357h-101l-158 170l-36 47l-37 -47l-158 -170h-100zM297 266q0 -78 35 -108.5t76 -30.5q39 0 69.5 16.5t50.5 30.5l72 49v275l-260 -107q-23 -25 -33 -57.5t-10 -67.5z" />
<glyph unicode="&#xe3;" horiz-adv-x="991" d="M61 238q0 59 21.5 106t58.5 90l459 150v110q0 92 -21.5 136t-91.5 44q-39 0 -78.5 -10t-70.5 -24l-33 -178h-211v172l393 167q102 0 170 -14t108 -51t56.5 -99.5t16.5 -156.5v-399q0 -66 8 -97.5t24 -56.5h101l10 -82l-303 -61l-66 161l-239 -176q-137 0 -224.5 72 t-87.5 197zM162 1198l53 207l154 45l338 -111l59 107h68l-56 -217l-151 -35l-340 113l-58 -109h-67zM297 266q0 -78 35 -108.5t76 -30.5q39 0 69.5 16.5t50.5 30.5l72 49v275l-260 -107q-23 -25 -33 -57.5t-10 -67.5z" />
<glyph unicode="&#xe4;" horiz-adv-x="991" d="M61 238q0 59 21.5 106t58.5 90l459 150v110q0 92 -21.5 136t-91.5 44q-39 0 -78.5 -10t-70.5 -24l-33 -178h-211v172l393 167q102 0 170 -14t108 -51t56.5 -99.5t16.5 -156.5v-399q0 -66 8 -97.5t24 -56.5h101l10 -82l-303 -61l-66 161l-239 -176q-137 0 -224.5 72 t-87.5 197zM199 1325l20 90l133 10l56 -10l12 -108l-23 -90l-131 -13l-57 13zM297 266q0 -78 35 -108.5t76 -30.5q39 0 69.5 16.5t50.5 30.5l72 49v275l-260 -107q-23 -25 -33 -57.5t-10 -67.5zM578 1325l20 90l135 10l55 -10l13 -108l-23 -90l-133 -13l-55 13z" />
<glyph unicode="&#xe5;" horiz-adv-x="991" d="M61 238q0 59 21.5 106t58.5 90l459 150v110q0 92 -21.5 136t-91.5 44q-39 0 -78.5 -10t-70.5 -24l-33 -178h-211v172l393 167q102 0 170 -14t108 -51t56.5 -99.5t16.5 -156.5v-399q0 -66 8 -97.5t24 -56.5h101l10 -82l-303 -61l-66 161l-239 -176q-137 0 -224.5 72 t-87.5 197zM283 1307q0 49 19.5 82.5t50 57t70.5 38t83 26.5q41 0 81 -10t70.5 -33.5t50 -61.5t19.5 -93q0 -51 -18.5 -85t-49 -56.5t-69.5 -36t-82 -25.5q-41 0 -81 10t-72.5 34t-52 61.5t-19.5 91.5zM297 266q0 -78 35 -108.5t76 -30.5q39 0 69.5 16.5t50.5 30.5l72 49 v275l-260 -107q-23 -25 -33 -57.5t-10 -67.5zM387 1309q0 -53 33 -85t86 -32t87 31.5t34 85.5q0 53 -34 87t-87 34t-86 -34t-33 -87z" />
<glyph unicode="&#xe6;" horiz-adv-x="1482" d="M61 231q0 66 21.5 113t58.5 90l449 150v108q0 90 -18.5 136t-79.5 46q-43 0 -83 -10t-73 -24l-33 -170h-207v164l383 167q123 0 196 -23.5t107 -84.5q104 72 258 108q104 0 175 -31.5t114 -85t62.5 -126t19.5 -152.5v-90h-602q0 -82 22.5 -150.5t65.5 -117.5t103.5 -77 t136.5 -28q66 0 128 25t111 59l41 -84q-154 -113 -364 -174q-125 0 -230.5 50.5t-171.5 148.5l-276 -199q-68 0 -125 18.5t-99 52.5t-66 83t-24 108zM297 260q0 -68 35 -98.5t78 -30.5q33 0 64.5 18.5t49.5 30.5l66 47v265l-250 -107q-43 -43 -43 -125zM809 608l367 19 q0 119 -32 188.5t-132 69.5q-92 0 -142.5 -78t-60.5 -199z" />
<glyph unicode="&#xe7;" horiz-adv-x="950" d="M74 459q0 119 41 209t110.5 155.5t160.5 109.5t192 68q84 0 166.5 -29.5t132.5 -72.5v-231h-189l-47 186q-20 16 -41.5 22.5t-56.5 6.5q-92 0 -155.5 -97.5t-63.5 -263.5q0 -80 21.5 -148.5t62.5 -118.5t98 -79t131 -29q59 0 116.5 24t104.5 56l41 -84q-72 -55 -157 -97 t-195 -77h-8l-43 -65q66 0 114.5 -35t48.5 -102q0 -49 -19 -87t-48 -66t-64.5 -46.5t-66.5 -28.5l-105 -37h-120l59 88h145q31 20 45.5 54t14.5 69t-14.5 58.5t-36 38t-48 20.5t-53.5 6l107 141q-86 12 -156 51.5t-120 100.5t-77.5 144t-27.5 186z" />
<glyph unicode="&#xe8;" horiz-adv-x="989" d="M66 463q0 211 116.5 345t360.5 193q104 0 176 -30.5t116 -82.5t64.5 -124t20.5 -152v-96h-611q0 -80 22.5 -147.5t62.5 -116.5t99.5 -77t133.5 -28q66 0 135 26t121 58l39 -84q-78 -59 -170.5 -102t-202.5 -76q-98 0 -186.5 34t-154 96.5t-104 154.5t-38.5 209zM268 1481 h248l92 -357h-100zM309 604l365 21q0 119 -33 190.5t-135 71.5q-86 0 -136.5 -77t-60.5 -206z" />
<glyph unicode="&#xe9;" horiz-adv-x="989" d="M66 463q0 211 116.5 345t360.5 193q104 0 176 -30.5t116 -82.5t64.5 -124t20.5 -152v-96h-611q0 -80 22.5 -147.5t62.5 -116.5t99.5 -77t133.5 -28q66 0 135 26t121 58l39 -84q-78 -59 -170.5 -102t-202.5 -76q-98 0 -186.5 34t-154 96.5t-104 154.5t-38.5 209zM309 604 l365 21q0 119 -33 190.5t-135 71.5q-86 0 -136.5 -77t-60.5 -206zM520 1124l92 357h248l-239 -357h-101z" />
<glyph unicode="&#xea;" horiz-adv-x="989" d="M66 463q0 211 116.5 345t360.5 193q104 0 176 -30.5t116 -82.5t64.5 -124t20.5 -152v-96h-611q0 -80 22.5 -147.5t62.5 -116.5t99.5 -77t133.5 -28q66 0 135 26t121 58l39 -84q-78 -59 -170.5 -102t-202.5 -76q-98 0 -186.5 34t-154 96.5t-104 154.5t-38.5 209zM252 1124 l223 357h141l226 -357h-101l-159 170l-35 47l-37 -47l-160 -170h-98zM309 604l365 21q0 119 -33 190.5t-135 71.5q-86 0 -136.5 -77t-60.5 -206z" />
<glyph unicode="&#xeb;" horiz-adv-x="989" d="M66 463q0 211 116.5 345t360.5 193q104 0 176 -30.5t116 -82.5t64.5 -124t20.5 -152v-96h-611q0 -80 22.5 -147.5t62.5 -116.5t99.5 -77t133.5 -28q66 0 135 26t121 58l39 -84q-78 -59 -170.5 -102t-202.5 -76q-98 0 -186.5 34t-154 96.5t-104 154.5t-38.5 209zM231 1325 l21 90l135 10l55 -10l13 -108l-23 -90l-133 -13l-55 13zM309 604l365 21q0 119 -33 190.5t-135 71.5q-86 0 -136.5 -77t-60.5 -206zM612 1325l21 90l133 10l57 -10l11 -108l-23 -90l-131 -13l-55 13z" />
<glyph unicode="&#xec;" horiz-adv-x="620" d="M61 909l267 62l112 6v-875l140 -20l-11 -84l-243 6l-244 -6l-10 84l133 20v736l-133 -11zM68 1481h247l93 -357h-101z" />
<glyph unicode="&#xed;" horiz-adv-x="620" d="M61 909l267 62l112 6v-875l140 -20l-11 -84l-243 6l-244 -6l-10 84l133 20v736l-133 -11zM256 1124l92 357h248l-240 -357h-100z" />
<glyph unicode="&#xee;" horiz-adv-x="620" d="M18 1124l224 357h141l225 -357h-100l-160 170l-35 47l-37 -47l-159 -170h-99zM61 909l267 62l112 6v-875l140 -20l-11 -84l-243 6l-244 -6l-10 84l133 20v736l-133 -11z" />
<glyph unicode="&#xef;" horiz-adv-x="618" d="M10 1325l21 90l133 10l57 -10l10 -108l-22 -90l-131 -13l-55 13zM59 909l267 62l112 6v-875l140 -20l-11 -84l-243 6l-244 -6l-10 84l133 20v736l-133 -11zM389 1325l21 90l135 10l55 -10l12 -108l-22 -90l-133 -13l-56 13z" />
<glyph unicode="&#xf0;" horiz-adv-x="1116" d="M72 449q0 123 40 211t110.5 147t166.5 94t211 51l191 -88q-23 98 -80.5 186.5t-130.5 157.5l-238 -116v112l147 72l-23 16q-24 15 -53.5 33t-58 34.5t-39.5 22.5l52 93q63 -29 106 -48.5t72.5 -35t49 -26.5t34.5 -19l229 110v-113l-137 -67q174 -141 248.5 -338 t74.5 -436q0 -123 -39.5 -216t-110.5 -158t-168 -103.5t-210 -55.5q-98 0 -180 35t-140.5 97.5t-91 150.5t-32.5 197zM319 522q0 -207 70 -324.5t191 -117.5q98 0 157.5 81t59.5 240q0 205 -71 323t-191 118q-98 0 -157 -80t-59 -240z" />
<glyph unicode="&#xf1;" horiz-adv-x="1232" d="M61 907l267 62l104 6l6 -170l307 196q94 0 155 -16t95.5 -54t48 -100.5t13.5 -154.5v-574l141 -22l-10 -82l-244 6l-211 -6l-10 82l94 22v576q0 139 -123 139q-51 0 -100 -26.5t-98 -59.5l-54 -37v-592l101 -22l-11 -82l-204 6l-244 -6l-10 82l133 22v732l-135 -11z M293 1198l53 207l154 45l338 -111l59 107h66l-56 -217l-151 -35l-340 113l-58 -109h-65z" />
<glyph unicode="&#xf2;" horiz-adv-x="1114" d="M66 461q0 121 37.5 213t106.5 157.5t165 106t213 63.5q100 0 184 -36.5t145.5 -102t95.5 -157t34 -197.5q0 -121 -38 -212t-106.5 -156.5t-165 -107.5t-213.5 -63q-100 0 -184 37t-145.5 102.5t-95 155.5t-33.5 197zM315 526q0 -100 19.5 -182t55.5 -141.5t84 -92 t108 -32.5q104 0 158.5 98t54.5 268q0 215 -76 332t-191 117q-104 0 -158.5 -98.5t-54.5 -268.5zM322 1481h247l93 -357h-101z" />
<glyph unicode="&#xf3;" horiz-adv-x="1114" d="M66 461q0 121 37.5 213t106.5 157.5t165 106t213 63.5q100 0 184 -36.5t145.5 -102t95.5 -157t34 -197.5q0 -121 -38 -212t-106.5 -156.5t-165 -107.5t-213.5 -63q-100 0 -184 37t-145.5 102.5t-95 155.5t-33.5 197zM315 526q0 -100 19.5 -182t55.5 -141.5t84 -92 t108 -32.5q104 0 158.5 98t54.5 268q0 215 -76 332t-191 117q-104 0 -158.5 -98.5t-54.5 -268.5zM524 1124l92 357h248l-239 -357h-101z" />
<glyph unicode="&#xf4;" horiz-adv-x="1114" d="M66 461q0 121 37.5 213t106.5 157.5t165 106t213 63.5q100 0 184 -36.5t145.5 -102t95.5 -157t34 -197.5q0 -121 -38 -212t-106.5 -156.5t-165 -107.5t-213.5 -63q-100 0 -184 37t-145.5 102.5t-95 155.5t-33.5 197zM276 1124l224 357h143l223 -357h-100l-158 170l-37 47 l-36 -47l-158 -170h-101zM315 526q0 -100 19.5 -182t55.5 -141.5t84 -92t108 -32.5q104 0 158.5 98t54.5 268q0 215 -76 332t-191 117q-104 0 -158.5 -98.5t-54.5 -268.5z" />
<glyph unicode="&#xf5;" horiz-adv-x="1114" d="M66 461q0 121 37.5 213t106.5 157.5t165 106t213 63.5q100 0 184 -36.5t145.5 -102t95.5 -157t34 -197.5q0 -121 -38 -212t-106.5 -156.5t-165 -107.5t-213.5 -63q-100 0 -184 37t-145.5 102.5t-95 155.5t-33.5 197zM240 1198l53 207l153 45l338 -111l60 107h67l-55 -217 l-151 -35l-340 113l-58 -109h-67zM315 526q0 -100 19.5 -182t55.5 -141.5t84 -92t108 -32.5q104 0 158.5 98t54.5 268q0 215 -76 332t-191 117q-104 0 -158.5 -98.5t-54.5 -268.5z" />
<glyph unicode="&#xf6;" horiz-adv-x="1114" d="M66 461q0 121 37.5 213t106.5 157.5t165 106t213 63.5q100 0 184 -36.5t145.5 -102t95.5 -157t34 -197.5q0 -121 -38 -212t-106.5 -156.5t-165 -107.5t-213.5 -63q-100 0 -184 37t-145.5 102.5t-95 155.5t-33.5 197zM264 1325l21 90l133 10l55 -10l12 -108l-22 -90 l-131 -13l-58 13zM315 526q0 -100 19.5 -182t55.5 -141.5t84 -92t108 -32.5q104 0 158.5 98t54.5 268q0 215 -76 332t-191 117q-104 0 -158.5 -98.5t-54.5 -268.5zM643 1325l21 90l133 10l57 -10l10 -108l-20 -90l-133 -13l-56 13z" />
<glyph unicode="&#xf7;" d="M96 438v144h1075v-144h-1075zM508 127l12 106l168 13l66 -13l12 -122l-12 -111l-168 -12l-66 12zM508 887l12 108l168 13l66 -13l12 -125l-12 -110l-168 -10l-66 10z" />
<glyph unicode="&#xf8;" horiz-adv-x="1126" d="M66 -20l120 141q-55 66 -85.5 150.5t-30.5 189.5q0 121 37.5 213t106.5 157.5t165 106t213 63.5q80 0 149.5 -23.5t124.5 -66.5l68 78h117l-119 -139q55 -66 87 -152t32 -190q0 -121 -38 -212t-106.5 -156.5t-165 -107.5t-213.5 -63q-80 0 -149.5 23.5t-124.5 64.5 l-68 -77h-120zM319 526q0 -121 29 -219l385 449q-76 137 -201 137q-104 0 -158.5 -98.5t-54.5 -268.5zM387 213q35 -66 86 -100.5t113 -34.5q104 0 158.5 98t54.5 268q0 121 -29 218z" />
<glyph unicode="&#xf9;" horiz-adv-x="1181" d="M23 913l256 56l122 8v-678q0 -74 32 -108.5t104 -34.5q41 0 91 25.5t101 60.5l39 26v566l-115 -11l-10 90l238 56l123 8v-707q0 -63 7 -94t19 -55h94l9 -82l-295 -55l-60 172l-293 -187q-98 0 -160.5 17.5t-98.5 55.5t-49 100.5t-13 152.5v539l-131 -11zM303 1481h248 l92 -357h-98z" />
<glyph unicode="&#xfa;" horiz-adv-x="1181" d="M23 913l256 56l122 8v-678q0 -74 32 -108.5t104 -34.5q41 0 91 25.5t101 60.5l39 26v566l-115 -11l-10 90l238 56l123 8v-707q0 -63 7 -94t19 -55h94l9 -82l-295 -55l-60 172l-293 -187q-98 0 -160.5 17.5t-98.5 55.5t-49 100.5t-13 152.5v539l-131 -11zM528 1124l93 357 h247l-241 -357h-99z" />
<glyph unicode="&#xfb;" horiz-adv-x="1181" d="M23 913l256 56l122 8v-678q0 -74 32 -108.5t104 -34.5q41 0 91 25.5t101 60.5l39 26v566l-115 -11l-10 90l238 56l123 8v-707q0 -63 7 -94t19 -55h94l9 -82l-295 -55l-60 172l-293 -187q-98 0 -160.5 17.5t-98.5 55.5t-49 100.5t-13 152.5v539l-131 -11zM289 1124 l225 357h141l224 -357h-99l-159 170l-37 47l-35 -47l-160 -170h-100z" />
<glyph unicode="&#xfc;" horiz-adv-x="1181" d="M23 913l256 56l122 8v-678q0 -74 32 -108.5t104 -34.5q41 0 91 25.5t101 60.5l39 26v566l-115 -11l-10 90l238 56l123 8v-707q0 -63 7 -94t19 -55h94l9 -82l-295 -55l-60 172l-293 -187q-98 0 -160.5 17.5t-98.5 55.5t-49 100.5t-13 152.5v539l-131 -11zM287 1325l20 90 l133 10l58 -10l10 -108l-23 -90l-131 -13l-55 13zM666 1325l20 90l135 10l56 -10l12 -108l-23 -90l-133 -13l-55 13z" />
<glyph unicode="&#xfd;" horiz-adv-x="1132" d="M10 891l10 82l252 -6l224 6l10 -82l-125 -21l209 -571l20 -156l232 725l-97 21l11 84l184 -6l172 6l10 -84l-127 -21l-311 -825l-231 -524h-277v235h205l203 295l-125 -39l-332 860zM580 1124l92 357h248l-240 -357h-100z" />
<glyph unicode="&#xfe;" horiz-adv-x="1153" d="M31 1395l266 59l113 8v-655l262 194q90 0 164.5 -32.5t129 -93t85 -147.5t30.5 -196q0 -129 -35.5 -227t-104.5 -166.5t-166 -111t-220 -58.5q-39 0 -76 10.5t-69 26.5v-375l202 -22l-10 -82l-309 6l-242 -6l-10 82l133 22v1690l-133 -8zM410 178q70 -100 196 -100 q100 0 164 100.5t64 278.5q0 184 -57.5 274t-141.5 90q-39 0 -82 -22.5t-90 -59.5l-53 -41v-520z" />
<glyph unicode="&#xff;" horiz-adv-x="1132" d="M10 891l10 82l252 -6l224 6l10 -82l-125 -21l209 -571l20 -156l232 725l-97 21l11 84l184 -6l172 6l10 -84l-127 -21l-311 -825l-231 -524h-277v235h205l203 295l-125 -39l-332 860zM303 1325l21 90l135 10l55 -10l12 -108l-22 -90l-133 -13l-56 13zM684 1325l21 90 l133 10l57 -10l10 -108l-22 -90l-131 -13l-56 13z" />
<glyph unicode="&#x152;" horiz-adv-x="2007" d="M76 684q0 168 40 295t129 220t233.5 155.5t350.5 103.5l271 -26l801 4l20 -371h-80l-117 258l-491 6v-528l237 8l82 217h80l-20 -266l20 -283h-80l-82 217l-237 8v-598l502 7l141 270h86l-72 -383l-796 4l-308 -27q-160 0 -290.5 53.5t-224 148.5t-144.5 224t-51 283z M356 750q0 -135 38 -254t104.5 -208t156.5 -140.5t195 -51.5l123 6v1221l-211 14q-104 0 -181 -45t-126 -123.5t-74 -186.5t-25 -232z" />
<glyph unicode="&#x153;" horiz-adv-x="1705" d="M66 467q0 119 37.5 210t106.5 156.5t165 106.5t213 59q111 0 198.5 -43t149.5 -120q59 59 141 100t187 65q104 0 174.5 -31.5t114.5 -85t63.5 -126t19.5 -152.5v-90h-604q0 -82 22.5 -150.5t65.5 -117.5t103.5 -77t136.5 -28q66 0 129 25t113 59l38 -84 q-150 -111 -364 -174q-113 0 -211 42t-164 126q-70 -66 -165 -107.5t-212 -60.5q-100 0 -184 37t-145.5 103.5t-95 157.5t-33.5 200zM313 526q0 -100 20.5 -182t55.5 -141.5t84 -92t109 -32.5q104 0 159.5 98t55.5 268q0 215 -76 331t-193 116q-106 0 -160.5 -97.5 t-54.5 -267.5zM1034 608l365 19q0 119 -32 188.5t-132 69.5q-92 0 -141.5 -78t-59.5 -199z" />
<glyph unicode="&#x178;" horiz-adv-x="1468" d="M10 1356l10 80l291 -6l285 6l10 -80l-164 -27l342 -577l11 -88l356 665l-168 27l10 80l236 -6l219 6l10 -80l-149 -23l-441 -774l2 -453l230 -26l-10 -82l-349 6l-356 -6l-10 82l237 26v459l-452 766zM453 1704l20 90l133 10l56 -10l12 -106l-23 -93l-131 -12l-57 12z M913 1704l21 90l135 10l55 -10l13 -106l-23 -93l-133 -12l-55 12z" />
<glyph unicode="&#x2c6;" horiz-adv-x="1024" d="M207 1124l215 357h160l215 -357h-101l-194 183l-195 -183h-100z" />
<glyph unicode="&#x2dc;" horiz-adv-x="1024" d="M176 1198l53 207l154 45l338 -111l59 107h66l-53 -217l-152 -35l-340 113l-57 -109h-68z" />
<glyph unicode="&#x2000;" horiz-adv-x="950" />
<glyph unicode="&#x2001;" horiz-adv-x="1901" />
<glyph unicode="&#x2002;" horiz-adv-x="950" />
<glyph unicode="&#x2003;" horiz-adv-x="1901" />
<glyph unicode="&#x2004;" horiz-adv-x="633" />
<glyph unicode="&#x2005;" horiz-adv-x="475" />
<glyph unicode="&#x2006;" horiz-adv-x="316" />
<glyph unicode="&#x2007;" horiz-adv-x="316" />
<glyph unicode="&#x2008;" horiz-adv-x="237" />
<glyph unicode="&#x2009;" horiz-adv-x="380" />
<glyph unicode="&#x200a;" horiz-adv-x="105" />
<glyph unicode="&#x2010;" horiz-adv-x="788" d="M82 496v143h625v-143h-625z" />
<glyph unicode="&#x2011;" horiz-adv-x="788" d="M82 496v143h625v-143h-625z" />
<glyph unicode="&#x2012;" horiz-adv-x="788" d="M82 496v143h625v-143h-625z" />
<glyph unicode="&#x2013;" horiz-adv-x="1095" d="M82 510v115h932v-115h-932z" />
<glyph unicode="&#x2014;" horiz-adv-x="2027" d="M580 549v37h868v-37h-868z" />
<glyph unicode="&#x2018;" horiz-adv-x="401" d="M82 1051l12 112l144 310l84 -33q-12 -27 -25.5 -65t-26 -75.5t-20.5 -71.5t-8 -54l92 -11l12 -129l-12 -110l-174 -13l-66 13z" />
<glyph unicode="&#x2019;" horiz-adv-x="421" d="M90 1331l10 111l174 12l66 -12l12 -127l-12 -113l-143 -311l-84 35q12 27 25.5 64.5t25.5 75.5t20.5 71.5t8.5 54.5l-93 10z" />
<glyph unicode="&#x201a;" horiz-adv-x="442" d="M109 129l10 111l174 12l65 -12l13 -127l-13 -113l-143 -311l-84 35q12 27 25.5 64.5t26 75.5t20.5 71.5t8 54.5l-92 10z" />
<glyph unicode="&#x201c;" horiz-adv-x="757" d="M82 1051l12 112l144 310l84 -33q-12 -27 -25.5 -65t-26 -75.5t-20.5 -71.5t-8 -54l92 -11l12 -129l-12 -110l-174 -13l-66 13zM438 1051l13 112l143 310l86 -33q-12 -27 -26.5 -65t-27 -75.5t-20.5 -71.5t-8 -54l92 -11l12 -129l-12 -110l-172 -13l-67 13z" />
<glyph unicode="&#x201d;" horiz-adv-x="778" d="M94 1331l12 111l173 12l67 -12l12 -127l-12 -113l-143 -311l-84 35q12 27 25.5 64.5t25.5 75.5t20.5 71.5t8.5 54.5l-93 10zM451 1331l12 111l174 12l65 -12l13 -127l-13 -113l-143 -311l-84 35q12 27 25.5 64.5t26 75.5t20.5 71.5t8 54.5l-92 10z" />
<glyph unicode="&#x201e;" horiz-adv-x="798" d="M109 129l10 111l174 12l65 -12l13 -127l-13 -113l-143 -311l-84 35q12 27 25.5 64.5t26 75.5t20.5 71.5t8 54.5l-92 10zM465 129l10 111l174 12l66 -12l12 -127l-12 -113l-142 -311l-86 35q12 27 25.5 64.5t26 75.5t20.5 71.5t8 54.5l-92 10z" />
<glyph unicode="&#x2022;" horiz-adv-x="497" d="M102 631l13 125l182 12l86 -12l12 -142l-12 -127l-182 -12l-86 12z" />
<glyph unicode="&#x2026;" horiz-adv-x="1632" d="M154 129l12 107l166 12l67 -12l13 -125l-13 -109l-168 -12l-65 12zM686 129l12 107l168 12l66 -12l12 -125l-12 -109l-168 -12l-66 12zM1221 129l12 107l168 12l65 -12l13 -125l-13 -109l-168 -12l-65 12z" />
<glyph unicode="&#x202f;" horiz-adv-x="380" />
<glyph unicode="&#x2039;" horiz-adv-x="595" d="M31 481l372 451h132l-261 -453l261 -448h-134z" />
<glyph unicode="&#x203a;" horiz-adv-x="595" d="M61 31l261 448l-261 453h132l372 -451l-370 -450h-134z" />
<glyph unicode="&#x205f;" horiz-adv-x="475" />
<glyph unicode="&#x20ac;" horiz-adv-x="1413" d="M92 516v125h127v59v46.5t2 46.5h-129v125h146q25 119 79 207.5t136 154.5t192.5 111t247.5 73q84 0 151.5 -15t121 -39t94 -52.5t71.5 -52.5v-287h-117l-53 201q-39 49 -108.5 89t-188.5 40q-61 0 -118.5 -29t-105.5 -83t-84 -134t-54 -184h604l-72 -125h-545v-45 q0 -55 7 -107h477l-74 -125h-385q20 -84 57 -154.5t90.5 -122t123 -79t155.5 -27.5q63 0 114.5 10.5t91.5 25.5t70.5 31.5t53.5 30.5l47 -88q-25 -16 -69 -38.5t-100 -47t-120.5 -48t-130.5 -40.5q-262 0 -436 137.5t-228 409.5h-141z" />
<glyph unicode="&#x2122;" horiz-adv-x="2138" d="M102 1184v252l387 -2l369 2v-252h-65l-64 172l-143 4v-637l129 -14l-6 -66l-228 4l-229 -4l-6 66l131 14v637l-144 -4l-63 -172h-68zM909 1372l6 64l113 -4l221 4l219 -533v-110l246 643l172 -4l144 4l6 -64l-88 -14v-635l86 -14l-4 -66l-183 2l-182 -2l-6 66l90 14v502 l18 139l-274 -721h-127l-233 571l-33 144v-635l88 -14l-4 -66l-135 2l-131 -2l-7 66l90 14v635z" />
<glyph unicode="&#x25fc;" horiz-adv-x="972" d="M0 0v973h973v-973h-973z" />
</font>
</defs>
</svg>
