<!DOCTYPE svg PUBLIC "-//W3C//DTD SVG 1.1//EN" "http://www.w3.org/Graphics/SVG/1.1/DTD/svg11.dtd" [
	<!ENTITY ns_flows "http://ns.adobe.com/Flows/1.0/">
]><svg xmlns="http://www.w3.org/2000/svg" width="800" height="600" viewBox="-7.766 -0.719 800 600" overflow="visible" enable-background="new -7.766 -0.719 800 600"><path fill="#808080" d="M16.969 8.312l-6.719 6.719 6.719 6.719-1.766 1.766-6.719-6.719-6.719 6.719-1.765-1.766 6.719-6.719-6.719-6.719 1.766-1.766 6.719 6.719 6.719-6.719 1.765 1.766zm20.156 18.032l-1.781-1.766 9.453-9.453-9.453-9.453 1.781-1.766 11.219 11.219-11.219 11.219zm38.719 0l-11.219-11.219 11.219-11.219 1.766 1.766-9.453 9.453 9.453 9.453-1.766 1.766zm28.547-2.953l-11.219-11.219 1.766-1.781 9.453 9.453 9.453-9.453 1.766 1.781-11.219 11.219zm41.453-2.891l-9.453-9.453-9.453 9.453-1.766-1.766 11.219-11.219 11.219 11.219-1.766 1.766zm22.156-18.047l13.078 13.078-13.078 13.078-1.781-1.766 10.062-10.062h-21.047v-2.5h21.047l-10.062-10.062 1.781-1.766zm45.234 11.828v2.5h-21.047l10.062 10.062-1.781 1.766-13.078-13.078 13.078-13.078 1.781 1.766-10.062 10.062h21.047zm30.094-1.015l1.781 1.781-13.094 13.078-13.078-13.078 1.766-1.781 10.031 10.031v-21.016h2.5v21.094l10.094-10.109zm33.781 2.25l-1.781 1.781-10.094-10.109v21.094h-2.5v-21.016l-10.031 10.031-1.766-1.781 13.078-13.078 13.094 13.078zm19.375-12.235c1.656 0 3.239.323 4.75.969 1.51.646 2.815 1.519 3.914 2.617 1.099 1.1 1.971 2.404 2.617 3.914.646 1.511.969 3.094.969 4.75 0 1.636-.31 3.198-.93 4.688-.62 1.49-1.508 2.812-2.664 3.969s-2.479 2.045-3.969 2.664c-1.49.62-3.052.93-4.688.93-1.656 0-3.24-.322-4.75-.969-1.511-.646-2.815-1.518-3.914-2.617-1.099-1.099-1.972-2.403-2.617-3.914-.646-1.51-.969-3.094-.969-4.75 0-1.635.31-3.197.93-4.688.62-1.489 1.508-2.812 2.664-3.969s2.479-2.044 3.969-2.664c1.49-.619 3.053-.93 4.688-.93zm3.782 21.352c1.198-.494 2.26-1.205 3.188-2.133.927-.927 1.638-1.992 2.133-3.195.495-1.203.742-2.461.742-3.773 0-1.781-.44-3.427-1.32-4.938-.88-1.51-2.076-2.705-3.586-3.586-1.511-.88-3.156-1.32-4.938-1.32-1.312 0-2.57.248-3.773.742-1.203.495-2.269 1.206-3.195 2.133-.927.928-1.638 1.992-2.133 3.195-.495 1.203-.742 2.461-.742 3.773 0 1.781.44 3.428 1.32 4.938.88 1.511 2.075 2.706 3.586 3.586 1.51.881 3.156 1.32 4.938 1.32 1.321 0 2.581-.247 3.78-.742zm-5.032-12.852v-2.5h2.5v2.5h-2.5zm0 10v-8.5h2.5v8.5h-2.5zm33.25-18.5c1.656 0 3.239.323 4.75.969 1.51.646 2.815 1.519 3.914 2.617 1.099 1.1 1.971 2.404 2.617 3.914.646 1.511.969 3.094.969 4.75 0 1.636-.31 3.198-.93 4.688-.62 1.49-1.508 2.812-2.664 3.969s-2.479 2.045-3.969 2.664c-1.49.62-3.052.93-4.688.93-1.656 0-3.24-.322-4.75-.969-1.511-.646-2.815-1.518-3.914-2.617-1.099-1.099-1.972-2.403-2.617-3.914-.646-1.51-.969-3.094-.969-4.75 0-1.635.31-3.197.93-4.688.62-1.489 1.508-2.812 2.664-3.969s2.479-2.044 3.969-2.664c1.49-.619 3.053-.93 4.688-.93zm3.782 21.352c1.198-.494 2.26-1.205 3.188-2.133.927-.927 1.638-1.992 2.133-3.195.495-1.203.742-2.461.742-3.773 0-1.781-.44-3.427-1.32-4.938-.88-1.51-2.076-2.705-3.586-3.586-1.511-.88-3.156-1.32-4.938-1.32-1.312 0-2.57.248-3.773.742-1.203.495-2.269 1.206-3.195 2.133-.927.928-1.638 1.992-2.133 3.195-.495 1.203-.742 2.461-.742 3.773 0 1.781.44 3.428 1.32 4.938.88 1.511 2.075 2.706 3.586 3.586 1.51.881 3.156 1.32 4.938 1.32 1.321 0 2.581-.247 3.78-.742zm-3.532-15.852c1.146 0 2.099.334 2.859 1 .76.667 1.141 1.5 1.141 2.5 0 .479-.104.925-.312 1.336-.208.412-.458.761-.75 1.047-.292.287-.583.561-.875.82-.292.261-.542.545-.75.852-.208.308-.312.623-.312.945v.5h-2.5v-.812c0-.489.096-.935.289-1.336.192-.4.43-.734.711-1s.565-.51.852-.734c.286-.224.539-.463.758-.719.219-.255.344-.518.375-.789.052-.489-.058-.88-.328-1.172-.271-.291-.656-.438-1.156-.438-.469 0-.836.198-1.102.594-.266.396-.398.865-.398 1.406h-2.5c0-1.219.377-2.189 1.133-2.914.753-.723 1.709-1.086 2.865-1.086zm-1.5 13v-2.5h2.5v2.5h-2.5zm33.25-20.5l13.797 27h-27.594l13.797-27zm0 5.5l-9.703 19h19.406l-9.703-19zm-1.25 5.5h2.5v3l-.5 4h-1.5l-.5-4v-3zm0 11v-2.5h2.5v2.5h-2.5zm28.5-19.031c1.51-.646 3.094-.969 4.75-.969s3.239.323 4.75.969c1.51.646 2.814 1.519 3.914 2.617 1.099 1.1 1.971 2.404 2.617 3.914.646 1.511.969 3.094.969 4.75 0 1.636-.311 3.198-.93 4.688-.62 1.49-1.508 2.812-2.664 3.969s-2.479 2.045-3.969 2.664c-1.49.62-3.053.93-4.688.93-1.656 0-3.24-.322-4.75-.969-1.511-.646-2.815-1.518-3.914-2.617-1.099-1.099-1.972-2.403-2.617-3.914-.646-1.51-.969-3.094-.969-4.75s.323-3.239.969-4.75c.646-1.51 1.518-2.814 2.617-3.914 1.1-1.099 2.405-1.972 3.915-2.618zm8.524 20.383c1.203-.494 2.268-1.205 3.195-2.133.927-.927 1.638-1.992 2.133-3.195.494-1.203.742-2.461.742-3.773 0-1.781-.44-3.427-1.32-4.938-.881-1.51-2.076-2.705-3.586-3.586-1.511-.88-3.156-1.32-4.938-1.32s-3.427.44-4.938 1.32c-1.511.881-2.706 2.076-3.586 3.586-.88 1.511-1.32 3.156-1.32 4.938s.44 3.428 1.32 4.938c.88 1.511 2.075 2.706 3.586 3.586 1.51.881 3.156 1.32 4.938 1.32 1.313-.001 2.571-.248 3.774-.743zm-2.524-16.352v6.781l5.156 3.156-1.312 2.125-6.344-3.875v-8.187h2.5zm20.016 21h-2.5l.219-2.562c.271-2.562 1.502-4.525 3.695-5.891 2.192-1.364 5.216-2.047 9.07-2.047s6.877.68 9.07 2.039c2.192 1.359 3.424 3.32 3.695 5.883l.219 2.578h-2.5l-.219-2.344c-.094-.896-.373-1.689-.836-2.383-.464-.692-1.029-1.242-1.695-1.648-.667-.406-1.451-.739-2.352-1-.901-.26-1.781-.438-2.641-.531s-1.773-.141-2.742-.141-1.883.047-2.742.141-1.74.271-2.641.531c-.901.261-1.686.597-2.352 1.008-.667.412-1.232.961-1.695 1.648-.464.688-.742 1.484-.836 2.391l-.217 2.328zm15.477-14.914c-1.339 1.609-3.003 2.414-4.992 2.414-1.99 0-3.654-.805-4.992-2.414-1.339-1.609-2.008-3.611-2.008-6.008 0-1.25.317-2.422.953-3.516.635-1.094 1.492-1.961 2.57-2.602s2.236-.961 3.477-.961c1.239 0 2.398.32 3.477.961s1.935 1.508 2.57 2.602c.635 1.094.953 2.266.953 3.516-.001 2.397-.671 4.399-2.008 6.008zm-1.805-9.265c-.917-.932-1.979-1.398-3.188-1.398s-2.271.467-3.188 1.398c-.917.933-1.375 2.019-1.375 3.258 0 1.709.435 3.136 1.305 4.281.869 1.146 1.955 1.719 3.258 1.719 1.302 0 2.388-.572 3.258-1.719.869-1.146 1.305-2.572 1.305-4.281 0-1.24-.459-2.326-1.375-3.258zm36.062-1.321c1.583 0 2.938.562 4.062 1.688s1.688 2.479 1.688 4.062v6.5c0 1.584-.562 2.938-1.688 4.062s-2.479 1.688-4.062 1.688h-5.109l-6.016 5.656c-.261.229-.553.344-.875.344-.167 0-.328-.031-.484-.094-.229-.104-.414-.26-.555-.469-.141-.208-.211-.438-.211-.688v-4.75h-1.25c-1.584 0-2.938-.562-4.062-1.688s-1.688-2.479-1.688-4.062v-6.5c0-1.583.562-2.938 1.688-4.062s2.479-1.688 4.062-1.688h14.5zm3.25 12.25v-6.5c0-.896-.318-1.661-.953-2.297-.636-.635-1.401-.953-2.297-.953h-14.5c-.896 0-1.662.318-2.297.953-.636.636-.953 1.401-.953 2.297v6.5c0 .896.317 1.662.953 2.297.635.636 1.4.953 2.297.953h3.75v4.469l4.641-4.469h6.109c.896 0 1.661-.317 2.297-.953.635-.635.953-1.4.953-2.297zm32.735 1.047c-.146.261-.234.448-.266.562-.053.167-.058.453-.016.859.072.896 0 1.719-.219 2.469-.084.303-.206.594-.367.875-.162.281-.3.492-.414.633l-.484.57c-.261.281-.459.526-.594.734-.062.084-.151.281-.266.594-.104.281-.195.503-.273.664-.078.162-.209.378-.391.648-.183.271-.42.521-.711.75-.292.229-.646.443-1.062.641-.99.469-2.198.703-3.625.703h-.156c-2.303 0-4.506-.609-6.609-1.828-.823-.489-3.089-.719-6.797-.688h-.484v-2.469h.469c.677-.021 1.406-.023 2.188-.008s1.521.045 2.219.086c.697.042 1.377.141 2.039.297.661.156 1.205.359 1.633.609 1.697.99 3.489 1.484 5.375 1.484 1.072.031 1.963-.119 2.672-.453.375-.177.63-.349.766-.516.135-.166.271-.427.406-.781.146-.447.322-.828.531-1.141.177-.26.447-.594.812-1l.258-.297.258-.289.164-.234.133-.289c.125-.406.166-.916.125-1.531-.062-.656-.037-1.219.078-1.688.125-.51.266-.9.422-1.172.302-.562.453-1.031.453-1.406 0-.156-.011-.283-.031-.383-.021-.099-.076-.224-.164-.375-.089-.15-.253-.266-.492-.344-.24-.078-.553-.117-.938-.117h-2.75c-1.115 0-2.05-.297-2.805-.891-.756-.594-1.175-1.359-1.258-2.297-.094-1.072.203-2.271.891-3.594.375-.677.557-1.141.547-1.391-.011-.291-.146-.51-.406-.656-.406-.219-.828-.197-1.266.062-.198.115-.623.523-1.273 1.227-.651.703-1.373 1.545-2.164 2.523l-.156.188c-.365.459-.646.808-.844 1.047-.198.24-.482.57-.852.992-.37.422-.686.75-.945.984-.261.234-.584.516-.969.844-.386.328-.756.589-1.109.781-.354.193-.745.389-1.172.586-.428.198-.881.35-1.359.453-.479.104-.975.172-1.484.203v-2.5c.427-.041.841-.125 1.242-.25.4-.125.758-.26 1.07-.406.312-.146.648-.359 1.008-.641s.658-.525.898-.734c.239-.208.536-.513.891-.914.354-.4.627-.719.82-.953l.867-1.055.141-.203c2.031-2.489 3.422-3.942 4.172-4.359.594-.333 1.213-.505 1.859-.516.646-.01 1.255.141 1.828.453.51.271.911.641 1.203 1.109.291.469.453.995.484 1.578.021.323-.016.662-.109 1.016-.094.354-.19.641-.289.859-.1.219-.242.5-.43.844-.448.854-.646 1.589-.594 2.203.021.312.189.553.508.719.317.167.669.25 1.055.25h2.75c1.281 0 2.289.323 3.023.969.734.646 1.102 1.542 1.102 2.688-.002.796-.257 1.666-.767 2.613zm32-3.594c.51.948.766 1.818.766 2.609 0 1.146-.367 2.042-1.102 2.688-.734.646-1.742.969-3.023.969h-2.75c-.386 0-.737.084-1.055.25-.318.167-.487.406-.508.719-.053.615.146 1.35.594 2.203.188.344.33.625.43.844.099.219.195.506.289.859.094.354.13.693.109 1.016-.031.573-.195 1.097-.492 1.57-.297.475-.695.847-1.195 1.117-.573.312-1.183.464-1.828.453-.646-.01-1.266-.182-1.859-.516-.75-.416-2.141-1.869-4.172-4.359l-.141-.203-.867-1.055c-.193-.234-.467-.552-.82-.953-.354-.4-.651-.705-.891-.914-.24-.208-.539-.453-.898-.734s-.695-.494-1.008-.641c-.312-.146-.67-.281-1.07-.406-.401-.125-.815-.208-1.242-.25v-2.5c.51.031 1.005.1 1.484.203.479.104.932.256 1.359.453.427.198.817.394 1.172.586.354.193.724.453 1.109.781s.708.609.969.844c.26.234.575.562.945.984.369.422.653.753.852.992.197.24.479.589.844 1.047l.156.188c.791.979 1.513 1.82 2.164 2.523.65.703 1.075 1.112 1.273 1.227.438.261.859.281 1.266.062.26-.146.396-.364.406-.656.01-.219-.172-.682-.547-1.391-.688-1.322-.984-2.521-.891-3.594.083-.938.502-1.703 1.258-2.297.755-.594 1.689-.891 2.805-.891h2.75c.385 0 .697-.039.938-.117.239-.078.403-.192.492-.344.088-.15.143-.275.164-.375.021-.099.031-.227.031-.383 0-.375-.151-.844-.453-1.406-.156-.271-.297-.661-.422-1.172-.115-.469-.141-1.031-.078-1.688.041-.614 0-1.125-.125-1.531l-.133-.289-.164-.234-.258-.289-.258-.297c-.365-.406-.636-.739-.812-1-.209-.312-.386-.692-.531-1.141-.094-.25-.17-.43-.227-.539-.058-.109-.162-.231-.312-.367-.151-.135-.362-.266-.633-.391-.709-.333-1.6-.484-2.672-.453-1.886 0-3.678.495-5.375 1.484-.428.25-.972.453-1.633.609-.662.156-1.342.256-2.039.297-.698.042-1.438.07-2.219.086s-1.511.014-2.188-.008h-.469v-2.466h.484c3.708.031 5.974-.197 6.797-.688 2.104-1.219 4.307-1.828 6.609-1.828h.156c1.427 0 2.635.234 3.625.703.416.198.771.412 1.062.641.291.229.528.479.711.75.182.271.312.487.391.648.078.162.169.383.273.664.114.312.203.511.266.594.135.209.333.453.594.734l.484.57c.114.141.252.352.414.633.161.281.283.573.367.875.219.75.291 1.573.219 2.469-.042.406-.037.693.016.859.032.116.12.304.267.563zm33.25-2.156c.156 2.678-.881 5.178-3.109 7.5-.875.906-1.764 1.828-2.664 2.766l-2.352 2.445c-.667.693-1.266 1.318-1.797 1.875l-1.219 1.273-.438.453-.906.953-.906-.953-.438-.453-1.219-1.273-1.789-1.875c-.662-.692-1.445-1.508-2.352-2.445l-2.672-2.766c-2.229-2.322-3.266-4.822-3.109-7.5.062-1.083.322-2.102.781-3.055.458-.953 1.062-1.731 1.812-2.336 1.364-1.104 2.932-1.656 4.703-1.656 2.281 0 4.01.818 5.188 2.453 1.177-1.635 2.906-2.453 5.188-2.453 1.771 0 3.338.553 4.703 1.656.75.604 1.354 1.383 1.812 2.336.46.954.72 1.972.783 3.055zm-4.907 5.766c1.739-1.802 2.541-3.677 2.406-5.625-.042-.791-.225-1.502-.547-2.133-.323-.63-.698-1.111-1.125-1.445-.886-.739-1.928-1.109-3.125-1.109-.792 0-1.464.139-2.016.414-.553.276-.956.654-1.211 1.133-.256.479-.422.836-.5 1.07s-.144.514-.195.836l-.016.062c-.125.656-.526.984-1.203.984-.406 0-.717-.099-.93-.297-.214-.197-.336-.432-.367-.703-.25-1.719-1.062-2.812-2.438-3.281-.448-.146-.948-.219-1.5-.219-1.198 0-2.24.37-3.125 1.109-.428.334-.803.815-1.125 1.445-.323.631-.506 1.342-.547 2.133-.136 1.948.666 3.823 2.406 5.625 3.947 4.094 6.474 6.719 7.578 7.875 1.106-1.156 3.632-3.78 7.58-7.874zm34.407 13.359l-9.984-6.141-9.984 6.141 2.812-11.312-9-7.531 11.75-.844 4.421-10.766 4.422 10.766 11.75.844-9 7.531 2.813 11.312zm-9.985-9.078l6.078 3.734-1.703-6.891 5.453-4.547-7.125-.516-2.703-6.578-2.703 6.578-7.125.516 5.453 4.547-1.703 6.891 6.078-3.734zm24.797-16.594h20.703l-.109 1.344c-.021.438-.125 1.789-.312 4.055s-.328 3.695-.422 4.289c-.146 1.011-.615 1.862-1.406 2.555-.792.693-1.776 1.123-2.953 1.289-.021 0-4.12.49-12.297 1.469v-2.516c.854-.104 2.219-.266 4.094-.484s3.555-.416 5.039-.594c1.484-.177 2.43-.297 2.836-.359.614-.072 1.119-.266 1.516-.578.396-.312.63-.697.703-1.156.114-.739.317-3.01.609-6.812h-17.797v12.984c0 .459.148.826.445 1.102.297.276.7.414 1.211.414h16.844v2.5h-16.844c-1.188 0-2.178-.383-2.969-1.148-.792-.766-1.188-1.721-1.188-2.867v-14.268c0-.458-.186-.859-.555-1.203-.37-.344-.8-.516-1.289-.516h-4.656v-2.5h4.656c.947 0 1.805.281 2.57.844s1.29 1.281 1.571 2.156zm-1.562 21.735c.489-.489 1.078-.734 1.766-.734s1.275.245 1.766.734c.489.49.734 1.078.734 1.766s-.245 1.276-.734 1.766c-.49.49-1.078.734-1.766.734s-1.276-.244-1.766-.734c-.49-.489-.734-1.078-.734-1.766s.244-1.276.734-1.766zm16 0c.489-.489 1.078-.734 1.766-.734s1.275.245 1.766.734c.489.49.734 1.078.734 1.766s-.245 1.276-.734 1.766c-.49.49-1.078.734-1.766.734s-1.276-.244-1.766-.734c-.49-.489-.734-1.078-.734-1.766s.244-1.276.734-1.766zm11.265-23.235h26.5v23.5h-26.5v-23.5zm24 2.5h-21.5v4.5h21.5v-4.5zm0 7h-21.5v4.5h21.5v-4.5zm-21.5 11.5h21.5v-4.5h-21.5v4.5z"/><path fill="#333" d="M666.734 69.781h26.5v3h-26.5zm0 8h26.5v3h-26.5zm0 8h26.5v3h-26.5z"/><path fill="#E6E6E6" d="M666.734 101.781h26.5v3h-26.5zm0 8h26.5v3h-26.5zm0 8h26.5v3h-26.5z"/><path fill="#fff" d="M666.734 37.781h26.5v3h-26.5zm0 8h26.5v3h-26.5zm0 8h26.5v3h-26.5z"/><path fill="#808080" d="M666.734 5.781h26.5v3h-26.5zm0 8h26.5v3h-26.5zm0 8h26.5v3h-26.5z"/><path fill="#fff" d="M634.734 35.281h26.5v23.5h-26.5v-23.5zm24 2.5h-21.5v4.5h21.5v-4.5zm0 7h-21.5v4.5h21.5v-4.5zm-21.5 11.5h21.5v-4.5h-21.5v4.5z"/><path fill="#333" d="M634.734 67.281h26.5v23.5h-26.5v-23.5zm24 2.5h-21.5v4.5h21.5v-4.5zm0 7h-21.5v4.5h21.5v-4.5zm-21.5 11.5h21.5v-4.5h-21.5v4.5z"/><path fill="#E6E6E6" d="M634.734 99.281h26.5v23.5h-26.5v-23.5zm24 2.5h-21.5v4.5h21.5v-4.5zm0 7h-21.5v4.5h21.5v-4.5zm-21.5 11.5h21.5v-4.5h-21.5v4.5z"/><path fill="#fff" d="M16.969 40.312l-6.719 6.719 6.719 6.719-1.766 1.766-6.719-6.719-6.719 6.719-1.765-1.766 6.719-6.719-6.719-6.719 1.766-1.766 6.719 6.719 6.719-6.719 1.765 1.766zm20.156 18.032l-1.781-1.766 9.453-9.453-9.453-9.453 1.781-1.766 11.219 11.219-11.219 11.219zm38.719 0l-11.219-11.219 11.219-11.219 1.766 1.766-9.453 9.453 9.453 9.453-1.766 1.766zm28.547-2.953l-11.219-11.219 1.766-1.781 9.453 9.453 9.453-9.453 1.766 1.781-11.219 11.219zm41.453-2.891l-9.453-9.453-9.453 9.453-1.766-1.766 11.219-11.219 11.219 11.219-1.766 1.766zm22.156-18.047l13.078 13.078-13.078 13.078-1.781-1.766 10.062-10.062h-21.047v-2.5h21.047l-10.062-10.062 1.781-1.766zm45.234 11.828v2.5h-21.047l10.062 10.062-1.781 1.766-13.078-13.078 13.078-13.078 1.781 1.766-10.062 10.062h21.047zm30.094-1.015l1.781 1.781-13.094 13.078-13.078-13.078 1.766-1.781 10.031 10.031v-21.016h2.5v21.094l10.094-10.109zm33.781 2.25l-1.781 1.781-10.094-10.109v21.094h-2.5v-21.016l-10.031 10.031-1.766-1.781 13.078-13.078 13.094 13.078zm19.375-12.235c1.656 0 3.239.323 4.75.969 1.51.646 2.815 1.519 3.914 2.617 1.099 1.1 1.971 2.404 2.617 3.914.646 1.511.969 3.094.969 4.75 0 1.636-.31 3.198-.93 4.688-.62 1.49-1.508 2.812-2.664 3.969s-2.479 2.045-3.969 2.664c-1.49.62-3.052.93-4.688.93-1.656 0-3.24-.322-4.75-.969-1.511-.646-2.815-1.518-3.914-2.617-1.099-1.099-1.972-2.403-2.617-3.914-.646-1.51-.969-3.094-.969-4.75 0-1.635.31-3.197.93-4.688.62-1.489 1.508-2.812 2.664-3.969s2.479-2.044 3.969-2.664c1.49-.619 3.053-.93 4.688-.93zm3.782 21.352c1.198-.494 2.26-1.205 3.188-2.133.927-.927 1.638-1.992 2.133-3.195.495-1.203.742-2.461.742-3.773 0-1.781-.44-3.427-1.32-4.938-.88-1.51-2.076-2.705-3.586-3.586-1.511-.88-3.156-1.32-4.938-1.32-1.312 0-2.57.248-3.773.742-1.203.495-2.269 1.206-3.195 2.133-.927.928-1.638 1.992-2.133 3.195-.495 1.203-.742 2.461-.742 3.773 0 1.781.44 3.428 1.32 4.938.88 1.511 2.075 2.706 3.586 3.586 1.51.881 3.156 1.32 4.938 1.32 1.321 0 2.581-.247 3.78-.742zm-5.032-12.852v-2.5h2.5v2.5h-2.5zm0 10v-8.5h2.5v8.5h-2.5zm33.25-18.5c1.656 0 3.239.323 4.75.969 1.51.646 2.815 1.519 3.914 2.617 1.099 1.1 1.971 2.404 2.617 3.914.646 1.511.969 3.094.969 4.75 0 1.636-.31 3.198-.93 4.688-.62 1.49-1.508 2.812-2.664 3.969s-2.479 2.045-3.969 2.664c-1.49.62-3.052.93-4.688.93-1.656 0-3.24-.322-4.75-.969-1.511-.646-2.815-1.518-3.914-2.617-1.099-1.099-1.972-2.403-2.617-3.914-.646-1.51-.969-3.094-.969-4.75 0-1.635.31-3.197.93-4.688.62-1.489 1.508-2.812 2.664-3.969s2.479-2.044 3.969-2.664c1.49-.619 3.053-.93 4.688-.93zm3.782 21.352c1.198-.494 2.26-1.205 3.188-2.133.927-.927 1.638-1.992 2.133-3.195.495-1.203.742-2.461.742-3.773 0-1.781-.44-3.427-1.32-4.938-.88-1.51-2.076-2.705-3.586-3.586-1.511-.88-3.156-1.32-4.938-1.32-1.312 0-2.57.248-3.773.742-1.203.495-2.269 1.206-3.195 2.133-.927.928-1.638 1.992-2.133 3.195-.495 1.203-.742 2.461-.742 3.773 0 1.781.44 3.428 1.32 4.938.88 1.511 2.075 2.706 3.586 3.586 1.51.881 3.156 1.32 4.938 1.32 1.321 0 2.581-.247 3.78-.742zm-3.532-15.852c1.146 0 2.099.334 2.859 1 .76.667 1.141 1.5 1.141 2.5 0 .479-.104.925-.312 1.336-.208.412-.458.761-.75 1.047-.292.287-.583.561-.875.82-.292.261-.542.545-.75.852-.208.308-.312.623-.312.945v.5h-2.5v-.812c0-.489.096-.935.289-1.336.192-.4.43-.734.711-1s.565-.51.852-.734c.286-.224.539-.463.758-.719.219-.255.344-.518.375-.789.052-.489-.058-.88-.328-1.172-.271-.291-.656-.438-1.156-.438-.469 0-.836.198-1.102.594-.266.396-.398.865-.398 1.406h-2.5c0-1.219.377-2.189 1.133-2.914.753-.723 1.709-1.086 2.865-1.086zm-1.5 13v-2.5h2.5v2.5h-2.5zm33.25-20.5l13.797 27h-27.594l13.797-27zm0 5.5l-9.703 19h19.406l-9.703-19zm-1.25 5.5h2.5v3l-.5 4h-1.5l-.5-4v-3zm0 11v-2.5h2.5v2.5h-2.5zm28.5-19.031c1.51-.646 3.094-.969 4.75-.969s3.239.323 4.75.969c1.51.646 2.814 1.519 3.914 2.617 1.099 1.1 1.971 2.404 2.617 3.914.646 1.511.969 3.094.969 4.75 0 1.636-.311 3.198-.93 4.688-.62 1.49-1.508 2.812-2.664 3.969s-2.479 2.045-3.969 2.664c-1.49.62-3.053.93-4.688.93-1.656 0-3.24-.322-4.75-.969-1.511-.646-2.815-1.518-3.914-2.617-1.099-1.099-1.972-2.403-2.617-3.914-.646-1.51-.969-3.094-.969-4.75s.323-3.239.969-4.75c.646-1.51 1.518-2.814 2.617-3.914 1.1-1.099 2.405-1.972 3.915-2.618zm8.524 20.383c1.203-.494 2.268-1.205 3.195-2.133.927-.927 1.638-1.992 2.133-3.195.494-1.203.742-2.461.742-3.773 0-1.781-.44-3.427-1.32-4.938-.881-1.51-2.076-2.705-3.586-3.586-1.511-.88-3.156-1.32-4.938-1.32s-3.427.44-4.938 1.32c-1.511.881-2.706 2.076-3.586 3.586-.88 1.511-1.32 3.156-1.32 4.938s.44 3.428 1.32 4.938c.88 1.511 2.075 2.706 3.586 3.586 1.51.881 3.156 1.32 4.938 1.32 1.313-.001 2.571-.248 3.774-.743zm-2.524-16.352v6.781l5.156 3.156-1.312 2.125-6.344-3.875v-8.188h2.5zm20.016 21h-2.5l.219-2.562c.271-2.562 1.502-4.525 3.695-5.891 2.192-1.364 5.216-2.047 9.07-2.047s6.877.68 9.07 2.039c2.192 1.359 3.424 3.32 3.695 5.883l.219 2.578h-2.5l-.219-2.344c-.094-.896-.373-1.689-.836-2.383-.464-.692-1.029-1.242-1.695-1.648-.667-.406-1.451-.739-2.352-1-.901-.26-1.781-.438-2.641-.531s-1.773-.141-2.742-.141-1.883.047-2.742.141-1.74.271-2.641.531c-.901.261-1.686.597-2.352 1.008-.667.412-1.232.961-1.695 1.648-.464.688-.742 1.484-.836 2.391l-.217 2.328zm15.477-14.914c-1.339 1.609-3.003 2.414-4.992 2.414-1.99 0-3.654-.805-4.992-2.414-1.339-1.609-2.008-3.611-2.008-6.008 0-1.25.317-2.422.953-3.516.635-1.094 1.492-1.961 2.57-2.602s2.236-.961 3.477-.961c1.239 0 2.398.32 3.477.961s1.935 1.508 2.57 2.602c.635 1.094.953 2.266.953 3.516-.001 2.397-.671 4.399-2.008 6.008zm-1.805-9.265c-.917-.932-1.979-1.398-3.188-1.398s-2.271.467-3.188 1.398c-.917.933-1.375 2.019-1.375 3.258 0 1.709.435 3.136 1.305 4.281.869 1.146 1.955 1.719 3.258 1.719 1.302 0 2.388-.572 3.258-1.719.869-1.146 1.305-2.572 1.305-4.281 0-1.24-.459-2.326-1.375-3.258zm36.062-1.321c1.583 0 2.938.562 4.062 1.688s1.688 2.479 1.688 4.062v6.5c0 1.584-.562 2.938-1.688 4.062s-2.479 1.688-4.062 1.688h-5.109l-6.016 5.656c-.261.229-.553.344-.875.344-.167 0-.328-.031-.484-.094-.229-.104-.414-.26-.555-.469-.141-.208-.211-.438-.211-.688v-4.75h-1.25c-1.584 0-2.938-.562-4.062-1.688s-1.688-2.479-1.688-4.062v-6.5c0-1.583.562-2.938 1.688-4.062s2.479-1.688 4.062-1.688h14.5zm3.25 12.25v-6.5c0-.896-.318-1.661-.953-2.297-.636-.635-1.401-.953-2.297-.953h-14.5c-.896 0-1.662.318-2.297.953-.636.636-.953 1.401-.953 2.297v6.5c0 .896.317 1.662.953 2.297.635.636 1.4.953 2.297.953h3.75v4.469l4.641-4.469h6.109c.896 0 1.661-.317 2.297-.953.635-.635.953-1.4.953-2.297zm32.735 1.047c-.146.261-.234.448-.266.562-.053.167-.058.453-.016.859.072.896 0 1.719-.219 2.469-.084.303-.206.594-.367.875-.162.281-.3.492-.414.633l-.484.57c-.261.281-.459.526-.594.734-.062.084-.151.281-.266.594-.104.281-.195.503-.273.664-.078.162-.209.378-.391.648-.183.271-.42.521-.711.75-.292.229-.646.443-1.062.641-.99.469-2.198.703-3.625.703h-.156c-2.303 0-4.506-.609-6.609-1.828-.823-.489-3.089-.719-6.797-.688h-.484v-2.469h.469c.677-.021 1.406-.023 2.188-.008s1.521.045 2.219.086c.697.042 1.377.141 2.039.297.661.156 1.205.359 1.633.609 1.697.99 3.489 1.484 5.375 1.484 1.072.031 1.963-.119 2.672-.453.375-.177.63-.349.766-.516.135-.166.271-.427.406-.781.146-.447.322-.828.531-1.141.177-.26.447-.594.812-1l.258-.297.258-.289.164-.234.133-.289c.125-.406.166-.916.125-1.531-.062-.656-.037-1.219.078-1.688.125-.51.266-.9.422-1.172.302-.562.453-1.031.453-1.406 0-.156-.011-.283-.031-.383-.021-.099-.076-.224-.164-.375-.089-.15-.253-.266-.492-.344-.24-.078-.553-.117-.938-.117h-2.75c-1.115 0-2.05-.297-2.805-.891-.756-.594-1.175-1.359-1.258-2.297-.094-1.072.203-2.271.891-3.594.375-.677.557-1.141.547-1.391-.011-.291-.146-.51-.406-.656-.406-.219-.828-.197-1.266.062-.198.115-.623.523-1.273 1.227-.651.703-1.373 1.545-2.164 2.523l-.156.188c-.365.459-.646.808-.844 1.047-.198.24-.482.57-.852.992-.37.422-.686.75-.945.984-.261.234-.584.516-.969.844-.386.328-.756.589-1.109.781-.354.193-.745.389-1.172.586-.428.198-.881.35-1.359.453-.479.104-.975.172-1.484.203v-2.5c.427-.041.841-.125 1.242-.25.4-.125.758-.26 1.07-.406.312-.146.648-.359 1.008-.641s.658-.525.898-.734c.239-.208.536-.513.891-.914.354-.4.627-.719.82-.953l.867-1.055.141-.203c2.031-2.489 3.422-3.942 4.172-4.359.594-.333 1.213-.505 1.859-.516.646-.01 1.255.141 1.828.453.51.271.911.641 1.203 1.109.291.469.453.995.484 1.578.021.323-.016.662-.109 1.016-.094.354-.19.641-.289.859-.1.219-.242.5-.43.844-.448.854-.646 1.589-.594 2.203.021.312.189.553.508.719.317.167.669.25 1.055.25h2.75c1.281 0 2.289.323 3.023.969.734.646 1.102 1.542 1.102 2.688-.002.796-.257 1.666-.767 2.613zm32-3.594c.51.948.766 1.818.766 2.609 0 1.146-.367 2.042-1.102 2.688-.734.646-1.742.969-3.023.969h-2.75c-.386 0-.737.084-1.055.25-.318.167-.487.406-.508.719-.053.615.146 1.35.594 2.203.188.344.33.625.43.844.099.219.195.506.289.859.094.354.13.693.109 1.016-.031.573-.195 1.097-.492 1.57-.297.475-.695.847-1.195 1.117-.573.312-1.183.464-1.828.453-.646-.01-1.266-.182-1.859-.516-.75-.416-2.141-1.869-4.172-4.359l-.141-.203-.867-1.055c-.193-.234-.467-.552-.82-.953-.354-.4-.651-.705-.891-.914-.24-.208-.539-.453-.898-.734s-.695-.494-1.008-.641c-.312-.146-.67-.281-1.07-.406-.401-.125-.815-.208-1.242-.25v-2.5c.51.031 1.005.1 1.484.203.479.104.932.256 1.359.453.427.198.817.394 1.172.586.354.193.724.453 1.109.781s.708.609.969.844c.26.234.575.562.945.984.369.422.653.753.852.992.197.24.479.589.844 1.047l.156.188c.791.979 1.513 1.82 2.164 2.523.65.703 1.075 1.112 1.273 1.227.438.261.859.281 1.266.062.26-.146.396-.364.406-.656.01-.219-.172-.682-.547-1.391-.688-1.322-.984-2.521-.891-3.594.083-.938.502-1.703 1.258-2.297.755-.594 1.689-.891 2.805-.891h2.75c.385 0 .697-.039.938-.117.239-.078.403-.192.492-.344.088-.15.143-.275.164-.375.021-.099.031-.227.031-.383 0-.375-.151-.844-.453-1.406-.156-.271-.297-.661-.422-1.172-.115-.469-.141-1.031-.078-1.688.041-.614 0-1.125-.125-1.531l-.133-.289-.164-.234-.258-.289-.258-.297c-.365-.406-.636-.739-.812-1-.209-.312-.386-.692-.531-1.141-.094-.25-.17-.43-.227-.539-.058-.109-.162-.231-.312-.367-.151-.135-.362-.266-.633-.391-.709-.333-1.6-.484-2.672-.453-1.886 0-3.678.495-5.375 1.484-.428.25-.972.453-1.633.609-.662.156-1.342.256-2.039.297-.698.042-1.438.07-2.219.086s-1.511.014-2.188-.008h-.469v-2.469h.484c3.708.031 5.974-.197 6.797-.688 2.104-1.219 4.307-1.828 6.609-1.828h.156c1.427 0 2.635.234 3.625.703.416.198.771.412 1.062.641.291.229.528.479.711.75.182.271.312.487.391.648.078.162.169.383.273.664.114.312.203.511.266.594.135.209.333.453.594.734l.484.57c.114.141.252.352.414.633.161.281.283.573.367.875.219.75.291 1.573.219 2.469-.042.406-.037.693.016.859.032.119.12.307.267.566zm33.25-2.156c.156 2.678-.881 5.178-3.109 7.5-.875.906-1.764 1.828-2.664 2.766l-2.352 2.445c-.667.693-1.266 1.318-1.797 1.875l-1.219 1.273-.438.453-.906.953-.906-.953-.438-.453-1.219-1.273-1.789-1.875c-.662-.692-1.445-1.508-2.352-2.445l-2.672-2.766c-2.229-2.322-3.266-4.822-3.109-7.5.062-1.083.322-2.102.781-3.055.458-.953 1.062-1.731 1.812-2.336 1.364-1.104 2.932-1.656 4.703-1.656 2.281 0 4.01.818 5.188 2.453 1.177-1.635 2.906-2.453 5.188-2.453 1.771 0 3.338.553 4.703 1.656.75.604 1.354 1.383 1.812 2.336.46.954.72 1.972.783 3.055zm-4.907 5.766c1.739-1.802 2.541-3.677 2.406-5.625-.042-.791-.225-1.502-.547-2.133-.323-.63-.698-1.111-1.125-1.445-.886-.739-1.928-1.109-3.125-1.109-.792 0-1.464.139-2.016.414-.553.276-.956.654-1.211 1.133-.256.479-.422.836-.5 1.07s-.144.514-.195.836l-.016.062c-.125.656-.526.984-1.203.984-.406 0-.717-.099-.93-.297-.214-.197-.336-.432-.367-.703-.25-1.719-1.062-2.812-2.438-3.281-.448-.146-.948-.219-1.5-.219-1.198 0-2.24.37-3.125 1.109-.428.334-.803.815-1.125 1.445-.323.631-.506 1.342-.547 2.133-.136 1.948.666 3.823 2.406 5.625 3.947 4.094 6.474 6.719 7.578 7.875 1.106-1.156 3.632-3.78 7.58-7.874zm34.407 13.359l-9.984-6.141-9.984 6.141 2.812-11.312-9-7.531 11.75-.844 4.421-10.766 4.422 10.766 11.75.844-9 7.531 2.813 11.312zm-9.985-9.078l6.078 3.734-1.703-6.891 5.453-4.547-7.125-.516-2.703-6.578-2.703 6.578-7.125.516 5.453 4.547-1.703 6.891 6.078-3.734zm24.797-16.594h20.703l-.109 1.344c-.021.438-.125 1.789-.312 4.055s-.328 3.695-.422 4.289c-.146 1.011-.615 1.862-1.406 2.555-.792.693-1.776 1.123-2.953 1.289-.021 0-4.12.49-12.297 1.469v-2.516c.854-.104 2.219-.266 4.094-.484s3.555-.416 5.039-.594c1.484-.177 2.43-.297 2.836-.359.614-.072 1.119-.266 1.516-.578.396-.312.63-.697.703-1.156.114-.739.317-3.01.609-6.812h-17.797v12.984c0 .459.148.826.445 1.102.297.276.7.414 1.211.414h16.844v2.5h-16.844c-1.188 0-2.178-.383-2.969-1.148-.792-.766-1.188-1.721-1.188-2.867v-14.268c0-.458-.186-.859-.555-1.203-.37-.344-.8-.516-1.289-.516h-4.656v-2.5h4.656c.947 0 1.805.281 2.57.844s1.29 1.281 1.571 2.156zm-1.562 21.735c.489-.489 1.078-.734 1.766-.734s1.275.245 1.766.734c.489.49.734 1.078.734 1.766s-.245 1.276-.734 1.766c-.49.49-1.078.734-1.766.734s-1.276-.244-1.766-.734c-.49-.489-.734-1.078-.734-1.766s.244-1.276.734-1.766zm16 0c.489-.489 1.078-.734 1.766-.734s1.275.245 1.766.734c.489.49.734 1.078.734 1.766s-.245 1.276-.734 1.766c-.49.49-1.078.734-1.766.734s-1.276-.244-1.766-.734c-.49-.489-.734-1.078-.734-1.766s.244-1.276.734-1.766z"/><path fill="#333" d="M16.969 72.312l-6.719 6.719 6.719 6.719-1.766 1.766-6.719-6.719-6.719 6.719-1.765-1.766 6.719-6.719-6.719-6.719 1.766-1.766 6.719 6.719 6.719-6.719 1.765 1.766zm20.156 18.032l-1.781-1.766 9.453-9.453-9.453-9.453 1.781-1.766 11.219 11.219-11.219 11.219zm38.719 0l-11.219-11.219 11.219-11.219 1.766 1.766-9.453 9.453 9.453 9.453-1.766 1.766zm28.547-2.953l-11.219-11.219 1.766-1.781 9.453 9.453 9.453-9.453 1.766 1.781-11.219 11.219zm41.453-2.891l-9.453-9.453-9.453 9.453-1.766-1.766 11.219-11.219 11.219 11.219-1.766 1.766zm22.156-18.047l13.078 13.078-13.078 13.078-1.781-1.766 10.062-10.062h-21.047v-2.5h21.047l-10.062-10.062 1.781-1.766zm45.234 11.828v2.5h-21.047l10.062 10.062-1.781 1.766-13.078-13.078 13.078-13.078 1.781 1.766-10.062 10.062h21.047zm30.094-1.015l1.781 1.781-13.094 13.078-13.078-13.078 1.766-1.781 10.031 10.031v-21.016h2.5v21.094l10.094-10.109zm33.781 2.25l-1.781 1.781-10.094-10.109v21.094h-2.5v-21.016l-10.031 10.031-1.766-1.781 13.078-13.078 13.094 13.078zm19.375-12.235c1.656 0 3.239.323 4.75.969 1.51.646 2.815 1.519 3.914 2.617 1.099 1.1 1.971 2.404 2.617 3.914.646 1.511.969 3.094.969 4.75 0 1.636-.31 3.198-.93 4.688-.62 1.49-1.508 2.812-2.664 3.969s-2.479 2.045-3.969 2.664c-1.49.62-3.052.93-4.688.93-1.656 0-3.24-.322-4.75-.969-1.511-.646-2.815-1.518-3.914-2.617-1.099-1.099-1.972-2.403-2.617-3.914-.646-1.51-.969-3.094-.969-4.75 0-1.635.31-3.197.93-4.688.62-1.489 1.508-2.812 2.664-3.969s2.479-2.044 3.969-2.664c1.49-.619 3.053-.93 4.688-.93zm3.782 21.352c1.198-.494 2.26-1.205 3.188-2.133.927-.927 1.638-1.992 2.133-3.195.495-1.203.742-2.461.742-3.773 0-1.781-.44-3.427-1.32-4.938-.88-1.51-2.076-2.705-3.586-3.586-1.511-.88-3.156-1.32-4.938-1.32-1.312 0-2.57.248-3.773.742-1.203.495-2.269 1.206-3.195 2.133-.927.928-1.638 1.992-2.133 3.195-.495 1.203-.742 2.461-.742 3.773 0 1.781.44 3.428 1.32 4.938.88 1.511 2.075 2.706 3.586 3.586 1.51.881 3.156 1.32 4.938 1.32 1.321 0 2.581-.247 3.78-.742zm-5.032-12.852v-2.5h2.5v2.5h-2.5zm0 10v-8.5h2.5v8.5h-2.5zm33.25-18.5c1.656 0 3.239.323 4.75.969 1.51.646 2.815 1.519 3.914 2.617 1.099 1.1 1.971 2.404 2.617 3.914.646 1.511.969 3.094.969 4.75 0 1.636-.31 3.198-.93 4.688-.62 1.49-1.508 2.812-2.664 3.969s-2.479 2.045-3.969 2.664c-1.49.62-3.052.93-4.688.93-1.656 0-3.24-.322-4.75-.969-1.511-.646-2.815-1.518-3.914-2.617-1.099-1.099-1.972-2.403-2.617-3.914-.646-1.51-.969-3.094-.969-4.75 0-1.635.31-3.197.93-4.688.62-1.489 1.508-2.812 2.664-3.969s2.479-2.044 3.969-2.664c1.49-.619 3.053-.93 4.688-.93zm3.782 21.352c1.198-.494 2.26-1.205 3.188-2.133.927-.927 1.638-1.992 2.133-3.195.495-1.203.742-2.461.742-3.773 0-1.781-.44-3.427-1.32-4.938-.88-1.51-2.076-2.705-3.586-3.586-1.511-.88-3.156-1.32-4.938-1.32-1.312 0-2.57.248-3.773.742-1.203.495-2.269 1.206-3.195 2.133-.927.928-1.638 1.992-2.133 3.195-.495 1.203-.742 2.461-.742 3.773 0 1.781.44 3.428 1.32 4.938.88 1.511 2.075 2.706 3.586 3.586 1.51.881 3.156 1.32 4.938 1.32 1.321 0 2.581-.247 3.78-.742zm-3.532-15.852c1.146 0 2.099.334 2.859 1 .76.667 1.141 1.5 1.141 2.5 0 .479-.104.925-.312 1.336-.208.412-.458.761-.75 1.047-.292.287-.583.561-.875.82-.292.261-.542.545-.75.852-.208.308-.312.623-.312.945v.5h-2.5v-.812c0-.489.096-.935.289-1.336.192-.4.43-.734.711-1s.565-.51.852-.734c.286-.224.539-.463.758-.719.219-.255.344-.518.375-.789.052-.489-.058-.88-.328-1.172-.271-.291-.656-.438-1.156-.438-.469 0-.836.198-1.102.594-.266.396-.398.865-.398 1.406h-2.5c0-1.219.377-2.189 1.133-2.914.753-.723 1.709-1.086 2.865-1.086zm-1.5 13v-2.5h2.5v2.5h-2.5zm33.25-20.5l13.797 27h-27.594l13.797-27zm0 5.5l-9.703 19h19.406l-9.703-19zm-1.25 5.5h2.5v3l-.5 4h-1.5l-.5-4v-3zm0 11v-2.5h2.5v2.5h-2.5zm28.5-19.031c1.51-.646 3.094-.969 4.75-.969s3.239.323 4.75.969c1.51.646 2.814 1.519 3.914 2.617 1.099 1.1 1.971 2.404 2.617 3.914.646 1.511.969 3.094.969 4.75 0 1.636-.311 3.198-.93 4.688-.62 1.49-1.508 2.812-2.664 3.969s-2.479 2.045-3.969 2.664c-1.49.62-3.053.93-4.688.93-1.656 0-3.24-.322-4.75-.969-1.511-.646-2.815-1.518-3.914-2.617-1.099-1.099-1.972-2.403-2.617-3.914-.646-1.51-.969-3.094-.969-4.75s.323-3.239.969-4.75c.646-1.51 1.518-2.814 2.617-3.914 1.1-1.099 2.405-1.972 3.915-2.618zm8.524 20.383c1.203-.494 2.268-1.205 3.195-2.133.927-.927 1.638-1.992 2.133-3.195.494-1.203.742-2.461.742-3.773 0-1.781-.44-3.427-1.32-4.938-.881-1.51-2.076-2.705-3.586-3.586-1.511-.88-3.156-1.32-4.938-1.32s-3.427.44-4.938 1.32c-1.511.881-2.706 2.076-3.586 3.586-.88 1.511-1.32 3.156-1.32 4.938s.44 3.428 1.32 4.938c.88 1.511 2.075 2.706 3.586 3.586 1.51.881 3.156 1.32 4.938 1.32 1.313-.001 2.571-.248 3.774-.743zm-2.524-16.352v6.781l5.156 3.156-1.312 2.125-6.344-3.875v-8.188h2.5zm20.016 21h-2.5l.219-2.562c.271-2.562 1.502-4.525 3.695-5.891 2.192-1.364 5.216-2.047 9.07-2.047s6.877.68 9.07 2.039c2.192 1.359 3.424 3.32 3.695 5.883l.219 2.578h-2.5l-.219-2.344c-.094-.896-.373-1.689-.836-2.383-.464-.692-1.029-1.242-1.695-1.648-.667-.406-1.451-.739-2.352-1-.901-.26-1.781-.438-2.641-.531s-1.773-.141-2.742-.141-1.883.047-2.742.141-1.74.271-2.641.531c-.901.261-1.686.597-2.352 1.008-.667.412-1.232.961-1.695 1.648-.464.688-.742 1.484-.836 2.391l-.217 2.328zm15.477-14.914c-1.339 1.609-3.003 2.414-4.992 2.414-1.99 0-3.654-.805-4.992-2.414-1.339-1.609-2.008-3.611-2.008-6.008 0-1.25.317-2.422.953-3.516.635-1.094 1.492-1.961 2.57-2.602s2.236-.961 3.477-.961c1.239 0 2.398.32 3.477.961s1.935 1.508 2.57 2.602c.635 1.094.953 2.266.953 3.516-.001 2.397-.671 4.399-2.008 6.008zm-1.805-9.265c-.917-.932-1.979-1.398-3.188-1.398s-2.271.467-3.188 1.398c-.917.933-1.375 2.019-1.375 3.258 0 1.709.435 3.136 1.305 4.281.869 1.146 1.955 1.719 3.258 1.719 1.302 0 2.388-.572 3.258-1.719.869-1.146 1.305-2.572 1.305-4.281 0-1.24-.459-2.326-1.375-3.258zm36.062-1.321c1.583 0 2.938.562 4.062 1.688s1.688 2.479 1.688 4.062v6.5c0 1.584-.562 2.938-1.688 4.062s-2.479 1.688-4.062 1.688h-5.109l-6.016 5.656c-.261.229-.553.344-.875.344-.167 0-.328-.031-.484-.094-.229-.104-.414-.26-.555-.469-.141-.208-.211-.438-.211-.688v-4.75h-1.25c-1.584 0-2.938-.562-4.062-1.688s-1.688-2.479-1.688-4.062v-6.5c0-1.583.562-2.938 1.688-4.062s2.479-1.688 4.062-1.688h14.5zm3.25 12.25v-6.5c0-.896-.318-1.661-.953-2.297-.636-.635-1.401-.953-2.297-.953h-14.5c-.896 0-1.662.318-2.297.953-.636.636-.953 1.401-.953 2.297v6.5c0 .896.317 1.662.953 2.297.635.636 1.4.953 2.297.953h3.75v4.469l4.641-4.469h6.109c.896 0 1.661-.317 2.297-.953.635-.635.953-1.4.953-2.297zm32.735 1.047c-.146.261-.234.448-.266.562-.053.167-.058.453-.016.859.072.896 0 1.719-.219 2.469-.084.303-.206.594-.367.875-.162.281-.3.492-.414.633l-.484.57c-.261.281-.459.526-.594.734-.062.084-.151.281-.266.594-.104.281-.195.503-.273.664-.078.162-.209.378-.391.648-.183.271-.42.521-.711.75-.292.229-.646.443-1.062.641-.99.469-2.198.703-3.625.703h-.156c-2.303 0-4.506-.609-6.609-1.828-.823-.489-3.089-.719-6.797-.688h-.484v-2.469h.469c.677-.021 1.406-.023 2.188-.008s1.521.045 2.219.086c.697.042 1.377.141 2.039.297.661.156 1.205.359 1.633.609 1.697.99 3.489 1.484 5.375 1.484 1.072.031 1.963-.119 2.672-.453.375-.177.63-.349.766-.516.135-.166.271-.427.406-.781.146-.447.322-.828.531-1.141.177-.26.447-.594.812-1l.258-.297.258-.289.164-.234.133-.289c.125-.406.166-.916.125-1.531-.062-.656-.037-1.219.078-1.688.125-.51.266-.9.422-1.172.302-.562.453-1.031.453-1.406 0-.156-.011-.283-.031-.383-.021-.099-.076-.224-.164-.375-.089-.15-.253-.266-.492-.344-.24-.078-.553-.117-.938-.117h-2.75c-1.115 0-2.05-.297-2.805-.891-.756-.594-1.175-1.359-1.258-2.297-.094-1.072.203-2.271.891-3.594.375-.677.557-1.141.547-1.391-.011-.291-.146-.51-.406-.656-.406-.219-.828-.197-1.266.062-.198.115-.623.523-1.273 1.227-.651.703-1.373 1.545-2.164 2.523l-.156.188c-.365.459-.646.808-.844 1.047-.198.24-.482.57-.852.992-.37.422-.686.75-.945.984-.261.234-.584.516-.969.844-.386.328-.756.589-1.109.781-.354.193-.745.389-1.172.586-.428.198-.881.35-1.359.453-.479.104-.975.172-1.484.203v-2.5c.427-.041.841-.125 1.242-.25.4-.125.758-.26 1.07-.406.312-.146.648-.359 1.008-.641s.658-.525.898-.734c.239-.208.536-.513.891-.914.354-.4.627-.719.82-.953l.867-1.055.141-.203c2.031-2.489 3.422-3.942 4.172-4.359.594-.333 1.213-.505 1.859-.516.646-.01 1.255.141 1.828.453.51.271.911.641 1.203 1.109.291.469.453.995.484 1.578.021.323-.016.662-.109 1.016-.094.354-.19.641-.289.859-.1.219-.242.5-.43.844-.448.854-.646 1.589-.594 2.203.021.312.189.553.508.719.317.167.669.25 1.055.25h2.75c1.281 0 2.289.323 3.023.969.734.646 1.102 1.542 1.102 2.688-.002.796-.257 1.666-.767 2.613zm32-3.594c.51.948.766 1.818.766 2.609 0 1.146-.367 2.042-1.102 2.688-.734.646-1.742.969-3.023.969h-2.75c-.386 0-.737.084-1.055.25-.318.167-.487.406-.508.719-.053.615.146 1.35.594 2.203.188.344.33.625.43.844.099.219.195.506.289.859.094.354.13.693.109 1.016-.031.573-.195 1.097-.492 1.57-.297.475-.695.847-1.195 1.117-.573.312-1.183.464-1.828.453-.646-.01-1.266-.182-1.859-.516-.75-.416-2.141-1.869-4.172-4.359l-.141-.203-.867-1.055c-.193-.234-.467-.552-.82-.953-.354-.4-.651-.705-.891-.914-.24-.208-.539-.453-.898-.734s-.695-.494-1.008-.641c-.312-.146-.67-.281-1.07-.406-.401-.125-.815-.208-1.242-.25v-2.5c.51.031 1.005.1 1.484.203.479.104.932.256 1.359.453.427.198.817.394 1.172.586.354.193.724.453 1.109.781s.708.609.969.844c.26.234.575.562.945.984.369.422.653.753.852.992.197.24.479.589.844 1.047l.156.188c.791.979 1.513 1.82 2.164 2.523.65.703 1.075 1.112 1.273 1.227.438.261.859.281 1.266.062.26-.146.396-.364.406-.656.01-.219-.172-.682-.547-1.391-.688-1.322-.984-2.521-.891-3.594.083-.938.502-1.703 1.258-2.297.755-.594 1.689-.891 2.805-.891h2.75c.385 0 .697-.039.938-.117.239-.078.403-.192.492-.344.088-.15.143-.275.164-.375.021-.099.031-.227.031-.383 0-.375-.151-.844-.453-1.406-.156-.271-.297-.661-.422-1.172-.115-.469-.141-1.031-.078-1.688.041-.614 0-1.125-.125-1.531l-.133-.289-.164-.234-.258-.289-.258-.297c-.365-.406-.636-.739-.812-1-.209-.312-.386-.692-.531-1.141-.094-.25-.17-.43-.227-.539-.058-.109-.162-.231-.312-.367-.151-.135-.362-.266-.633-.391-.709-.333-1.6-.484-2.672-.453-1.886 0-3.678.495-5.375 1.484-.428.25-.972.453-1.633.609-.662.156-1.342.256-2.039.297-.698.042-1.438.07-2.219.086s-1.511.014-2.188-.008h-.469v-2.469h.484c3.708.031 5.974-.197 6.797-.688 2.104-1.219 4.307-1.828 6.609-1.828h.156c1.427 0 2.635.234 3.625.703.416.198.771.412 1.062.641.291.229.528.479.711.75.182.271.312.487.391.648.078.162.169.383.273.664.114.312.203.511.266.594.135.209.333.453.594.734l.484.57c.114.141.252.352.414.633.161.281.283.573.367.875.219.75.291 1.573.219 2.469-.042.406-.037.693.016.859.032.119.12.307.267.566zm33.25-2.156c.156 2.678-.881 5.178-3.109 7.5-.875.906-1.764 1.828-2.664 2.766l-2.352 2.445c-.667.693-1.266 1.318-1.797 1.875l-1.219 1.273-.438.453-.906.953-.906-.953-.438-.453-1.219-1.273-1.789-1.875c-.662-.692-1.445-1.508-2.352-2.445l-2.672-2.766c-2.229-2.322-3.266-4.822-3.109-7.5.062-1.083.322-2.102.781-3.055.458-.953 1.062-1.731 1.812-2.336 1.364-1.104 2.932-1.656 4.703-1.656 2.281 0 4.01.818 5.188 2.453 1.177-1.635 2.906-2.453 5.188-2.453 1.771 0 3.338.553 4.703 1.656.75.604 1.354 1.383 1.812 2.336.46.954.72 1.972.783 3.055zm-4.907 5.766c1.739-1.802 2.541-3.677 2.406-5.625-.042-.791-.225-1.502-.547-2.133-.323-.63-.698-1.111-1.125-1.445-.886-.739-1.928-1.109-3.125-1.109-.792 0-1.464.139-2.016.414-.553.276-.956.654-1.211 1.133-.256.479-.422.836-.5 1.07s-.144.514-.195.836l-.016.062c-.125.656-.526.984-1.203.984-.406 0-.717-.099-.93-.297-.214-.197-.336-.432-.367-.703-.25-1.719-1.062-2.812-2.438-3.281-.448-.146-.948-.219-1.5-.219-1.198 0-2.24.37-3.125 1.109-.428.334-.803.815-1.125 1.445-.323.631-.506 1.342-.547 2.133-.136 1.948.666 3.823 2.406 5.625 3.947 4.094 6.474 6.719 7.578 7.875 1.106-1.156 3.632-3.78 7.58-7.874zm34.407 13.359l-9.984-6.141-9.984 6.141 2.812-11.312-9-7.531 11.75-.844 4.421-10.766 4.422 10.766 11.75.844-9 7.531 2.813 11.312zm-9.985-9.078l6.078 3.734-1.703-6.891 5.453-4.547-7.125-.516-2.703-6.578-2.703 6.578-7.125.516 5.453 4.547-1.703 6.891 6.078-3.734zm24.797-16.594h20.703l-.109 1.344c-.021.438-.125 1.789-.312 4.055s-.328 3.695-.422 4.289c-.146 1.011-.615 1.862-1.406 2.555-.792.693-1.776 1.123-2.953 1.289-.021 0-4.12.49-12.297 1.469v-2.516c.854-.104 2.219-.266 4.094-.484s3.555-.416 5.039-.594c1.484-.177 2.43-.297 2.836-.359.614-.072 1.119-.266 1.516-.578.396-.312.63-.697.703-1.156.114-.739.317-3.01.609-6.812h-17.797v12.984c0 .459.148.826.445 1.102.297.276.7.414 1.211.414h16.844v2.5h-16.844c-1.188 0-2.178-.383-2.969-1.148-.792-.766-1.188-1.721-1.188-2.867v-14.268c0-.458-.186-.859-.555-1.203-.37-.344-.8-.516-1.289-.516h-4.656v-2.5h4.656c.947 0 1.805.281 2.57.844s1.29 1.281 1.571 2.156zm-1.562 21.735c.489-.489 1.078-.734 1.766-.734s1.275.245 1.766.734c.489.49.734 1.078.734 1.766s-.245 1.276-.734 1.766c-.49.49-1.078.734-1.766.734s-1.276-.244-1.766-.734c-.49-.489-.734-1.078-.734-1.766s.244-1.276.734-1.766zm16 0c.489-.489 1.078-.734 1.766-.734s1.275.245 1.766.734c.489.49.734 1.078.734 1.766s-.245 1.276-.734 1.766c-.49.49-1.078.734-1.766.734s-1.276-.244-1.766-.734c-.49-.489-.734-1.078-.734-1.766s.244-1.276.734-1.766z"/><path fill="#E6E6E6" d="M16.969 104.312l-6.719 6.719 6.719 6.719-1.766 1.766-6.719-6.719-6.719 6.719-1.765-1.766 6.719-6.719-6.719-6.719 1.766-1.766 6.719 6.719 6.719-6.719 1.765 1.766zm20.156 18.032l-1.781-1.766 9.453-9.453-9.453-9.453 1.781-1.766 11.219 11.219-11.219 11.219zm38.719 0l-11.219-11.219 11.219-11.219 1.766 1.766-9.453 9.453 9.453 9.453-1.766 1.766zm28.547-2.953l-11.219-11.219 1.766-1.781 9.453 9.453 9.453-9.453 1.766 1.781-11.219 11.219zm41.453-2.891l-9.453-9.453-9.453 9.453-1.766-1.766 11.219-11.219 11.219 11.219-1.766 1.766zm22.156-18.047l13.078 13.078-13.078 13.078-1.781-1.766 10.062-10.062h-21.047v-2.5h21.047l-10.062-10.062 1.781-1.766zm45.234 11.828v2.5h-21.047l10.062 10.062-1.781 1.766-13.078-13.078 13.078-13.078 1.781 1.766-10.062 10.062h21.047zm30.094-1.015l1.781 1.781-13.094 13.078-13.078-13.078 1.766-1.781 10.031 10.031v-21.016h2.5v21.094l10.094-10.109zm33.781 2.25l-1.781 1.781-10.094-10.109v21.094h-2.5v-21.016l-10.031 10.031-1.766-1.781 13.078-13.078 13.094 13.078zm19.375-12.235c1.656 0 3.239.323 4.75.969 1.51.646 2.815 1.519 3.914 2.617 1.099 1.1 1.971 2.404 2.617 3.914.646 1.511.969 3.094.969 4.75 0 1.636-.31 3.198-.93 4.688-.62 1.49-1.508 2.812-2.664 3.969s-2.479 2.045-3.969 2.664c-1.49.62-3.052.93-4.688.93-1.656 0-3.24-.322-4.75-.969-1.511-.646-2.815-1.518-3.914-2.617-1.099-1.099-1.972-2.403-2.617-3.914-.646-1.51-.969-3.094-.969-4.75 0-1.635.31-3.197.93-4.688.62-1.489 1.508-2.812 2.664-3.969s2.479-2.044 3.969-2.664c1.49-.619 3.053-.93 4.688-.93zm3.782 21.352c1.198-.494 2.26-1.205 3.188-2.133.927-.927 1.638-1.992 2.133-3.195.495-1.203.742-2.461.742-3.773 0-1.781-.44-3.427-1.32-4.938-.88-1.51-2.076-2.705-3.586-3.586-1.511-.88-3.156-1.32-4.938-1.32-1.312 0-2.57.248-3.773.742-1.203.495-2.269 1.206-3.195 2.133-.927.928-1.638 1.992-2.133 3.195-.495 1.203-.742 2.461-.742 3.773 0 1.781.44 3.428 1.32 4.938.88 1.511 2.075 2.706 3.586 3.586 1.51.881 3.156 1.32 4.938 1.32 1.321 0 2.581-.247 3.78-.742zm-5.032-12.852v-2.5h2.5v2.5h-2.5zm0 10v-8.5h2.5v8.5h-2.5zm33.25-18.5c1.656 0 3.239.323 4.75.969 1.51.646 2.815 1.519 3.914 2.617 1.099 1.1 1.971 2.404 2.617 3.914.646 1.511.969 3.094.969 4.75 0 1.636-.31 3.198-.93 4.688-.62 1.49-1.508 2.812-2.664 3.969s-2.479 2.045-3.969 2.664c-1.49.62-3.052.93-4.688.93-1.656 0-3.24-.322-4.75-.969-1.511-.646-2.815-1.518-3.914-2.617-1.099-1.099-1.972-2.403-2.617-3.914-.646-1.51-.969-3.094-.969-4.75 0-1.635.31-3.197.93-4.688.62-1.489 1.508-2.812 2.664-3.969s2.479-2.044 3.969-2.664c1.49-.619 3.053-.93 4.688-.93zm3.782 21.352c1.198-.494 2.26-1.205 3.188-2.133.927-.927 1.638-1.992 2.133-3.195.495-1.203.742-2.461.742-3.773 0-1.781-.44-3.427-1.32-4.938-.88-1.51-2.076-2.705-3.586-3.586-1.511-.88-3.156-1.32-4.938-1.32-1.312 0-2.57.248-3.773.742-1.203.495-2.269 1.206-3.195 2.133-.927.928-1.638 1.992-2.133 3.195-.495 1.203-.742 2.461-.742 3.773 0 1.781.44 3.428 1.32 4.938.88 1.511 2.075 2.706 3.586 3.586 1.51.881 3.156 1.32 4.938 1.32 1.321 0 2.581-.247 3.78-.742zm-3.532-15.852c1.146 0 2.099.334 2.859 1 .76.667 1.141 1.5 1.141 2.5 0 .479-.104.925-.312 1.336-.208.412-.458.761-.75 1.047-.292.287-.583.561-.875.82-.292.261-.542.545-.75.852-.208.308-.312.623-.312.945v.5h-2.5v-.812c0-.489.096-.935.289-1.336.192-.4.43-.734.711-1s.565-.51.852-.734c.286-.224.539-.463.758-.719.219-.255.344-.518.375-.789.052-.489-.058-.88-.328-1.172-.271-.291-.656-.438-1.156-.438-.469 0-.836.198-1.102.594-.266.396-.398.865-.398 1.406h-2.5c0-1.219.377-2.189 1.133-2.914.753-.723 1.709-1.086 2.865-1.086zm-1.5 13v-2.5h2.5v2.5h-2.5zm33.25-20.5l13.797 27h-27.594l13.797-27zm0 5.5l-9.703 19h19.406l-9.703-19zm-1.25 5.5h2.5v3l-.5 4h-1.5l-.5-4v-3zm0 11v-2.5h2.5v2.5h-2.5zm28.5-19.031c1.51-.646 3.094-.969 4.75-.969s3.239.323 4.75.969c1.51.646 2.814 1.519 3.914 2.617 1.099 1.1 1.971 2.404 2.617 3.914.646 1.511.969 3.094.969 4.75 0 1.636-.311 3.198-.93 4.688-.62 1.49-1.508 2.812-2.664 3.969s-2.479 2.045-3.969 2.664c-1.49.62-3.053.93-4.688.93-1.656 0-3.24-.322-4.75-.969-1.511-.646-2.815-1.518-3.914-2.617-1.099-1.099-1.972-2.403-2.617-3.914-.646-1.51-.969-3.094-.969-4.75s.323-3.239.969-4.75c.646-1.51 1.518-2.814 2.617-3.914 1.1-1.099 2.405-1.972 3.915-2.618zm8.524 20.383c1.203-.494 2.268-1.205 3.195-2.133.927-.927 1.638-1.992 2.133-3.195.494-1.203.742-2.461.742-3.773 0-1.781-.44-3.427-1.32-4.938-.881-1.51-2.076-2.705-3.586-3.586-1.511-.88-3.156-1.32-4.938-1.32s-3.427.44-4.938 1.32c-1.511.881-2.706 2.076-3.586 3.586-.88 1.511-1.32 3.156-1.32 4.938s.44 3.428 1.32 4.938c.88 1.511 2.075 2.706 3.586 3.586 1.51.881 3.156 1.32 4.938 1.32 1.313-.001 2.571-.248 3.774-.743zm-2.524-16.352v6.781l5.156 3.156-1.312 2.125-6.344-3.875v-8.188h2.5zm20.016 21h-2.5l.219-2.562c.271-2.562 1.502-4.525 3.695-5.891 2.192-1.364 5.216-2.047 9.07-2.047s6.877.68 9.07 2.039c2.192 1.359 3.424 3.32 3.695 5.883l.219 2.578h-2.5l-.219-2.344c-.094-.896-.373-1.689-.836-2.383-.464-.692-1.029-1.242-1.695-1.648-.667-.406-1.451-.739-2.352-1-.901-.26-1.781-.438-2.641-.531s-1.773-.141-2.742-.141-1.883.047-2.742.141-1.74.271-2.641.531c-.901.261-1.686.597-2.352 1.008-.667.412-1.232.961-1.695 1.648-.464.688-.742 1.484-.836 2.391l-.217 2.328zm15.477-14.914c-1.339 1.609-3.003 2.414-4.992 2.414-1.99 0-3.654-.805-4.992-2.414-1.339-1.609-2.008-3.611-2.008-6.008 0-1.25.317-2.422.953-3.516.635-1.094 1.492-1.961 2.57-2.602s2.236-.961 3.477-.961c1.239 0 2.398.32 3.477.961s1.935 1.508 2.57 2.602c.635 1.094.953 2.266.953 3.516-.001 2.397-.671 4.399-2.008 6.008zm-1.805-9.265c-.917-.932-1.979-1.398-3.188-1.398s-2.271.467-3.188 1.398c-.917.933-1.375 2.019-1.375 3.258 0 1.709.435 3.136 1.305 4.281.869 1.146 1.955 1.719 3.258 1.719 1.302 0 2.388-.572 3.258-1.719.869-1.146 1.305-2.572 1.305-4.281 0-1.24-.459-2.326-1.375-3.258zm36.062-1.321c1.583 0 2.938.562 4.062 1.688s1.688 2.479 1.688 4.062v6.5c0 1.584-.562 2.938-1.688 4.062s-2.479 1.688-4.062 1.688h-5.109l-6.016 5.656c-.261.229-.553.344-.875.344-.167 0-.328-.031-.484-.094-.229-.104-.414-.26-.555-.469-.141-.208-.211-.438-.211-.688v-4.75h-1.25c-1.584 0-2.938-.562-4.062-1.688s-1.688-2.479-1.688-4.062v-6.5c0-1.583.562-2.938 1.688-4.062s2.479-1.688 4.062-1.688h14.5zm3.25 12.25v-6.5c0-.896-.318-1.661-.953-2.297-.636-.635-1.401-.953-2.297-.953h-14.5c-.896 0-1.662.318-2.297.953-.636.636-.953 1.401-.953 2.297v6.5c0 .896.317 1.662.953 2.297.635.636 1.4.953 2.297.953h3.75v4.469l4.641-4.469h6.109c.896 0 1.661-.317 2.297-.953.635-.635.953-1.4.953-2.297zm32.735 1.047c-.146.261-.234.448-.266.562-.053.167-.058.453-.016.859.072.896 0 1.719-.219 2.469-.084.303-.206.594-.367.875-.162.281-.3.492-.414.633l-.484.57c-.261.281-.459.526-.594.734-.062.084-.151.281-.266.594-.104.281-.195.503-.273.664-.078.162-.209.378-.391.648-.183.271-.42.521-.711.75-.292.229-.646.443-1.062.641-.99.469-2.198.703-3.625.703h-.156c-2.303 0-4.506-.609-6.609-1.828-.823-.489-3.089-.719-6.797-.688h-.484v-2.469h.469c.677-.021 1.406-.023 2.188-.008s1.521.045 2.219.086c.697.042 1.377.141 2.039.297.661.156 1.205.359 1.633.609 1.697.99 3.489 1.484 5.375 1.484 1.072.031 1.963-.119 2.672-.453.375-.177.63-.349.766-.516.135-.166.271-.427.406-.781.146-.447.322-.828.531-1.141.177-.26.447-.594.812-1l.258-.297.258-.289.164-.234.133-.289c.125-.406.166-.916.125-1.531-.062-.656-.037-1.219.078-1.688.125-.51.266-.9.422-1.172.302-.562.453-1.031.453-1.406 0-.156-.011-.283-.031-.383-.021-.099-.076-.224-.164-.375-.089-.15-.253-.266-.492-.344-.24-.078-.553-.117-.938-.117h-2.75c-1.115 0-2.05-.297-2.805-.891-.756-.594-1.175-1.359-1.258-2.297-.094-1.072.203-2.271.891-3.594.375-.677.557-1.141.547-1.391-.011-.291-.146-.51-.406-.656-.406-.219-.828-.197-1.266.062-.198.115-.623.523-1.273 1.227-.651.703-1.373 1.545-2.164 2.523l-.156.188c-.365.459-.646.808-.844 1.047-.198.24-.482.57-.852.992-.37.422-.686.75-.945.984-.261.234-.584.516-.969.844-.386.328-.756.589-1.109.781-.354.193-.745.389-1.172.586-.428.198-.881.35-1.359.453-.479.104-.975.172-1.484.203v-2.5c.427-.041.841-.125 1.242-.25.4-.125.758-.26 1.07-.406.312-.146.648-.359 1.008-.641s.658-.525.898-.734c.239-.208.536-.513.891-.914.354-.4.627-.719.82-.953l.867-1.055.141-.203c2.031-2.489 3.422-3.942 4.172-4.359.594-.333 1.213-.505 1.859-.516.646-.01 1.255.141 1.828.453.51.271.911.641 1.203 1.109.291.469.453.995.484 1.578.021.323-.016.662-.109 1.016-.094.354-.19.641-.289.859-.1.219-.242.5-.43.844-.448.854-.646 1.589-.594 2.203.021.312.189.553.508.719.317.167.669.25 1.055.25h2.75c1.281 0 2.289.323 3.023.969.734.646 1.102 1.542 1.102 2.688-.002.796-.257 1.666-.767 2.613zm32-3.594c.51.948.766 1.818.766 2.609 0 1.146-.367 2.042-1.102 2.688-.734.646-1.742.969-3.023.969h-2.75c-.386 0-.737.084-1.055.25-.318.167-.487.406-.508.719-.053.615.146 1.35.594 2.203.188.344.33.625.43.844.099.219.195.506.289.859.094.354.13.693.109 1.016-.031.573-.195 1.097-.492 1.57-.297.475-.695.847-1.195 1.117-.573.312-1.183.464-1.828.453-.646-.01-1.266-.182-1.859-.516-.75-.416-2.141-1.869-4.172-4.359l-.141-.203-.867-1.055c-.193-.234-.467-.552-.82-.953-.354-.4-.651-.705-.891-.914-.24-.208-.539-.453-.898-.734s-.695-.494-1.008-.641c-.312-.146-.67-.281-1.07-.406-.401-.125-.815-.208-1.242-.25v-2.5c.51.031 1.005.1 1.484.203.479.104.932.256 1.359.453.427.198.817.394 1.172.586.354.193.724.453 1.109.781s.708.609.969.844c.26.234.575.562.945.984.369.422.653.753.852.992.197.24.479.589.844 1.047l.156.188c.791.979 1.513 1.82 2.164 2.523.65.703 1.075 1.112 1.273 1.227.438.261.859.281 1.266.062.26-.146.396-.364.406-.656.01-.219-.172-.682-.547-1.391-.688-1.322-.984-2.521-.891-3.594.083-.938.502-1.703 1.258-2.297.755-.594 1.689-.891 2.805-.891h2.75c.385 0 .697-.039.938-.117.239-.078.403-.192.492-.344.088-.15.143-.275.164-.375.021-.099.031-.227.031-.383 0-.375-.151-.844-.453-1.406-.156-.271-.297-.661-.422-1.172-.115-.469-.141-1.031-.078-1.688.041-.614 0-1.125-.125-1.531l-.133-.289-.164-.234-.258-.289-.258-.297c-.365-.406-.636-.739-.812-1-.209-.312-.386-.692-.531-1.141-.094-.25-.17-.43-.227-.539-.058-.109-.162-.231-.312-.367-.151-.135-.362-.266-.633-.391-.709-.333-1.6-.484-2.672-.453-1.886 0-3.678.495-5.375 1.484-.428.25-.972.453-1.633.609-.662.156-1.342.256-2.039.297-.698.042-1.438.07-2.219.086s-1.511.014-2.188-.008h-.469v-2.469h.484c3.708.031 5.974-.197 6.797-.688 2.104-1.219 4.307-1.828 6.609-1.828h.156c1.427 0 2.635.234 3.625.703.416.198.771.412 1.062.641.291.229.528.479.711.75.182.271.312.487.391.648.078.162.169.383.273.664.114.312.203.511.266.594.135.209.333.453.594.734l.484.57c.114.141.252.352.414.633.161.281.283.573.367.875.219.75.291 1.573.219 2.469-.042.406-.037.693.016.859.032.119.12.307.267.566zm33.25-2.156c.156 2.678-.881 5.178-3.109 7.5-.875.906-1.764 1.828-2.664 2.766l-2.352 2.445c-.667.693-1.266 1.318-1.797 1.875l-1.219 1.273-.438.453-.906.953-.906-.953-.438-.453-1.219-1.273-1.789-1.875c-.662-.692-1.445-1.508-2.352-2.445l-2.672-2.766c-2.229-2.322-3.266-4.822-3.109-7.5.062-1.083.322-2.102.781-3.055.458-.953 1.062-1.731 1.812-2.336 1.364-1.104 2.932-1.656 4.703-1.656 2.281 0 4.01.818 5.188 2.453 1.177-1.635 2.906-2.453 5.188-2.453 1.771 0 3.338.553 4.703 1.656.75.604 1.354 1.383 1.812 2.336.46.954.72 1.972.783 3.055zm-4.907 5.766c1.739-1.802 2.541-3.677 2.406-5.625-.042-.791-.225-1.502-.547-2.133-.323-.63-.698-1.111-1.125-1.445-.886-.739-1.928-1.109-3.125-1.109-.792 0-1.464.139-2.016.414-.553.276-.956.654-1.211 1.133-.256.479-.422.836-.5 1.07s-.144.514-.195.836l-.016.062c-.125.656-.526.984-1.203.984-.406 0-.717-.099-.93-.297-.214-.197-.336-.432-.367-.703-.25-1.719-1.062-2.812-2.438-3.281-.448-.146-.948-.219-1.5-.219-1.198 0-2.24.37-3.125 1.109-.428.334-.803.815-1.125 1.445-.323.631-.506 1.342-.547 2.133-.136 1.948.666 3.823 2.406 5.625 3.947 4.094 6.474 6.719 7.578 7.875 1.106-1.156 3.632-3.78 7.58-7.874zm34.407 13.359l-9.984-6.141-9.984 6.141 2.812-11.312-9-7.531 11.75-.844 4.421-10.766 4.422 10.766 11.75.844-9 7.531 2.813 11.312zm-9.985-9.078l6.078 3.734-1.703-6.891 5.453-4.547-7.125-.516-2.703-6.578-2.703 6.578-7.125.516 5.453 4.547-1.703 6.891 6.078-3.734zm24.797-16.594h20.703l-.109 1.344c-.021.438-.125 1.789-.312 4.055s-.328 3.695-.422 4.289c-.146 1.011-.615 1.862-1.406 2.555-.792.693-1.776 1.123-2.953 1.289-.021 0-4.12.49-12.297 1.469v-2.516c.854-.104 2.219-.266 4.094-.484s3.555-.416 5.039-.594c1.484-.177 2.43-.297 2.836-.359.614-.072 1.119-.266 1.516-.578.396-.312.63-.697.703-1.156.114-.739.317-3.01.609-6.812h-17.797v12.984c0 .459.148.826.445 1.102.297.276.7.414 1.211.414h16.844v2.5h-16.844c-1.188 0-2.178-.383-2.969-1.148-.792-.766-1.188-1.721-1.188-2.867v-14.268c0-.458-.186-.859-.555-1.203-.37-.344-.8-.516-1.289-.516h-4.656v-2.5h4.656c.947 0 1.805.281 2.57.844s1.29 1.281 1.571 2.156zm-1.562 21.735c.489-.489 1.078-.734 1.766-.734s1.275.245 1.766.734c.489.49.734 1.078.734 1.766s-.245 1.276-.734 1.766c-.49.49-1.078.734-1.766.734s-1.276-.244-1.766-.734c-.49-.489-.734-1.078-.734-1.766s.244-1.276.734-1.766zm16 0c.489-.489 1.078-.734 1.766-.734s1.275.245 1.766.734c.489.49.734 1.078.734 1.766s-.245 1.276-.734 1.766c-.49.49-1.078.734-1.766.734s-1.276-.244-1.766-.734c-.49-.489-.734-1.078-.734-1.766s.244-1.276.734-1.766z"/></svg>