<!DOCTYPE svg PUBLIC "-//W3C//DTD SVG 1.1//EN" "http://www.w3.org/Graphics/SVG/1.1/DTD/svg11.dtd" [
	<!ENTITY ns_flows "http://ns.adobe.com/Flows/1.0/">
]><svg xmlns="http://www.w3.org/2000/svg" width="800" height="600" viewBox="-3.883 -0.359 800 600" overflow="visible" enable-background="new -3.883 -0.359 800 600"><path fill="#808080" d="M8.484 4.156l-3.359 3.36 3.359 3.359-.883.883-3.359-3.36-3.359 3.359-.883-.882 3.359-3.359-3.359-3.36.883-.883 3.359 3.359 3.359-3.359.883.883zm10.078 9.016l-.891-.883 4.727-4.727-4.727-4.727.891-.883 5.609 5.609-5.609 5.611zm19.36 0l-5.609-5.609 5.609-5.609.883.883-4.727 4.727 4.727 4.727-.883.881zm14.273-1.477l-5.609-5.609.883-.891 4.727 4.727 4.727-4.727.883.891-5.611 5.609zm20.727-1.445l-4.727-4.727-4.727 4.727-.883-.883 5.609-5.609 5.609 5.609-.881.883zm11.078-9.023l6.539 6.539-6.539 6.539-.891-.883 5.031-5.031h-10.523v-1.25h10.523l-5.031-5.031.891-.883zm22.617 5.914v1.25h-10.523l5.031 5.031-.891.883-6.539-6.539 6.539-6.539.891.883-5.031 5.031h10.523zm15.047-.508l.891.891-6.547 6.539-6.539-6.539.883-.891 5.016 5.016v-10.508h1.25v10.547l5.046-5.055zm16.891 1.125l-.891.891-5.047-5.055v10.547h-1.25v-10.508l-5.016 5.016-.883-.891 6.539-6.539 6.548 6.539zm9.687-6.117c.828 0 1.619.162 2.375.484.755.323 1.407.76 1.957 1.309.549.55.985 1.202 1.309 1.957.322.756.484 1.547.484 2.375 0 .818-.155 1.6-.465 2.344-.311.745-.754 1.406-1.332 1.984s-1.24 1.022-1.984 1.332c-.745.311-1.526.465-2.344.465-.828 0-1.62-.161-2.375-.484-.756-.322-1.408-.759-1.957-1.309-.55-.549-.986-1.201-1.309-1.957-.323-.755-.484-1.547-.484-2.375 0-.817.154-1.599.465-2.344.31-.744.754-1.406 1.332-1.984s1.239-1.021 1.984-1.332c.745-.31 1.526-.465 2.344-.465zm1.891 10.675c.599-.247 1.13-.603 1.594-1.066.463-.463.818-.996 1.066-1.598.247-.602.371-1.23.371-1.887 0-.891-.221-1.713-.66-2.469-.44-.755-1.038-1.353-1.793-1.793-.756-.439-1.578-.66-2.469-.66-.656 0-1.285.124-1.887.371-.602.248-1.135.604-1.598 1.066-.464.464-.819.996-1.066 1.598-.248.602-.371 1.23-.371 1.887 0 .891.22 1.714.66 2.469.439.756 1.037 1.354 1.793 1.793.755.44 1.578.66 2.469.66.661.001 1.291-.123 1.891-.371zm-2.516-6.425v-1.25h1.25v1.25h-1.25zm0 5v-4.25h1.25v4.25h-1.25zm16.625-9.25c.828 0 1.619.162 2.375.484.755.323 1.407.76 1.957 1.309.549.55.985 1.202 1.309 1.957.322.756.484 1.547.484 2.375 0 .818-.155 1.6-.465 2.344-.311.745-.754 1.406-1.332 1.984s-1.24 1.022-1.984 1.332c-.745.311-1.526.465-2.344.465-.828 0-1.62-.161-2.375-.484-.756-.322-1.408-.759-1.957-1.309-.55-.549-.986-1.201-1.309-1.957-.323-.755-.484-1.547-.484-2.375 0-.817.154-1.599.465-2.344.31-.744.754-1.406 1.332-1.984s1.239-1.021 1.984-1.332c.745-.31 1.526-.465 2.344-.465zm1.891 10.675c.599-.247 1.13-.603 1.594-1.066.463-.463.818-.996 1.066-1.598.247-.602.371-1.23.371-1.887 0-.891-.221-1.713-.66-2.469-.44-.755-1.038-1.353-1.793-1.793-.756-.439-1.578-.66-2.469-.66-.656 0-1.285.124-1.887.371-.602.248-1.135.604-1.598 1.066-.464.464-.819.996-1.066 1.598-.248.602-.371 1.23-.371 1.887 0 .891.22 1.714.66 2.469.439.756 1.037 1.354 1.793 1.793.755.44 1.578.66 2.469.66.661.001 1.291-.123 1.891-.371zm-1.766-7.925c.572 0 1.049.167 1.43.5.38.334.57.75.57 1.25 0 .24-.053.463-.156.668-.104.206-.229.381-.375.523l-.438.41c-.146.131-.271.272-.375.426-.104.154-.156.312-.156.473v.25h-1.25v-.407c0-.244.048-.467.145-.668.096-.2.215-.367.355-.5s.282-.255.426-.367c.143-.111.27-.231.379-.359.109-.127.172-.259.188-.395.025-.244-.029-.439-.164-.586-.136-.146-.328-.219-.578-.219-.234 0-.418.1-.551.297-.133.198-.199.433-.199.703h-1.25c0-.609.188-1.095.566-1.457.377-.361.855-.542 1.433-.542zm-.75 6.5v-1.25h1.25v1.25h-1.25zm16.625-10.25l6.898 13.5h-13.797l6.899-13.5zm0 2.75l-4.852 9.5h9.703l-4.851-9.5zm-.625 2.75h1.25v1.5l-.25 2h-.75l-.25-2v-1.5zm0 5.5v-1.25h1.25v1.25h-1.25zm14.25-9.516c.755-.322 1.547-.484 2.375-.484s1.619.162 2.375.484c.755.323 1.407.76 1.957 1.309.549.55.985 1.202 1.309 1.957.322.756.484 1.547.484 2.375 0 .818-.155 1.6-.465 2.344-.311.745-.754 1.406-1.332 1.984s-1.24 1.022-1.984 1.332c-.745.311-1.526.465-2.344.465-.828 0-1.62-.161-2.375-.484-.756-.322-1.408-.759-1.957-1.309-.55-.549-.986-1.201-1.309-1.957-.323-.755-.484-1.547-.484-2.375s.161-1.619.484-2.375c.322-.755.759-1.407 1.309-1.957.549-.549 1.201-.986 1.957-1.309zm4.262 10.191c.602-.247 1.134-.603 1.598-1.066.463-.463.818-.996 1.066-1.598.247-.602.371-1.23.371-1.887 0-.891-.221-1.713-.66-2.469-.44-.755-1.038-1.353-1.793-1.793-.756-.439-1.578-.66-2.469-.66s-1.714.221-2.469.66c-.756.44-1.354 1.038-1.793 1.793-.44.756-.66 1.578-.66 2.469s.22 1.714.66 2.469c.439.756 1.037 1.354 1.793 1.793.755.44 1.578.66 2.469.66.656.001 1.285-.123 1.887-.371zm-1.262-8.175v3.391l2.578 1.578-.656 1.062-3.172-1.938v-4.093h1.25zm10.008 10.5h-1.25l.109-1.281c.135-1.281.751-2.263 1.848-2.945 1.096-.682 2.607-1.023 4.535-1.023 1.927 0 3.438.34 4.535 1.02 1.096.68 1.712 1.66 1.848 2.941l.109 1.289h-1.25l-.109-1.172c-.047-.447-.187-.845-.418-1.191-.232-.346-.515-.621-.848-.824-.334-.203-.726-.369-1.176-.5-.451-.13-.891-.219-1.32-.266s-.887-.07-1.371-.07-.941.023-1.371.07-.87.136-1.32.266c-.451.131-.843.299-1.176.504-.334.206-.616.48-.848.824-.232.344-.371.742-.418 1.195l-.109 1.163zm7.738-7.457c-.67.805-1.502 1.207-2.496 1.207-.995 0-1.827-.402-2.496-1.207-.67-.805-1.004-1.806-1.004-3.004 0-.625.158-1.211.477-1.758.317-.547.746-.98 1.285-1.301s1.118-.48 1.738-.48c.619 0 1.199.16 1.738.48s.967.754 1.285 1.301c.317.547.477 1.133.477 1.758 0 1.198-.335 2.199-1.004 3.004zm-.902-4.633c-.459-.466-.99-.699-1.594-.699-.604 0-1.136.233-1.594.699-.459.467-.688 1.01-.688 1.629 0 .854.217 1.568.652 2.141.435.573.978.859 1.629.859.65 0 1.193-.286 1.629-.859.435-.572.652-1.286.652-2.141.001-.619-.228-1.162-.686-1.629zm18.031-.66c.791 0 1.469.281 2.031.844s.844 1.24.844 2.031v3.25c0 .792-.281 1.469-.844 2.031s-1.24.844-2.031.844h-2.555l-3.008 2.828c-.131.115-.276.172-.438.172-.084 0-.164-.016-.242-.047-.115-.052-.207-.13-.277-.234-.07-.104-.105-.219-.105-.344v-2.375h-.625c-.792 0-1.469-.281-2.031-.844s-.844-1.239-.844-2.031v-3.25c0-.791.281-1.469.844-2.031s1.239-.844 2.031-.844h7.25zm1.625 6.125v-3.25c0-.447-.159-.83-.477-1.148-.318-.317-.701-.477-1.148-.477h-7.25c-.448 0-.831.159-1.148.477-.318.318-.477.701-.477 1.148v3.25c0 .448.158.831.477 1.148.317.318.7.477 1.148.477h1.875v2.234l2.32-2.234h3.055c.447 0 .83-.158 1.148-.477.318-.317.477-.7.477-1.148zm16.367.523l-.133.281c-.026.084-.029.227-.008.43.036.448 0 .859-.109 1.234-.042.151-.104.297-.184.438l-.207.316-.242.285c-.131.141-.229.264-.297.367l-.133.297-.137.332-.195.324c-.092.136-.21.261-.355.375-.146.115-.323.222-.531.32-.495.234-1.1.352-1.812.352h-.078c-1.151 0-2.253-.305-3.305-.914-.412-.244-1.545-.359-3.398-.344h-.242v-1.234h.234c.338-.01.703-.012 1.094-.004s.76.022 1.109.043c.349.021.688.07 1.02.148.33.078.603.18.816.305.849.495 1.744.742 2.688.742.536.016.981-.06 1.336-.227.188-.088.314-.174.383-.258.067-.083.135-.213.203-.391.072-.224.161-.414.266-.57.088-.13.224-.297.406-.5l.129-.148.129-.145.082-.117.066-.145c.062-.203.083-.458.062-.766-.031-.328-.019-.609.039-.844.062-.255.133-.45.211-.586.15-.281.227-.516.227-.703l-.016-.191-.082-.188c-.045-.075-.127-.133-.246-.172-.12-.039-.276-.059-.469-.059h-1.375c-.558 0-1.025-.148-1.402-.445-.378-.297-.588-.68-.629-1.148-.047-.536.102-1.135.445-1.797.188-.338.278-.57.273-.695-.006-.146-.073-.255-.203-.328-.203-.109-.414-.099-.633.031-.1.058-.312.262-.637.613-.326.352-.687.772-1.082 1.262l-.078.094-.422.523-.426.496c-.186.211-.343.375-.473.492l-.484.422c-.193.164-.378.295-.555.391-.178.097-.373.194-.586.293-.214.1-.44.175-.68.227-.24.053-.487.086-.742.102v-1.25c.213-.021.42-.062.621-.125.2-.062.379-.13.535-.203.156-.072.324-.18.504-.32l.449-.367c.119-.104.268-.256.445-.457l.41-.477.434-.527.07-.102c1.016-1.244 1.711-1.971 2.086-2.18.297-.166.606-.252.93-.258.322-.005.627.07.914.227.255.136.455.32.602.555.146.234.227.498.242.789.01.162-.008.331-.055.508-.047.178-.096.32-.145.43l-.215.422c-.225.428-.323.795-.297 1.102.01.156.095.276.254.359.158.084.334.125.527.125h1.375c.641 0 1.145.162 1.512.484.367.323.551.771.551 1.344.002.397-.126.831-.381 1.305zm16-1.797c.255.475.383.909.383 1.305 0 .573-.184 1.021-.551 1.344-.367.323-.871.484-1.512.484h-1.375c-.193 0-.369.042-.527.125-.159.084-.244.203-.254.359-.026.308.072.675.297 1.102l.215.422c.049.109.098.253.145.43.047.178.064.347.055.508-.016.287-.098.549-.246.785-.148.237-.348.424-.598.559-.287.156-.592.232-.914.227-.323-.005-.633-.091-.93-.258-.375-.208-1.07-.935-2.086-2.18l-.07-.102-.434-.527-.41-.477c-.178-.2-.326-.353-.445-.457l-.449-.367s-.348-.247-.504-.32c-.156-.072-.335-.141-.535-.203-.201-.062-.408-.104-.621-.125v-1.25c.255.016.502.05.742.102.239.053.466.128.68.227.213.1.408.197.586.293.177.097.361.227.555.391l.484.422c.13.117.287.281.473.492l.426.496.422.523.078.094c.396.49.756.91 1.082 1.262.325.352.537.557.637.613.219.131.43.141.633.031.13-.072.197-.182.203-.328.005-.109-.086-.341-.273-.695-.344-.661-.492-1.26-.445-1.797.041-.469.251-.852.629-1.148.377-.297.845-.445 1.402-.445h1.375c.192 0 .349-.02.469-.059.119-.039.201-.096.246-.172l.082-.188.016-.191c0-.188-.076-.422-.227-.703-.078-.135-.148-.33-.211-.586-.058-.234-.07-.516-.039-.844.021-.307 0-.562-.062-.766l-.066-.145-.082-.117-.129-.145-.129-.148c-.183-.203-.318-.369-.406-.5-.104-.156-.193-.346-.266-.57l-.113-.27-.156-.184c-.076-.067-.182-.133-.316-.195-.354-.166-.8-.242-1.336-.227-.943 0-1.839.248-2.688.742-.214.125-.486.227-.816.305-.331.078-.671.128-1.02.148-.35.021-.719.035-1.109.043s-.756.007-1.094-.004h-.234v-1.235h.242c1.854.016 2.986-.099 3.398-.344 1.052-.609 2.153-.914 3.305-.914h.078c.713 0 1.317.117 1.812.352.208.1.385.206.531.32.146.115.264.24.355.375l.195.324.137.332c.057.156.102.256.133.297.067.104.166.227.297.367l.242.285.207.316c.08.141.142.287.184.438.109.375.146.787.109 1.234-.021.203-.019.347.008.43.013.059.057.152.13.282zm16.625-1.078c.078 1.339-.44 2.589-1.555 3.75l-1.332 1.383-1.176 1.223-.898.938-.609.637-.219.227-.453.477-.453-.477-.219-.227-.609-.637-.895-.938-1.176-1.223-1.336-1.383c-1.115-1.161-1.633-2.411-1.555-3.75.031-.541.161-1.051.391-1.527.229-.477.531-.865.906-1.168.682-.552 1.466-.828 2.352-.828 1.141 0 2.005.409 2.594 1.227.588-.817 1.453-1.227 2.594-1.227.885 0 1.669.276 2.352.828.375.303.677.691.906 1.168.228.476.359.986.39 1.527zm-2.453 2.883c.869-.9 1.271-1.838 1.203-2.812-.021-.396-.112-.751-.273-1.066-.162-.314-.35-.556-.562-.723-.443-.369-.964-.555-1.562-.555-.396 0-.732.069-1.008.207-.276.139-.479.327-.605.566-.128.24-.211.418-.25.535l-.098.418-.008.031c-.062.328-.264.492-.602.492-.203 0-.358-.049-.465-.148-.107-.099-.168-.216-.184-.352-.125-.859-.531-1.406-1.219-1.641-.225-.072-.475-.109-.75-.109-.6 0-1.12.186-1.562.555-.214.167-.401.408-.562.723-.162.315-.253.671-.273 1.066-.068.975.333 1.912 1.203 2.812 1.974 2.047 3.236 3.359 3.789 3.938.551-.578 1.814-1.89 3.788-3.937zm17.203 6.68l-4.992-3.07-4.992 3.07 1.406-5.656-4.5-3.766 5.875-.422 2.211-5.383 2.211 5.383 5.875.422-4.5 3.766 1.406 5.656zm-4.992-4.539l3.039 1.867-.852-3.445 2.727-2.273-3.562-.258-1.352-3.289-1.352 3.289-3.562.258 2.727 2.273-.852 3.445 3.039-1.867zm12.399-8.297h10.352l-.055.672c-.011.219-.062.895-.156 2.027s-.164 1.848-.211 2.145c-.073.506-.308.932-.703 1.277-.396.347-.889.562-1.477.645-.011 0-2.061.245-6.148.734v-1.258l2.047-.242 2.52-.297c.742-.088 1.215-.148 1.418-.18.307-.036.56-.133.758-.289.197-.156.314-.349.352-.578.057-.369.158-1.505.305-3.406h-8.898v6.492c0 .229.074.413.223.551.148.139.35.207.605.207h8.422v1.25h-8.422c-.594 0-1.089-.191-1.484-.574-.396-.383-.594-.86-.594-1.434v-7.133c0-.229-.093-.43-.277-.602-.186-.172-.4-.258-.645-.258h-2.328v-1.25h2.328c.474 0 .902.141 1.285.422s.642.641.783 1.079zm-.782 10.867c.244-.244.539-.367.883-.367s.638.123.883.367c.244.245.367.539.367.883s-.123.639-.367.883c-.245.245-.539.367-.883.367s-.639-.122-.883-.367c-.245-.244-.367-.539-.367-.883s.122-.638.367-.883zm8 0c.244-.244.539-.367.883-.367s.638.123.883.367c.244.245.367.539.367.883s-.123.639-.367.883c-.245.245-.539.367-.883.367s-.639-.122-.883-.367c-.245-.244-.367-.539-.367-.883s.122-.638.367-.883zm5.633-11.617h13.25v11.75h-13.25v-11.75zm12 1.25h-10.75v2.25h10.75v-2.25zm0 3.5h-10.75v2.25h10.75v-2.25zm-10.75 5.75h10.75v-2.25h-10.75v2.25z"/><path fill="#fff" d="M8.484 20.156l-3.359 3.359 3.359 3.359-.883.883-3.359-3.359-3.359 3.359-.883-.882 3.359-3.359-3.359-3.36.883-.883 3.359 3.359 3.359-3.359.883.883zm10.078 9.016l-.891-.883 4.727-4.727-4.727-4.727.891-.883 5.609 5.609-5.609 5.611zm19.36 0l-5.609-5.609 5.609-5.609.883.883-4.727 4.727 4.727 4.727-.883.881zm14.273-1.477l-5.609-5.609.883-.891 4.727 4.727 4.727-4.727.883.891-5.611 5.609zm20.727-1.445l-4.727-4.727-4.727 4.727-.883-.883 5.609-5.609 5.609 5.609-.881.883zm11.078-9.023l6.539 6.539-6.539 6.539-.891-.883 5.031-5.031h-10.523v-1.25h10.523l-5.031-5.031.891-.883zm22.617 5.914v1.25h-10.523l5.031 5.031-.891.883-6.539-6.539 6.539-6.539.891.883-5.031 5.031h10.523zm15.047-.508l.891.891-6.547 6.539-6.539-6.539.883-.891 5.016 5.016v-10.508h1.25v10.547l5.046-5.055zm16.891 1.125l-.891.891-5.047-5.055v10.547h-1.25v-10.508l-5.016 5.016-.883-.891 6.539-6.539 6.548 6.539zm9.687-6.117c.828 0 1.619.162 2.375.484.755.323 1.407.76 1.957 1.309.549.55.985 1.202 1.309 1.957.322.756.484 1.547.484 2.375 0 .818-.155 1.6-.465 2.344-.311.745-.754 1.406-1.332 1.984s-1.24 1.022-1.984 1.332c-.745.311-1.526.465-2.344.465-.828 0-1.62-.161-2.375-.484-.756-.322-1.408-.759-1.957-1.309-.55-.549-.986-1.201-1.309-1.957-.323-.755-.484-1.547-.484-2.375 0-.817.154-1.599.465-2.344.31-.744.754-1.406 1.332-1.984s1.239-1.021 1.984-1.332c.745-.31 1.526-.465 2.344-.465zm1.891 10.675c.599-.247 1.13-.603 1.594-1.066.463-.463.818-.996 1.066-1.598.247-.602.371-1.23.371-1.887 0-.891-.221-1.713-.66-2.469-.44-.755-1.038-1.353-1.793-1.793-.756-.439-1.578-.66-2.469-.66-.656 0-1.285.124-1.887.371-.602.248-1.135.604-1.598 1.066-.464.464-.819.996-1.066 1.598-.248.602-.371 1.23-.371 1.887 0 .891.22 1.714.66 2.469.439.756 1.037 1.354 1.793 1.793.755.44 1.578.66 2.469.66.661.001 1.291-.123 1.891-.371zm-2.516-6.425v-1.25h1.25v1.25h-1.25zm0 5v-4.25h1.25v4.25h-1.25zm16.625-9.25c.828 0 1.619.162 2.375.484.755.323 1.407.76 1.957 1.309.549.55.985 1.202 1.309 1.957.322.756.484 1.547.484 2.375 0 .818-.155 1.6-.465 2.344-.311.745-.754 1.406-1.332 1.984s-1.24 1.022-1.984 1.332c-.745.311-1.526.465-2.344.465-.828 0-1.62-.161-2.375-.484-.756-.322-1.408-.759-1.957-1.309-.55-.549-.986-1.201-1.309-1.957-.323-.755-.484-1.547-.484-2.375 0-.817.154-1.599.465-2.344.31-.744.754-1.406 1.332-1.984s1.239-1.021 1.984-1.332c.745-.31 1.526-.465 2.344-.465zm1.891 10.675c.599-.247 1.13-.603 1.594-1.066.463-.463.818-.996 1.066-1.598.247-.602.371-1.23.371-1.887 0-.891-.221-1.713-.66-2.469-.44-.755-1.038-1.353-1.793-1.793-.756-.439-1.578-.66-2.469-.66-.656 0-1.285.124-1.887.371-.602.248-1.135.604-1.598 1.066-.464.464-.819.996-1.066 1.598-.248.602-.371 1.23-.371 1.887 0 .891.22 1.714.66 2.469.439.756 1.037 1.354 1.793 1.793.755.44 1.578.66 2.469.66.661.001 1.291-.123 1.891-.371zm-1.766-7.925c.572 0 1.049.167 1.43.5.38.334.57.75.57 1.25 0 .24-.053.463-.156.668-.104.206-.229.381-.375.523l-.438.41c-.146.131-.271.272-.375.426-.104.154-.156.312-.156.473v.25h-1.25v-.406c0-.244.048-.467.145-.668.096-.2.215-.367.355-.5s.282-.255.426-.367c.143-.111.27-.231.379-.359.109-.127.172-.259.188-.395.025-.244-.029-.439-.164-.586-.136-.146-.328-.219-.578-.219-.234 0-.418.1-.551.297-.133.198-.199.433-.199.703h-1.25c0-.609.188-1.095.566-1.457.377-.362.855-.543 1.433-.543zm-.75 6.5v-1.25h1.25v1.25h-1.25zm16.625-10.25l6.898 13.5h-13.797l6.899-13.5zm0 2.75l-4.852 9.5h9.703l-4.851-9.5zm-.625 2.75h1.25v1.5l-.25 2h-.75l-.25-2v-1.5zm0 5.5v-1.25h1.25v1.25h-1.25zm14.25-9.516c.755-.322 1.547-.484 2.375-.484s1.619.162 2.375.484c.755.323 1.407.76 1.957 1.309.549.55.985 1.202 1.309 1.957.322.756.484 1.547.484 2.375 0 .818-.155 1.6-.465 2.344-.311.745-.754 1.406-1.332 1.984s-1.24 1.022-1.984 1.332c-.745.311-1.526.465-2.344.465-.828 0-1.62-.161-2.375-.484-.756-.322-1.408-.759-1.957-1.309-.55-.549-.986-1.201-1.309-1.957-.323-.755-.484-1.547-.484-2.375s.161-1.619.484-2.375c.322-.755.759-1.407 1.309-1.957.549-.549 1.201-.986 1.957-1.309zm4.262 10.191c.602-.247 1.134-.603 1.598-1.066.463-.463.818-.996 1.066-1.598.247-.602.371-1.23.371-1.887 0-.891-.221-1.713-.66-2.469-.44-.755-1.038-1.353-1.793-1.793-.756-.439-1.578-.66-2.469-.66s-1.714.221-2.469.66c-.756.44-1.354 1.038-1.793 1.793-.44.756-.66 1.578-.66 2.469s.22 1.714.66 2.469c.439.756 1.037 1.354 1.793 1.793.755.44 1.578.66 2.469.66.656.001 1.285-.123 1.887-.371zm-1.262-8.175v3.391l2.578 1.578-.656 1.062-3.172-1.938v-4.094h1.25zm10.008 10.5h-1.25l.109-1.281c.135-1.281.751-2.263 1.848-2.945 1.096-.682 2.607-1.023 4.535-1.023 1.927 0 3.438.34 4.535 1.02 1.096.68 1.712 1.66 1.848 2.941l.109 1.289h-1.25l-.109-1.172c-.047-.447-.187-.845-.418-1.191-.232-.346-.515-.621-.848-.824-.334-.203-.726-.369-1.176-.5-.451-.13-.891-.219-1.32-.266s-.887-.07-1.371-.07-.941.023-1.371.07-.87.136-1.32.266c-.451.131-.843.299-1.176.504-.334.206-.616.48-.848.824-.232.344-.371.742-.418 1.195l-.109 1.163zm7.738-7.457c-.67.805-1.502 1.207-2.496 1.207-.995 0-1.827-.402-2.496-1.207-.67-.805-1.004-1.806-1.004-3.004 0-.625.158-1.211.477-1.758.317-.547.746-.98 1.285-1.301s1.118-.48 1.738-.48c.619 0 1.199.16 1.738.48s.967.754 1.285 1.301c.317.547.477 1.133.477 1.758 0 1.198-.335 2.199-1.004 3.004zm-.902-4.633c-.459-.466-.99-.699-1.594-.699-.604 0-1.136.233-1.594.699-.459.467-.688 1.01-.688 1.629 0 .854.217 1.568.652 2.141.435.573.978.859 1.629.859.65 0 1.193-.286 1.629-.859.435-.572.652-1.286.652-2.141.001-.619-.228-1.162-.686-1.629zm18.031-.66c.791 0 1.469.281 2.031.844s.844 1.24.844 2.031v3.25c0 .792-.281 1.469-.844 2.031s-1.24.844-2.031.844h-2.555l-3.008 2.828c-.131.115-.276.172-.438.172-.084 0-.164-.016-.242-.047-.115-.052-.207-.13-.277-.234-.07-.104-.105-.219-.105-.344v-2.375h-.625c-.792 0-1.469-.281-2.031-.844s-.844-1.239-.844-2.031v-3.25c0-.791.281-1.469.844-2.031s1.239-.844 2.031-.844h7.25zm1.625 6.125v-3.25c0-.447-.159-.83-.477-1.148-.318-.317-.701-.477-1.148-.477h-7.25c-.448 0-.831.159-1.148.477-.318.318-.477.701-.477 1.148v3.25c0 .448.158.831.477 1.148.317.318.7.477 1.148.477h1.875v2.234l2.32-2.234h3.055c.447 0 .83-.158 1.148-.477.318-.317.477-.7.477-1.148zm16.367.523l-.133.281c-.026.084-.029.227-.008.43.036.448 0 .859-.109 1.234-.042.151-.104.297-.184.438l-.207.316-.242.285c-.131.141-.229.264-.297.367l-.133.297-.137.332-.195.324c-.092.136-.21.261-.355.375-.146.115-.323.222-.531.32-.495.234-1.1.352-1.812.352h-.078c-1.151 0-2.253-.305-3.305-.914-.412-.244-1.545-.359-3.398-.344h-.242v-1.234h.234c.338-.01.703-.012 1.094-.004s.76.022 1.109.043c.349.021.688.07 1.02.148.33.078.603.18.816.305.849.495 1.744.742 2.688.742.536.016.981-.06 1.336-.227.188-.088.314-.174.383-.258.067-.083.135-.213.203-.391.072-.224.161-.414.266-.57.088-.13.224-.297.406-.5l.129-.148.129-.145.082-.117.066-.145c.062-.203.083-.458.062-.766-.031-.328-.019-.609.039-.844.062-.255.133-.45.211-.586.15-.281.227-.516.227-.703l-.016-.191-.082-.188c-.045-.075-.127-.133-.246-.172-.12-.039-.276-.059-.469-.059h-1.375c-.558 0-1.025-.148-1.402-.445-.378-.297-.588-.68-.629-1.148-.047-.536.102-1.135.445-1.797.188-.338.278-.57.273-.695-.006-.146-.073-.255-.203-.328-.203-.109-.414-.099-.633.031-.1.058-.312.262-.637.613-.326.352-.687.772-1.082 1.262l-.078.094-.422.523-.426.496c-.186.211-.343.375-.473.492l-.484.422c-.193.164-.378.295-.555.391-.178.097-.373.194-.586.293-.214.1-.44.175-.68.227-.24.053-.487.086-.742.102v-1.25c.213-.021.42-.062.621-.125.2-.062.379-.13.535-.203.156-.072.324-.18.504-.32l.449-.367c.119-.104.268-.256.445-.457l.41-.477.434-.527.07-.102c1.016-1.244 1.711-1.971 2.086-2.18.297-.166.606-.252.93-.258.322-.005.627.07.914.227.255.136.455.32.602.555.146.234.227.498.242.789.01.162-.008.331-.055.508-.047.178-.096.32-.145.43l-.215.422c-.225.428-.323.795-.297 1.102.01.156.095.276.254.359.158.084.334.125.527.125h1.375c.641 0 1.145.162 1.512.484.367.323.551.771.551 1.344.002.397-.126.831-.381 1.305zm16-1.797c.255.475.383.909.383 1.305 0 .573-.184 1.021-.551 1.344-.367.323-.871.484-1.512.484h-1.375c-.193 0-.369.042-.527.125-.159.084-.244.203-.254.359-.026.308.072.675.297 1.102l.215.422c.049.109.098.253.145.43.047.178.064.347.055.508-.016.287-.098.549-.246.785-.148.237-.348.424-.598.559-.287.156-.592.232-.914.227-.323-.005-.633-.091-.93-.258-.375-.208-1.07-.935-2.086-2.18l-.07-.102-.434-.527-.41-.477c-.178-.2-.326-.353-.445-.457l-.449-.367s-.348-.247-.504-.32c-.156-.072-.335-.141-.535-.203-.201-.062-.408-.104-.621-.125v-1.25c.255.016.502.05.742.102.239.053.466.128.68.227.213.1.408.197.586.293.177.097.361.227.555.391l.484.422c.13.117.287.281.473.492l.426.496.422.523.078.094c.396.49.756.91 1.082 1.262.325.352.537.557.637.613.219.131.43.141.633.031.13-.072.197-.182.203-.328.005-.109-.086-.341-.273-.695-.344-.661-.492-1.26-.445-1.797.041-.469.251-.852.629-1.148.377-.297.845-.445 1.402-.445h1.375c.192 0 .349-.02.469-.059.119-.039.201-.096.246-.172l.082-.188.016-.191c0-.188-.076-.422-.227-.703-.078-.135-.148-.33-.211-.586-.058-.234-.07-.516-.039-.844.021-.307 0-.562-.062-.766l-.066-.145-.082-.117-.129-.145-.129-.148c-.183-.203-.318-.369-.406-.5-.104-.156-.193-.346-.266-.57l-.113-.27-.156-.184c-.076-.067-.182-.133-.316-.195-.354-.166-.8-.242-1.336-.227-.943 0-1.839.248-2.688.742-.214.125-.486.227-.816.305-.331.078-.671.128-1.02.148-.35.021-.719.035-1.109.043s-.756.007-1.094-.004h-.234v-1.234h.242c1.854.016 2.986-.099 3.398-.344 1.052-.609 2.153-.914 3.305-.914h.078c.713 0 1.317.117 1.812.352.208.1.385.206.531.32.146.115.264.24.355.375l.195.324.137.332c.057.156.102.256.133.297.067.104.166.227.297.367l.242.285.207.316c.08.141.142.287.184.438.109.375.146.787.109 1.234-.021.203-.019.347.008.43l.13.281zm16.625-1.078c.078 1.339-.44 2.589-1.555 3.75l-1.332 1.383-1.176 1.223-.898.938-.609.637-.219.227-.453.477-.453-.477-.219-.227-.609-.637-.895-.938-1.176-1.223-1.336-1.383c-1.115-1.161-1.633-2.411-1.555-3.75.031-.541.161-1.051.391-1.527.229-.477.531-.865.906-1.168.682-.552 1.466-.828 2.352-.828 1.141 0 2.005.409 2.594 1.227.588-.817 1.453-1.227 2.594-1.227.885 0 1.669.276 2.352.828.375.303.677.691.906 1.168.228.476.359.986.39 1.527zm-2.453 2.883c.869-.9 1.271-1.838 1.203-2.812-.021-.396-.112-.751-.273-1.066-.162-.314-.35-.556-.562-.723-.443-.369-.964-.555-1.562-.555-.396 0-.732.069-1.008.207-.276.139-.479.327-.605.566-.128.24-.211.418-.25.535l-.098.418-.008.031c-.062.328-.264.492-.602.492-.203 0-.358-.049-.465-.148-.107-.099-.168-.216-.184-.352-.125-.859-.531-1.406-1.219-1.641-.225-.072-.475-.109-.75-.109-.6 0-1.12.186-1.562.555-.214.167-.401.408-.562.723-.162.315-.253.671-.273 1.066-.068.975.333 1.912 1.203 2.812 1.974 2.047 3.236 3.359 3.789 3.938.551-.578 1.814-1.89 3.788-3.937zm17.203 6.68l-4.992-3.07-4.992 3.07 1.406-5.656-4.5-3.766 5.875-.422 2.211-5.383 2.211 5.383 5.875.422-4.5 3.766 1.406 5.656zm-4.992-4.539l3.039 1.867-.852-3.445 2.727-2.273-3.562-.258-1.352-3.289-1.352 3.289-3.562.258 2.727 2.273-.852 3.445 3.039-1.867zm12.399-8.297h10.352l-.055.672c-.011.219-.062.895-.156 2.027s-.164 1.848-.211 2.145c-.073.506-.308.932-.703 1.277-.396.347-.889.562-1.477.645-.011 0-2.061.245-6.148.734v-1.258l2.047-.242 2.52-.297c.742-.088 1.215-.148 1.418-.18.307-.036.56-.133.758-.289.197-.156.314-.349.352-.578.057-.369.158-1.505.305-3.406h-8.898v6.492c0 .229.074.413.223.551.148.139.35.207.605.207h8.422v1.25h-8.422c-.594 0-1.089-.191-1.484-.574-.396-.383-.594-.86-.594-1.434v-7.133c0-.229-.093-.43-.277-.602-.186-.172-.4-.258-.645-.258h-2.328v-1.25h2.328c.474 0 .902.141 1.285.422s.642.641.783 1.079zm-.782 10.867c.244-.244.539-.367.883-.367s.638.123.883.367c.244.245.367.539.367.883s-.123.639-.367.883c-.245.245-.539.367-.883.367s-.639-.122-.883-.367c-.245-.244-.367-.539-.367-.883s.122-.638.367-.883zm8 0c.244-.244.539-.367.883-.367s.638.123.883.367c.244.245.367.539.367.883s-.123.639-.367.883c-.245.245-.539.367-.883.367s-.639-.122-.883-.367c-.245-.244-.367-.539-.367-.883s.122-.638.367-.883zm5.633-11.617h13.25v11.75h-13.25v-11.75zm12 1.25h-10.75v2.25h10.75v-2.25zm0 3.5h-10.75v2.25h10.75v-2.25zm-10.75 5.75h10.75v-2.25h-10.75v2.25z"/><path fill="#333" d="M8.484 36.156l-3.359 3.359 3.359 3.359-.883.883-3.359-3.359-3.359 3.359-.883-.882 3.359-3.359-3.359-3.36.883-.883 3.359 3.359 3.359-3.359.883.883zm10.078 9.016l-.891-.883 4.727-4.727-4.727-4.727.891-.883 5.609 5.609-5.609 5.611zm19.36 0l-5.609-5.609 5.609-5.609.883.883-4.727 4.727 4.727 4.727-.883.881zm14.273-1.477l-5.609-5.609.883-.891 4.727 4.727 4.727-4.727.883.891-5.611 5.609zm20.727-1.445l-4.727-4.727-4.727 4.727-.883-.883 5.609-5.609 5.609 5.609-.881.883zm11.078-9.023l6.539 6.539-6.539 6.539-.891-.883 5.031-5.031h-10.523v-1.25h10.523l-5.031-5.031.891-.883zm22.617 5.914v1.25h-10.523l5.031 5.031-.891.883-6.539-6.539 6.539-6.539.891.883-5.031 5.031h10.523zm15.047-.508l.891.891-6.547 6.539-6.539-6.539.883-.891 5.016 5.016v-10.508h1.25v10.547l5.046-5.055zm16.891 1.125l-.891.891-5.047-5.055v10.547h-1.25v-10.508l-5.016 5.016-.883-.891 6.539-6.539 6.548 6.539zm9.687-6.117c.828 0 1.619.162 2.375.484.755.323 1.407.76 1.957 1.309.549.55.985 1.202 1.309 1.957.322.756.484 1.547.484 2.375 0 .818-.155 1.6-.465 2.344-.311.745-.754 1.406-1.332 1.984s-1.24 1.022-1.984 1.332c-.745.311-1.526.465-2.344.465-.828 0-1.62-.161-2.375-.484-.756-.322-1.408-.759-1.957-1.309-.55-.549-.986-1.201-1.309-1.957-.323-.755-.484-1.547-.484-2.375 0-.817.154-1.599.465-2.344.31-.744.754-1.406 1.332-1.984s1.239-1.021 1.984-1.332c.745-.31 1.526-.465 2.344-.465zm1.891 10.675c.599-.247 1.13-.603 1.594-1.066.463-.463.818-.996 1.066-1.598.247-.602.371-1.23.371-1.887 0-.891-.221-1.713-.66-2.469-.44-.755-1.038-1.353-1.793-1.793-.756-.439-1.578-.66-2.469-.66-.656 0-1.285.124-1.887.371-.602.248-1.135.604-1.598 1.066-.464.464-.819.996-1.066 1.598-.248.602-.371 1.23-.371 1.887 0 .891.22 1.714.66 2.469.439.756 1.037 1.354 1.793 1.793.755.44 1.578.66 2.469.66.661.001 1.291-.123 1.891-.371zm-2.516-6.425v-1.25h1.25v1.25h-1.25zm0 5v-4.25h1.25v4.25h-1.25zm16.625-9.25c.828 0 1.619.162 2.375.484.755.323 1.407.76 1.957 1.309.549.55.985 1.202 1.309 1.957.322.756.484 1.547.484 2.375 0 .818-.155 1.6-.465 2.344-.311.745-.754 1.406-1.332 1.984s-1.24 1.022-1.984 1.332c-.745.311-1.526.465-2.344.465-.828 0-1.62-.161-2.375-.484-.756-.322-1.408-.759-1.957-1.309-.55-.549-.986-1.201-1.309-1.957-.323-.755-.484-1.547-.484-2.375 0-.817.154-1.599.465-2.344.31-.744.754-1.406 1.332-1.984s1.239-1.021 1.984-1.332c.745-.31 1.526-.465 2.344-.465zm1.891 10.675c.599-.247 1.13-.603 1.594-1.066.463-.463.818-.996 1.066-1.598.247-.602.371-1.23.371-1.887 0-.891-.221-1.713-.66-2.469-.44-.755-1.038-1.353-1.793-1.793-.756-.439-1.578-.66-2.469-.66-.656 0-1.285.124-1.887.371-.602.248-1.135.604-1.598 1.066-.464.464-.819.996-1.066 1.598-.248.602-.371 1.23-.371 1.887 0 .891.22 1.714.66 2.469.439.756 1.037 1.354 1.793 1.793.755.44 1.578.66 2.469.66.661.001 1.291-.123 1.891-.371zm-1.766-7.925c.572 0 1.049.167 1.43.5.38.334.57.75.57 1.25 0 .24-.053.463-.156.668-.104.206-.229.381-.375.523l-.438.41c-.146.131-.271.272-.375.426-.104.154-.156.312-.156.473v.25h-1.25v-.406c0-.244.048-.467.145-.668.096-.2.215-.367.355-.5s.282-.255.426-.367c.143-.111.27-.231.379-.359.109-.127.172-.259.188-.395.025-.244-.029-.439-.164-.586-.136-.146-.328-.219-.578-.219-.234 0-.418.1-.551.297-.133.198-.199.433-.199.703h-1.25c0-.609.188-1.095.566-1.457.377-.362.855-.543 1.433-.543zm-.75 6.5v-1.25h1.25v1.25h-1.25zm16.625-10.25l6.898 13.5h-13.797l6.899-13.5zm0 2.75l-4.852 9.5h9.703l-4.851-9.5zm-.625 2.75h1.25v1.5l-.25 2h-.75l-.25-2v-1.5zm0 5.5v-1.25h1.25v1.25h-1.25zm14.25-9.516c.755-.322 1.547-.484 2.375-.484s1.619.162 2.375.484c.755.323 1.407.76 1.957 1.309.549.55.985 1.202 1.309 1.957.322.756.484 1.547.484 2.375 0 .818-.155 1.6-.465 2.344-.311.745-.754 1.406-1.332 1.984s-1.24 1.022-1.984 1.332c-.745.311-1.526.465-2.344.465-.828 0-1.62-.161-2.375-.484-.756-.322-1.408-.759-1.957-1.309-.55-.549-.986-1.201-1.309-1.957-.323-.755-.484-1.547-.484-2.375s.161-1.619.484-2.375c.322-.755.759-1.407 1.309-1.957.549-.549 1.201-.986 1.957-1.309zm4.262 10.191c.602-.247 1.134-.603 1.598-1.066.463-.463.818-.996 1.066-1.598.247-.602.371-1.23.371-1.887 0-.891-.221-1.713-.66-2.469-.44-.755-1.038-1.353-1.793-1.793-.756-.439-1.578-.66-2.469-.66s-1.714.221-2.469.66c-.756.44-1.354 1.038-1.793 1.793-.44.756-.66 1.578-.66 2.469s.22 1.714.66 2.469c.439.756 1.037 1.354 1.793 1.793.755.44 1.578.66 2.469.66.656.001 1.285-.123 1.887-.371zm-1.262-8.175v3.391l2.578 1.578-.656 1.062-3.172-1.938v-4.094h1.25zm10.008 10.5h-1.25l.109-1.281c.135-1.281.751-2.263 1.848-2.945 1.096-.682 2.607-1.023 4.535-1.023 1.927 0 3.438.34 4.535 1.02 1.096.68 1.712 1.66 1.848 2.941l.109 1.289h-1.25l-.109-1.172c-.047-.447-.187-.845-.418-1.191-.232-.346-.515-.621-.848-.824-.334-.203-.726-.369-1.176-.5-.451-.13-.891-.219-1.32-.266s-.887-.07-1.371-.07-.941.023-1.371.07-.87.136-1.32.266c-.451.131-.843.299-1.176.504-.334.206-.616.48-.848.824-.232.344-.371.742-.418 1.195l-.109 1.163zm7.738-7.457c-.67.805-1.502 1.207-2.496 1.207-.995 0-1.827-.402-2.496-1.207-.67-.805-1.004-1.806-1.004-3.004 0-.625.158-1.211.477-1.758.317-.547.746-.98 1.285-1.301s1.118-.48 1.738-.48c.619 0 1.199.16 1.738.48s.967.754 1.285 1.301c.317.547.477 1.133.477 1.758 0 1.198-.335 2.199-1.004 3.004zm-.902-4.633c-.459-.466-.99-.699-1.594-.699-.604 0-1.136.233-1.594.699-.459.467-.688 1.01-.688 1.629 0 .854.217 1.568.652 2.141.435.573.978.859 1.629.859.65 0 1.193-.286 1.629-.859.435-.572.652-1.286.652-2.141.001-.619-.228-1.162-.686-1.629zm18.031-.66c.791 0 1.469.281 2.031.844s.844 1.24.844 2.031v3.25c0 .792-.281 1.469-.844 2.031s-1.24.844-2.031.844h-2.555l-3.008 2.828c-.131.115-.276.172-.438.172-.084 0-.164-.016-.242-.047-.115-.052-.207-.13-.277-.234-.07-.104-.105-.219-.105-.344v-2.375h-.625c-.792 0-1.469-.281-2.031-.844s-.844-1.239-.844-2.031v-3.25c0-.791.281-1.469.844-2.031s1.239-.844 2.031-.844h7.25zm1.625 6.125v-3.25c0-.447-.159-.83-.477-1.148-.318-.317-.701-.477-1.148-.477h-7.25c-.448 0-.831.159-1.148.477-.318.318-.477.701-.477 1.148v3.25c0 .448.158.831.477 1.148.317.318.7.477 1.148.477h1.875v2.234l2.32-2.234h3.055c.447 0 .83-.158 1.148-.477.318-.317.477-.7.477-1.148zm16.367.523l-.133.281c-.026.084-.029.227-.008.43.036.448 0 .859-.109 1.234-.042.151-.104.297-.184.438l-.207.316-.242.285c-.131.141-.229.264-.297.367l-.133.297-.137.332-.195.324c-.092.136-.21.261-.355.375-.146.115-.323.222-.531.32-.495.234-1.1.352-1.812.352h-.078c-1.151 0-2.253-.305-3.305-.914-.412-.244-1.545-.359-3.398-.344h-.242v-1.234h.234c.338-.01.703-.012 1.094-.004s.76.022 1.109.043c.349.021.688.07 1.02.148.33.078.603.18.816.305.849.495 1.744.742 2.688.742.536.016.981-.06 1.336-.227.188-.088.314-.174.383-.258.067-.083.135-.213.203-.391.072-.224.161-.414.266-.57.088-.13.224-.297.406-.5l.129-.148.129-.145.082-.117.066-.145c.062-.203.083-.458.062-.766-.031-.328-.019-.609.039-.844.062-.255.133-.45.211-.586.15-.281.227-.516.227-.703l-.016-.191-.082-.188c-.045-.075-.127-.133-.246-.172-.12-.039-.276-.059-.469-.059h-1.375c-.558 0-1.025-.148-1.402-.445-.378-.297-.588-.68-.629-1.148-.047-.536.102-1.135.445-1.797.188-.338.278-.57.273-.695-.006-.146-.073-.255-.203-.328-.203-.109-.414-.099-.633.031-.1.058-.312.262-.637.613-.326.352-.687.772-1.082 1.262l-.078.094-.422.523-.426.496c-.186.211-.343.375-.473.492l-.484.422c-.193.164-.378.295-.555.391-.178.097-.373.194-.586.293-.214.1-.44.175-.68.227-.24.053-.487.086-.742.102v-1.25c.213-.021.42-.062.621-.125.2-.062.379-.13.535-.203.156-.072.324-.18.504-.32l.449-.367c.119-.104.268-.256.445-.457l.41-.477.434-.527.07-.102c1.016-1.244 1.711-1.971 2.086-2.18.297-.166.606-.252.93-.258.322-.005.627.07.914.227.255.136.455.32.602.555.146.234.227.498.242.789.01.162-.008.331-.055.508-.047.178-.096.32-.145.43l-.215.422c-.225.428-.323.795-.297 1.102.01.156.095.276.254.359.158.084.334.125.527.125h1.375c.641 0 1.145.162 1.512.484.367.323.551.771.551 1.344.002.397-.126.831-.381 1.305zm16-1.797c.255.475.383.909.383 1.305 0 .573-.184 1.021-.551 1.344-.367.323-.871.484-1.512.484h-1.375c-.193 0-.369.042-.527.125-.159.084-.244.203-.254.359-.026.308.072.675.297 1.102l.215.422c.049.109.098.253.145.43.047.178.064.347.055.508-.016.287-.098.549-.246.785-.148.237-.348.424-.598.559-.287.156-.592.232-.914.227-.323-.005-.633-.091-.93-.258-.375-.208-1.07-.935-2.086-2.18l-.07-.102-.434-.527-.41-.477c-.178-.2-.326-.353-.445-.457l-.449-.367s-.348-.247-.504-.32c-.156-.072-.335-.141-.535-.203-.201-.062-.408-.104-.621-.125v-1.25c.255.016.502.05.742.102.239.053.466.128.68.227.213.1.408.197.586.293.177.097.361.227.555.391l.484.422c.13.117.287.281.473.492l.426.496.422.523.078.094c.396.49.756.91 1.082 1.262.325.352.537.557.637.613.219.131.43.141.633.031.13-.072.197-.182.203-.328.005-.109-.086-.341-.273-.695-.344-.661-.492-1.26-.445-1.797.041-.469.251-.852.629-1.148.377-.297.845-.445 1.402-.445h1.375c.192 0 .349-.02.469-.059.119-.039.201-.096.246-.172l.082-.188.016-.191c0-.188-.076-.422-.227-.703-.078-.135-.148-.33-.211-.586-.058-.234-.07-.516-.039-.844.021-.307 0-.562-.062-.766l-.066-.145-.082-.117-.129-.145-.129-.148c-.183-.203-.318-.369-.406-.5-.104-.156-.193-.346-.266-.57l-.113-.27-.156-.184c-.076-.067-.182-.133-.316-.195-.354-.166-.8-.242-1.336-.227-.943 0-1.839.248-2.688.742-.214.125-.486.227-.816.305-.331.078-.671.128-1.02.148-.35.021-.719.035-1.109.043s-.756.007-1.094-.004h-.234v-1.234h.242c1.854.016 2.986-.099 3.398-.344 1.052-.609 2.153-.914 3.305-.914h.078c.713 0 1.317.117 1.812.352.208.1.385.206.531.32.146.115.264.24.355.375l.195.324.137.332c.057.156.102.256.133.297.067.104.166.227.297.367l.242.285.207.316c.08.141.142.287.184.438.109.375.146.787.109 1.234-.021.203-.019.347.008.43l.13.281zm16.625-1.078c.078 1.339-.44 2.589-1.555 3.75l-1.332 1.383-1.176 1.223-.898.938-.609.637-.219.227-.453.477-.453-.477-.219-.227-.609-.637-.895-.938-1.176-1.223-1.336-1.383c-1.115-1.161-1.633-2.411-1.555-3.75.031-.541.161-1.051.391-1.527.229-.477.531-.865.906-1.168.682-.552 1.466-.828 2.352-.828 1.141 0 2.005.409 2.594 1.227.588-.817 1.453-1.227 2.594-1.227.885 0 1.669.276 2.352.828.375.303.677.691.906 1.168.228.476.359.986.39 1.527zm-2.453 2.883c.869-.9 1.271-1.838 1.203-2.812-.021-.396-.112-.751-.273-1.066-.162-.314-.35-.556-.562-.723-.443-.369-.964-.555-1.562-.555-.396 0-.732.069-1.008.207-.276.139-.479.327-.605.566-.128.24-.211.418-.25.535l-.098.418-.008.031c-.062.328-.264.492-.602.492-.203 0-.358-.049-.465-.148-.107-.099-.168-.216-.184-.352-.125-.859-.531-1.406-1.219-1.641-.225-.072-.475-.109-.75-.109-.6 0-1.12.186-1.562.555-.214.167-.401.408-.562.723-.162.315-.253.671-.273 1.066-.068.975.333 1.912 1.203 2.812 1.974 2.047 3.236 3.359 3.789 3.938.551-.578 1.814-1.89 3.788-3.937zm17.203 6.68l-4.992-3.07-4.992 3.07 1.406-5.656-4.5-3.766 5.875-.422 2.211-5.383 2.211 5.383 5.875.422-4.5 3.766 1.406 5.656zm-4.992-4.539l3.039 1.867-.852-3.445 2.727-2.273-3.562-.258-1.352-3.289-1.352 3.289-3.562.258 2.727 2.273-.852 3.445 3.039-1.867zm12.399-8.297h10.352l-.055.672c-.011.219-.062.895-.156 2.027s-.164 1.848-.211 2.145c-.073.506-.308.932-.703 1.277-.396.347-.889.562-1.477.645-.011 0-2.061.245-6.148.734v-1.258l2.047-.242 2.52-.297c.742-.088 1.215-.148 1.418-.18.307-.036.56-.133.758-.289.197-.156.314-.349.352-.578.057-.369.158-1.505.305-3.406h-8.898v6.492c0 .229.074.413.223.551.148.139.35.207.605.207h8.422v1.25h-8.422c-.594 0-1.089-.191-1.484-.574-.396-.383-.594-.86-.594-1.434v-7.133c0-.229-.093-.43-.277-.602-.186-.172-.4-.258-.645-.258h-2.328v-1.25h2.328c.474 0 .902.141 1.285.422s.642.641.783 1.079zm-.782 10.867c.244-.244.539-.367.883-.367s.638.123.883.367c.244.245.367.539.367.883s-.123.639-.367.883c-.245.245-.539.367-.883.367s-.639-.122-.883-.367c-.245-.244-.367-.539-.367-.883s.122-.638.367-.883zm8 0c.244-.244.539-.367.883-.367s.638.123.883.367c.244.245.367.539.367.883s-.123.639-.367.883c-.245.245-.539.367-.883.367s-.639-.122-.883-.367c-.245-.244-.367-.539-.367-.883s.122-.638.367-.883zm5.633-11.617h13.25v11.75h-13.25v-11.75zm12 1.25h-10.75v2.25h10.75v-2.25zm0 3.5h-10.75v2.25h10.75v-2.25zm-10.75 5.75h10.75v-2.25h-10.75v2.25z"/><path fill="#E6E6E6" d="M8.484 52.156l-3.359 3.359 3.359 3.359-.883.883-3.359-3.359-3.359 3.359-.883-.882 3.359-3.359-3.359-3.36.883-.883 3.359 3.359 3.359-3.359.883.883zm10.078 9.016l-.891-.883 4.727-4.727-4.727-4.727.891-.883 5.609 5.609-5.609 5.611zm19.36 0l-5.609-5.609 5.609-5.609.883.883-4.727 4.727 4.727 4.727-.883.881zm14.273-1.477l-5.609-5.609.883-.891 4.727 4.727 4.727-4.727.883.891-5.611 5.609zm20.727-1.445l-4.727-4.727-4.727 4.727-.883-.883 5.609-5.609 5.609 5.609-.881.883zm11.078-9.023l6.539 6.539-6.539 6.539-.891-.883 5.031-5.031h-10.523v-1.25h10.523l-5.031-5.031.891-.883zm22.617 5.914v1.25h-10.523l5.031 5.031-.891.883-6.539-6.539 6.539-6.539.891.883-5.031 5.031h10.523zm15.047-.508l.891.891-6.547 6.539-6.539-6.539.883-.891 5.016 5.016v-10.508h1.25v10.547l5.046-5.055zm16.891 1.125l-.891.891-5.047-5.055v10.547h-1.25v-10.508l-5.016 5.016-.883-.891 6.539-6.539 6.548 6.539zm9.687-6.117c.828 0 1.619.162 2.375.484.755.323 1.407.76 1.957 1.309.549.55.985 1.202 1.309 1.957.322.756.484 1.547.484 2.375 0 .818-.155 1.6-.465 2.344-.311.745-.754 1.406-1.332 1.984s-1.24 1.022-1.984 1.332c-.745.311-1.526.465-2.344.465-.828 0-1.62-.161-2.375-.484-.756-.322-1.408-.759-1.957-1.309-.55-.549-.986-1.201-1.309-1.957-.323-.755-.484-1.547-.484-2.375 0-.817.154-1.599.465-2.344.31-.744.754-1.406 1.332-1.984s1.239-1.021 1.984-1.332c.745-.31 1.526-.465 2.344-.465zm1.891 10.675c.599-.247 1.13-.603 1.594-1.066.463-.463.818-.996 1.066-1.598.247-.602.371-1.23.371-1.887 0-.891-.221-1.713-.66-2.469-.44-.755-1.038-1.353-1.793-1.793-.756-.439-1.578-.66-2.469-.66-.656 0-1.285.124-1.887.371-.602.248-1.135.604-1.598 1.066-.464.464-.819.996-1.066 1.598-.248.602-.371 1.23-.371 1.887 0 .891.22 1.714.66 2.469.439.756 1.037 1.354 1.793 1.793.755.44 1.578.66 2.469.66.661.001 1.291-.123 1.891-.371zm-2.516-6.425v-1.25h1.25v1.25h-1.25zm0 5v-4.25h1.25v4.25h-1.25zm16.625-9.25c.828 0 1.619.162 2.375.484.755.323 1.407.76 1.957 1.309.549.55.985 1.202 1.309 1.957.322.756.484 1.547.484 2.375 0 .818-.155 1.6-.465 2.344-.311.745-.754 1.406-1.332 1.984s-1.24 1.022-1.984 1.332c-.745.311-1.526.465-2.344.465-.828 0-1.62-.161-2.375-.484-.756-.322-1.408-.759-1.957-1.309-.55-.549-.986-1.201-1.309-1.957-.323-.755-.484-1.547-.484-2.375 0-.817.154-1.599.465-2.344.31-.744.754-1.406 1.332-1.984s1.239-1.021 1.984-1.332c.745-.31 1.526-.465 2.344-.465zm1.891 10.675c.599-.247 1.13-.603 1.594-1.066.463-.463.818-.996 1.066-1.598.247-.602.371-1.23.371-1.887 0-.891-.221-1.713-.66-2.469-.44-.755-1.038-1.353-1.793-1.793-.756-.439-1.578-.66-2.469-.66-.656 0-1.285.124-1.887.371-.602.248-1.135.604-1.598 1.066-.464.464-.819.996-1.066 1.598-.248.602-.371 1.23-.371 1.887 0 .891.22 1.714.66 2.469.439.756 1.037 1.354 1.793 1.793.755.44 1.578.66 2.469.66.661.001 1.291-.123 1.891-.371zm-1.766-7.925c.572 0 1.049.167 1.43.5.38.334.57.75.57 1.25 0 .24-.053.463-.156.668-.104.206-.229.381-.375.523l-.438.41c-.146.131-.271.272-.375.426-.104.154-.156.312-.156.473v.25h-1.25v-.406c0-.244.048-.467.145-.668.096-.2.215-.367.355-.5s.282-.255.426-.367c.143-.111.27-.231.379-.359.109-.127.172-.259.188-.395.025-.244-.029-.439-.164-.586-.136-.146-.328-.219-.578-.219-.234 0-.418.1-.551.297-.133.198-.199.433-.199.703h-1.25c0-.609.188-1.095.566-1.457.377-.362.855-.543 1.433-.543zm-.75 6.5v-1.25h1.25v1.25h-1.25zm16.625-10.25l6.898 13.5h-13.797l6.899-13.5zm0 2.75l-4.852 9.5h9.703l-4.851-9.5zm-.625 2.75h1.25v1.5l-.25 2h-.75l-.25-2v-1.5zm0 5.5v-1.25h1.25v1.25h-1.25zm14.25-9.516c.755-.322 1.547-.484 2.375-.484s1.619.162 2.375.484c.755.323 1.407.76 1.957 1.309.549.55.985 1.202 1.309 1.957.322.756.484 1.547.484 2.375 0 .818-.155 1.6-.465 2.344-.311.745-.754 1.406-1.332 1.984s-1.24 1.022-1.984 1.332c-.745.311-1.526.465-2.344.465-.828 0-1.62-.161-2.375-.484-.756-.322-1.408-.759-1.957-1.309-.55-.549-.986-1.201-1.309-1.957-.323-.755-.484-1.547-.484-2.375s.161-1.619.484-2.375c.322-.755.759-1.407 1.309-1.957.549-.549 1.201-.986 1.957-1.309zm4.262 10.191c.602-.247 1.134-.603 1.598-1.066.463-.463.818-.996 1.066-1.598.247-.602.371-1.23.371-1.887 0-.891-.221-1.713-.66-2.469-.44-.755-1.038-1.353-1.793-1.793-.756-.439-1.578-.66-2.469-.66s-1.714.221-2.469.66c-.756.44-1.354 1.038-1.793 1.793-.44.756-.66 1.578-.66 2.469s.22 1.714.66 2.469c.439.756 1.037 1.354 1.793 1.793.755.44 1.578.66 2.469.66.656.001 1.285-.123 1.887-.371zm-1.262-8.175v3.391l2.578 1.578-.656 1.062-3.172-1.938v-4.094h1.25zm10.008 10.5h-1.25l.109-1.281c.135-1.281.751-2.263 1.848-2.945 1.096-.682 2.607-1.023 4.535-1.023 1.927 0 3.438.34 4.535 1.02 1.096.68 1.712 1.66 1.848 2.941l.109 1.289h-1.25l-.109-1.172c-.047-.447-.187-.845-.418-1.191-.232-.346-.515-.621-.848-.824-.334-.203-.726-.369-1.176-.5-.451-.13-.891-.219-1.32-.266s-.887-.07-1.371-.07-.941.023-1.371.07-.87.136-1.32.266c-.451.131-.843.299-1.176.504-.334.206-.616.48-.848.824-.232.344-.371.742-.418 1.195l-.109 1.163zm7.738-7.457c-.67.805-1.502 1.207-2.496 1.207-.995 0-1.827-.402-2.496-1.207-.67-.805-1.004-1.806-1.004-3.004 0-.625.158-1.211.477-1.758.317-.547.746-.98 1.285-1.301s1.118-.48 1.738-.48c.619 0 1.199.16 1.738.48s.967.754 1.285 1.301c.317.547.477 1.133.477 1.758 0 1.198-.335 2.199-1.004 3.004zm-.902-4.633c-.459-.466-.99-.699-1.594-.699-.604 0-1.136.233-1.594.699-.459.467-.688 1.01-.688 1.629 0 .854.217 1.568.652 2.141.435.573.978.859 1.629.859.65 0 1.193-.286 1.629-.859.435-.572.652-1.286.652-2.141.001-.619-.228-1.162-.686-1.629zm18.031-.66c.791 0 1.469.281 2.031.844s.844 1.24.844 2.031v3.25c0 .792-.281 1.469-.844 2.031s-1.24.844-2.031.844h-2.555l-3.008 2.828c-.131.115-.276.172-.438.172-.084 0-.164-.016-.242-.047-.115-.052-.207-.13-.277-.234-.07-.104-.105-.219-.105-.344v-2.375h-.625c-.792 0-1.469-.281-2.031-.844s-.844-1.239-.844-2.031v-3.25c0-.791.281-1.469.844-2.031s1.239-.844 2.031-.844h7.25zm1.625 6.125v-3.25c0-.447-.159-.83-.477-1.148-.318-.317-.701-.477-1.148-.477h-7.25c-.448 0-.831.159-1.148.477-.318.318-.477.701-.477 1.148v3.25c0 .448.158.831.477 1.148.317.318.7.477 1.148.477h1.875v2.234l2.32-2.234h3.055c.447 0 .83-.158 1.148-.477.318-.317.477-.7.477-1.148zm16.367.523l-.133.281c-.026.084-.029.227-.008.43.036.448 0 .859-.109 1.234-.042.151-.104.297-.184.438l-.207.316-.242.285c-.131.141-.229.264-.297.367l-.133.297-.137.332-.195.324c-.092.136-.21.261-.355.375-.146.115-.323.222-.531.32-.495.234-1.1.352-1.812.352h-.078c-1.151 0-2.253-.305-3.305-.914-.412-.244-1.545-.359-3.398-.344h-.242v-1.234h.234c.338-.01.703-.012 1.094-.004s.76.022 1.109.043c.349.021.688.07 1.02.148.33.078.603.18.816.305.849.495 1.744.742 2.688.742.536.016.981-.06 1.336-.227.188-.088.314-.174.383-.258.067-.083.135-.213.203-.391.072-.224.161-.414.266-.57.088-.13.224-.297.406-.5l.129-.148.129-.145.082-.117.066-.145c.062-.203.083-.458.062-.766-.031-.328-.019-.609.039-.844.062-.255.133-.45.211-.586.15-.281.227-.516.227-.703l-.016-.191-.082-.188c-.045-.075-.127-.133-.246-.172-.12-.039-.276-.059-.469-.059h-1.375c-.558 0-1.025-.148-1.402-.445-.378-.297-.588-.68-.629-1.148-.047-.536.102-1.135.445-1.797.188-.338.278-.57.273-.695-.006-.146-.073-.255-.203-.328-.203-.109-.414-.099-.633.031-.1.058-.312.262-.637.613-.326.352-.687.772-1.082 1.262l-.078.094-.422.523-.426.496c-.186.211-.343.375-.473.492l-.484.422c-.193.164-.378.295-.555.391-.178.097-.373.194-.586.293-.214.1-.44.175-.68.227-.24.053-.487.086-.742.102v-1.25c.213-.021.42-.062.621-.125.2-.062.379-.13.535-.203.156-.072.324-.18.504-.32l.449-.367c.119-.104.268-.256.445-.457l.41-.477.434-.527.07-.102c1.016-1.244 1.711-1.971 2.086-2.18.297-.166.606-.252.93-.258.322-.005.627.07.914.227.255.136.455.32.602.555.146.234.227.498.242.789.01.162-.008.331-.055.508-.047.178-.096.32-.145.43l-.215.422c-.225.428-.323.795-.297 1.102.01.156.095.276.254.359.158.084.334.125.527.125h1.375c.641 0 1.145.162 1.512.484.367.323.551.771.551 1.344.002.397-.126.831-.381 1.305zm16-1.797c.255.475.383.909.383 1.305 0 .573-.184 1.021-.551 1.344-.367.323-.871.484-1.512.484h-1.375c-.193 0-.369.042-.527.125-.159.084-.244.203-.254.359-.026.308.072.675.297 1.102l.215.422c.049.109.098.253.145.43.047.178.064.347.055.508-.016.287-.098.549-.246.785-.148.237-.348.424-.598.559-.287.156-.592.232-.914.227-.323-.005-.633-.091-.93-.258-.375-.208-1.07-.935-2.086-2.18l-.07-.102-.434-.527-.41-.477c-.178-.2-.326-.353-.445-.457l-.449-.367s-.348-.247-.504-.32c-.156-.072-.335-.141-.535-.203-.201-.062-.408-.104-.621-.125v-1.25c.255.016.502.05.742.102.239.053.466.128.68.227.213.1.408.197.586.293.177.097.361.227.555.391l.484.422c.13.117.287.281.473.492l.426.496.422.523.078.094c.396.49.756.91 1.082 1.262.325.352.537.557.637.613.219.131.43.141.633.031.13-.072.197-.182.203-.328.005-.109-.086-.341-.273-.695-.344-.661-.492-1.26-.445-1.797.041-.469.251-.852.629-1.148.377-.297.845-.445 1.402-.445h1.375c.192 0 .349-.02.469-.059.119-.039.201-.096.246-.172l.082-.188.016-.191c0-.188-.076-.422-.227-.703-.078-.135-.148-.33-.211-.586-.058-.234-.07-.516-.039-.844.021-.307 0-.562-.062-.766l-.066-.145-.082-.117-.129-.145-.129-.148c-.183-.203-.318-.369-.406-.5-.104-.156-.193-.346-.266-.57l-.113-.27-.156-.184c-.076-.067-.182-.133-.316-.195-.354-.166-.8-.242-1.336-.227-.943 0-1.839.248-2.688.742-.214.125-.486.227-.816.305-.331.078-.671.128-1.02.148-.35.021-.719.035-1.109.043s-.756.007-1.094-.004h-.234v-1.234h.242c1.854.016 2.986-.099 3.398-.344 1.052-.609 2.153-.914 3.305-.914h.078c.713 0 1.317.117 1.812.352.208.1.385.206.531.32.146.115.264.24.355.375l.195.324.137.332c.057.156.102.256.133.297.067.104.166.227.297.367l.242.285.207.316c.08.141.142.287.184.438.109.375.146.787.109 1.234-.021.203-.019.347.008.43l.13.281zm16.625-1.078c.078 1.339-.44 2.589-1.555 3.75l-1.332 1.383-1.176 1.223-.898.938-.609.637-.219.227-.453.477-.453-.477-.219-.227-.609-.637-.895-.938-1.176-1.223-1.336-1.383c-1.115-1.161-1.633-2.411-1.555-3.75.031-.541.161-1.051.391-1.527.229-.477.531-.865.906-1.168.682-.552 1.466-.828 2.352-.828 1.141 0 2.005.409 2.594 1.227.588-.817 1.453-1.227 2.594-1.227.885 0 1.669.276 2.352.828.375.303.677.691.906 1.168.228.476.359.986.39 1.527zm-2.453 2.883c.869-.9 1.271-1.838 1.203-2.812-.021-.396-.112-.751-.273-1.066-.162-.314-.35-.556-.562-.723-.443-.369-.964-.555-1.562-.555-.396 0-.732.069-1.008.207-.276.139-.479.327-.605.566-.128.24-.211.418-.25.535l-.098.418-.008.031c-.062.328-.264.492-.602.492-.203 0-.358-.049-.465-.148-.107-.099-.168-.216-.184-.352-.125-.859-.531-1.406-1.219-1.641-.225-.072-.475-.109-.75-.109-.6 0-1.12.186-1.562.555-.214.167-.401.408-.562.723-.162.315-.253.671-.273 1.066-.068.975.333 1.912 1.203 2.812 1.974 2.047 3.236 3.359 3.789 3.938.551-.578 1.814-1.89 3.788-3.937zm17.203 6.68l-4.992-3.07-4.992 3.07 1.406-5.656-4.5-3.766 5.875-.422 2.211-5.383 2.211 5.383 5.875.422-4.5 3.766 1.406 5.656zm-4.992-4.539l3.039 1.867-.852-3.445 2.727-2.273-3.562-.258-1.352-3.289-1.352 3.289-3.562.258 2.727 2.273-.852 3.445 3.039-1.867zm12.399-8.297h10.352l-.055.672c-.011.219-.062.895-.156 2.027s-.164 1.848-.211 2.145c-.073.506-.308.932-.703 1.277-.396.347-.889.562-1.477.645-.011 0-2.061.245-6.148.734v-1.258l2.047-.242 2.52-.297c.742-.088 1.215-.148 1.418-.18.307-.036.56-.133.758-.289.197-.156.314-.349.352-.578.057-.369.158-1.505.305-3.406h-8.898v6.492c0 .229.074.413.223.551.148.139.35.207.605.207h8.422v1.25h-8.422c-.594 0-1.089-.191-1.484-.574-.396-.383-.594-.86-.594-1.434v-7.133c0-.229-.093-.43-.277-.602-.186-.172-.4-.258-.645-.258h-2.328v-1.25h2.328c.474 0 .902.141 1.285.422s.642.641.783 1.079zm-.782 10.867c.244-.244.539-.367.883-.367s.638.123.883.367c.244.245.367.539.367.883s-.123.639-.367.883c-.245.245-.539.367-.883.367s-.639-.122-.883-.367c-.245-.244-.367-.539-.367-.883s.122-.638.367-.883zm8 0c.244-.244.539-.367.883-.367s.638.123.883.367c.244.245.367.539.367.883s-.123.639-.367.883c-.245.245-.539.367-.883.367s-.639-.122-.883-.367c-.245-.244-.367-.539-.367-.883s.122-.638.367-.883zm5.633-11.617h13.25v11.75h-13.25v-11.75zm12 1.25h-10.75v2.25h10.75v-2.25zm0 3.5h-10.75v2.25h10.75v-2.25zm-10.75 5.75h10.75v-2.25h-10.75v2.25z"/></svg>