<!DOCTYPE svg PUBLIC "-//W3C//DTD SVG 1.1//EN" "http://www.w3.org/Graphics/SVG/1.1/DTD/svg11.dtd" [
	<!ENTITY ns_flows "http://ns.adobe.com/Flows/1.0/">
]><svg xmlns="http://www.w3.org/2000/svg" width="168" height="80" viewBox="0 0 168 80" overflow="visible"><path fill="#fff" d="M126.161 62.532c-3.493 0-7.47 6.421-19.322 6.421-16.639 0-24.194-13.561-24.194-28.383 0-14.827 8.103-29.958 23.342-29.958 11.397 0 15.045 6.704 18.799 6.704 2.599 0 4.805-2.206 4.805-5.415 0-6.135-12.49-11.9-23.539-11.9-17.191-.001-28.62 10.994-33.142 25.611-4.72-15.922-17.709-25.612-35.48-25.612-22.566 0-37.43 15.614-37.43 39.782s14.864 39.782 37.43 39.782c6.57 0 12.481-1.332 17.569-3.806 2.516 2.826 4.115 3.689 6.427 4.112 4.081.747 7.765-1.798 8.551-6.095.438-2.396.043-4.155-2.877-8.022 2.422-3.25 4.324-7.012 5.638-11.224 4.42 14.594 16.038 25.034 33.838 25.034 11.812 0 24.432-5.48 24.432-11.703-.001-2.64-1.703-5.328-4.847-5.328zm-107.554-22.75c0-12.084 5.455-23.742 18.822-23.742 13.368 0 18.822 11.657 18.822 23.742 0 3.525-.469 7.013-1.458 10.187-1.641-1.485-2.982-2.061-4.733-2.38-4.081-.747-7.765 1.798-8.55 6.093-.454 2.484-.018 4.28 3.197 8.445-2.105.894-4.521 1.396-7.278 1.396-13.367 0-18.822-11.656-18.822-23.741zm146.749 34.211l-26.466-70.811c-.729-1.868-1.582-2.865-3.651-2.903-2.07-.039-3.401 1.135-3.433 2.77-.013.762.293 1.858.709 2.957l15.609 41.765h-25.063c-2.507 0-4.141 1.635-4.141 3.596 0 1.962 1.634 3.598 4.141 3.598h27.752l8.167 21.852c.728 1.868 1.581 2.864 3.652 2.903 2.07.039 3.4-1.135 3.432-2.77.014-.763-.293-1.86-.708-2.957z"/></svg>