<!DOCTYPE svg PUBLIC "-//W3C//DTD SVG 1.1//EN" "http://www.w3.org/Graphics/SVG/1.1/DTD/svg11.dtd" [
	<!ENTITY ns_flows "http://ns.adobe.com/Flows/1.0/">
]><svg xmlns="http://www.w3.org/2000/svg" width="832" height="400" viewBox="0 0 832 400" overflow="visible"><path d="M630.806 312.662c-17.468 0-37.349 32.102-96.61 32.102-83.196 0-120.97-67.799-120.97-141.916 0-74.131 40.506-149.791 116.701-149.791 56.992 0 75.226 33.52 93.999 33.52 12.996 0 24.021-11.03 24.021-27.072 0-30.679-62.451-59.503-117.692-59.503-85.947 0-143.098 54.974-165.707 128.06-23.595-79.611-88.542-128.062-177.402-128.062-112.823 0-187.146 78.068-187.146 198.911s74.323 198.908 187.146 198.908c32.853 0 62.408-6.662 87.848-19.027 12.575 14.131 20.579 18.446 32.134 20.563 20.406 3.73 38.824-8.993 42.758-30.476 2.189-11.982.215-20.772-14.387-40.109 12.107-16.251 21.619-35.06 28.187-56.117 22.102 72.966 80.192 125.166 169.19 125.166 59.06 0 122.161-27.401 122.161-58.512-.001-13.205-8.516-26.645-24.231-26.645zm-537.767-113.751c0-60.422 27.272-118.708 94.106-118.708 66.843 0 94.112 58.287 94.112 118.708 0 17.628-2.342 35.063-7.289 50.932-8.199-7.423-14.914-10.302-23.668-11.903-20.403-3.733-38.821 8.993-42.748 30.469-2.273 12.419-.085 21.396 15.99 42.225-10.527 4.467-22.607 6.981-36.397 6.981-66.833 0-94.106-58.28-94.106-118.704zm733.739 171.053l-132.333-354.054c-3.64-9.337-7.904-14.322-18.255-14.516-10.354-.195-17.005 5.674-17.161 13.85-.068 3.81 1.464 9.293 3.54 14.783l78.049 208.826h-125.316c-12.536 0-20.706 8.174-20.706 17.98 0 9.812 8.17 17.986 20.706 17.986h138.758l40.837 109.263c3.64 9.337 7.904 14.321 18.261 14.515 10.351.197 17.005-5.675 17.161-13.846.068-3.815-1.47-9.299-3.541-14.787z"/></svg>